M48
; DRILL file {KiCad 8.0.3} date 2024-07-24T11:50:27-0400
; FORMAT={-:-/ absolute / inch / decimal}
; #@! TF.CreationDate,2024-07-24T11:50:27-04:00
; #@! TF.GenerationSoftware,Kicad,Pcbnew,8.0.3
; #@! TF.FileFunction,Plated,1,2,PTH
FMAT,2
INCH
; #@! TA.AperFunction,Plated,PTH,ViaDrill
T1C0.0118
; #@! TA.AperFunction,Plated,PTH,ComponentDrill
T2C0.0394
; #@! TA.AperFunction,Plated,PTH,ComponentDrill
T3C0.0394
; #@! TA.AperFunction,Plated,PTH,ComponentDrill
T4C0.0402
; #@! TA.AperFunction,Plated,PTH,ComponentDrill
T5C0.0472
; #@! TA.AperFunction,Plated,PTH,ComponentDrill
T6C0.0500
; #@! TA.AperFunction,Plated,PTH,ComponentDrill
T7C0.0512
; #@! TA.AperFunction,Plated,PTH,ComponentDrill
T8C0.0591
%
G90
G05
T1
X7.1563Y-2.2445
X7.1563Y-2.2945
X7.2063Y-2.2181
X7.3813Y-2.3195
X7.6063Y-2.2445
X7.6563Y-2.2945
T2
X6.8372Y-1.8546
X6.8372Y-1.9546
X6.8372Y-2.0546
X6.8372Y-2.1546
T3
X5.4484Y-4.7224
X5.854Y-4.7224
T4
X6.9914Y-1.8318
X6.9914Y-2.5318
X7.0914Y-1.8318
X7.0914Y-2.5318
X7.1914Y-1.8318
X7.1914Y-2.5318
X7.2914Y-1.8318
X7.2914Y-2.5318
X7.3914Y-1.8318
X7.3914Y-2.5318
X7.4914Y-1.8318
X7.4914Y-2.5318
X7.5914Y-1.8318
X7.5914Y-2.5318
X7.6914Y-1.8318
X7.6914Y-2.5318
X7.7914Y-1.8318
X7.7914Y-2.5318
X7.8914Y-1.8318
X7.8914Y-2.5318
X7.9914Y-1.8318
X7.9914Y-2.5318
X8.0914Y-1.8318
X8.0914Y-2.5318
X8.1914Y-1.8318
X8.1914Y-2.5318
X8.2914Y-1.8318
X8.2914Y-2.5318
X8.3914Y-1.8318
X8.3914Y-2.5318
X8.4914Y-1.8318
X8.4914Y-2.5318
X8.5914Y-1.8318
X8.5914Y-2.5318
X8.6914Y-1.8318
X8.6914Y-2.5318
X8.7914Y-1.8318
X8.7914Y-2.5318
X8.8914Y-1.8318
X8.8914Y-2.5318
T5
X5.4484Y-4.5767
X5.4484Y-4.8327
X5.854Y-4.5767
X5.854Y-4.8327
T6
X6.6713Y-3.2106
X6.6713Y-3.9606
X6.6713Y-4.7106
X6.8681Y-3.2933
X6.8681Y-4.0433
X6.8681Y-4.7933
X7.4213Y-3.2106
X7.4213Y-3.9606
X7.4213Y-4.7106
X7.6181Y-3.2933
X7.6181Y-4.0433
X7.6181Y-4.7933
X8.1713Y-3.2106
X8.1713Y-3.9606
X8.1713Y-4.7106
X8.3681Y-3.2933
X8.3681Y-4.0433
X8.3681Y-4.7933
T7
X5.4051Y-2.4409
X5.4051Y-2.6378
X5.8972Y-2.4409
X5.8972Y-2.6378
T2
G00X5.3559Y-3.1398
M15
G01X5.3559Y-3.1594
M16
G05
G00X5.3559Y-3.2382
M15
G01X5.3559Y-3.2579
M16
G05
G00X5.3559Y-3.3366
M15
G01X5.3559Y-3.3563
M16
G05
G00X5.3559Y-3.8878
M15
G01X5.3559Y-3.9075
M16
G05
G00X5.3559Y-3.9862
M15
G01X5.3559Y-4.0059
M16
G05
G00X5.3559Y-4.0846
M15
G01X5.3559Y-4.1043
M16
G05
G00X5.9268Y-3.1398
M15
G01X5.9268Y-3.1594
M16
G05
G00X5.9268Y-3.3366
M15
G01X5.9268Y-3.3563
M16
G05
G00X5.9268Y-3.8878
M15
G01X5.9268Y-3.9075
M16
G05
G00X5.9268Y-4.0846
M15
G01X5.9268Y-4.1043
M16
G05
T8
G00X5.6256Y-3.0276
M15
G01X5.6768Y-3.0276
M16
G05
G00X5.6256Y-3.4685
M15
G01X5.6768Y-3.4685
M16
G05
G00X5.6256Y-3.7756
M15
G01X5.6768Y-3.7756
M16
G05
G00X5.6256Y-4.2165
M15
G01X5.6768Y-4.2165
M16
G05
M30
