M48
; DRILL file {KiCad 8.0.3} date 2024-07-24T11:50:27-0400
; FORMAT={-:-/ absolute / inch / decimal}
; #@! TF.CreationDate,2024-07-24T11:50:27-04:00
; #@! TF.GenerationSoftware,Kicad,Pcbnew,8.0.3
; #@! TF.FileFunction,NonPlated,1,2,NPTH
FMAT,2
INCH
; #@! TA.AperFunction,NonPlated,NPTH,ComponentDrill
T1C0.0390
; #@! TA.AperFunction,NonPlated,NPTH,ComponentDrill
T2C0.0670
; #@! TA.AperFunction,NonPlated,NPTH,ComponentDrill
T3C0.1350
%
G90
G05
T1
X7.0736Y-2.8957
X7.0736Y-3.6457
X7.0736Y-4.3957
X7.8236Y-2.8957
X7.8236Y-3.6457
X7.8236Y-4.3957
X8.5736Y-2.8957
X8.5736Y-3.6457
X8.5736Y-4.3957
T2
X6.6516Y-3.061
X6.6516Y-3.811
X6.6516Y-4.561
X7.0846Y-3.061
X7.0846Y-3.811
X7.0846Y-4.561
X7.4016Y-3.061
X7.4016Y-3.811
X7.4016Y-4.561
X7.8346Y-3.061
X7.8346Y-3.811
X7.8346Y-4.561
X8.1516Y-3.061
X8.1516Y-3.811
X8.1516Y-4.561
X8.5846Y-3.061
X8.5846Y-3.811
X8.5846Y-4.561
T3
X6.8681Y-3.061
X6.8681Y-3.811
X6.8681Y-4.561
X7.6181Y-3.061
X7.6181Y-3.811
X7.6181Y-4.561
X8.3681Y-3.061
X8.3681Y-3.811
X8.3681Y-4.561
M30
