%TF.GenerationSoftware,KiCad,Pcbnew,8.0.3*%
%TF.CreationDate,2024-07-24T11:50:29-04:00*%
%TF.ProjectId,macropad,6d616372-6f70-4616-942e-6b696361645f,1.0*%
%TF.SameCoordinates,Original*%
%TF.FileFunction,Drillmap*%
%TF.FilePolarity,Positive*%
%FSLAX45Y45*%
G04 Gerber Fmt 4.5, Leading zero omitted, Abs format (unit mm)*
G04 Created by KiCad (PCBNEW 8.0.3) date 2024-07-24 11:50:29*
%MOMM*%
%LPD*%
G01*
G04 APERTURE LIST*
%ADD10C,0.050000*%
%ADD11C,0.200000*%
%ADD12C,0.100000*%
%ADD13C,0.170180*%
%ADD14C,0.342900*%
G04 APERTURE END LIST*
D10*
X22629000Y-12825000D02*
G75*
G02*
X22229000Y-12825000I-200000J0D01*
G01*
X22229000Y-12825000D02*
G75*
G02*
X22629000Y-12825000I200000J0D01*
G01*
X13279000Y-12825000D02*
G75*
G02*
X12879000Y-12825000I-200000J0D01*
G01*
X12879000Y-12825000D02*
G75*
G02*
X13279000Y-12825000I200000J0D01*
G01*
X13279000Y-4475000D02*
G75*
G02*
X12879000Y-4475000I-200000J0D01*
G01*
X12879000Y-4475000D02*
G75*
G02*
X13279000Y-4475000I200000J0D01*
G01*
X22854000Y-13000000D02*
G75*
G02*
X22604000Y-13250000I-250000J0D01*
G01*
X22604000Y-4050000D02*
G75*
G02*
X22854000Y-4300000I0J-250000D01*
G01*
X12904000Y-13250000D02*
G75*
G02*
X12654000Y-13000000I0J250000D01*
G01*
X12654000Y-4300000D02*
G75*
G02*
X12904000Y-4050000I250000J0D01*
G01*
X22854000Y-4300000D02*
X22854000Y-13000000D01*
X22604000Y-13250000D02*
X12904000Y-13250000D01*
X12904000Y-4050000D02*
X22604000Y-4050000D01*
X12654000Y-13000000D02*
X12654000Y-4300000D01*
D11*
D12*
X17917470Y-7305470D02*
X18016530Y-7404530D01*
X18016530Y-7305470D02*
X17917470Y-7404530D01*
X17917470Y-9210470D02*
X18016530Y-9309530D01*
X18016530Y-9210470D02*
X17917470Y-9309530D01*
X17917470Y-11115470D02*
X18016530Y-11214530D01*
X18016530Y-11115470D02*
X17917470Y-11214530D01*
X19822470Y-7305470D02*
X19921530Y-7404530D01*
X19921530Y-7305470D02*
X19822470Y-7404530D01*
X19822470Y-9210470D02*
X19921530Y-9309530D01*
X19921530Y-9210470D02*
X19822470Y-9309530D01*
X19822470Y-11115470D02*
X19921530Y-11214530D01*
X19921530Y-11115470D02*
X19822470Y-11214530D01*
X21727470Y-7305470D02*
X21826530Y-7404530D01*
X21826530Y-7305470D02*
X21727470Y-7404530D01*
X21727470Y-9210470D02*
X21826530Y-9309530D01*
X21826530Y-9210470D02*
X21727470Y-9309530D01*
X21727470Y-11115470D02*
X21826530Y-11214530D01*
X21826530Y-11115470D02*
X21727470Y-11214530D01*
D13*
X16980090Y-7775000D02*
G75*
G02*
X16809910Y-7775000I-85090J0D01*
G01*
X16809910Y-7775000D02*
G75*
G02*
X16980090Y-7775000I85090J0D01*
G01*
X16980090Y-9680000D02*
G75*
G02*
X16809910Y-9680000I-85090J0D01*
G01*
X16809910Y-9680000D02*
G75*
G02*
X16980090Y-9680000I85090J0D01*
G01*
X16980090Y-11585000D02*
G75*
G02*
X16809910Y-11585000I-85090J0D01*
G01*
X16809910Y-11585000D02*
G75*
G02*
X16980090Y-11585000I85090J0D01*
G01*
X18080090Y-7775000D02*
G75*
G02*
X17909910Y-7775000I-85090J0D01*
G01*
X17909910Y-7775000D02*
G75*
G02*
X18080090Y-7775000I85090J0D01*
G01*
X18080090Y-9680000D02*
G75*
G02*
X17909910Y-9680000I-85090J0D01*
G01*
X17909910Y-9680000D02*
G75*
G02*
X18080090Y-9680000I85090J0D01*
G01*
X18080090Y-11585000D02*
G75*
G02*
X17909910Y-11585000I-85090J0D01*
G01*
X17909910Y-11585000D02*
G75*
G02*
X18080090Y-11585000I85090J0D01*
G01*
X18885090Y-7775000D02*
G75*
G02*
X18714910Y-7775000I-85090J0D01*
G01*
X18714910Y-7775000D02*
G75*
G02*
X18885090Y-7775000I85090J0D01*
G01*
X18885090Y-9680000D02*
G75*
G02*
X18714910Y-9680000I-85090J0D01*
G01*
X18714910Y-9680000D02*
G75*
G02*
X18885090Y-9680000I85090J0D01*
G01*
X18885090Y-11585000D02*
G75*
G02*
X18714910Y-11585000I-85090J0D01*
G01*
X18714910Y-11585000D02*
G75*
G02*
X18885090Y-11585000I85090J0D01*
G01*
X19985090Y-7775000D02*
G75*
G02*
X19814910Y-7775000I-85090J0D01*
G01*
X19814910Y-7775000D02*
G75*
G02*
X19985090Y-7775000I85090J0D01*
G01*
X19985090Y-9680000D02*
G75*
G02*
X19814910Y-9680000I-85090J0D01*
G01*
X19814910Y-9680000D02*
G75*
G02*
X19985090Y-9680000I85090J0D01*
G01*
X19985090Y-11585000D02*
G75*
G02*
X19814910Y-11585000I-85090J0D01*
G01*
X19814910Y-11585000D02*
G75*
G02*
X19985090Y-11585000I85090J0D01*
G01*
X20790090Y-7775000D02*
G75*
G02*
X20619910Y-7775000I-85090J0D01*
G01*
X20619910Y-7775000D02*
G75*
G02*
X20790090Y-7775000I85090J0D01*
G01*
X20790090Y-9680000D02*
G75*
G02*
X20619910Y-9680000I-85090J0D01*
G01*
X20619910Y-9680000D02*
G75*
G02*
X20790090Y-9680000I85090J0D01*
G01*
X20790090Y-11585000D02*
G75*
G02*
X20619910Y-11585000I-85090J0D01*
G01*
X20619910Y-11585000D02*
G75*
G02*
X20790090Y-11585000I85090J0D01*
G01*
X21890090Y-7775000D02*
G75*
G02*
X21719910Y-7775000I-85090J0D01*
G01*
X21719910Y-7775000D02*
G75*
G02*
X21890090Y-7775000I85090J0D01*
G01*
X21890090Y-9680000D02*
G75*
G02*
X21719910Y-9680000I-85090J0D01*
G01*
X21719910Y-9680000D02*
G75*
G02*
X21890090Y-9680000I85090J0D01*
G01*
X21890090Y-11585000D02*
G75*
G02*
X21719910Y-11585000I-85090J0D01*
G01*
X21719910Y-11585000D02*
G75*
G02*
X21890090Y-11585000I85090J0D01*
G01*
D14*
X17445000Y-7603550D02*
X17445000Y-7946450D01*
X17273550Y-7775000D02*
X17616450Y-7775000D01*
X17445000Y-9508550D02*
X17445000Y-9851450D01*
X17273550Y-9680000D02*
X17616450Y-9680000D01*
X17445000Y-11413550D02*
X17445000Y-11756450D01*
X17273550Y-11585000D02*
X17616450Y-11585000D01*
X19350000Y-7603550D02*
X19350000Y-7946450D01*
X19178550Y-7775000D02*
X19521450Y-7775000D01*
X19350000Y-9508550D02*
X19350000Y-9851450D01*
X19178550Y-9680000D02*
X19521450Y-9680000D01*
X19350000Y-11413550D02*
X19350000Y-11756450D01*
X19178550Y-11585000D02*
X19521450Y-11585000D01*
X21255000Y-7603550D02*
X21255000Y-7946450D01*
X21083550Y-7775000D02*
X21426450Y-7775000D01*
X21255000Y-9508550D02*
X21255000Y-9851450D01*
X21083550Y-9680000D02*
X21426450Y-9680000D01*
X21255000Y-11413550D02*
X21255000Y-11756450D01*
X21083550Y-11585000D02*
X21426450Y-11585000D01*
D11*
X12912277Y-13563984D02*
X12912277Y-13363984D01*
X12912277Y-13363984D02*
X12959896Y-13363984D01*
X12959896Y-13363984D02*
X12988467Y-13373508D01*
X12988467Y-13373508D02*
X13007515Y-13392555D01*
X13007515Y-13392555D02*
X13017039Y-13411603D01*
X13017039Y-13411603D02*
X13026562Y-13449698D01*
X13026562Y-13449698D02*
X13026562Y-13478269D01*
X13026562Y-13478269D02*
X13017039Y-13516365D01*
X13017039Y-13516365D02*
X13007515Y-13535412D01*
X13007515Y-13535412D02*
X12988467Y-13554460D01*
X12988467Y-13554460D02*
X12959896Y-13563984D01*
X12959896Y-13563984D02*
X12912277Y-13563984D01*
X13112277Y-13563984D02*
X13112277Y-13430650D01*
X13112277Y-13468746D02*
X13121801Y-13449698D01*
X13121801Y-13449698D02*
X13131324Y-13440174D01*
X13131324Y-13440174D02*
X13150372Y-13430650D01*
X13150372Y-13430650D02*
X13169420Y-13430650D01*
X13236086Y-13563984D02*
X13236086Y-13430650D01*
X13236086Y-13363984D02*
X13226562Y-13373508D01*
X13226562Y-13373508D02*
X13236086Y-13383031D01*
X13236086Y-13383031D02*
X13245610Y-13373508D01*
X13245610Y-13373508D02*
X13236086Y-13363984D01*
X13236086Y-13363984D02*
X13236086Y-13383031D01*
X13359896Y-13563984D02*
X13340848Y-13554460D01*
X13340848Y-13554460D02*
X13331324Y-13535412D01*
X13331324Y-13535412D02*
X13331324Y-13363984D01*
X13464658Y-13563984D02*
X13445610Y-13554460D01*
X13445610Y-13554460D02*
X13436086Y-13535412D01*
X13436086Y-13535412D02*
X13436086Y-13363984D01*
X13693229Y-13563984D02*
X13693229Y-13363984D01*
X13693229Y-13363984D02*
X13759896Y-13506841D01*
X13759896Y-13506841D02*
X13826562Y-13363984D01*
X13826562Y-13363984D02*
X13826562Y-13563984D01*
X14007515Y-13563984D02*
X14007515Y-13459222D01*
X14007515Y-13459222D02*
X13997991Y-13440174D01*
X13997991Y-13440174D02*
X13978943Y-13430650D01*
X13978943Y-13430650D02*
X13940848Y-13430650D01*
X13940848Y-13430650D02*
X13921801Y-13440174D01*
X14007515Y-13554460D02*
X13988467Y-13563984D01*
X13988467Y-13563984D02*
X13940848Y-13563984D01*
X13940848Y-13563984D02*
X13921801Y-13554460D01*
X13921801Y-13554460D02*
X13912277Y-13535412D01*
X13912277Y-13535412D02*
X13912277Y-13516365D01*
X13912277Y-13516365D02*
X13921801Y-13497317D01*
X13921801Y-13497317D02*
X13940848Y-13487793D01*
X13940848Y-13487793D02*
X13988467Y-13487793D01*
X13988467Y-13487793D02*
X14007515Y-13478269D01*
X14102753Y-13430650D02*
X14102753Y-13630650D01*
X14102753Y-13440174D02*
X14121801Y-13430650D01*
X14121801Y-13430650D02*
X14159896Y-13430650D01*
X14159896Y-13430650D02*
X14178943Y-13440174D01*
X14178943Y-13440174D02*
X14188467Y-13449698D01*
X14188467Y-13449698D02*
X14197991Y-13468746D01*
X14197991Y-13468746D02*
X14197991Y-13525888D01*
X14197991Y-13525888D02*
X14188467Y-13544936D01*
X14188467Y-13544936D02*
X14178943Y-13554460D01*
X14178943Y-13554460D02*
X14159896Y-13563984D01*
X14159896Y-13563984D02*
X14121801Y-13563984D01*
X14121801Y-13563984D02*
X14102753Y-13554460D01*
X14283705Y-13544936D02*
X14293229Y-13554460D01*
X14293229Y-13554460D02*
X14283705Y-13563984D01*
X14283705Y-13563984D02*
X14274182Y-13554460D01*
X14274182Y-13554460D02*
X14283705Y-13544936D01*
X14283705Y-13544936D02*
X14283705Y-13563984D01*
X14283705Y-13440174D02*
X14293229Y-13449698D01*
X14293229Y-13449698D02*
X14283705Y-13459222D01*
X14283705Y-13459222D02*
X14274182Y-13449698D01*
X14274182Y-13449698D02*
X14283705Y-13440174D01*
X14283705Y-13440174D02*
X14283705Y-13459222D01*
D12*
X12552440Y-13842970D02*
X12651500Y-13942030D01*
X12651500Y-13842970D02*
X12552440Y-13942030D01*
D11*
X12950372Y-13783984D02*
X12969420Y-13783984D01*
X12969420Y-13783984D02*
X12988467Y-13793508D01*
X12988467Y-13793508D02*
X12997991Y-13803031D01*
X12997991Y-13803031D02*
X13007515Y-13822079D01*
X13007515Y-13822079D02*
X13017039Y-13860174D01*
X13017039Y-13860174D02*
X13017039Y-13907793D01*
X13017039Y-13907793D02*
X13007515Y-13945888D01*
X13007515Y-13945888D02*
X12997991Y-13964936D01*
X12997991Y-13964936D02*
X12988467Y-13974460D01*
X12988467Y-13974460D02*
X12969420Y-13983984D01*
X12969420Y-13983984D02*
X12950372Y-13983984D01*
X12950372Y-13983984D02*
X12931324Y-13974460D01*
X12931324Y-13974460D02*
X12921801Y-13964936D01*
X12921801Y-13964936D02*
X12912277Y-13945888D01*
X12912277Y-13945888D02*
X12902753Y-13907793D01*
X12902753Y-13907793D02*
X12902753Y-13860174D01*
X12902753Y-13860174D02*
X12912277Y-13822079D01*
X12912277Y-13822079D02*
X12921801Y-13803031D01*
X12921801Y-13803031D02*
X12931324Y-13793508D01*
X12931324Y-13793508D02*
X12950372Y-13783984D01*
X13102753Y-13964936D02*
X13112277Y-13974460D01*
X13112277Y-13974460D02*
X13102753Y-13983984D01*
X13102753Y-13983984D02*
X13093229Y-13974460D01*
X13093229Y-13974460D02*
X13102753Y-13964936D01*
X13102753Y-13964936D02*
X13102753Y-13983984D01*
X13207515Y-13983984D02*
X13245610Y-13983984D01*
X13245610Y-13983984D02*
X13264658Y-13974460D01*
X13264658Y-13974460D02*
X13274182Y-13964936D01*
X13274182Y-13964936D02*
X13293229Y-13936365D01*
X13293229Y-13936365D02*
X13302753Y-13898269D01*
X13302753Y-13898269D02*
X13302753Y-13822079D01*
X13302753Y-13822079D02*
X13293229Y-13803031D01*
X13293229Y-13803031D02*
X13283705Y-13793508D01*
X13283705Y-13793508D02*
X13264658Y-13783984D01*
X13264658Y-13783984D02*
X13226562Y-13783984D01*
X13226562Y-13783984D02*
X13207515Y-13793508D01*
X13207515Y-13793508D02*
X13197991Y-13803031D01*
X13197991Y-13803031D02*
X13188467Y-13822079D01*
X13188467Y-13822079D02*
X13188467Y-13869698D01*
X13188467Y-13869698D02*
X13197991Y-13888746D01*
X13197991Y-13888746D02*
X13207515Y-13898269D01*
X13207515Y-13898269D02*
X13226562Y-13907793D01*
X13226562Y-13907793D02*
X13264658Y-13907793D01*
X13264658Y-13907793D02*
X13283705Y-13898269D01*
X13283705Y-13898269D02*
X13293229Y-13888746D01*
X13293229Y-13888746D02*
X13302753Y-13869698D01*
X13397991Y-13983984D02*
X13436086Y-13983984D01*
X13436086Y-13983984D02*
X13455134Y-13974460D01*
X13455134Y-13974460D02*
X13464658Y-13964936D01*
X13464658Y-13964936D02*
X13483705Y-13936365D01*
X13483705Y-13936365D02*
X13493229Y-13898269D01*
X13493229Y-13898269D02*
X13493229Y-13822079D01*
X13493229Y-13822079D02*
X13483705Y-13803031D01*
X13483705Y-13803031D02*
X13474182Y-13793508D01*
X13474182Y-13793508D02*
X13455134Y-13783984D01*
X13455134Y-13783984D02*
X13417039Y-13783984D01*
X13417039Y-13783984D02*
X13397991Y-13793508D01*
X13397991Y-13793508D02*
X13388467Y-13803031D01*
X13388467Y-13803031D02*
X13378943Y-13822079D01*
X13378943Y-13822079D02*
X13378943Y-13869698D01*
X13378943Y-13869698D02*
X13388467Y-13888746D01*
X13388467Y-13888746D02*
X13397991Y-13898269D01*
X13397991Y-13898269D02*
X13417039Y-13907793D01*
X13417039Y-13907793D02*
X13455134Y-13907793D01*
X13455134Y-13907793D02*
X13474182Y-13898269D01*
X13474182Y-13898269D02*
X13483705Y-13888746D01*
X13483705Y-13888746D02*
X13493229Y-13869698D01*
X13683705Y-13983984D02*
X13569420Y-13983984D01*
X13626562Y-13983984D02*
X13626562Y-13783984D01*
X13626562Y-13783984D02*
X13607515Y-13812555D01*
X13607515Y-13812555D02*
X13588467Y-13831603D01*
X13588467Y-13831603D02*
X13569420Y-13841127D01*
X13769420Y-13983984D02*
X13769420Y-13850650D01*
X13769420Y-13869698D02*
X13778943Y-13860174D01*
X13778943Y-13860174D02*
X13797991Y-13850650D01*
X13797991Y-13850650D02*
X13826563Y-13850650D01*
X13826563Y-13850650D02*
X13845610Y-13860174D01*
X13845610Y-13860174D02*
X13855134Y-13879222D01*
X13855134Y-13879222D02*
X13855134Y-13983984D01*
X13855134Y-13879222D02*
X13864658Y-13860174D01*
X13864658Y-13860174D02*
X13883705Y-13850650D01*
X13883705Y-13850650D02*
X13912277Y-13850650D01*
X13912277Y-13850650D02*
X13931324Y-13860174D01*
X13931324Y-13860174D02*
X13940848Y-13879222D01*
X13940848Y-13879222D02*
X13940848Y-13983984D01*
X14036086Y-13983984D02*
X14036086Y-13850650D01*
X14036086Y-13869698D02*
X14045610Y-13860174D01*
X14045610Y-13860174D02*
X14064658Y-13850650D01*
X14064658Y-13850650D02*
X14093229Y-13850650D01*
X14093229Y-13850650D02*
X14112277Y-13860174D01*
X14112277Y-13860174D02*
X14121801Y-13879222D01*
X14121801Y-13879222D02*
X14121801Y-13983984D01*
X14121801Y-13879222D02*
X14131324Y-13860174D01*
X14131324Y-13860174D02*
X14150372Y-13850650D01*
X14150372Y-13850650D02*
X14178943Y-13850650D01*
X14178943Y-13850650D02*
X14197991Y-13860174D01*
X14197991Y-13860174D02*
X14207515Y-13879222D01*
X14207515Y-13879222D02*
X14207515Y-13983984D01*
X14597991Y-13774460D02*
X14426563Y-14031603D01*
X14855134Y-13783984D02*
X14874182Y-13783984D01*
X14874182Y-13783984D02*
X14893229Y-13793508D01*
X14893229Y-13793508D02*
X14902753Y-13803031D01*
X14902753Y-13803031D02*
X14912277Y-13822079D01*
X14912277Y-13822079D02*
X14921801Y-13860174D01*
X14921801Y-13860174D02*
X14921801Y-13907793D01*
X14921801Y-13907793D02*
X14912277Y-13945888D01*
X14912277Y-13945888D02*
X14902753Y-13964936D01*
X14902753Y-13964936D02*
X14893229Y-13974460D01*
X14893229Y-13974460D02*
X14874182Y-13983984D01*
X14874182Y-13983984D02*
X14855134Y-13983984D01*
X14855134Y-13983984D02*
X14836086Y-13974460D01*
X14836086Y-13974460D02*
X14826563Y-13964936D01*
X14826563Y-13964936D02*
X14817039Y-13945888D01*
X14817039Y-13945888D02*
X14807515Y-13907793D01*
X14807515Y-13907793D02*
X14807515Y-13860174D01*
X14807515Y-13860174D02*
X14817039Y-13822079D01*
X14817039Y-13822079D02*
X14826563Y-13803031D01*
X14826563Y-13803031D02*
X14836086Y-13793508D01*
X14836086Y-13793508D02*
X14855134Y-13783984D01*
X15007515Y-13964936D02*
X15017039Y-13974460D01*
X15017039Y-13974460D02*
X15007515Y-13983984D01*
X15007515Y-13983984D02*
X14997991Y-13974460D01*
X14997991Y-13974460D02*
X15007515Y-13964936D01*
X15007515Y-13964936D02*
X15007515Y-13983984D01*
X15140848Y-13783984D02*
X15159896Y-13783984D01*
X15159896Y-13783984D02*
X15178944Y-13793508D01*
X15178944Y-13793508D02*
X15188467Y-13803031D01*
X15188467Y-13803031D02*
X15197991Y-13822079D01*
X15197991Y-13822079D02*
X15207515Y-13860174D01*
X15207515Y-13860174D02*
X15207515Y-13907793D01*
X15207515Y-13907793D02*
X15197991Y-13945888D01*
X15197991Y-13945888D02*
X15188467Y-13964936D01*
X15188467Y-13964936D02*
X15178944Y-13974460D01*
X15178944Y-13974460D02*
X15159896Y-13983984D01*
X15159896Y-13983984D02*
X15140848Y-13983984D01*
X15140848Y-13983984D02*
X15121801Y-13974460D01*
X15121801Y-13974460D02*
X15112277Y-13964936D01*
X15112277Y-13964936D02*
X15102753Y-13945888D01*
X15102753Y-13945888D02*
X15093229Y-13907793D01*
X15093229Y-13907793D02*
X15093229Y-13860174D01*
X15093229Y-13860174D02*
X15102753Y-13822079D01*
X15102753Y-13822079D02*
X15112277Y-13803031D01*
X15112277Y-13803031D02*
X15121801Y-13793508D01*
X15121801Y-13793508D02*
X15140848Y-13783984D01*
X15274182Y-13783984D02*
X15397991Y-13783984D01*
X15397991Y-13783984D02*
X15331325Y-13860174D01*
X15331325Y-13860174D02*
X15359896Y-13860174D01*
X15359896Y-13860174D02*
X15378944Y-13869698D01*
X15378944Y-13869698D02*
X15388467Y-13879222D01*
X15388467Y-13879222D02*
X15397991Y-13898269D01*
X15397991Y-13898269D02*
X15397991Y-13945888D01*
X15397991Y-13945888D02*
X15388467Y-13964936D01*
X15388467Y-13964936D02*
X15378944Y-13974460D01*
X15378944Y-13974460D02*
X15359896Y-13983984D01*
X15359896Y-13983984D02*
X15302753Y-13983984D01*
X15302753Y-13983984D02*
X15283706Y-13974460D01*
X15283706Y-13974460D02*
X15274182Y-13964936D01*
X15493229Y-13983984D02*
X15531325Y-13983984D01*
X15531325Y-13983984D02*
X15550372Y-13974460D01*
X15550372Y-13974460D02*
X15559896Y-13964936D01*
X15559896Y-13964936D02*
X15578944Y-13936365D01*
X15578944Y-13936365D02*
X15588467Y-13898269D01*
X15588467Y-13898269D02*
X15588467Y-13822079D01*
X15588467Y-13822079D02*
X15578944Y-13803031D01*
X15578944Y-13803031D02*
X15569420Y-13793508D01*
X15569420Y-13793508D02*
X15550372Y-13783984D01*
X15550372Y-13783984D02*
X15512277Y-13783984D01*
X15512277Y-13783984D02*
X15493229Y-13793508D01*
X15493229Y-13793508D02*
X15483706Y-13803031D01*
X15483706Y-13803031D02*
X15474182Y-13822079D01*
X15474182Y-13822079D02*
X15474182Y-13869698D01*
X15474182Y-13869698D02*
X15483706Y-13888746D01*
X15483706Y-13888746D02*
X15493229Y-13898269D01*
X15493229Y-13898269D02*
X15512277Y-13907793D01*
X15512277Y-13907793D02*
X15550372Y-13907793D01*
X15550372Y-13907793D02*
X15569420Y-13898269D01*
X15569420Y-13898269D02*
X15578944Y-13888746D01*
X15578944Y-13888746D02*
X15588467Y-13869698D01*
X15712277Y-13783984D02*
X15731325Y-13783984D01*
X15731325Y-13783984D02*
X15750372Y-13793508D01*
X15750372Y-13793508D02*
X15759896Y-13803031D01*
X15759896Y-13803031D02*
X15769420Y-13822079D01*
X15769420Y-13822079D02*
X15778944Y-13860174D01*
X15778944Y-13860174D02*
X15778944Y-13907793D01*
X15778944Y-13907793D02*
X15769420Y-13945888D01*
X15769420Y-13945888D02*
X15759896Y-13964936D01*
X15759896Y-13964936D02*
X15750372Y-13974460D01*
X15750372Y-13974460D02*
X15731325Y-13983984D01*
X15731325Y-13983984D02*
X15712277Y-13983984D01*
X15712277Y-13983984D02*
X15693229Y-13974460D01*
X15693229Y-13974460D02*
X15683706Y-13964936D01*
X15683706Y-13964936D02*
X15674182Y-13945888D01*
X15674182Y-13945888D02*
X15664658Y-13907793D01*
X15664658Y-13907793D02*
X15664658Y-13860174D01*
X15664658Y-13860174D02*
X15674182Y-13822079D01*
X15674182Y-13822079D02*
X15683706Y-13803031D01*
X15683706Y-13803031D02*
X15693229Y-13793508D01*
X15693229Y-13793508D02*
X15712277Y-13783984D01*
X15855134Y-13783984D02*
X15855134Y-13822079D01*
X15931325Y-13783984D02*
X15931325Y-13822079D01*
X16226563Y-14060174D02*
X16217039Y-14050650D01*
X16217039Y-14050650D02*
X16197991Y-14022079D01*
X16197991Y-14022079D02*
X16188468Y-14003031D01*
X16188468Y-14003031D02*
X16178944Y-13974460D01*
X16178944Y-13974460D02*
X16169420Y-13926841D01*
X16169420Y-13926841D02*
X16169420Y-13888746D01*
X16169420Y-13888746D02*
X16178944Y-13841127D01*
X16178944Y-13841127D02*
X16188468Y-13812555D01*
X16188468Y-13812555D02*
X16197991Y-13793508D01*
X16197991Y-13793508D02*
X16217039Y-13764936D01*
X16217039Y-13764936D02*
X16226563Y-13755412D01*
X16312277Y-13983984D02*
X16350372Y-13983984D01*
X16350372Y-13983984D02*
X16369420Y-13974460D01*
X16369420Y-13974460D02*
X16378944Y-13964936D01*
X16378944Y-13964936D02*
X16397991Y-13936365D01*
X16397991Y-13936365D02*
X16407515Y-13898269D01*
X16407515Y-13898269D02*
X16407515Y-13822079D01*
X16407515Y-13822079D02*
X16397991Y-13803031D01*
X16397991Y-13803031D02*
X16388468Y-13793508D01*
X16388468Y-13793508D02*
X16369420Y-13783984D01*
X16369420Y-13783984D02*
X16331325Y-13783984D01*
X16331325Y-13783984D02*
X16312277Y-13793508D01*
X16312277Y-13793508D02*
X16302753Y-13803031D01*
X16302753Y-13803031D02*
X16293229Y-13822079D01*
X16293229Y-13822079D02*
X16293229Y-13869698D01*
X16293229Y-13869698D02*
X16302753Y-13888746D01*
X16302753Y-13888746D02*
X16312277Y-13898269D01*
X16312277Y-13898269D02*
X16331325Y-13907793D01*
X16331325Y-13907793D02*
X16369420Y-13907793D01*
X16369420Y-13907793D02*
X16388468Y-13898269D01*
X16388468Y-13898269D02*
X16397991Y-13888746D01*
X16397991Y-13888746D02*
X16407515Y-13869698D01*
X16645610Y-13983984D02*
X16645610Y-13783984D01*
X16731325Y-13983984D02*
X16731325Y-13879222D01*
X16731325Y-13879222D02*
X16721801Y-13860174D01*
X16721801Y-13860174D02*
X16702753Y-13850650D01*
X16702753Y-13850650D02*
X16674182Y-13850650D01*
X16674182Y-13850650D02*
X16655134Y-13860174D01*
X16655134Y-13860174D02*
X16645610Y-13869698D01*
X16855134Y-13983984D02*
X16836087Y-13974460D01*
X16836087Y-13974460D02*
X16826563Y-13964936D01*
X16826563Y-13964936D02*
X16817039Y-13945888D01*
X16817039Y-13945888D02*
X16817039Y-13888746D01*
X16817039Y-13888746D02*
X16826563Y-13869698D01*
X16826563Y-13869698D02*
X16836087Y-13860174D01*
X16836087Y-13860174D02*
X16855134Y-13850650D01*
X16855134Y-13850650D02*
X16883706Y-13850650D01*
X16883706Y-13850650D02*
X16902753Y-13860174D01*
X16902753Y-13860174D02*
X16912277Y-13869698D01*
X16912277Y-13869698D02*
X16921801Y-13888746D01*
X16921801Y-13888746D02*
X16921801Y-13945888D01*
X16921801Y-13945888D02*
X16912277Y-13964936D01*
X16912277Y-13964936D02*
X16902753Y-13974460D01*
X16902753Y-13974460D02*
X16883706Y-13983984D01*
X16883706Y-13983984D02*
X16855134Y-13983984D01*
X17036087Y-13983984D02*
X17017039Y-13974460D01*
X17017039Y-13974460D02*
X17007515Y-13955412D01*
X17007515Y-13955412D02*
X17007515Y-13783984D01*
X17188468Y-13974460D02*
X17169420Y-13983984D01*
X17169420Y-13983984D02*
X17131325Y-13983984D01*
X17131325Y-13983984D02*
X17112277Y-13974460D01*
X17112277Y-13974460D02*
X17102753Y-13955412D01*
X17102753Y-13955412D02*
X17102753Y-13879222D01*
X17102753Y-13879222D02*
X17112277Y-13860174D01*
X17112277Y-13860174D02*
X17131325Y-13850650D01*
X17131325Y-13850650D02*
X17169420Y-13850650D01*
X17169420Y-13850650D02*
X17188468Y-13860174D01*
X17188468Y-13860174D02*
X17197992Y-13879222D01*
X17197992Y-13879222D02*
X17197992Y-13898269D01*
X17197992Y-13898269D02*
X17102753Y-13917317D01*
X17274182Y-13974460D02*
X17293230Y-13983984D01*
X17293230Y-13983984D02*
X17331325Y-13983984D01*
X17331325Y-13983984D02*
X17350373Y-13974460D01*
X17350373Y-13974460D02*
X17359896Y-13955412D01*
X17359896Y-13955412D02*
X17359896Y-13945888D01*
X17359896Y-13945888D02*
X17350373Y-13926841D01*
X17350373Y-13926841D02*
X17331325Y-13917317D01*
X17331325Y-13917317D02*
X17302753Y-13917317D01*
X17302753Y-13917317D02*
X17283706Y-13907793D01*
X17283706Y-13907793D02*
X17274182Y-13888746D01*
X17274182Y-13888746D02*
X17274182Y-13879222D01*
X17274182Y-13879222D02*
X17283706Y-13860174D01*
X17283706Y-13860174D02*
X17302753Y-13850650D01*
X17302753Y-13850650D02*
X17331325Y-13850650D01*
X17331325Y-13850650D02*
X17350373Y-13860174D01*
X17426563Y-14060174D02*
X17436087Y-14050650D01*
X17436087Y-14050650D02*
X17455134Y-14022079D01*
X17455134Y-14022079D02*
X17464658Y-14003031D01*
X17464658Y-14003031D02*
X17474182Y-13974460D01*
X17474182Y-13974460D02*
X17483706Y-13926841D01*
X17483706Y-13926841D02*
X17483706Y-13888746D01*
X17483706Y-13888746D02*
X17474182Y-13841127D01*
X17474182Y-13841127D02*
X17464658Y-13812555D01*
X17464658Y-13812555D02*
X17455134Y-13793508D01*
X17455134Y-13793508D02*
X17436087Y-13764936D01*
X17436087Y-13764936D02*
X17426563Y-13755412D01*
X17788468Y-14060174D02*
X17778944Y-14050650D01*
X17778944Y-14050650D02*
X17759896Y-14022079D01*
X17759896Y-14022079D02*
X17750373Y-14003031D01*
X17750373Y-14003031D02*
X17740849Y-13974460D01*
X17740849Y-13974460D02*
X17731325Y-13926841D01*
X17731325Y-13926841D02*
X17731325Y-13888746D01*
X17731325Y-13888746D02*
X17740849Y-13841127D01*
X17740849Y-13841127D02*
X17750373Y-13812555D01*
X17750373Y-13812555D02*
X17759896Y-13793508D01*
X17759896Y-13793508D02*
X17778944Y-13764936D01*
X17778944Y-13764936D02*
X17788468Y-13755412D01*
X17864658Y-13850650D02*
X17864658Y-13983984D01*
X17864658Y-13869698D02*
X17874182Y-13860174D01*
X17874182Y-13860174D02*
X17893230Y-13850650D01*
X17893230Y-13850650D02*
X17921801Y-13850650D01*
X17921801Y-13850650D02*
X17940849Y-13860174D01*
X17940849Y-13860174D02*
X17950373Y-13879222D01*
X17950373Y-13879222D02*
X17950373Y-13983984D01*
X18074182Y-13983984D02*
X18055134Y-13974460D01*
X18055134Y-13974460D02*
X18045611Y-13964936D01*
X18045611Y-13964936D02*
X18036087Y-13945888D01*
X18036087Y-13945888D02*
X18036087Y-13888746D01*
X18036087Y-13888746D02*
X18045611Y-13869698D01*
X18045611Y-13869698D02*
X18055134Y-13860174D01*
X18055134Y-13860174D02*
X18074182Y-13850650D01*
X18074182Y-13850650D02*
X18102754Y-13850650D01*
X18102754Y-13850650D02*
X18121801Y-13860174D01*
X18121801Y-13860174D02*
X18131325Y-13869698D01*
X18131325Y-13869698D02*
X18140849Y-13888746D01*
X18140849Y-13888746D02*
X18140849Y-13945888D01*
X18140849Y-13945888D02*
X18131325Y-13964936D01*
X18131325Y-13964936D02*
X18121801Y-13974460D01*
X18121801Y-13974460D02*
X18102754Y-13983984D01*
X18102754Y-13983984D02*
X18074182Y-13983984D01*
X18197992Y-13850650D02*
X18274182Y-13850650D01*
X18226563Y-13783984D02*
X18226563Y-13955412D01*
X18226563Y-13955412D02*
X18236087Y-13974460D01*
X18236087Y-13974460D02*
X18255134Y-13983984D01*
X18255134Y-13983984D02*
X18274182Y-13983984D01*
X18493230Y-13850650D02*
X18493230Y-14050650D01*
X18493230Y-13860174D02*
X18512277Y-13850650D01*
X18512277Y-13850650D02*
X18550373Y-13850650D01*
X18550373Y-13850650D02*
X18569420Y-13860174D01*
X18569420Y-13860174D02*
X18578944Y-13869698D01*
X18578944Y-13869698D02*
X18588468Y-13888746D01*
X18588468Y-13888746D02*
X18588468Y-13945888D01*
X18588468Y-13945888D02*
X18578944Y-13964936D01*
X18578944Y-13964936D02*
X18569420Y-13974460D01*
X18569420Y-13974460D02*
X18550373Y-13983984D01*
X18550373Y-13983984D02*
X18512277Y-13983984D01*
X18512277Y-13983984D02*
X18493230Y-13974460D01*
X18702754Y-13983984D02*
X18683706Y-13974460D01*
X18683706Y-13974460D02*
X18674182Y-13955412D01*
X18674182Y-13955412D02*
X18674182Y-13783984D01*
X18864658Y-13983984D02*
X18864658Y-13879222D01*
X18864658Y-13879222D02*
X18855135Y-13860174D01*
X18855135Y-13860174D02*
X18836087Y-13850650D01*
X18836087Y-13850650D02*
X18797992Y-13850650D01*
X18797992Y-13850650D02*
X18778944Y-13860174D01*
X18864658Y-13974460D02*
X18845611Y-13983984D01*
X18845611Y-13983984D02*
X18797992Y-13983984D01*
X18797992Y-13983984D02*
X18778944Y-13974460D01*
X18778944Y-13974460D02*
X18769420Y-13955412D01*
X18769420Y-13955412D02*
X18769420Y-13936365D01*
X18769420Y-13936365D02*
X18778944Y-13917317D01*
X18778944Y-13917317D02*
X18797992Y-13907793D01*
X18797992Y-13907793D02*
X18845611Y-13907793D01*
X18845611Y-13907793D02*
X18864658Y-13898269D01*
X18931325Y-13850650D02*
X19007515Y-13850650D01*
X18959896Y-13783984D02*
X18959896Y-13955412D01*
X18959896Y-13955412D02*
X18969420Y-13974460D01*
X18969420Y-13974460D02*
X18988468Y-13983984D01*
X18988468Y-13983984D02*
X19007515Y-13983984D01*
X19150373Y-13974460D02*
X19131325Y-13983984D01*
X19131325Y-13983984D02*
X19093230Y-13983984D01*
X19093230Y-13983984D02*
X19074182Y-13974460D01*
X19074182Y-13974460D02*
X19064658Y-13955412D01*
X19064658Y-13955412D02*
X19064658Y-13879222D01*
X19064658Y-13879222D02*
X19074182Y-13860174D01*
X19074182Y-13860174D02*
X19093230Y-13850650D01*
X19093230Y-13850650D02*
X19131325Y-13850650D01*
X19131325Y-13850650D02*
X19150373Y-13860174D01*
X19150373Y-13860174D02*
X19159896Y-13879222D01*
X19159896Y-13879222D02*
X19159896Y-13898269D01*
X19159896Y-13898269D02*
X19064658Y-13917317D01*
X19331325Y-13983984D02*
X19331325Y-13783984D01*
X19331325Y-13974460D02*
X19312277Y-13983984D01*
X19312277Y-13983984D02*
X19274182Y-13983984D01*
X19274182Y-13983984D02*
X19255135Y-13974460D01*
X19255135Y-13974460D02*
X19245611Y-13964936D01*
X19245611Y-13964936D02*
X19236087Y-13945888D01*
X19236087Y-13945888D02*
X19236087Y-13888746D01*
X19236087Y-13888746D02*
X19245611Y-13869698D01*
X19245611Y-13869698D02*
X19255135Y-13860174D01*
X19255135Y-13860174D02*
X19274182Y-13850650D01*
X19274182Y-13850650D02*
X19312277Y-13850650D01*
X19312277Y-13850650D02*
X19331325Y-13860174D01*
X19407516Y-14060174D02*
X19417039Y-14050650D01*
X19417039Y-14050650D02*
X19436087Y-14022079D01*
X19436087Y-14022079D02*
X19445611Y-14003031D01*
X19445611Y-14003031D02*
X19455135Y-13974460D01*
X19455135Y-13974460D02*
X19464658Y-13926841D01*
X19464658Y-13926841D02*
X19464658Y-13888746D01*
X19464658Y-13888746D02*
X19455135Y-13841127D01*
X19455135Y-13841127D02*
X19445611Y-13812555D01*
X19445611Y-13812555D02*
X19436087Y-13793508D01*
X19436087Y-13793508D02*
X19417039Y-13764936D01*
X19417039Y-13764936D02*
X19407516Y-13755412D01*
D13*
X12651500Y-14156500D02*
G75*
G02*
X12481320Y-14156500I-85090J0D01*
G01*
X12481320Y-14156500D02*
G75*
G02*
X12651500Y-14156500I85090J0D01*
G01*
D11*
X13017039Y-14247984D02*
X12902753Y-14247984D01*
X12959896Y-14247984D02*
X12959896Y-14047984D01*
X12959896Y-14047984D02*
X12940848Y-14076555D01*
X12940848Y-14076555D02*
X12921801Y-14095603D01*
X12921801Y-14095603D02*
X12902753Y-14105127D01*
X13102753Y-14228936D02*
X13112277Y-14238460D01*
X13112277Y-14238460D02*
X13102753Y-14247984D01*
X13102753Y-14247984D02*
X13093229Y-14238460D01*
X13093229Y-14238460D02*
X13102753Y-14228936D01*
X13102753Y-14228936D02*
X13102753Y-14247984D01*
X13178943Y-14047984D02*
X13312277Y-14047984D01*
X13312277Y-14047984D02*
X13226562Y-14247984D01*
X13426562Y-14047984D02*
X13445610Y-14047984D01*
X13445610Y-14047984D02*
X13464658Y-14057508D01*
X13464658Y-14057508D02*
X13474182Y-14067031D01*
X13474182Y-14067031D02*
X13483705Y-14086079D01*
X13483705Y-14086079D02*
X13493229Y-14124174D01*
X13493229Y-14124174D02*
X13493229Y-14171793D01*
X13493229Y-14171793D02*
X13483705Y-14209888D01*
X13483705Y-14209888D02*
X13474182Y-14228936D01*
X13474182Y-14228936D02*
X13464658Y-14238460D01*
X13464658Y-14238460D02*
X13445610Y-14247984D01*
X13445610Y-14247984D02*
X13426562Y-14247984D01*
X13426562Y-14247984D02*
X13407515Y-14238460D01*
X13407515Y-14238460D02*
X13397991Y-14228936D01*
X13397991Y-14228936D02*
X13388467Y-14209888D01*
X13388467Y-14209888D02*
X13378943Y-14171793D01*
X13378943Y-14171793D02*
X13378943Y-14124174D01*
X13378943Y-14124174D02*
X13388467Y-14086079D01*
X13388467Y-14086079D02*
X13397991Y-14067031D01*
X13397991Y-14067031D02*
X13407515Y-14057508D01*
X13407515Y-14057508D02*
X13426562Y-14047984D01*
X13569420Y-14067031D02*
X13578943Y-14057508D01*
X13578943Y-14057508D02*
X13597991Y-14047984D01*
X13597991Y-14047984D02*
X13645610Y-14047984D01*
X13645610Y-14047984D02*
X13664658Y-14057508D01*
X13664658Y-14057508D02*
X13674182Y-14067031D01*
X13674182Y-14067031D02*
X13683705Y-14086079D01*
X13683705Y-14086079D02*
X13683705Y-14105127D01*
X13683705Y-14105127D02*
X13674182Y-14133698D01*
X13674182Y-14133698D02*
X13559896Y-14247984D01*
X13559896Y-14247984D02*
X13683705Y-14247984D01*
X13769420Y-14247984D02*
X13769420Y-14114650D01*
X13769420Y-14133698D02*
X13778943Y-14124174D01*
X13778943Y-14124174D02*
X13797991Y-14114650D01*
X13797991Y-14114650D02*
X13826563Y-14114650D01*
X13826563Y-14114650D02*
X13845610Y-14124174D01*
X13845610Y-14124174D02*
X13855134Y-14143222D01*
X13855134Y-14143222D02*
X13855134Y-14247984D01*
X13855134Y-14143222D02*
X13864658Y-14124174D01*
X13864658Y-14124174D02*
X13883705Y-14114650D01*
X13883705Y-14114650D02*
X13912277Y-14114650D01*
X13912277Y-14114650D02*
X13931324Y-14124174D01*
X13931324Y-14124174D02*
X13940848Y-14143222D01*
X13940848Y-14143222D02*
X13940848Y-14247984D01*
X14036086Y-14247984D02*
X14036086Y-14114650D01*
X14036086Y-14133698D02*
X14045610Y-14124174D01*
X14045610Y-14124174D02*
X14064658Y-14114650D01*
X14064658Y-14114650D02*
X14093229Y-14114650D01*
X14093229Y-14114650D02*
X14112277Y-14124174D01*
X14112277Y-14124174D02*
X14121801Y-14143222D01*
X14121801Y-14143222D02*
X14121801Y-14247984D01*
X14121801Y-14143222D02*
X14131324Y-14124174D01*
X14131324Y-14124174D02*
X14150372Y-14114650D01*
X14150372Y-14114650D02*
X14178943Y-14114650D01*
X14178943Y-14114650D02*
X14197991Y-14124174D01*
X14197991Y-14124174D02*
X14207515Y-14143222D01*
X14207515Y-14143222D02*
X14207515Y-14247984D01*
X14597991Y-14038460D02*
X14426563Y-14295603D01*
X14855134Y-14047984D02*
X14874182Y-14047984D01*
X14874182Y-14047984D02*
X14893229Y-14057508D01*
X14893229Y-14057508D02*
X14902753Y-14067031D01*
X14902753Y-14067031D02*
X14912277Y-14086079D01*
X14912277Y-14086079D02*
X14921801Y-14124174D01*
X14921801Y-14124174D02*
X14921801Y-14171793D01*
X14921801Y-14171793D02*
X14912277Y-14209888D01*
X14912277Y-14209888D02*
X14902753Y-14228936D01*
X14902753Y-14228936D02*
X14893229Y-14238460D01*
X14893229Y-14238460D02*
X14874182Y-14247984D01*
X14874182Y-14247984D02*
X14855134Y-14247984D01*
X14855134Y-14247984D02*
X14836086Y-14238460D01*
X14836086Y-14238460D02*
X14826563Y-14228936D01*
X14826563Y-14228936D02*
X14817039Y-14209888D01*
X14817039Y-14209888D02*
X14807515Y-14171793D01*
X14807515Y-14171793D02*
X14807515Y-14124174D01*
X14807515Y-14124174D02*
X14817039Y-14086079D01*
X14817039Y-14086079D02*
X14826563Y-14067031D01*
X14826563Y-14067031D02*
X14836086Y-14057508D01*
X14836086Y-14057508D02*
X14855134Y-14047984D01*
X15007515Y-14228936D02*
X15017039Y-14238460D01*
X15017039Y-14238460D02*
X15007515Y-14247984D01*
X15007515Y-14247984D02*
X14997991Y-14238460D01*
X14997991Y-14238460D02*
X15007515Y-14228936D01*
X15007515Y-14228936D02*
X15007515Y-14247984D01*
X15140848Y-14047984D02*
X15159896Y-14047984D01*
X15159896Y-14047984D02*
X15178944Y-14057508D01*
X15178944Y-14057508D02*
X15188467Y-14067031D01*
X15188467Y-14067031D02*
X15197991Y-14086079D01*
X15197991Y-14086079D02*
X15207515Y-14124174D01*
X15207515Y-14124174D02*
X15207515Y-14171793D01*
X15207515Y-14171793D02*
X15197991Y-14209888D01*
X15197991Y-14209888D02*
X15188467Y-14228936D01*
X15188467Y-14228936D02*
X15178944Y-14238460D01*
X15178944Y-14238460D02*
X15159896Y-14247984D01*
X15159896Y-14247984D02*
X15140848Y-14247984D01*
X15140848Y-14247984D02*
X15121801Y-14238460D01*
X15121801Y-14238460D02*
X15112277Y-14228936D01*
X15112277Y-14228936D02*
X15102753Y-14209888D01*
X15102753Y-14209888D02*
X15093229Y-14171793D01*
X15093229Y-14171793D02*
X15093229Y-14124174D01*
X15093229Y-14124174D02*
X15102753Y-14086079D01*
X15102753Y-14086079D02*
X15112277Y-14067031D01*
X15112277Y-14067031D02*
X15121801Y-14057508D01*
X15121801Y-14057508D02*
X15140848Y-14047984D01*
X15378944Y-14047984D02*
X15340848Y-14047984D01*
X15340848Y-14047984D02*
X15321801Y-14057508D01*
X15321801Y-14057508D02*
X15312277Y-14067031D01*
X15312277Y-14067031D02*
X15293229Y-14095603D01*
X15293229Y-14095603D02*
X15283706Y-14133698D01*
X15283706Y-14133698D02*
X15283706Y-14209888D01*
X15283706Y-14209888D02*
X15293229Y-14228936D01*
X15293229Y-14228936D02*
X15302753Y-14238460D01*
X15302753Y-14238460D02*
X15321801Y-14247984D01*
X15321801Y-14247984D02*
X15359896Y-14247984D01*
X15359896Y-14247984D02*
X15378944Y-14238460D01*
X15378944Y-14238460D02*
X15388467Y-14228936D01*
X15388467Y-14228936D02*
X15397991Y-14209888D01*
X15397991Y-14209888D02*
X15397991Y-14162269D01*
X15397991Y-14162269D02*
X15388467Y-14143222D01*
X15388467Y-14143222D02*
X15378944Y-14133698D01*
X15378944Y-14133698D02*
X15359896Y-14124174D01*
X15359896Y-14124174D02*
X15321801Y-14124174D01*
X15321801Y-14124174D02*
X15302753Y-14133698D01*
X15302753Y-14133698D02*
X15293229Y-14143222D01*
X15293229Y-14143222D02*
X15283706Y-14162269D01*
X15464658Y-14047984D02*
X15597991Y-14047984D01*
X15597991Y-14047984D02*
X15512277Y-14247984D01*
X15712277Y-14047984D02*
X15731325Y-14047984D01*
X15731325Y-14047984D02*
X15750372Y-14057508D01*
X15750372Y-14057508D02*
X15759896Y-14067031D01*
X15759896Y-14067031D02*
X15769420Y-14086079D01*
X15769420Y-14086079D02*
X15778944Y-14124174D01*
X15778944Y-14124174D02*
X15778944Y-14171793D01*
X15778944Y-14171793D02*
X15769420Y-14209888D01*
X15769420Y-14209888D02*
X15759896Y-14228936D01*
X15759896Y-14228936D02*
X15750372Y-14238460D01*
X15750372Y-14238460D02*
X15731325Y-14247984D01*
X15731325Y-14247984D02*
X15712277Y-14247984D01*
X15712277Y-14247984D02*
X15693229Y-14238460D01*
X15693229Y-14238460D02*
X15683706Y-14228936D01*
X15683706Y-14228936D02*
X15674182Y-14209888D01*
X15674182Y-14209888D02*
X15664658Y-14171793D01*
X15664658Y-14171793D02*
X15664658Y-14124174D01*
X15664658Y-14124174D02*
X15674182Y-14086079D01*
X15674182Y-14086079D02*
X15683706Y-14067031D01*
X15683706Y-14067031D02*
X15693229Y-14057508D01*
X15693229Y-14057508D02*
X15712277Y-14047984D01*
X15855134Y-14047984D02*
X15855134Y-14086079D01*
X15931325Y-14047984D02*
X15931325Y-14086079D01*
X16226563Y-14324174D02*
X16217039Y-14314650D01*
X16217039Y-14314650D02*
X16197991Y-14286079D01*
X16197991Y-14286079D02*
X16188468Y-14267031D01*
X16188468Y-14267031D02*
X16178944Y-14238460D01*
X16178944Y-14238460D02*
X16169420Y-14190841D01*
X16169420Y-14190841D02*
X16169420Y-14152746D01*
X16169420Y-14152746D02*
X16178944Y-14105127D01*
X16178944Y-14105127D02*
X16188468Y-14076555D01*
X16188468Y-14076555D02*
X16197991Y-14057508D01*
X16197991Y-14057508D02*
X16217039Y-14028936D01*
X16217039Y-14028936D02*
X16226563Y-14019412D01*
X16407515Y-14247984D02*
X16293229Y-14247984D01*
X16350372Y-14247984D02*
X16350372Y-14047984D01*
X16350372Y-14047984D02*
X16331325Y-14076555D01*
X16331325Y-14076555D02*
X16312277Y-14095603D01*
X16312277Y-14095603D02*
X16293229Y-14105127D01*
X16521801Y-14133698D02*
X16502753Y-14124174D01*
X16502753Y-14124174D02*
X16493229Y-14114650D01*
X16493229Y-14114650D02*
X16483706Y-14095603D01*
X16483706Y-14095603D02*
X16483706Y-14086079D01*
X16483706Y-14086079D02*
X16493229Y-14067031D01*
X16493229Y-14067031D02*
X16502753Y-14057508D01*
X16502753Y-14057508D02*
X16521801Y-14047984D01*
X16521801Y-14047984D02*
X16559896Y-14047984D01*
X16559896Y-14047984D02*
X16578944Y-14057508D01*
X16578944Y-14057508D02*
X16588468Y-14067031D01*
X16588468Y-14067031D02*
X16597991Y-14086079D01*
X16597991Y-14086079D02*
X16597991Y-14095603D01*
X16597991Y-14095603D02*
X16588468Y-14114650D01*
X16588468Y-14114650D02*
X16578944Y-14124174D01*
X16578944Y-14124174D02*
X16559896Y-14133698D01*
X16559896Y-14133698D02*
X16521801Y-14133698D01*
X16521801Y-14133698D02*
X16502753Y-14143222D01*
X16502753Y-14143222D02*
X16493229Y-14152746D01*
X16493229Y-14152746D02*
X16483706Y-14171793D01*
X16483706Y-14171793D02*
X16483706Y-14209888D01*
X16483706Y-14209888D02*
X16493229Y-14228936D01*
X16493229Y-14228936D02*
X16502753Y-14238460D01*
X16502753Y-14238460D02*
X16521801Y-14247984D01*
X16521801Y-14247984D02*
X16559896Y-14247984D01*
X16559896Y-14247984D02*
X16578944Y-14238460D01*
X16578944Y-14238460D02*
X16588468Y-14228936D01*
X16588468Y-14228936D02*
X16597991Y-14209888D01*
X16597991Y-14209888D02*
X16597991Y-14171793D01*
X16597991Y-14171793D02*
X16588468Y-14152746D01*
X16588468Y-14152746D02*
X16578944Y-14143222D01*
X16578944Y-14143222D02*
X16559896Y-14133698D01*
X16836087Y-14247984D02*
X16836087Y-14047984D01*
X16921801Y-14247984D02*
X16921801Y-14143222D01*
X16921801Y-14143222D02*
X16912277Y-14124174D01*
X16912277Y-14124174D02*
X16893230Y-14114650D01*
X16893230Y-14114650D02*
X16864658Y-14114650D01*
X16864658Y-14114650D02*
X16845611Y-14124174D01*
X16845611Y-14124174D02*
X16836087Y-14133698D01*
X17045611Y-14247984D02*
X17026563Y-14238460D01*
X17026563Y-14238460D02*
X17017039Y-14228936D01*
X17017039Y-14228936D02*
X17007515Y-14209888D01*
X17007515Y-14209888D02*
X17007515Y-14152746D01*
X17007515Y-14152746D02*
X17017039Y-14133698D01*
X17017039Y-14133698D02*
X17026563Y-14124174D01*
X17026563Y-14124174D02*
X17045611Y-14114650D01*
X17045611Y-14114650D02*
X17074182Y-14114650D01*
X17074182Y-14114650D02*
X17093230Y-14124174D01*
X17093230Y-14124174D02*
X17102753Y-14133698D01*
X17102753Y-14133698D02*
X17112277Y-14152746D01*
X17112277Y-14152746D02*
X17112277Y-14209888D01*
X17112277Y-14209888D02*
X17102753Y-14228936D01*
X17102753Y-14228936D02*
X17093230Y-14238460D01*
X17093230Y-14238460D02*
X17074182Y-14247984D01*
X17074182Y-14247984D02*
X17045611Y-14247984D01*
X17226563Y-14247984D02*
X17207515Y-14238460D01*
X17207515Y-14238460D02*
X17197992Y-14219412D01*
X17197992Y-14219412D02*
X17197992Y-14047984D01*
X17378944Y-14238460D02*
X17359896Y-14247984D01*
X17359896Y-14247984D02*
X17321801Y-14247984D01*
X17321801Y-14247984D02*
X17302753Y-14238460D01*
X17302753Y-14238460D02*
X17293230Y-14219412D01*
X17293230Y-14219412D02*
X17293230Y-14143222D01*
X17293230Y-14143222D02*
X17302753Y-14124174D01*
X17302753Y-14124174D02*
X17321801Y-14114650D01*
X17321801Y-14114650D02*
X17359896Y-14114650D01*
X17359896Y-14114650D02*
X17378944Y-14124174D01*
X17378944Y-14124174D02*
X17388468Y-14143222D01*
X17388468Y-14143222D02*
X17388468Y-14162269D01*
X17388468Y-14162269D02*
X17293230Y-14181317D01*
X17464658Y-14238460D02*
X17483706Y-14247984D01*
X17483706Y-14247984D02*
X17521801Y-14247984D01*
X17521801Y-14247984D02*
X17540849Y-14238460D01*
X17540849Y-14238460D02*
X17550373Y-14219412D01*
X17550373Y-14219412D02*
X17550373Y-14209888D01*
X17550373Y-14209888D02*
X17540849Y-14190841D01*
X17540849Y-14190841D02*
X17521801Y-14181317D01*
X17521801Y-14181317D02*
X17493230Y-14181317D01*
X17493230Y-14181317D02*
X17474182Y-14171793D01*
X17474182Y-14171793D02*
X17464658Y-14152746D01*
X17464658Y-14152746D02*
X17464658Y-14143222D01*
X17464658Y-14143222D02*
X17474182Y-14124174D01*
X17474182Y-14124174D02*
X17493230Y-14114650D01*
X17493230Y-14114650D02*
X17521801Y-14114650D01*
X17521801Y-14114650D02*
X17540849Y-14124174D01*
X17617039Y-14324174D02*
X17626563Y-14314650D01*
X17626563Y-14314650D02*
X17645611Y-14286079D01*
X17645611Y-14286079D02*
X17655134Y-14267031D01*
X17655134Y-14267031D02*
X17664658Y-14238460D01*
X17664658Y-14238460D02*
X17674182Y-14190841D01*
X17674182Y-14190841D02*
X17674182Y-14152746D01*
X17674182Y-14152746D02*
X17664658Y-14105127D01*
X17664658Y-14105127D02*
X17655134Y-14076555D01*
X17655134Y-14076555D02*
X17645611Y-14057508D01*
X17645611Y-14057508D02*
X17626563Y-14028936D01*
X17626563Y-14028936D02*
X17617039Y-14019412D01*
X17978944Y-14324174D02*
X17969420Y-14314650D01*
X17969420Y-14314650D02*
X17950373Y-14286079D01*
X17950373Y-14286079D02*
X17940849Y-14267031D01*
X17940849Y-14267031D02*
X17931325Y-14238460D01*
X17931325Y-14238460D02*
X17921801Y-14190841D01*
X17921801Y-14190841D02*
X17921801Y-14152746D01*
X17921801Y-14152746D02*
X17931325Y-14105127D01*
X17931325Y-14105127D02*
X17940849Y-14076555D01*
X17940849Y-14076555D02*
X17950373Y-14057508D01*
X17950373Y-14057508D02*
X17969420Y-14028936D01*
X17969420Y-14028936D02*
X17978944Y-14019412D01*
X18055134Y-14114650D02*
X18055134Y-14247984D01*
X18055134Y-14133698D02*
X18064658Y-14124174D01*
X18064658Y-14124174D02*
X18083706Y-14114650D01*
X18083706Y-14114650D02*
X18112277Y-14114650D01*
X18112277Y-14114650D02*
X18131325Y-14124174D01*
X18131325Y-14124174D02*
X18140849Y-14143222D01*
X18140849Y-14143222D02*
X18140849Y-14247984D01*
X18264658Y-14247984D02*
X18245611Y-14238460D01*
X18245611Y-14238460D02*
X18236087Y-14228936D01*
X18236087Y-14228936D02*
X18226563Y-14209888D01*
X18226563Y-14209888D02*
X18226563Y-14152746D01*
X18226563Y-14152746D02*
X18236087Y-14133698D01*
X18236087Y-14133698D02*
X18245611Y-14124174D01*
X18245611Y-14124174D02*
X18264658Y-14114650D01*
X18264658Y-14114650D02*
X18293230Y-14114650D01*
X18293230Y-14114650D02*
X18312277Y-14124174D01*
X18312277Y-14124174D02*
X18321801Y-14133698D01*
X18321801Y-14133698D02*
X18331325Y-14152746D01*
X18331325Y-14152746D02*
X18331325Y-14209888D01*
X18331325Y-14209888D02*
X18321801Y-14228936D01*
X18321801Y-14228936D02*
X18312277Y-14238460D01*
X18312277Y-14238460D02*
X18293230Y-14247984D01*
X18293230Y-14247984D02*
X18264658Y-14247984D01*
X18388468Y-14114650D02*
X18464658Y-14114650D01*
X18417039Y-14047984D02*
X18417039Y-14219412D01*
X18417039Y-14219412D02*
X18426563Y-14238460D01*
X18426563Y-14238460D02*
X18445611Y-14247984D01*
X18445611Y-14247984D02*
X18464658Y-14247984D01*
X18683706Y-14114650D02*
X18683706Y-14314650D01*
X18683706Y-14124174D02*
X18702754Y-14114650D01*
X18702754Y-14114650D02*
X18740849Y-14114650D01*
X18740849Y-14114650D02*
X18759896Y-14124174D01*
X18759896Y-14124174D02*
X18769420Y-14133698D01*
X18769420Y-14133698D02*
X18778944Y-14152746D01*
X18778944Y-14152746D02*
X18778944Y-14209888D01*
X18778944Y-14209888D02*
X18769420Y-14228936D01*
X18769420Y-14228936D02*
X18759896Y-14238460D01*
X18759896Y-14238460D02*
X18740849Y-14247984D01*
X18740849Y-14247984D02*
X18702754Y-14247984D01*
X18702754Y-14247984D02*
X18683706Y-14238460D01*
X18893230Y-14247984D02*
X18874182Y-14238460D01*
X18874182Y-14238460D02*
X18864658Y-14219412D01*
X18864658Y-14219412D02*
X18864658Y-14047984D01*
X19055135Y-14247984D02*
X19055135Y-14143222D01*
X19055135Y-14143222D02*
X19045611Y-14124174D01*
X19045611Y-14124174D02*
X19026563Y-14114650D01*
X19026563Y-14114650D02*
X18988468Y-14114650D01*
X18988468Y-14114650D02*
X18969420Y-14124174D01*
X19055135Y-14238460D02*
X19036087Y-14247984D01*
X19036087Y-14247984D02*
X18988468Y-14247984D01*
X18988468Y-14247984D02*
X18969420Y-14238460D01*
X18969420Y-14238460D02*
X18959896Y-14219412D01*
X18959896Y-14219412D02*
X18959896Y-14200365D01*
X18959896Y-14200365D02*
X18969420Y-14181317D01*
X18969420Y-14181317D02*
X18988468Y-14171793D01*
X18988468Y-14171793D02*
X19036087Y-14171793D01*
X19036087Y-14171793D02*
X19055135Y-14162269D01*
X19121801Y-14114650D02*
X19197992Y-14114650D01*
X19150373Y-14047984D02*
X19150373Y-14219412D01*
X19150373Y-14219412D02*
X19159896Y-14238460D01*
X19159896Y-14238460D02*
X19178944Y-14247984D01*
X19178944Y-14247984D02*
X19197992Y-14247984D01*
X19340849Y-14238460D02*
X19321801Y-14247984D01*
X19321801Y-14247984D02*
X19283706Y-14247984D01*
X19283706Y-14247984D02*
X19264658Y-14238460D01*
X19264658Y-14238460D02*
X19255135Y-14219412D01*
X19255135Y-14219412D02*
X19255135Y-14143222D01*
X19255135Y-14143222D02*
X19264658Y-14124174D01*
X19264658Y-14124174D02*
X19283706Y-14114650D01*
X19283706Y-14114650D02*
X19321801Y-14114650D01*
X19321801Y-14114650D02*
X19340849Y-14124174D01*
X19340849Y-14124174D02*
X19350373Y-14143222D01*
X19350373Y-14143222D02*
X19350373Y-14162269D01*
X19350373Y-14162269D02*
X19255135Y-14181317D01*
X19521801Y-14247984D02*
X19521801Y-14047984D01*
X19521801Y-14238460D02*
X19502754Y-14247984D01*
X19502754Y-14247984D02*
X19464658Y-14247984D01*
X19464658Y-14247984D02*
X19445611Y-14238460D01*
X19445611Y-14238460D02*
X19436087Y-14228936D01*
X19436087Y-14228936D02*
X19426563Y-14209888D01*
X19426563Y-14209888D02*
X19426563Y-14152746D01*
X19426563Y-14152746D02*
X19436087Y-14133698D01*
X19436087Y-14133698D02*
X19445611Y-14124174D01*
X19445611Y-14124174D02*
X19464658Y-14114650D01*
X19464658Y-14114650D02*
X19502754Y-14114650D01*
X19502754Y-14114650D02*
X19521801Y-14124174D01*
X19597992Y-14324174D02*
X19607516Y-14314650D01*
X19607516Y-14314650D02*
X19626563Y-14286079D01*
X19626563Y-14286079D02*
X19636087Y-14267031D01*
X19636087Y-14267031D02*
X19645611Y-14238460D01*
X19645611Y-14238460D02*
X19655135Y-14190841D01*
X19655135Y-14190841D02*
X19655135Y-14152746D01*
X19655135Y-14152746D02*
X19645611Y-14105127D01*
X19645611Y-14105127D02*
X19636087Y-14076555D01*
X19636087Y-14076555D02*
X19626563Y-14057508D01*
X19626563Y-14057508D02*
X19607516Y-14028936D01*
X19607516Y-14028936D02*
X19597992Y-14019412D01*
X12551500Y-14346680D02*
X12551500Y-14546680D01*
X12451500Y-14446680D02*
X12651500Y-14446680D01*
X12893229Y-14338164D02*
X13017039Y-14338164D01*
X13017039Y-14338164D02*
X12950372Y-14414354D01*
X12950372Y-14414354D02*
X12978943Y-14414354D01*
X12978943Y-14414354D02*
X12997991Y-14423878D01*
X12997991Y-14423878D02*
X13007515Y-14433402D01*
X13007515Y-14433402D02*
X13017039Y-14452449D01*
X13017039Y-14452449D02*
X13017039Y-14500068D01*
X13017039Y-14500068D02*
X13007515Y-14519116D01*
X13007515Y-14519116D02*
X12997991Y-14528640D01*
X12997991Y-14528640D02*
X12978943Y-14538164D01*
X12978943Y-14538164D02*
X12921801Y-14538164D01*
X12921801Y-14538164D02*
X12902753Y-14528640D01*
X12902753Y-14528640D02*
X12893229Y-14519116D01*
X13102753Y-14519116D02*
X13112277Y-14528640D01*
X13112277Y-14528640D02*
X13102753Y-14538164D01*
X13102753Y-14538164D02*
X13093229Y-14528640D01*
X13093229Y-14528640D02*
X13102753Y-14519116D01*
X13102753Y-14519116D02*
X13102753Y-14538164D01*
X13283705Y-14404830D02*
X13283705Y-14538164D01*
X13236086Y-14328640D02*
X13188467Y-14471497D01*
X13188467Y-14471497D02*
X13312277Y-14471497D01*
X13378943Y-14357211D02*
X13388467Y-14347688D01*
X13388467Y-14347688D02*
X13407515Y-14338164D01*
X13407515Y-14338164D02*
X13455134Y-14338164D01*
X13455134Y-14338164D02*
X13474182Y-14347688D01*
X13474182Y-14347688D02*
X13483705Y-14357211D01*
X13483705Y-14357211D02*
X13493229Y-14376259D01*
X13493229Y-14376259D02*
X13493229Y-14395307D01*
X13493229Y-14395307D02*
X13483705Y-14423878D01*
X13483705Y-14423878D02*
X13369420Y-14538164D01*
X13369420Y-14538164D02*
X13493229Y-14538164D01*
X13588467Y-14538164D02*
X13626562Y-14538164D01*
X13626562Y-14538164D02*
X13645610Y-14528640D01*
X13645610Y-14528640D02*
X13655134Y-14519116D01*
X13655134Y-14519116D02*
X13674182Y-14490545D01*
X13674182Y-14490545D02*
X13683705Y-14452449D01*
X13683705Y-14452449D02*
X13683705Y-14376259D01*
X13683705Y-14376259D02*
X13674182Y-14357211D01*
X13674182Y-14357211D02*
X13664658Y-14347688D01*
X13664658Y-14347688D02*
X13645610Y-14338164D01*
X13645610Y-14338164D02*
X13607515Y-14338164D01*
X13607515Y-14338164D02*
X13588467Y-14347688D01*
X13588467Y-14347688D02*
X13578943Y-14357211D01*
X13578943Y-14357211D02*
X13569420Y-14376259D01*
X13569420Y-14376259D02*
X13569420Y-14423878D01*
X13569420Y-14423878D02*
X13578943Y-14442926D01*
X13578943Y-14442926D02*
X13588467Y-14452449D01*
X13588467Y-14452449D02*
X13607515Y-14461973D01*
X13607515Y-14461973D02*
X13645610Y-14461973D01*
X13645610Y-14461973D02*
X13664658Y-14452449D01*
X13664658Y-14452449D02*
X13674182Y-14442926D01*
X13674182Y-14442926D02*
X13683705Y-14423878D01*
X13769420Y-14538164D02*
X13769420Y-14404830D01*
X13769420Y-14423878D02*
X13778943Y-14414354D01*
X13778943Y-14414354D02*
X13797991Y-14404830D01*
X13797991Y-14404830D02*
X13826563Y-14404830D01*
X13826563Y-14404830D02*
X13845610Y-14414354D01*
X13845610Y-14414354D02*
X13855134Y-14433402D01*
X13855134Y-14433402D02*
X13855134Y-14538164D01*
X13855134Y-14433402D02*
X13864658Y-14414354D01*
X13864658Y-14414354D02*
X13883705Y-14404830D01*
X13883705Y-14404830D02*
X13912277Y-14404830D01*
X13912277Y-14404830D02*
X13931324Y-14414354D01*
X13931324Y-14414354D02*
X13940848Y-14433402D01*
X13940848Y-14433402D02*
X13940848Y-14538164D01*
X14036086Y-14538164D02*
X14036086Y-14404830D01*
X14036086Y-14423878D02*
X14045610Y-14414354D01*
X14045610Y-14414354D02*
X14064658Y-14404830D01*
X14064658Y-14404830D02*
X14093229Y-14404830D01*
X14093229Y-14404830D02*
X14112277Y-14414354D01*
X14112277Y-14414354D02*
X14121801Y-14433402D01*
X14121801Y-14433402D02*
X14121801Y-14538164D01*
X14121801Y-14433402D02*
X14131324Y-14414354D01*
X14131324Y-14414354D02*
X14150372Y-14404830D01*
X14150372Y-14404830D02*
X14178943Y-14404830D01*
X14178943Y-14404830D02*
X14197991Y-14414354D01*
X14197991Y-14414354D02*
X14207515Y-14433402D01*
X14207515Y-14433402D02*
X14207515Y-14538164D01*
X14597991Y-14328640D02*
X14426563Y-14585783D01*
X14855134Y-14338164D02*
X14874182Y-14338164D01*
X14874182Y-14338164D02*
X14893229Y-14347688D01*
X14893229Y-14347688D02*
X14902753Y-14357211D01*
X14902753Y-14357211D02*
X14912277Y-14376259D01*
X14912277Y-14376259D02*
X14921801Y-14414354D01*
X14921801Y-14414354D02*
X14921801Y-14461973D01*
X14921801Y-14461973D02*
X14912277Y-14500068D01*
X14912277Y-14500068D02*
X14902753Y-14519116D01*
X14902753Y-14519116D02*
X14893229Y-14528640D01*
X14893229Y-14528640D02*
X14874182Y-14538164D01*
X14874182Y-14538164D02*
X14855134Y-14538164D01*
X14855134Y-14538164D02*
X14836086Y-14528640D01*
X14836086Y-14528640D02*
X14826563Y-14519116D01*
X14826563Y-14519116D02*
X14817039Y-14500068D01*
X14817039Y-14500068D02*
X14807515Y-14461973D01*
X14807515Y-14461973D02*
X14807515Y-14414354D01*
X14807515Y-14414354D02*
X14817039Y-14376259D01*
X14817039Y-14376259D02*
X14826563Y-14357211D01*
X14826563Y-14357211D02*
X14836086Y-14347688D01*
X14836086Y-14347688D02*
X14855134Y-14338164D01*
X15007515Y-14519116D02*
X15017039Y-14528640D01*
X15017039Y-14528640D02*
X15007515Y-14538164D01*
X15007515Y-14538164D02*
X14997991Y-14528640D01*
X14997991Y-14528640D02*
X15007515Y-14519116D01*
X15007515Y-14519116D02*
X15007515Y-14538164D01*
X15207515Y-14538164D02*
X15093229Y-14538164D01*
X15150372Y-14538164D02*
X15150372Y-14338164D01*
X15150372Y-14338164D02*
X15131325Y-14366735D01*
X15131325Y-14366735D02*
X15112277Y-14385783D01*
X15112277Y-14385783D02*
X15093229Y-14395307D01*
X15274182Y-14338164D02*
X15397991Y-14338164D01*
X15397991Y-14338164D02*
X15331325Y-14414354D01*
X15331325Y-14414354D02*
X15359896Y-14414354D01*
X15359896Y-14414354D02*
X15378944Y-14423878D01*
X15378944Y-14423878D02*
X15388467Y-14433402D01*
X15388467Y-14433402D02*
X15397991Y-14452449D01*
X15397991Y-14452449D02*
X15397991Y-14500068D01*
X15397991Y-14500068D02*
X15388467Y-14519116D01*
X15388467Y-14519116D02*
X15378944Y-14528640D01*
X15378944Y-14528640D02*
X15359896Y-14538164D01*
X15359896Y-14538164D02*
X15302753Y-14538164D01*
X15302753Y-14538164D02*
X15283706Y-14528640D01*
X15283706Y-14528640D02*
X15274182Y-14519116D01*
X15578944Y-14338164D02*
X15483706Y-14338164D01*
X15483706Y-14338164D02*
X15474182Y-14433402D01*
X15474182Y-14433402D02*
X15483706Y-14423878D01*
X15483706Y-14423878D02*
X15502753Y-14414354D01*
X15502753Y-14414354D02*
X15550372Y-14414354D01*
X15550372Y-14414354D02*
X15569420Y-14423878D01*
X15569420Y-14423878D02*
X15578944Y-14433402D01*
X15578944Y-14433402D02*
X15588467Y-14452449D01*
X15588467Y-14452449D02*
X15588467Y-14500068D01*
X15588467Y-14500068D02*
X15578944Y-14519116D01*
X15578944Y-14519116D02*
X15569420Y-14528640D01*
X15569420Y-14528640D02*
X15550372Y-14538164D01*
X15550372Y-14538164D02*
X15502753Y-14538164D01*
X15502753Y-14538164D02*
X15483706Y-14528640D01*
X15483706Y-14528640D02*
X15474182Y-14519116D01*
X15712277Y-14338164D02*
X15731325Y-14338164D01*
X15731325Y-14338164D02*
X15750372Y-14347688D01*
X15750372Y-14347688D02*
X15759896Y-14357211D01*
X15759896Y-14357211D02*
X15769420Y-14376259D01*
X15769420Y-14376259D02*
X15778944Y-14414354D01*
X15778944Y-14414354D02*
X15778944Y-14461973D01*
X15778944Y-14461973D02*
X15769420Y-14500068D01*
X15769420Y-14500068D02*
X15759896Y-14519116D01*
X15759896Y-14519116D02*
X15750372Y-14528640D01*
X15750372Y-14528640D02*
X15731325Y-14538164D01*
X15731325Y-14538164D02*
X15712277Y-14538164D01*
X15712277Y-14538164D02*
X15693229Y-14528640D01*
X15693229Y-14528640D02*
X15683706Y-14519116D01*
X15683706Y-14519116D02*
X15674182Y-14500068D01*
X15674182Y-14500068D02*
X15664658Y-14461973D01*
X15664658Y-14461973D02*
X15664658Y-14414354D01*
X15664658Y-14414354D02*
X15674182Y-14376259D01*
X15674182Y-14376259D02*
X15683706Y-14357211D01*
X15683706Y-14357211D02*
X15693229Y-14347688D01*
X15693229Y-14347688D02*
X15712277Y-14338164D01*
X15855134Y-14338164D02*
X15855134Y-14376259D01*
X15931325Y-14338164D02*
X15931325Y-14376259D01*
X16226563Y-14614354D02*
X16217039Y-14604830D01*
X16217039Y-14604830D02*
X16197991Y-14576259D01*
X16197991Y-14576259D02*
X16188468Y-14557211D01*
X16188468Y-14557211D02*
X16178944Y-14528640D01*
X16178944Y-14528640D02*
X16169420Y-14481021D01*
X16169420Y-14481021D02*
X16169420Y-14442926D01*
X16169420Y-14442926D02*
X16178944Y-14395307D01*
X16178944Y-14395307D02*
X16188468Y-14366735D01*
X16188468Y-14366735D02*
X16197991Y-14347688D01*
X16197991Y-14347688D02*
X16217039Y-14319116D01*
X16217039Y-14319116D02*
X16226563Y-14309592D01*
X16312277Y-14538164D02*
X16350372Y-14538164D01*
X16350372Y-14538164D02*
X16369420Y-14528640D01*
X16369420Y-14528640D02*
X16378944Y-14519116D01*
X16378944Y-14519116D02*
X16397991Y-14490545D01*
X16397991Y-14490545D02*
X16407515Y-14452449D01*
X16407515Y-14452449D02*
X16407515Y-14376259D01*
X16407515Y-14376259D02*
X16397991Y-14357211D01*
X16397991Y-14357211D02*
X16388468Y-14347688D01*
X16388468Y-14347688D02*
X16369420Y-14338164D01*
X16369420Y-14338164D02*
X16331325Y-14338164D01*
X16331325Y-14338164D02*
X16312277Y-14347688D01*
X16312277Y-14347688D02*
X16302753Y-14357211D01*
X16302753Y-14357211D02*
X16293229Y-14376259D01*
X16293229Y-14376259D02*
X16293229Y-14423878D01*
X16293229Y-14423878D02*
X16302753Y-14442926D01*
X16302753Y-14442926D02*
X16312277Y-14452449D01*
X16312277Y-14452449D02*
X16331325Y-14461973D01*
X16331325Y-14461973D02*
X16369420Y-14461973D01*
X16369420Y-14461973D02*
X16388468Y-14452449D01*
X16388468Y-14452449D02*
X16397991Y-14442926D01*
X16397991Y-14442926D02*
X16407515Y-14423878D01*
X16645610Y-14538164D02*
X16645610Y-14338164D01*
X16731325Y-14538164D02*
X16731325Y-14433402D01*
X16731325Y-14433402D02*
X16721801Y-14414354D01*
X16721801Y-14414354D02*
X16702753Y-14404830D01*
X16702753Y-14404830D02*
X16674182Y-14404830D01*
X16674182Y-14404830D02*
X16655134Y-14414354D01*
X16655134Y-14414354D02*
X16645610Y-14423878D01*
X16855134Y-14538164D02*
X16836087Y-14528640D01*
X16836087Y-14528640D02*
X16826563Y-14519116D01*
X16826563Y-14519116D02*
X16817039Y-14500068D01*
X16817039Y-14500068D02*
X16817039Y-14442926D01*
X16817039Y-14442926D02*
X16826563Y-14423878D01*
X16826563Y-14423878D02*
X16836087Y-14414354D01*
X16836087Y-14414354D02*
X16855134Y-14404830D01*
X16855134Y-14404830D02*
X16883706Y-14404830D01*
X16883706Y-14404830D02*
X16902753Y-14414354D01*
X16902753Y-14414354D02*
X16912277Y-14423878D01*
X16912277Y-14423878D02*
X16921801Y-14442926D01*
X16921801Y-14442926D02*
X16921801Y-14500068D01*
X16921801Y-14500068D02*
X16912277Y-14519116D01*
X16912277Y-14519116D02*
X16902753Y-14528640D01*
X16902753Y-14528640D02*
X16883706Y-14538164D01*
X16883706Y-14538164D02*
X16855134Y-14538164D01*
X17036087Y-14538164D02*
X17017039Y-14528640D01*
X17017039Y-14528640D02*
X17007515Y-14509592D01*
X17007515Y-14509592D02*
X17007515Y-14338164D01*
X17188468Y-14528640D02*
X17169420Y-14538164D01*
X17169420Y-14538164D02*
X17131325Y-14538164D01*
X17131325Y-14538164D02*
X17112277Y-14528640D01*
X17112277Y-14528640D02*
X17102753Y-14509592D01*
X17102753Y-14509592D02*
X17102753Y-14433402D01*
X17102753Y-14433402D02*
X17112277Y-14414354D01*
X17112277Y-14414354D02*
X17131325Y-14404830D01*
X17131325Y-14404830D02*
X17169420Y-14404830D01*
X17169420Y-14404830D02*
X17188468Y-14414354D01*
X17188468Y-14414354D02*
X17197992Y-14433402D01*
X17197992Y-14433402D02*
X17197992Y-14452449D01*
X17197992Y-14452449D02*
X17102753Y-14471497D01*
X17274182Y-14528640D02*
X17293230Y-14538164D01*
X17293230Y-14538164D02*
X17331325Y-14538164D01*
X17331325Y-14538164D02*
X17350373Y-14528640D01*
X17350373Y-14528640D02*
X17359896Y-14509592D01*
X17359896Y-14509592D02*
X17359896Y-14500068D01*
X17359896Y-14500068D02*
X17350373Y-14481021D01*
X17350373Y-14481021D02*
X17331325Y-14471497D01*
X17331325Y-14471497D02*
X17302753Y-14471497D01*
X17302753Y-14471497D02*
X17283706Y-14461973D01*
X17283706Y-14461973D02*
X17274182Y-14442926D01*
X17274182Y-14442926D02*
X17274182Y-14433402D01*
X17274182Y-14433402D02*
X17283706Y-14414354D01*
X17283706Y-14414354D02*
X17302753Y-14404830D01*
X17302753Y-14404830D02*
X17331325Y-14404830D01*
X17331325Y-14404830D02*
X17350373Y-14414354D01*
X17426563Y-14614354D02*
X17436087Y-14604830D01*
X17436087Y-14604830D02*
X17455134Y-14576259D01*
X17455134Y-14576259D02*
X17464658Y-14557211D01*
X17464658Y-14557211D02*
X17474182Y-14528640D01*
X17474182Y-14528640D02*
X17483706Y-14481021D01*
X17483706Y-14481021D02*
X17483706Y-14442926D01*
X17483706Y-14442926D02*
X17474182Y-14395307D01*
X17474182Y-14395307D02*
X17464658Y-14366735D01*
X17464658Y-14366735D02*
X17455134Y-14347688D01*
X17455134Y-14347688D02*
X17436087Y-14319116D01*
X17436087Y-14319116D02*
X17426563Y-14309592D01*
X17788468Y-14614354D02*
X17778944Y-14604830D01*
X17778944Y-14604830D02*
X17759896Y-14576259D01*
X17759896Y-14576259D02*
X17750373Y-14557211D01*
X17750373Y-14557211D02*
X17740849Y-14528640D01*
X17740849Y-14528640D02*
X17731325Y-14481021D01*
X17731325Y-14481021D02*
X17731325Y-14442926D01*
X17731325Y-14442926D02*
X17740849Y-14395307D01*
X17740849Y-14395307D02*
X17750373Y-14366735D01*
X17750373Y-14366735D02*
X17759896Y-14347688D01*
X17759896Y-14347688D02*
X17778944Y-14319116D01*
X17778944Y-14319116D02*
X17788468Y-14309592D01*
X17864658Y-14404830D02*
X17864658Y-14538164D01*
X17864658Y-14423878D02*
X17874182Y-14414354D01*
X17874182Y-14414354D02*
X17893230Y-14404830D01*
X17893230Y-14404830D02*
X17921801Y-14404830D01*
X17921801Y-14404830D02*
X17940849Y-14414354D01*
X17940849Y-14414354D02*
X17950373Y-14433402D01*
X17950373Y-14433402D02*
X17950373Y-14538164D01*
X18074182Y-14538164D02*
X18055134Y-14528640D01*
X18055134Y-14528640D02*
X18045611Y-14519116D01*
X18045611Y-14519116D02*
X18036087Y-14500068D01*
X18036087Y-14500068D02*
X18036087Y-14442926D01*
X18036087Y-14442926D02*
X18045611Y-14423878D01*
X18045611Y-14423878D02*
X18055134Y-14414354D01*
X18055134Y-14414354D02*
X18074182Y-14404830D01*
X18074182Y-14404830D02*
X18102754Y-14404830D01*
X18102754Y-14404830D02*
X18121801Y-14414354D01*
X18121801Y-14414354D02*
X18131325Y-14423878D01*
X18131325Y-14423878D02*
X18140849Y-14442926D01*
X18140849Y-14442926D02*
X18140849Y-14500068D01*
X18140849Y-14500068D02*
X18131325Y-14519116D01*
X18131325Y-14519116D02*
X18121801Y-14528640D01*
X18121801Y-14528640D02*
X18102754Y-14538164D01*
X18102754Y-14538164D02*
X18074182Y-14538164D01*
X18197992Y-14404830D02*
X18274182Y-14404830D01*
X18226563Y-14338164D02*
X18226563Y-14509592D01*
X18226563Y-14509592D02*
X18236087Y-14528640D01*
X18236087Y-14528640D02*
X18255134Y-14538164D01*
X18255134Y-14538164D02*
X18274182Y-14538164D01*
X18493230Y-14404830D02*
X18493230Y-14604830D01*
X18493230Y-14414354D02*
X18512277Y-14404830D01*
X18512277Y-14404830D02*
X18550373Y-14404830D01*
X18550373Y-14404830D02*
X18569420Y-14414354D01*
X18569420Y-14414354D02*
X18578944Y-14423878D01*
X18578944Y-14423878D02*
X18588468Y-14442926D01*
X18588468Y-14442926D02*
X18588468Y-14500068D01*
X18588468Y-14500068D02*
X18578944Y-14519116D01*
X18578944Y-14519116D02*
X18569420Y-14528640D01*
X18569420Y-14528640D02*
X18550373Y-14538164D01*
X18550373Y-14538164D02*
X18512277Y-14538164D01*
X18512277Y-14538164D02*
X18493230Y-14528640D01*
X18702754Y-14538164D02*
X18683706Y-14528640D01*
X18683706Y-14528640D02*
X18674182Y-14509592D01*
X18674182Y-14509592D02*
X18674182Y-14338164D01*
X18864658Y-14538164D02*
X18864658Y-14433402D01*
X18864658Y-14433402D02*
X18855135Y-14414354D01*
X18855135Y-14414354D02*
X18836087Y-14404830D01*
X18836087Y-14404830D02*
X18797992Y-14404830D01*
X18797992Y-14404830D02*
X18778944Y-14414354D01*
X18864658Y-14528640D02*
X18845611Y-14538164D01*
X18845611Y-14538164D02*
X18797992Y-14538164D01*
X18797992Y-14538164D02*
X18778944Y-14528640D01*
X18778944Y-14528640D02*
X18769420Y-14509592D01*
X18769420Y-14509592D02*
X18769420Y-14490545D01*
X18769420Y-14490545D02*
X18778944Y-14471497D01*
X18778944Y-14471497D02*
X18797992Y-14461973D01*
X18797992Y-14461973D02*
X18845611Y-14461973D01*
X18845611Y-14461973D02*
X18864658Y-14452449D01*
X18931325Y-14404830D02*
X19007515Y-14404830D01*
X18959896Y-14338164D02*
X18959896Y-14509592D01*
X18959896Y-14509592D02*
X18969420Y-14528640D01*
X18969420Y-14528640D02*
X18988468Y-14538164D01*
X18988468Y-14538164D02*
X19007515Y-14538164D01*
X19150373Y-14528640D02*
X19131325Y-14538164D01*
X19131325Y-14538164D02*
X19093230Y-14538164D01*
X19093230Y-14538164D02*
X19074182Y-14528640D01*
X19074182Y-14528640D02*
X19064658Y-14509592D01*
X19064658Y-14509592D02*
X19064658Y-14433402D01*
X19064658Y-14433402D02*
X19074182Y-14414354D01*
X19074182Y-14414354D02*
X19093230Y-14404830D01*
X19093230Y-14404830D02*
X19131325Y-14404830D01*
X19131325Y-14404830D02*
X19150373Y-14414354D01*
X19150373Y-14414354D02*
X19159896Y-14433402D01*
X19159896Y-14433402D02*
X19159896Y-14452449D01*
X19159896Y-14452449D02*
X19064658Y-14471497D01*
X19331325Y-14538164D02*
X19331325Y-14338164D01*
X19331325Y-14528640D02*
X19312277Y-14538164D01*
X19312277Y-14538164D02*
X19274182Y-14538164D01*
X19274182Y-14538164D02*
X19255135Y-14528640D01*
X19255135Y-14528640D02*
X19245611Y-14519116D01*
X19245611Y-14519116D02*
X19236087Y-14500068D01*
X19236087Y-14500068D02*
X19236087Y-14442926D01*
X19236087Y-14442926D02*
X19245611Y-14423878D01*
X19245611Y-14423878D02*
X19255135Y-14414354D01*
X19255135Y-14414354D02*
X19274182Y-14404830D01*
X19274182Y-14404830D02*
X19312277Y-14404830D01*
X19312277Y-14404830D02*
X19331325Y-14414354D01*
X19407516Y-14614354D02*
X19417039Y-14604830D01*
X19417039Y-14604830D02*
X19436087Y-14576259D01*
X19436087Y-14576259D02*
X19445611Y-14557211D01*
X19445611Y-14557211D02*
X19455135Y-14528640D01*
X19455135Y-14528640D02*
X19464658Y-14481021D01*
X19464658Y-14481021D02*
X19464658Y-14442926D01*
X19464658Y-14442926D02*
X19455135Y-14395307D01*
X19455135Y-14395307D02*
X19445611Y-14366735D01*
X19445611Y-14366735D02*
X19436087Y-14347688D01*
X19436087Y-14347688D02*
X19417039Y-14319116D01*
X19417039Y-14319116D02*
X19407516Y-14309592D01*
M02*
