%TF.GenerationSoftware,KiCad,Pcbnew,8.0.3*%
%TF.CreationDate,2024-07-24T11:50:29-04:00*%
%TF.ProjectId,macropad,6d616372-6f70-4616-942e-6b696361645f,1.0*%
%TF.SameCoordinates,Original*%
%TF.FileFunction,Drillmap*%
%TF.FilePolarity,Positive*%
%FSLAX45Y45*%
G04 Gerber Fmt 4.5, Leading zero omitted, Abs format (unit mm)*
G04 Created by KiCad (PCBNEW 8.0.3) date 2024-07-24 11:50:29*
%MOMM*%
%LPD*%
G01*
G04 APERTURE LIST*
%ADD10C,0.050000*%
%ADD11C,0.200000*%
%ADD12C,0.100000*%
%ADD13C,0.100076*%
%ADD14C,0.102000*%
%ADD15C,0.119888*%
%ADD16C,0.127000*%
%ADD17C,0.130000*%
%ADD18C,0.150000*%
G04 APERTURE END LIST*
D10*
X22629000Y-12825000D02*
G75*
G02*
X22229000Y-12825000I-200000J0D01*
G01*
X22229000Y-12825000D02*
G75*
G02*
X22629000Y-12825000I200000J0D01*
G01*
X13279000Y-12825000D02*
G75*
G02*
X12879000Y-12825000I-200000J0D01*
G01*
X12879000Y-12825000D02*
G75*
G02*
X13279000Y-12825000I200000J0D01*
G01*
X13279000Y-4475000D02*
G75*
G02*
X12879000Y-4475000I-200000J0D01*
G01*
X12879000Y-4475000D02*
G75*
G02*
X13279000Y-4475000I200000J0D01*
G01*
X22854000Y-13000000D02*
G75*
G02*
X22604000Y-13250000I-250000J0D01*
G01*
X22604000Y-4050000D02*
G75*
G02*
X22854000Y-4300000I0J-250000D01*
G01*
X12904000Y-13250000D02*
G75*
G02*
X12654000Y-13000000I0J250000D01*
G01*
X12654000Y-4300000D02*
G75*
G02*
X12904000Y-4050000I250000J0D01*
G01*
X22854000Y-4300000D02*
X22854000Y-13000000D01*
X22604000Y-13250000D02*
X12904000Y-13250000D01*
X12904000Y-4050000D02*
X22604000Y-4050000D01*
X12654000Y-13000000D02*
X12654000Y-4300000D01*
D11*
D12*
X18162000Y-5686000D02*
X18192000Y-5716000D01*
X18192000Y-5686000D02*
X18162000Y-5716000D01*
X18162000Y-5813000D02*
X18192000Y-5843000D01*
X18192000Y-5813000D02*
X18162000Y-5843000D01*
X18289000Y-5619000D02*
X18319000Y-5649000D01*
X18319000Y-5619000D02*
X18289000Y-5649000D01*
X18733500Y-5876500D02*
X18763500Y-5906500D01*
X18763500Y-5876500D02*
X18733500Y-5906500D01*
X19305000Y-5686000D02*
X19335000Y-5716000D01*
X19335000Y-5686000D02*
X19305000Y-5716000D01*
X19432000Y-5813000D02*
X19462000Y-5843000D01*
X19462000Y-5813000D02*
X19432000Y-5843000D01*
X13654000Y-8000000D02*
G75*
G02*
X13554000Y-8000000I-50000J0D01*
G01*
X13554000Y-8000000D02*
G75*
G02*
X13654000Y-8000000I50000J0D01*
G01*
X13554000Y-7975000D02*
X13554000Y-8025000D01*
X13654000Y-8025000D02*
G75*
G02*
X13554000Y-8025000I-50000J0D01*
G01*
X13654000Y-8025000D02*
X13654000Y-7975000D01*
X13654000Y-7975000D02*
G75*
G03*
X13554000Y-7975000I-50000J0D01*
G01*
X13654000Y-8250000D02*
G75*
G02*
X13554000Y-8250000I-50000J0D01*
G01*
X13554000Y-8250000D02*
G75*
G02*
X13654000Y-8250000I50000J0D01*
G01*
X13554000Y-8225000D02*
X13554000Y-8275000D01*
X13654000Y-8275000D02*
G75*
G02*
X13554000Y-8275000I-50000J0D01*
G01*
X13654000Y-8275000D02*
X13654000Y-8225000D01*
X13654000Y-8225000D02*
G75*
G03*
X13554000Y-8225000I-50000J0D01*
G01*
X13654000Y-8500000D02*
G75*
G02*
X13554000Y-8500000I-50000J0D01*
G01*
X13554000Y-8500000D02*
G75*
G02*
X13654000Y-8500000I50000J0D01*
G01*
X13554000Y-8475000D02*
X13554000Y-8525000D01*
X13654000Y-8525000D02*
G75*
G02*
X13554000Y-8525000I-50000J0D01*
G01*
X13654000Y-8525000D02*
X13654000Y-8475000D01*
X13654000Y-8475000D02*
G75*
G03*
X13554000Y-8475000I-50000J0D01*
G01*
X13654000Y-9900000D02*
G75*
G02*
X13554000Y-9900000I-50000J0D01*
G01*
X13554000Y-9900000D02*
G75*
G02*
X13654000Y-9900000I50000J0D01*
G01*
X13554000Y-9875000D02*
X13554000Y-9925000D01*
X13654000Y-9925000D02*
G75*
G02*
X13554000Y-9925000I-50000J0D01*
G01*
X13654000Y-9925000D02*
X13654000Y-9875000D01*
X13654000Y-9875000D02*
G75*
G03*
X13554000Y-9875000I-50000J0D01*
G01*
X13654000Y-10150000D02*
G75*
G02*
X13554000Y-10150000I-50000J0D01*
G01*
X13554000Y-10150000D02*
G75*
G02*
X13654000Y-10150000I50000J0D01*
G01*
X13554000Y-10125000D02*
X13554000Y-10175000D01*
X13654000Y-10175000D02*
G75*
G02*
X13554000Y-10175000I-50000J0D01*
G01*
X13654000Y-10175000D02*
X13654000Y-10125000D01*
X13654000Y-10125000D02*
G75*
G03*
X13554000Y-10125000I-50000J0D01*
G01*
X13654000Y-10400000D02*
G75*
G02*
X13554000Y-10400000I-50000J0D01*
G01*
X13554000Y-10400000D02*
G75*
G02*
X13654000Y-10400000I50000J0D01*
G01*
X13554000Y-10375000D02*
X13554000Y-10425000D01*
X13654000Y-10425000D02*
G75*
G02*
X13554000Y-10425000I-50000J0D01*
G01*
X13654000Y-10425000D02*
X13654000Y-10375000D01*
X13654000Y-10375000D02*
G75*
G03*
X13554000Y-10375000I-50000J0D01*
G01*
X15104000Y-8000000D02*
G75*
G02*
X15004000Y-8000000I-50000J0D01*
G01*
X15004000Y-8000000D02*
G75*
G02*
X15104000Y-8000000I50000J0D01*
G01*
X15004000Y-7975000D02*
X15004000Y-8025000D01*
X15104000Y-8025000D02*
G75*
G02*
X15004000Y-8025000I-50000J0D01*
G01*
X15104000Y-8025000D02*
X15104000Y-7975000D01*
X15104000Y-7975000D02*
G75*
G03*
X15004000Y-7975000I-50000J0D01*
G01*
X15104000Y-8500000D02*
G75*
G02*
X15004000Y-8500000I-50000J0D01*
G01*
X15004000Y-8500000D02*
G75*
G02*
X15104000Y-8500000I50000J0D01*
G01*
X15004000Y-8475000D02*
X15004000Y-8525000D01*
X15104000Y-8525000D02*
G75*
G02*
X15004000Y-8525000I-50000J0D01*
G01*
X15104000Y-8525000D02*
X15104000Y-8475000D01*
X15104000Y-8475000D02*
G75*
G03*
X15004000Y-8475000I-50000J0D01*
G01*
X15104000Y-9900000D02*
G75*
G02*
X15004000Y-9900000I-50000J0D01*
G01*
X15004000Y-9900000D02*
G75*
G02*
X15104000Y-9900000I50000J0D01*
G01*
X15004000Y-9875000D02*
X15004000Y-9925000D01*
X15104000Y-9925000D02*
G75*
G02*
X15004000Y-9925000I-50000J0D01*
G01*
X15104000Y-9925000D02*
X15104000Y-9875000D01*
X15104000Y-9875000D02*
G75*
G03*
X15004000Y-9875000I-50000J0D01*
G01*
X15104000Y-10400000D02*
G75*
G02*
X15004000Y-10400000I-50000J0D01*
G01*
X15004000Y-10400000D02*
G75*
G02*
X15104000Y-10400000I50000J0D01*
G01*
X15004000Y-10375000D02*
X15004000Y-10425000D01*
X15104000Y-10425000D02*
G75*
G02*
X15004000Y-10425000I-50000J0D01*
G01*
X15104000Y-10425000D02*
X15104000Y-10375000D01*
X15104000Y-10375000D02*
G75*
G03*
X15004000Y-10375000I-50000J0D01*
G01*
X17416494Y-4710596D02*
G75*
G02*
X17316494Y-4710596I-50000J0D01*
G01*
X17316494Y-4710596D02*
G75*
G02*
X17416494Y-4710596I50000J0D01*
G01*
X17416494Y-4964596D02*
G75*
G02*
X17316494Y-4964596I-50000J0D01*
G01*
X17316494Y-4964596D02*
G75*
G02*
X17416494Y-4964596I50000J0D01*
G01*
X17416494Y-5218596D02*
G75*
G02*
X17316494Y-5218596I-50000J0D01*
G01*
X17316494Y-5218596D02*
G75*
G02*
X17416494Y-5218596I50000J0D01*
G01*
X17416494Y-5472596D02*
G75*
G02*
X17316494Y-5472596I-50000J0D01*
G01*
X17316494Y-5472596D02*
G75*
G02*
X17416494Y-5472596I50000J0D01*
G01*
D13*
X13838888Y-11944962D02*
X13838888Y-12045038D01*
X13788850Y-11995000D02*
X13888926Y-11995000D01*
X14869112Y-11944962D02*
X14869112Y-12045038D01*
X14819074Y-11995000D02*
X14919150Y-11995000D01*
D14*
X17794263Y-4688763D02*
X17794263Y-4616637D01*
X17722137Y-4616637D01*
X17722137Y-4688763D01*
X17794263Y-4688763D01*
X17794263Y-6466763D02*
X17794263Y-6394637D01*
X17722137Y-6394637D01*
X17722137Y-6466763D01*
X17794263Y-6466763D01*
X18048263Y-4688763D02*
X18048263Y-4616637D01*
X17976137Y-4616637D01*
X17976137Y-4688763D01*
X18048263Y-4688763D01*
X18048263Y-6466763D02*
X18048263Y-6394637D01*
X17976137Y-6394637D01*
X17976137Y-6466763D01*
X18048263Y-6466763D01*
X18302263Y-4688763D02*
X18302263Y-4616637D01*
X18230137Y-4616637D01*
X18230137Y-4688763D01*
X18302263Y-4688763D01*
X18302263Y-6466763D02*
X18302263Y-6394637D01*
X18230137Y-6394637D01*
X18230137Y-6466763D01*
X18302263Y-6466763D01*
X18556263Y-4688763D02*
X18556263Y-4616637D01*
X18484137Y-4616637D01*
X18484137Y-4688763D01*
X18556263Y-4688763D01*
X18556263Y-6466763D02*
X18556263Y-6394637D01*
X18484137Y-6394637D01*
X18484137Y-6466763D01*
X18556263Y-6466763D01*
X18810263Y-4688763D02*
X18810263Y-4616637D01*
X18738137Y-4616637D01*
X18738137Y-4688763D01*
X18810263Y-4688763D01*
X18810263Y-6466763D02*
X18810263Y-6394637D01*
X18738137Y-6394637D01*
X18738137Y-6466763D01*
X18810263Y-6466763D01*
X19064263Y-4688763D02*
X19064263Y-4616637D01*
X18992137Y-4616637D01*
X18992137Y-4688763D01*
X19064263Y-4688763D01*
X19064263Y-6466763D02*
X19064263Y-6394637D01*
X18992137Y-6394637D01*
X18992137Y-6466763D01*
X19064263Y-6466763D01*
X19318263Y-4688763D02*
X19318263Y-4616637D01*
X19246137Y-4616637D01*
X19246137Y-4688763D01*
X19318263Y-4688763D01*
X19318263Y-6466763D02*
X19318263Y-6394637D01*
X19246137Y-6394637D01*
X19246137Y-6466763D01*
X19318263Y-6466763D01*
X19572263Y-4688763D02*
X19572263Y-4616637D01*
X19500137Y-4616637D01*
X19500137Y-4688763D01*
X19572263Y-4688763D01*
X19572263Y-6466763D02*
X19572263Y-6394637D01*
X19500137Y-6394637D01*
X19500137Y-6466763D01*
X19572263Y-6466763D01*
X19826263Y-4688763D02*
X19826263Y-4616637D01*
X19754137Y-4616637D01*
X19754137Y-4688763D01*
X19826263Y-4688763D01*
X19826263Y-6466763D02*
X19826263Y-6394637D01*
X19754137Y-6394637D01*
X19754137Y-6466763D01*
X19826263Y-6466763D01*
X20080263Y-4688763D02*
X20080263Y-4616637D01*
X20008137Y-4616637D01*
X20008137Y-4688763D01*
X20080263Y-4688763D01*
X20080263Y-6466763D02*
X20080263Y-6394637D01*
X20008137Y-6394637D01*
X20008137Y-6466763D01*
X20080263Y-6466763D01*
X20334263Y-4688763D02*
X20334263Y-4616637D01*
X20262137Y-4616637D01*
X20262137Y-4688763D01*
X20334263Y-4688763D01*
X20334263Y-6466763D02*
X20334263Y-6394637D01*
X20262137Y-6394637D01*
X20262137Y-6466763D01*
X20334263Y-6466763D01*
X20588263Y-4688763D02*
X20588263Y-4616637D01*
X20516137Y-4616637D01*
X20516137Y-4688763D01*
X20588263Y-4688763D01*
X20588263Y-6466763D02*
X20588263Y-6394637D01*
X20516137Y-6394637D01*
X20516137Y-6466763D01*
X20588263Y-6466763D01*
X20842263Y-4688763D02*
X20842263Y-4616637D01*
X20770137Y-4616637D01*
X20770137Y-4688763D01*
X20842263Y-4688763D01*
X20842263Y-6466763D02*
X20842263Y-6394637D01*
X20770137Y-6394637D01*
X20770137Y-6466763D01*
X20842263Y-6466763D01*
X21096263Y-4688763D02*
X21096263Y-4616637D01*
X21024137Y-4616637D01*
X21024137Y-4688763D01*
X21096263Y-4688763D01*
X21096263Y-6466763D02*
X21096263Y-6394637D01*
X21024137Y-6394637D01*
X21024137Y-6466763D01*
X21096263Y-6466763D01*
X21350263Y-4688763D02*
X21350263Y-4616637D01*
X21278137Y-4616637D01*
X21278137Y-4688763D01*
X21350263Y-4688763D01*
X21350263Y-6466763D02*
X21350263Y-6394637D01*
X21278137Y-6394637D01*
X21278137Y-6466763D01*
X21350263Y-6466763D01*
X21604263Y-4688763D02*
X21604263Y-4616637D01*
X21532137Y-4616637D01*
X21532137Y-4688763D01*
X21604263Y-4688763D01*
X21604263Y-6466763D02*
X21604263Y-6394637D01*
X21532137Y-6394637D01*
X21532137Y-6466763D01*
X21604263Y-6466763D01*
X21858263Y-4688763D02*
X21858263Y-4616637D01*
X21786137Y-4616637D01*
X21786137Y-4688763D01*
X21858263Y-4688763D01*
X21858263Y-6466763D02*
X21858263Y-6394637D01*
X21786137Y-6394637D01*
X21786137Y-6466763D01*
X21858263Y-6466763D01*
X22112263Y-4688763D02*
X22112263Y-4616637D01*
X22040137Y-4616637D01*
X22040137Y-4688763D01*
X22112263Y-4688763D01*
X22112263Y-6466763D02*
X22112263Y-6394637D01*
X22040137Y-6394637D01*
X22040137Y-6466763D01*
X22112263Y-6466763D01*
X22366263Y-4688763D02*
X22366263Y-4616637D01*
X22294137Y-4616637D01*
X22294137Y-4688763D01*
X22366263Y-4688763D01*
X22366263Y-6466763D02*
X22366263Y-6394637D01*
X22294137Y-6394637D01*
X22294137Y-6466763D01*
X22366263Y-6466763D01*
X22620263Y-4688763D02*
X22620263Y-4616637D01*
X22548137Y-4616637D01*
X22548137Y-4688763D01*
X22620263Y-4688763D01*
X22620263Y-6466763D02*
X22620263Y-6394637D01*
X22548137Y-6394637D01*
X22548137Y-6466763D01*
X22620263Y-6466763D01*
D15*
X13838888Y-11684824D02*
X13898832Y-11624880D01*
X13838888Y-11564936D01*
X13778944Y-11624880D01*
X13838888Y-11684824D01*
X13838888Y-12335064D02*
X13898832Y-12275120D01*
X13838888Y-12215176D01*
X13778944Y-12275120D01*
X13838888Y-12335064D01*
X14869112Y-11684824D02*
X14929056Y-11624880D01*
X14869112Y-11564936D01*
X14809168Y-11624880D01*
X14869112Y-11684824D01*
X14869112Y-12335064D02*
X14929056Y-12275120D01*
X14869112Y-12215176D01*
X14809168Y-12275120D01*
X14869112Y-12335064D01*
D16*
X16881500Y-8091500D02*
X17008500Y-8218500D01*
X17008500Y-8091500D02*
X16881500Y-8218500D01*
X17008500Y-8155000D02*
G75*
G02*
X16881500Y-8155000I-63500J0D01*
G01*
X16881500Y-8155000D02*
G75*
G02*
X17008500Y-8155000I63500J0D01*
G01*
X16881500Y-9996500D02*
X17008500Y-10123500D01*
X17008500Y-9996500D02*
X16881500Y-10123500D01*
X17008500Y-10060000D02*
G75*
G02*
X16881500Y-10060000I-63500J0D01*
G01*
X16881500Y-10060000D02*
G75*
G02*
X17008500Y-10060000I63500J0D01*
G01*
X16881500Y-11901500D02*
X17008500Y-12028500D01*
X17008500Y-11901500D02*
X16881500Y-12028500D01*
X17008500Y-11965000D02*
G75*
G02*
X16881500Y-11965000I-63500J0D01*
G01*
X16881500Y-11965000D02*
G75*
G02*
X17008500Y-11965000I63500J0D01*
G01*
X17381500Y-8301500D02*
X17508500Y-8428500D01*
X17508500Y-8301500D02*
X17381500Y-8428500D01*
X17508500Y-8365000D02*
G75*
G02*
X17381500Y-8365000I-63500J0D01*
G01*
X17381500Y-8365000D02*
G75*
G02*
X17508500Y-8365000I63500J0D01*
G01*
X17381500Y-10206500D02*
X17508500Y-10333500D01*
X17508500Y-10206500D02*
X17381500Y-10333500D01*
X17508500Y-10270000D02*
G75*
G02*
X17381500Y-10270000I-63500J0D01*
G01*
X17381500Y-10270000D02*
G75*
G02*
X17508500Y-10270000I63500J0D01*
G01*
X17381500Y-12111500D02*
X17508500Y-12238500D01*
X17508500Y-12111500D02*
X17381500Y-12238500D01*
X17508500Y-12175000D02*
G75*
G02*
X17381500Y-12175000I-63500J0D01*
G01*
X17381500Y-12175000D02*
G75*
G02*
X17508500Y-12175000I63500J0D01*
G01*
X18786500Y-8091500D02*
X18913500Y-8218500D01*
X18913500Y-8091500D02*
X18786500Y-8218500D01*
X18913500Y-8155000D02*
G75*
G02*
X18786500Y-8155000I-63500J0D01*
G01*
X18786500Y-8155000D02*
G75*
G02*
X18913500Y-8155000I63500J0D01*
G01*
X18786500Y-9996500D02*
X18913500Y-10123500D01*
X18913500Y-9996500D02*
X18786500Y-10123500D01*
X18913500Y-10060000D02*
G75*
G02*
X18786500Y-10060000I-63500J0D01*
G01*
X18786500Y-10060000D02*
G75*
G02*
X18913500Y-10060000I63500J0D01*
G01*
X18786500Y-11901500D02*
X18913500Y-12028500D01*
X18913500Y-11901500D02*
X18786500Y-12028500D01*
X18913500Y-11965000D02*
G75*
G02*
X18786500Y-11965000I-63500J0D01*
G01*
X18786500Y-11965000D02*
G75*
G02*
X18913500Y-11965000I63500J0D01*
G01*
X19286500Y-8301500D02*
X19413500Y-8428500D01*
X19413500Y-8301500D02*
X19286500Y-8428500D01*
X19413500Y-8365000D02*
G75*
G02*
X19286500Y-8365000I-63500J0D01*
G01*
X19286500Y-8365000D02*
G75*
G02*
X19413500Y-8365000I63500J0D01*
G01*
X19286500Y-10206500D02*
X19413500Y-10333500D01*
X19413500Y-10206500D02*
X19286500Y-10333500D01*
X19413500Y-10270000D02*
G75*
G02*
X19286500Y-10270000I-63500J0D01*
G01*
X19286500Y-10270000D02*
G75*
G02*
X19413500Y-10270000I63500J0D01*
G01*
X19286500Y-12111500D02*
X19413500Y-12238500D01*
X19413500Y-12111500D02*
X19286500Y-12238500D01*
X19413500Y-12175000D02*
G75*
G02*
X19286500Y-12175000I-63500J0D01*
G01*
X19286500Y-12175000D02*
G75*
G02*
X19413500Y-12175000I63500J0D01*
G01*
X20691500Y-8091500D02*
X20818500Y-8218500D01*
X20818500Y-8091500D02*
X20691500Y-8218500D01*
X20818500Y-8155000D02*
G75*
G02*
X20691500Y-8155000I-63500J0D01*
G01*
X20691500Y-8155000D02*
G75*
G02*
X20818500Y-8155000I63500J0D01*
G01*
X20691500Y-9996500D02*
X20818500Y-10123500D01*
X20818500Y-9996500D02*
X20691500Y-10123500D01*
X20818500Y-10060000D02*
G75*
G02*
X20691500Y-10060000I-63500J0D01*
G01*
X20691500Y-10060000D02*
G75*
G02*
X20818500Y-10060000I63500J0D01*
G01*
X20691500Y-11901500D02*
X20818500Y-12028500D01*
X20818500Y-11901500D02*
X20691500Y-12028500D01*
X20818500Y-11965000D02*
G75*
G02*
X20691500Y-11965000I-63500J0D01*
G01*
X20691500Y-11965000D02*
G75*
G02*
X20818500Y-11965000I63500J0D01*
G01*
X21191500Y-8301500D02*
X21318500Y-8428500D01*
X21318500Y-8301500D02*
X21191500Y-8428500D01*
X21318500Y-8365000D02*
G75*
G02*
X21191500Y-8365000I-63500J0D01*
G01*
X21191500Y-8365000D02*
G75*
G02*
X21318500Y-8365000I63500J0D01*
G01*
X21191500Y-10206500D02*
X21318500Y-10333500D01*
X21318500Y-10206500D02*
X21191500Y-10333500D01*
X21318500Y-10270000D02*
G75*
G02*
X21191500Y-10270000I-63500J0D01*
G01*
X21191500Y-10270000D02*
G75*
G02*
X21318500Y-10270000I63500J0D01*
G01*
X21191500Y-12111500D02*
X21318500Y-12238500D01*
X21318500Y-12111500D02*
X21191500Y-12238500D01*
X21318500Y-12175000D02*
G75*
G02*
X21191500Y-12175000I-63500J0D01*
G01*
X21191500Y-12175000D02*
G75*
G02*
X21318500Y-12175000I63500J0D01*
G01*
D17*
X13664000Y-6135000D02*
X13794000Y-6265000D01*
X13794000Y-6135000D02*
X13664000Y-6265000D01*
X13729000Y-6135000D02*
X13729000Y-6265000D01*
X13664000Y-6200000D02*
X13794000Y-6200000D01*
X13664000Y-6635000D02*
X13794000Y-6765000D01*
X13794000Y-6635000D02*
X13664000Y-6765000D01*
X13729000Y-6635000D02*
X13729000Y-6765000D01*
X13664000Y-6700000D02*
X13794000Y-6700000D01*
X14914000Y-6135000D02*
X15044000Y-6265000D01*
X15044000Y-6135000D02*
X14914000Y-6265000D01*
X14979000Y-6135000D02*
X14979000Y-6265000D01*
X14914000Y-6200000D02*
X15044000Y-6200000D01*
X14914000Y-6635000D02*
X15044000Y-6765000D01*
X15044000Y-6635000D02*
X14914000Y-6765000D01*
X14979000Y-6635000D02*
X14979000Y-6765000D01*
X14914000Y-6700000D02*
X15044000Y-6700000D01*
D18*
X14279000Y-7615000D02*
X14429000Y-7765000D01*
X14429000Y-7615000D02*
X14279000Y-7765000D01*
X14407033Y-7743033D02*
X14407033Y-7636966D01*
X14300966Y-7636966D01*
X14300966Y-7743033D01*
X14407033Y-7743033D01*
D12*
X14289000Y-7765000D02*
X14419000Y-7765000D01*
X14419000Y-7615000D02*
G75*
G02*
X14419000Y-7765000I0J-75000D01*
G01*
X14419000Y-7615000D02*
X14289000Y-7615000D01*
X14289000Y-7615000D02*
G75*
G03*
X14289000Y-7765000I0J-75000D01*
G01*
D18*
X14279000Y-8735000D02*
X14429000Y-8885000D01*
X14429000Y-8735000D02*
X14279000Y-8885000D01*
X14407033Y-8863034D02*
X14407033Y-8756967D01*
X14300966Y-8756967D01*
X14300966Y-8863034D01*
X14407033Y-8863034D01*
D12*
X14289000Y-8885000D02*
X14419000Y-8885000D01*
X14419000Y-8735000D02*
G75*
G02*
X14419000Y-8885000I0J-75000D01*
G01*
X14419000Y-8735000D02*
X14289000Y-8735000D01*
X14289000Y-8735000D02*
G75*
G03*
X14289000Y-8885000I0J-75000D01*
G01*
D18*
X14279000Y-9515000D02*
X14429000Y-9665000D01*
X14429000Y-9515000D02*
X14279000Y-9665000D01*
X14407033Y-9643034D02*
X14407033Y-9536967D01*
X14300966Y-9536967D01*
X14300966Y-9643034D01*
X14407033Y-9643034D01*
D12*
X14289000Y-9665000D02*
X14419000Y-9665000D01*
X14419000Y-9515000D02*
G75*
G02*
X14419000Y-9665000I0J-75000D01*
G01*
X14419000Y-9515000D02*
X14289000Y-9515000D01*
X14289000Y-9515000D02*
G75*
G03*
X14289000Y-9665000I0J-75000D01*
G01*
D18*
X14279000Y-10635000D02*
X14429000Y-10785000D01*
X14429000Y-10635000D02*
X14279000Y-10785000D01*
X14407033Y-10763034D02*
X14407033Y-10656967D01*
X14300966Y-10656967D01*
X14300966Y-10763034D01*
X14407033Y-10763034D01*
D12*
X14289000Y-10785000D02*
X14419000Y-10785000D01*
X14419000Y-10635000D02*
G75*
G02*
X14419000Y-10785000I0J-75000D01*
G01*
X14419000Y-10635000D02*
X14289000Y-10635000D01*
X14289000Y-10635000D02*
G75*
G03*
X14289000Y-10785000I0J-75000D01*
G01*
D11*
X12912277Y-13563984D02*
X12912277Y-13363984D01*
X12912277Y-13363984D02*
X12959896Y-13363984D01*
X12959896Y-13363984D02*
X12988467Y-13373508D01*
X12988467Y-13373508D02*
X13007515Y-13392555D01*
X13007515Y-13392555D02*
X13017039Y-13411603D01*
X13017039Y-13411603D02*
X13026562Y-13449698D01*
X13026562Y-13449698D02*
X13026562Y-13478269D01*
X13026562Y-13478269D02*
X13017039Y-13516365D01*
X13017039Y-13516365D02*
X13007515Y-13535412D01*
X13007515Y-13535412D02*
X12988467Y-13554460D01*
X12988467Y-13554460D02*
X12959896Y-13563984D01*
X12959896Y-13563984D02*
X12912277Y-13563984D01*
X13112277Y-13563984D02*
X13112277Y-13430650D01*
X13112277Y-13468746D02*
X13121801Y-13449698D01*
X13121801Y-13449698D02*
X13131324Y-13440174D01*
X13131324Y-13440174D02*
X13150372Y-13430650D01*
X13150372Y-13430650D02*
X13169420Y-13430650D01*
X13236086Y-13563984D02*
X13236086Y-13430650D01*
X13236086Y-13363984D02*
X13226562Y-13373508D01*
X13226562Y-13373508D02*
X13236086Y-13383031D01*
X13236086Y-13383031D02*
X13245610Y-13373508D01*
X13245610Y-13373508D02*
X13236086Y-13363984D01*
X13236086Y-13363984D02*
X13236086Y-13383031D01*
X13359896Y-13563984D02*
X13340848Y-13554460D01*
X13340848Y-13554460D02*
X13331324Y-13535412D01*
X13331324Y-13535412D02*
X13331324Y-13363984D01*
X13464658Y-13563984D02*
X13445610Y-13554460D01*
X13445610Y-13554460D02*
X13436086Y-13535412D01*
X13436086Y-13535412D02*
X13436086Y-13363984D01*
X13693229Y-13563984D02*
X13693229Y-13363984D01*
X13693229Y-13363984D02*
X13759896Y-13506841D01*
X13759896Y-13506841D02*
X13826562Y-13363984D01*
X13826562Y-13363984D02*
X13826562Y-13563984D01*
X14007515Y-13563984D02*
X14007515Y-13459222D01*
X14007515Y-13459222D02*
X13997991Y-13440174D01*
X13997991Y-13440174D02*
X13978943Y-13430650D01*
X13978943Y-13430650D02*
X13940848Y-13430650D01*
X13940848Y-13430650D02*
X13921801Y-13440174D01*
X14007515Y-13554460D02*
X13988467Y-13563984D01*
X13988467Y-13563984D02*
X13940848Y-13563984D01*
X13940848Y-13563984D02*
X13921801Y-13554460D01*
X13921801Y-13554460D02*
X13912277Y-13535412D01*
X13912277Y-13535412D02*
X13912277Y-13516365D01*
X13912277Y-13516365D02*
X13921801Y-13497317D01*
X13921801Y-13497317D02*
X13940848Y-13487793D01*
X13940848Y-13487793D02*
X13988467Y-13487793D01*
X13988467Y-13487793D02*
X14007515Y-13478269D01*
X14102753Y-13430650D02*
X14102753Y-13630650D01*
X14102753Y-13440174D02*
X14121801Y-13430650D01*
X14121801Y-13430650D02*
X14159896Y-13430650D01*
X14159896Y-13430650D02*
X14178943Y-13440174D01*
X14178943Y-13440174D02*
X14188467Y-13449698D01*
X14188467Y-13449698D02*
X14197991Y-13468746D01*
X14197991Y-13468746D02*
X14197991Y-13525888D01*
X14197991Y-13525888D02*
X14188467Y-13544936D01*
X14188467Y-13544936D02*
X14178943Y-13554460D01*
X14178943Y-13554460D02*
X14159896Y-13563984D01*
X14159896Y-13563984D02*
X14121801Y-13563984D01*
X14121801Y-13563984D02*
X14102753Y-13554460D01*
X14283705Y-13544936D02*
X14293229Y-13554460D01*
X14293229Y-13554460D02*
X14283705Y-13563984D01*
X14283705Y-13563984D02*
X14274182Y-13554460D01*
X14274182Y-13554460D02*
X14283705Y-13544936D01*
X14283705Y-13544936D02*
X14283705Y-13563984D01*
X14283705Y-13440174D02*
X14293229Y-13449698D01*
X14293229Y-13449698D02*
X14283705Y-13459222D01*
X14283705Y-13459222D02*
X14274182Y-13449698D01*
X14274182Y-13449698D02*
X14283705Y-13440174D01*
X14283705Y-13440174D02*
X14283705Y-13459222D01*
D12*
X12621500Y-13877500D02*
X12651500Y-13907500D01*
X12651500Y-13877500D02*
X12621500Y-13907500D01*
D11*
X12950372Y-13783984D02*
X12969420Y-13783984D01*
X12969420Y-13783984D02*
X12988467Y-13793508D01*
X12988467Y-13793508D02*
X12997991Y-13803031D01*
X12997991Y-13803031D02*
X13007515Y-13822079D01*
X13007515Y-13822079D02*
X13017039Y-13860174D01*
X13017039Y-13860174D02*
X13017039Y-13907793D01*
X13017039Y-13907793D02*
X13007515Y-13945888D01*
X13007515Y-13945888D02*
X12997991Y-13964936D01*
X12997991Y-13964936D02*
X12988467Y-13974460D01*
X12988467Y-13974460D02*
X12969420Y-13983984D01*
X12969420Y-13983984D02*
X12950372Y-13983984D01*
X12950372Y-13983984D02*
X12931324Y-13974460D01*
X12931324Y-13974460D02*
X12921801Y-13964936D01*
X12921801Y-13964936D02*
X12912277Y-13945888D01*
X12912277Y-13945888D02*
X12902753Y-13907793D01*
X12902753Y-13907793D02*
X12902753Y-13860174D01*
X12902753Y-13860174D02*
X12912277Y-13822079D01*
X12912277Y-13822079D02*
X12921801Y-13803031D01*
X12921801Y-13803031D02*
X12931324Y-13793508D01*
X12931324Y-13793508D02*
X12950372Y-13783984D01*
X13102753Y-13964936D02*
X13112277Y-13974460D01*
X13112277Y-13974460D02*
X13102753Y-13983984D01*
X13102753Y-13983984D02*
X13093229Y-13974460D01*
X13093229Y-13974460D02*
X13102753Y-13964936D01*
X13102753Y-13964936D02*
X13102753Y-13983984D01*
X13178943Y-13783984D02*
X13302753Y-13783984D01*
X13302753Y-13783984D02*
X13236086Y-13860174D01*
X13236086Y-13860174D02*
X13264658Y-13860174D01*
X13264658Y-13860174D02*
X13283705Y-13869698D01*
X13283705Y-13869698D02*
X13293229Y-13879222D01*
X13293229Y-13879222D02*
X13302753Y-13898269D01*
X13302753Y-13898269D02*
X13302753Y-13945888D01*
X13302753Y-13945888D02*
X13293229Y-13964936D01*
X13293229Y-13964936D02*
X13283705Y-13974460D01*
X13283705Y-13974460D02*
X13264658Y-13983984D01*
X13264658Y-13983984D02*
X13207515Y-13983984D01*
X13207515Y-13983984D02*
X13188467Y-13974460D01*
X13188467Y-13974460D02*
X13178943Y-13964936D01*
X13426562Y-13783984D02*
X13445610Y-13783984D01*
X13445610Y-13783984D02*
X13464658Y-13793508D01*
X13464658Y-13793508D02*
X13474182Y-13803031D01*
X13474182Y-13803031D02*
X13483705Y-13822079D01*
X13483705Y-13822079D02*
X13493229Y-13860174D01*
X13493229Y-13860174D02*
X13493229Y-13907793D01*
X13493229Y-13907793D02*
X13483705Y-13945888D01*
X13483705Y-13945888D02*
X13474182Y-13964936D01*
X13474182Y-13964936D02*
X13464658Y-13974460D01*
X13464658Y-13974460D02*
X13445610Y-13983984D01*
X13445610Y-13983984D02*
X13426562Y-13983984D01*
X13426562Y-13983984D02*
X13407515Y-13974460D01*
X13407515Y-13974460D02*
X13397991Y-13964936D01*
X13397991Y-13964936D02*
X13388467Y-13945888D01*
X13388467Y-13945888D02*
X13378943Y-13907793D01*
X13378943Y-13907793D02*
X13378943Y-13860174D01*
X13378943Y-13860174D02*
X13388467Y-13822079D01*
X13388467Y-13822079D02*
X13397991Y-13803031D01*
X13397991Y-13803031D02*
X13407515Y-13793508D01*
X13407515Y-13793508D02*
X13426562Y-13783984D01*
X13617039Y-13783984D02*
X13636086Y-13783984D01*
X13636086Y-13783984D02*
X13655134Y-13793508D01*
X13655134Y-13793508D02*
X13664658Y-13803031D01*
X13664658Y-13803031D02*
X13674182Y-13822079D01*
X13674182Y-13822079D02*
X13683705Y-13860174D01*
X13683705Y-13860174D02*
X13683705Y-13907793D01*
X13683705Y-13907793D02*
X13674182Y-13945888D01*
X13674182Y-13945888D02*
X13664658Y-13964936D01*
X13664658Y-13964936D02*
X13655134Y-13974460D01*
X13655134Y-13974460D02*
X13636086Y-13983984D01*
X13636086Y-13983984D02*
X13617039Y-13983984D01*
X13617039Y-13983984D02*
X13597991Y-13974460D01*
X13597991Y-13974460D02*
X13588467Y-13964936D01*
X13588467Y-13964936D02*
X13578943Y-13945888D01*
X13578943Y-13945888D02*
X13569420Y-13907793D01*
X13569420Y-13907793D02*
X13569420Y-13860174D01*
X13569420Y-13860174D02*
X13578943Y-13822079D01*
X13578943Y-13822079D02*
X13588467Y-13803031D01*
X13588467Y-13803031D02*
X13597991Y-13793508D01*
X13597991Y-13793508D02*
X13617039Y-13783984D01*
X13769420Y-13983984D02*
X13769420Y-13850650D01*
X13769420Y-13869698D02*
X13778943Y-13860174D01*
X13778943Y-13860174D02*
X13797991Y-13850650D01*
X13797991Y-13850650D02*
X13826563Y-13850650D01*
X13826563Y-13850650D02*
X13845610Y-13860174D01*
X13845610Y-13860174D02*
X13855134Y-13879222D01*
X13855134Y-13879222D02*
X13855134Y-13983984D01*
X13855134Y-13879222D02*
X13864658Y-13860174D01*
X13864658Y-13860174D02*
X13883705Y-13850650D01*
X13883705Y-13850650D02*
X13912277Y-13850650D01*
X13912277Y-13850650D02*
X13931324Y-13860174D01*
X13931324Y-13860174D02*
X13940848Y-13879222D01*
X13940848Y-13879222D02*
X13940848Y-13983984D01*
X14036086Y-13983984D02*
X14036086Y-13850650D01*
X14036086Y-13869698D02*
X14045610Y-13860174D01*
X14045610Y-13860174D02*
X14064658Y-13850650D01*
X14064658Y-13850650D02*
X14093229Y-13850650D01*
X14093229Y-13850650D02*
X14112277Y-13860174D01*
X14112277Y-13860174D02*
X14121801Y-13879222D01*
X14121801Y-13879222D02*
X14121801Y-13983984D01*
X14121801Y-13879222D02*
X14131324Y-13860174D01*
X14131324Y-13860174D02*
X14150372Y-13850650D01*
X14150372Y-13850650D02*
X14178943Y-13850650D01*
X14178943Y-13850650D02*
X14197991Y-13860174D01*
X14197991Y-13860174D02*
X14207515Y-13879222D01*
X14207515Y-13879222D02*
X14207515Y-13983984D01*
X14597991Y-13774460D02*
X14426563Y-14031603D01*
X14855134Y-13783984D02*
X14874182Y-13783984D01*
X14874182Y-13783984D02*
X14893229Y-13793508D01*
X14893229Y-13793508D02*
X14902753Y-13803031D01*
X14902753Y-13803031D02*
X14912277Y-13822079D01*
X14912277Y-13822079D02*
X14921801Y-13860174D01*
X14921801Y-13860174D02*
X14921801Y-13907793D01*
X14921801Y-13907793D02*
X14912277Y-13945888D01*
X14912277Y-13945888D02*
X14902753Y-13964936D01*
X14902753Y-13964936D02*
X14893229Y-13974460D01*
X14893229Y-13974460D02*
X14874182Y-13983984D01*
X14874182Y-13983984D02*
X14855134Y-13983984D01*
X14855134Y-13983984D02*
X14836086Y-13974460D01*
X14836086Y-13974460D02*
X14826563Y-13964936D01*
X14826563Y-13964936D02*
X14817039Y-13945888D01*
X14817039Y-13945888D02*
X14807515Y-13907793D01*
X14807515Y-13907793D02*
X14807515Y-13860174D01*
X14807515Y-13860174D02*
X14817039Y-13822079D01*
X14817039Y-13822079D02*
X14826563Y-13803031D01*
X14826563Y-13803031D02*
X14836086Y-13793508D01*
X14836086Y-13793508D02*
X14855134Y-13783984D01*
X15007515Y-13964936D02*
X15017039Y-13974460D01*
X15017039Y-13974460D02*
X15007515Y-13983984D01*
X15007515Y-13983984D02*
X14997991Y-13974460D01*
X14997991Y-13974460D02*
X15007515Y-13964936D01*
X15007515Y-13964936D02*
X15007515Y-13983984D01*
X15140848Y-13783984D02*
X15159896Y-13783984D01*
X15159896Y-13783984D02*
X15178944Y-13793508D01*
X15178944Y-13793508D02*
X15188467Y-13803031D01*
X15188467Y-13803031D02*
X15197991Y-13822079D01*
X15197991Y-13822079D02*
X15207515Y-13860174D01*
X15207515Y-13860174D02*
X15207515Y-13907793D01*
X15207515Y-13907793D02*
X15197991Y-13945888D01*
X15197991Y-13945888D02*
X15188467Y-13964936D01*
X15188467Y-13964936D02*
X15178944Y-13974460D01*
X15178944Y-13974460D02*
X15159896Y-13983984D01*
X15159896Y-13983984D02*
X15140848Y-13983984D01*
X15140848Y-13983984D02*
X15121801Y-13974460D01*
X15121801Y-13974460D02*
X15112277Y-13964936D01*
X15112277Y-13964936D02*
X15102753Y-13945888D01*
X15102753Y-13945888D02*
X15093229Y-13907793D01*
X15093229Y-13907793D02*
X15093229Y-13860174D01*
X15093229Y-13860174D02*
X15102753Y-13822079D01*
X15102753Y-13822079D02*
X15112277Y-13803031D01*
X15112277Y-13803031D02*
X15121801Y-13793508D01*
X15121801Y-13793508D02*
X15140848Y-13783984D01*
X15397991Y-13983984D02*
X15283706Y-13983984D01*
X15340848Y-13983984D02*
X15340848Y-13783984D01*
X15340848Y-13783984D02*
X15321801Y-13812555D01*
X15321801Y-13812555D02*
X15302753Y-13831603D01*
X15302753Y-13831603D02*
X15283706Y-13841127D01*
X15588467Y-13983984D02*
X15474182Y-13983984D01*
X15531325Y-13983984D02*
X15531325Y-13783984D01*
X15531325Y-13783984D02*
X15512277Y-13812555D01*
X15512277Y-13812555D02*
X15493229Y-13831603D01*
X15493229Y-13831603D02*
X15474182Y-13841127D01*
X15702753Y-13869698D02*
X15683706Y-13860174D01*
X15683706Y-13860174D02*
X15674182Y-13850650D01*
X15674182Y-13850650D02*
X15664658Y-13831603D01*
X15664658Y-13831603D02*
X15664658Y-13822079D01*
X15664658Y-13822079D02*
X15674182Y-13803031D01*
X15674182Y-13803031D02*
X15683706Y-13793508D01*
X15683706Y-13793508D02*
X15702753Y-13783984D01*
X15702753Y-13783984D02*
X15740848Y-13783984D01*
X15740848Y-13783984D02*
X15759896Y-13793508D01*
X15759896Y-13793508D02*
X15769420Y-13803031D01*
X15769420Y-13803031D02*
X15778944Y-13822079D01*
X15778944Y-13822079D02*
X15778944Y-13831603D01*
X15778944Y-13831603D02*
X15769420Y-13850650D01*
X15769420Y-13850650D02*
X15759896Y-13860174D01*
X15759896Y-13860174D02*
X15740848Y-13869698D01*
X15740848Y-13869698D02*
X15702753Y-13869698D01*
X15702753Y-13869698D02*
X15683706Y-13879222D01*
X15683706Y-13879222D02*
X15674182Y-13888746D01*
X15674182Y-13888746D02*
X15664658Y-13907793D01*
X15664658Y-13907793D02*
X15664658Y-13945888D01*
X15664658Y-13945888D02*
X15674182Y-13964936D01*
X15674182Y-13964936D02*
X15683706Y-13974460D01*
X15683706Y-13974460D02*
X15702753Y-13983984D01*
X15702753Y-13983984D02*
X15740848Y-13983984D01*
X15740848Y-13983984D02*
X15759896Y-13974460D01*
X15759896Y-13974460D02*
X15769420Y-13964936D01*
X15769420Y-13964936D02*
X15778944Y-13945888D01*
X15778944Y-13945888D02*
X15778944Y-13907793D01*
X15778944Y-13907793D02*
X15769420Y-13888746D01*
X15769420Y-13888746D02*
X15759896Y-13879222D01*
X15759896Y-13879222D02*
X15740848Y-13869698D01*
X15855134Y-13783984D02*
X15855134Y-13822079D01*
X15931325Y-13783984D02*
X15931325Y-13822079D01*
X16226563Y-14060174D02*
X16217039Y-14050650D01*
X16217039Y-14050650D02*
X16197991Y-14022079D01*
X16197991Y-14022079D02*
X16188468Y-14003031D01*
X16188468Y-14003031D02*
X16178944Y-13974460D01*
X16178944Y-13974460D02*
X16169420Y-13926841D01*
X16169420Y-13926841D02*
X16169420Y-13888746D01*
X16169420Y-13888746D02*
X16178944Y-13841127D01*
X16178944Y-13841127D02*
X16188468Y-13812555D01*
X16188468Y-13812555D02*
X16197991Y-13793508D01*
X16197991Y-13793508D02*
X16217039Y-13764936D01*
X16217039Y-13764936D02*
X16226563Y-13755412D01*
X16388468Y-13783984D02*
X16350372Y-13783984D01*
X16350372Y-13783984D02*
X16331325Y-13793508D01*
X16331325Y-13793508D02*
X16321801Y-13803031D01*
X16321801Y-13803031D02*
X16302753Y-13831603D01*
X16302753Y-13831603D02*
X16293229Y-13869698D01*
X16293229Y-13869698D02*
X16293229Y-13945888D01*
X16293229Y-13945888D02*
X16302753Y-13964936D01*
X16302753Y-13964936D02*
X16312277Y-13974460D01*
X16312277Y-13974460D02*
X16331325Y-13983984D01*
X16331325Y-13983984D02*
X16369420Y-13983984D01*
X16369420Y-13983984D02*
X16388468Y-13974460D01*
X16388468Y-13974460D02*
X16397991Y-13964936D01*
X16397991Y-13964936D02*
X16407515Y-13945888D01*
X16407515Y-13945888D02*
X16407515Y-13898269D01*
X16407515Y-13898269D02*
X16397991Y-13879222D01*
X16397991Y-13879222D02*
X16388468Y-13869698D01*
X16388468Y-13869698D02*
X16369420Y-13860174D01*
X16369420Y-13860174D02*
X16331325Y-13860174D01*
X16331325Y-13860174D02*
X16312277Y-13869698D01*
X16312277Y-13869698D02*
X16302753Y-13879222D01*
X16302753Y-13879222D02*
X16293229Y-13898269D01*
X16645610Y-13983984D02*
X16645610Y-13783984D01*
X16731325Y-13983984D02*
X16731325Y-13879222D01*
X16731325Y-13879222D02*
X16721801Y-13860174D01*
X16721801Y-13860174D02*
X16702753Y-13850650D01*
X16702753Y-13850650D02*
X16674182Y-13850650D01*
X16674182Y-13850650D02*
X16655134Y-13860174D01*
X16655134Y-13860174D02*
X16645610Y-13869698D01*
X16855134Y-13983984D02*
X16836087Y-13974460D01*
X16836087Y-13974460D02*
X16826563Y-13964936D01*
X16826563Y-13964936D02*
X16817039Y-13945888D01*
X16817039Y-13945888D02*
X16817039Y-13888746D01*
X16817039Y-13888746D02*
X16826563Y-13869698D01*
X16826563Y-13869698D02*
X16836087Y-13860174D01*
X16836087Y-13860174D02*
X16855134Y-13850650D01*
X16855134Y-13850650D02*
X16883706Y-13850650D01*
X16883706Y-13850650D02*
X16902753Y-13860174D01*
X16902753Y-13860174D02*
X16912277Y-13869698D01*
X16912277Y-13869698D02*
X16921801Y-13888746D01*
X16921801Y-13888746D02*
X16921801Y-13945888D01*
X16921801Y-13945888D02*
X16912277Y-13964936D01*
X16912277Y-13964936D02*
X16902753Y-13974460D01*
X16902753Y-13974460D02*
X16883706Y-13983984D01*
X16883706Y-13983984D02*
X16855134Y-13983984D01*
X17036087Y-13983984D02*
X17017039Y-13974460D01*
X17017039Y-13974460D02*
X17007515Y-13955412D01*
X17007515Y-13955412D02*
X17007515Y-13783984D01*
X17188468Y-13974460D02*
X17169420Y-13983984D01*
X17169420Y-13983984D02*
X17131325Y-13983984D01*
X17131325Y-13983984D02*
X17112277Y-13974460D01*
X17112277Y-13974460D02*
X17102753Y-13955412D01*
X17102753Y-13955412D02*
X17102753Y-13879222D01*
X17102753Y-13879222D02*
X17112277Y-13860174D01*
X17112277Y-13860174D02*
X17131325Y-13850650D01*
X17131325Y-13850650D02*
X17169420Y-13850650D01*
X17169420Y-13850650D02*
X17188468Y-13860174D01*
X17188468Y-13860174D02*
X17197992Y-13879222D01*
X17197992Y-13879222D02*
X17197992Y-13898269D01*
X17197992Y-13898269D02*
X17102753Y-13917317D01*
X17274182Y-13974460D02*
X17293230Y-13983984D01*
X17293230Y-13983984D02*
X17331325Y-13983984D01*
X17331325Y-13983984D02*
X17350373Y-13974460D01*
X17350373Y-13974460D02*
X17359896Y-13955412D01*
X17359896Y-13955412D02*
X17359896Y-13945888D01*
X17359896Y-13945888D02*
X17350373Y-13926841D01*
X17350373Y-13926841D02*
X17331325Y-13917317D01*
X17331325Y-13917317D02*
X17302753Y-13917317D01*
X17302753Y-13917317D02*
X17283706Y-13907793D01*
X17283706Y-13907793D02*
X17274182Y-13888746D01*
X17274182Y-13888746D02*
X17274182Y-13879222D01*
X17274182Y-13879222D02*
X17283706Y-13860174D01*
X17283706Y-13860174D02*
X17302753Y-13850650D01*
X17302753Y-13850650D02*
X17331325Y-13850650D01*
X17331325Y-13850650D02*
X17350373Y-13860174D01*
X17426563Y-14060174D02*
X17436087Y-14050650D01*
X17436087Y-14050650D02*
X17455134Y-14022079D01*
X17455134Y-14022079D02*
X17464658Y-14003031D01*
X17464658Y-14003031D02*
X17474182Y-13974460D01*
X17474182Y-13974460D02*
X17483706Y-13926841D01*
X17483706Y-13926841D02*
X17483706Y-13888746D01*
X17483706Y-13888746D02*
X17474182Y-13841127D01*
X17474182Y-13841127D02*
X17464658Y-13812555D01*
X17464658Y-13812555D02*
X17455134Y-13793508D01*
X17455134Y-13793508D02*
X17436087Y-13764936D01*
X17436087Y-13764936D02*
X17426563Y-13755412D01*
D12*
X12651500Y-14156500D02*
G75*
G02*
X12551500Y-14156500I-50000J0D01*
G01*
X12551500Y-14156500D02*
G75*
G02*
X12651500Y-14156500I50000J0D01*
G01*
D11*
X13017039Y-14247984D02*
X12902753Y-14247984D01*
X12959896Y-14247984D02*
X12959896Y-14047984D01*
X12959896Y-14047984D02*
X12940848Y-14076555D01*
X12940848Y-14076555D02*
X12921801Y-14095603D01*
X12921801Y-14095603D02*
X12902753Y-14105127D01*
X13102753Y-14228936D02*
X13112277Y-14238460D01*
X13112277Y-14238460D02*
X13102753Y-14247984D01*
X13102753Y-14247984D02*
X13093229Y-14238460D01*
X13093229Y-14238460D02*
X13102753Y-14228936D01*
X13102753Y-14228936D02*
X13102753Y-14247984D01*
X13236086Y-14047984D02*
X13255134Y-14047984D01*
X13255134Y-14047984D02*
X13274182Y-14057508D01*
X13274182Y-14057508D02*
X13283705Y-14067031D01*
X13283705Y-14067031D02*
X13293229Y-14086079D01*
X13293229Y-14086079D02*
X13302753Y-14124174D01*
X13302753Y-14124174D02*
X13302753Y-14171793D01*
X13302753Y-14171793D02*
X13293229Y-14209888D01*
X13293229Y-14209888D02*
X13283705Y-14228936D01*
X13283705Y-14228936D02*
X13274182Y-14238460D01*
X13274182Y-14238460D02*
X13255134Y-14247984D01*
X13255134Y-14247984D02*
X13236086Y-14247984D01*
X13236086Y-14247984D02*
X13217039Y-14238460D01*
X13217039Y-14238460D02*
X13207515Y-14228936D01*
X13207515Y-14228936D02*
X13197991Y-14209888D01*
X13197991Y-14209888D02*
X13188467Y-14171793D01*
X13188467Y-14171793D02*
X13188467Y-14124174D01*
X13188467Y-14124174D02*
X13197991Y-14086079D01*
X13197991Y-14086079D02*
X13207515Y-14067031D01*
X13207515Y-14067031D02*
X13217039Y-14057508D01*
X13217039Y-14057508D02*
X13236086Y-14047984D01*
X13426562Y-14047984D02*
X13445610Y-14047984D01*
X13445610Y-14047984D02*
X13464658Y-14057508D01*
X13464658Y-14057508D02*
X13474182Y-14067031D01*
X13474182Y-14067031D02*
X13483705Y-14086079D01*
X13483705Y-14086079D02*
X13493229Y-14124174D01*
X13493229Y-14124174D02*
X13493229Y-14171793D01*
X13493229Y-14171793D02*
X13483705Y-14209888D01*
X13483705Y-14209888D02*
X13474182Y-14228936D01*
X13474182Y-14228936D02*
X13464658Y-14238460D01*
X13464658Y-14238460D02*
X13445610Y-14247984D01*
X13445610Y-14247984D02*
X13426562Y-14247984D01*
X13426562Y-14247984D02*
X13407515Y-14238460D01*
X13407515Y-14238460D02*
X13397991Y-14228936D01*
X13397991Y-14228936D02*
X13388467Y-14209888D01*
X13388467Y-14209888D02*
X13378943Y-14171793D01*
X13378943Y-14171793D02*
X13378943Y-14124174D01*
X13378943Y-14124174D02*
X13388467Y-14086079D01*
X13388467Y-14086079D02*
X13397991Y-14067031D01*
X13397991Y-14067031D02*
X13407515Y-14057508D01*
X13407515Y-14057508D02*
X13426562Y-14047984D01*
X13617039Y-14047984D02*
X13636086Y-14047984D01*
X13636086Y-14047984D02*
X13655134Y-14057508D01*
X13655134Y-14057508D02*
X13664658Y-14067031D01*
X13664658Y-14067031D02*
X13674182Y-14086079D01*
X13674182Y-14086079D02*
X13683705Y-14124174D01*
X13683705Y-14124174D02*
X13683705Y-14171793D01*
X13683705Y-14171793D02*
X13674182Y-14209888D01*
X13674182Y-14209888D02*
X13664658Y-14228936D01*
X13664658Y-14228936D02*
X13655134Y-14238460D01*
X13655134Y-14238460D02*
X13636086Y-14247984D01*
X13636086Y-14247984D02*
X13617039Y-14247984D01*
X13617039Y-14247984D02*
X13597991Y-14238460D01*
X13597991Y-14238460D02*
X13588467Y-14228936D01*
X13588467Y-14228936D02*
X13578943Y-14209888D01*
X13578943Y-14209888D02*
X13569420Y-14171793D01*
X13569420Y-14171793D02*
X13569420Y-14124174D01*
X13569420Y-14124174D02*
X13578943Y-14086079D01*
X13578943Y-14086079D02*
X13588467Y-14067031D01*
X13588467Y-14067031D02*
X13597991Y-14057508D01*
X13597991Y-14057508D02*
X13617039Y-14047984D01*
X13769420Y-14247984D02*
X13769420Y-14114650D01*
X13769420Y-14133698D02*
X13778943Y-14124174D01*
X13778943Y-14124174D02*
X13797991Y-14114650D01*
X13797991Y-14114650D02*
X13826563Y-14114650D01*
X13826563Y-14114650D02*
X13845610Y-14124174D01*
X13845610Y-14124174D02*
X13855134Y-14143222D01*
X13855134Y-14143222D02*
X13855134Y-14247984D01*
X13855134Y-14143222D02*
X13864658Y-14124174D01*
X13864658Y-14124174D02*
X13883705Y-14114650D01*
X13883705Y-14114650D02*
X13912277Y-14114650D01*
X13912277Y-14114650D02*
X13931324Y-14124174D01*
X13931324Y-14124174D02*
X13940848Y-14143222D01*
X13940848Y-14143222D02*
X13940848Y-14247984D01*
X14036086Y-14247984D02*
X14036086Y-14114650D01*
X14036086Y-14133698D02*
X14045610Y-14124174D01*
X14045610Y-14124174D02*
X14064658Y-14114650D01*
X14064658Y-14114650D02*
X14093229Y-14114650D01*
X14093229Y-14114650D02*
X14112277Y-14124174D01*
X14112277Y-14124174D02*
X14121801Y-14143222D01*
X14121801Y-14143222D02*
X14121801Y-14247984D01*
X14121801Y-14143222D02*
X14131324Y-14124174D01*
X14131324Y-14124174D02*
X14150372Y-14114650D01*
X14150372Y-14114650D02*
X14178943Y-14114650D01*
X14178943Y-14114650D02*
X14197991Y-14124174D01*
X14197991Y-14124174D02*
X14207515Y-14143222D01*
X14207515Y-14143222D02*
X14207515Y-14247984D01*
X14597991Y-14038460D02*
X14426563Y-14295603D01*
X14855134Y-14047984D02*
X14874182Y-14047984D01*
X14874182Y-14047984D02*
X14893229Y-14057508D01*
X14893229Y-14057508D02*
X14902753Y-14067031D01*
X14902753Y-14067031D02*
X14912277Y-14086079D01*
X14912277Y-14086079D02*
X14921801Y-14124174D01*
X14921801Y-14124174D02*
X14921801Y-14171793D01*
X14921801Y-14171793D02*
X14912277Y-14209888D01*
X14912277Y-14209888D02*
X14902753Y-14228936D01*
X14902753Y-14228936D02*
X14893229Y-14238460D01*
X14893229Y-14238460D02*
X14874182Y-14247984D01*
X14874182Y-14247984D02*
X14855134Y-14247984D01*
X14855134Y-14247984D02*
X14836086Y-14238460D01*
X14836086Y-14238460D02*
X14826563Y-14228936D01*
X14826563Y-14228936D02*
X14817039Y-14209888D01*
X14817039Y-14209888D02*
X14807515Y-14171793D01*
X14807515Y-14171793D02*
X14807515Y-14124174D01*
X14807515Y-14124174D02*
X14817039Y-14086079D01*
X14817039Y-14086079D02*
X14826563Y-14067031D01*
X14826563Y-14067031D02*
X14836086Y-14057508D01*
X14836086Y-14057508D02*
X14855134Y-14047984D01*
X15007515Y-14228936D02*
X15017039Y-14238460D01*
X15017039Y-14238460D02*
X15007515Y-14247984D01*
X15007515Y-14247984D02*
X14997991Y-14238460D01*
X14997991Y-14238460D02*
X15007515Y-14228936D01*
X15007515Y-14228936D02*
X15007515Y-14247984D01*
X15140848Y-14047984D02*
X15159896Y-14047984D01*
X15159896Y-14047984D02*
X15178944Y-14057508D01*
X15178944Y-14057508D02*
X15188467Y-14067031D01*
X15188467Y-14067031D02*
X15197991Y-14086079D01*
X15197991Y-14086079D02*
X15207515Y-14124174D01*
X15207515Y-14124174D02*
X15207515Y-14171793D01*
X15207515Y-14171793D02*
X15197991Y-14209888D01*
X15197991Y-14209888D02*
X15188467Y-14228936D01*
X15188467Y-14228936D02*
X15178944Y-14238460D01*
X15178944Y-14238460D02*
X15159896Y-14247984D01*
X15159896Y-14247984D02*
X15140848Y-14247984D01*
X15140848Y-14247984D02*
X15121801Y-14238460D01*
X15121801Y-14238460D02*
X15112277Y-14228936D01*
X15112277Y-14228936D02*
X15102753Y-14209888D01*
X15102753Y-14209888D02*
X15093229Y-14171793D01*
X15093229Y-14171793D02*
X15093229Y-14124174D01*
X15093229Y-14124174D02*
X15102753Y-14086079D01*
X15102753Y-14086079D02*
X15112277Y-14067031D01*
X15112277Y-14067031D02*
X15121801Y-14057508D01*
X15121801Y-14057508D02*
X15140848Y-14047984D01*
X15274182Y-14047984D02*
X15397991Y-14047984D01*
X15397991Y-14047984D02*
X15331325Y-14124174D01*
X15331325Y-14124174D02*
X15359896Y-14124174D01*
X15359896Y-14124174D02*
X15378944Y-14133698D01*
X15378944Y-14133698D02*
X15388467Y-14143222D01*
X15388467Y-14143222D02*
X15397991Y-14162269D01*
X15397991Y-14162269D02*
X15397991Y-14209888D01*
X15397991Y-14209888D02*
X15388467Y-14228936D01*
X15388467Y-14228936D02*
X15378944Y-14238460D01*
X15378944Y-14238460D02*
X15359896Y-14247984D01*
X15359896Y-14247984D02*
X15302753Y-14247984D01*
X15302753Y-14247984D02*
X15283706Y-14238460D01*
X15283706Y-14238460D02*
X15274182Y-14228936D01*
X15493229Y-14247984D02*
X15531325Y-14247984D01*
X15531325Y-14247984D02*
X15550372Y-14238460D01*
X15550372Y-14238460D02*
X15559896Y-14228936D01*
X15559896Y-14228936D02*
X15578944Y-14200365D01*
X15578944Y-14200365D02*
X15588467Y-14162269D01*
X15588467Y-14162269D02*
X15588467Y-14086079D01*
X15588467Y-14086079D02*
X15578944Y-14067031D01*
X15578944Y-14067031D02*
X15569420Y-14057508D01*
X15569420Y-14057508D02*
X15550372Y-14047984D01*
X15550372Y-14047984D02*
X15512277Y-14047984D01*
X15512277Y-14047984D02*
X15493229Y-14057508D01*
X15493229Y-14057508D02*
X15483706Y-14067031D01*
X15483706Y-14067031D02*
X15474182Y-14086079D01*
X15474182Y-14086079D02*
X15474182Y-14133698D01*
X15474182Y-14133698D02*
X15483706Y-14152746D01*
X15483706Y-14152746D02*
X15493229Y-14162269D01*
X15493229Y-14162269D02*
X15512277Y-14171793D01*
X15512277Y-14171793D02*
X15550372Y-14171793D01*
X15550372Y-14171793D02*
X15569420Y-14162269D01*
X15569420Y-14162269D02*
X15578944Y-14152746D01*
X15578944Y-14152746D02*
X15588467Y-14133698D01*
X15759896Y-14114650D02*
X15759896Y-14247984D01*
X15712277Y-14038460D02*
X15664658Y-14181317D01*
X15664658Y-14181317D02*
X15788467Y-14181317D01*
X15855134Y-14047984D02*
X15855134Y-14086079D01*
X15931325Y-14047984D02*
X15931325Y-14086079D01*
X16226563Y-14324174D02*
X16217039Y-14314650D01*
X16217039Y-14314650D02*
X16197991Y-14286079D01*
X16197991Y-14286079D02*
X16188468Y-14267031D01*
X16188468Y-14267031D02*
X16178944Y-14238460D01*
X16178944Y-14238460D02*
X16169420Y-14190841D01*
X16169420Y-14190841D02*
X16169420Y-14152746D01*
X16169420Y-14152746D02*
X16178944Y-14105127D01*
X16178944Y-14105127D02*
X16188468Y-14076555D01*
X16188468Y-14076555D02*
X16197991Y-14057508D01*
X16197991Y-14057508D02*
X16217039Y-14028936D01*
X16217039Y-14028936D02*
X16226563Y-14019412D01*
X16388468Y-14114650D02*
X16388468Y-14247984D01*
X16340848Y-14038460D02*
X16293229Y-14181317D01*
X16293229Y-14181317D02*
X16417039Y-14181317D01*
X16645610Y-14247984D02*
X16645610Y-14047984D01*
X16731325Y-14247984D02*
X16731325Y-14143222D01*
X16731325Y-14143222D02*
X16721801Y-14124174D01*
X16721801Y-14124174D02*
X16702753Y-14114650D01*
X16702753Y-14114650D02*
X16674182Y-14114650D01*
X16674182Y-14114650D02*
X16655134Y-14124174D01*
X16655134Y-14124174D02*
X16645610Y-14133698D01*
X16855134Y-14247984D02*
X16836087Y-14238460D01*
X16836087Y-14238460D02*
X16826563Y-14228936D01*
X16826563Y-14228936D02*
X16817039Y-14209888D01*
X16817039Y-14209888D02*
X16817039Y-14152746D01*
X16817039Y-14152746D02*
X16826563Y-14133698D01*
X16826563Y-14133698D02*
X16836087Y-14124174D01*
X16836087Y-14124174D02*
X16855134Y-14114650D01*
X16855134Y-14114650D02*
X16883706Y-14114650D01*
X16883706Y-14114650D02*
X16902753Y-14124174D01*
X16902753Y-14124174D02*
X16912277Y-14133698D01*
X16912277Y-14133698D02*
X16921801Y-14152746D01*
X16921801Y-14152746D02*
X16921801Y-14209888D01*
X16921801Y-14209888D02*
X16912277Y-14228936D01*
X16912277Y-14228936D02*
X16902753Y-14238460D01*
X16902753Y-14238460D02*
X16883706Y-14247984D01*
X16883706Y-14247984D02*
X16855134Y-14247984D01*
X17036087Y-14247984D02*
X17017039Y-14238460D01*
X17017039Y-14238460D02*
X17007515Y-14219412D01*
X17007515Y-14219412D02*
X17007515Y-14047984D01*
X17188468Y-14238460D02*
X17169420Y-14247984D01*
X17169420Y-14247984D02*
X17131325Y-14247984D01*
X17131325Y-14247984D02*
X17112277Y-14238460D01*
X17112277Y-14238460D02*
X17102753Y-14219412D01*
X17102753Y-14219412D02*
X17102753Y-14143222D01*
X17102753Y-14143222D02*
X17112277Y-14124174D01*
X17112277Y-14124174D02*
X17131325Y-14114650D01*
X17131325Y-14114650D02*
X17169420Y-14114650D01*
X17169420Y-14114650D02*
X17188468Y-14124174D01*
X17188468Y-14124174D02*
X17197992Y-14143222D01*
X17197992Y-14143222D02*
X17197992Y-14162269D01*
X17197992Y-14162269D02*
X17102753Y-14181317D01*
X17274182Y-14238460D02*
X17293230Y-14247984D01*
X17293230Y-14247984D02*
X17331325Y-14247984D01*
X17331325Y-14247984D02*
X17350373Y-14238460D01*
X17350373Y-14238460D02*
X17359896Y-14219412D01*
X17359896Y-14219412D02*
X17359896Y-14209888D01*
X17359896Y-14209888D02*
X17350373Y-14190841D01*
X17350373Y-14190841D02*
X17331325Y-14181317D01*
X17331325Y-14181317D02*
X17302753Y-14181317D01*
X17302753Y-14181317D02*
X17283706Y-14171793D01*
X17283706Y-14171793D02*
X17274182Y-14152746D01*
X17274182Y-14152746D02*
X17274182Y-14143222D01*
X17274182Y-14143222D02*
X17283706Y-14124174D01*
X17283706Y-14124174D02*
X17302753Y-14114650D01*
X17302753Y-14114650D02*
X17331325Y-14114650D01*
X17331325Y-14114650D02*
X17350373Y-14124174D01*
X17597992Y-14171793D02*
X17750373Y-14171793D01*
X17674182Y-14247984D02*
X17674182Y-14095603D01*
X18102754Y-14247984D02*
X17988468Y-14247984D01*
X18045611Y-14247984D02*
X18045611Y-14047984D01*
X18045611Y-14047984D02*
X18026563Y-14076555D01*
X18026563Y-14076555D02*
X18007515Y-14095603D01*
X18007515Y-14095603D02*
X17988468Y-14105127D01*
X18226563Y-14047984D02*
X18245611Y-14047984D01*
X18245611Y-14047984D02*
X18264658Y-14057508D01*
X18264658Y-14057508D02*
X18274182Y-14067031D01*
X18274182Y-14067031D02*
X18283706Y-14086079D01*
X18283706Y-14086079D02*
X18293230Y-14124174D01*
X18293230Y-14124174D02*
X18293230Y-14171793D01*
X18293230Y-14171793D02*
X18283706Y-14209888D01*
X18283706Y-14209888D02*
X18274182Y-14228936D01*
X18274182Y-14228936D02*
X18264658Y-14238460D01*
X18264658Y-14238460D02*
X18245611Y-14247984D01*
X18245611Y-14247984D02*
X18226563Y-14247984D01*
X18226563Y-14247984D02*
X18207515Y-14238460D01*
X18207515Y-14238460D02*
X18197992Y-14228936D01*
X18197992Y-14228936D02*
X18188468Y-14209888D01*
X18188468Y-14209888D02*
X18178944Y-14171793D01*
X18178944Y-14171793D02*
X18178944Y-14124174D01*
X18178944Y-14124174D02*
X18188468Y-14086079D01*
X18188468Y-14086079D02*
X18197992Y-14067031D01*
X18197992Y-14067031D02*
X18207515Y-14057508D01*
X18207515Y-14057508D02*
X18226563Y-14047984D01*
X18521801Y-14238460D02*
X18540849Y-14247984D01*
X18540849Y-14247984D02*
X18578944Y-14247984D01*
X18578944Y-14247984D02*
X18597992Y-14238460D01*
X18597992Y-14238460D02*
X18607516Y-14219412D01*
X18607516Y-14219412D02*
X18607516Y-14209888D01*
X18607516Y-14209888D02*
X18597992Y-14190841D01*
X18597992Y-14190841D02*
X18578944Y-14181317D01*
X18578944Y-14181317D02*
X18550373Y-14181317D01*
X18550373Y-14181317D02*
X18531325Y-14171793D01*
X18531325Y-14171793D02*
X18521801Y-14152746D01*
X18521801Y-14152746D02*
X18521801Y-14143222D01*
X18521801Y-14143222D02*
X18531325Y-14124174D01*
X18531325Y-14124174D02*
X18550373Y-14114650D01*
X18550373Y-14114650D02*
X18578944Y-14114650D01*
X18578944Y-14114650D02*
X18597992Y-14124174D01*
X18721801Y-14247984D02*
X18702754Y-14238460D01*
X18702754Y-14238460D02*
X18693230Y-14219412D01*
X18693230Y-14219412D02*
X18693230Y-14047984D01*
X18826563Y-14247984D02*
X18807516Y-14238460D01*
X18807516Y-14238460D02*
X18797992Y-14228936D01*
X18797992Y-14228936D02*
X18788468Y-14209888D01*
X18788468Y-14209888D02*
X18788468Y-14152746D01*
X18788468Y-14152746D02*
X18797992Y-14133698D01*
X18797992Y-14133698D02*
X18807516Y-14124174D01*
X18807516Y-14124174D02*
X18826563Y-14114650D01*
X18826563Y-14114650D02*
X18855135Y-14114650D01*
X18855135Y-14114650D02*
X18874182Y-14124174D01*
X18874182Y-14124174D02*
X18883706Y-14133698D01*
X18883706Y-14133698D02*
X18893230Y-14152746D01*
X18893230Y-14152746D02*
X18893230Y-14209888D01*
X18893230Y-14209888D02*
X18883706Y-14228936D01*
X18883706Y-14228936D02*
X18874182Y-14238460D01*
X18874182Y-14238460D02*
X18855135Y-14247984D01*
X18855135Y-14247984D02*
X18826563Y-14247984D01*
X18950373Y-14114650D02*
X19026563Y-14114650D01*
X18978944Y-14047984D02*
X18978944Y-14219412D01*
X18978944Y-14219412D02*
X18988468Y-14238460D01*
X18988468Y-14238460D02*
X19007516Y-14247984D01*
X19007516Y-14247984D02*
X19026563Y-14247984D01*
X19083706Y-14238460D02*
X19102754Y-14247984D01*
X19102754Y-14247984D02*
X19140849Y-14247984D01*
X19140849Y-14247984D02*
X19159897Y-14238460D01*
X19159897Y-14238460D02*
X19169420Y-14219412D01*
X19169420Y-14219412D02*
X19169420Y-14209888D01*
X19169420Y-14209888D02*
X19159897Y-14190841D01*
X19159897Y-14190841D02*
X19140849Y-14181317D01*
X19140849Y-14181317D02*
X19112277Y-14181317D01*
X19112277Y-14181317D02*
X19093230Y-14171793D01*
X19093230Y-14171793D02*
X19083706Y-14152746D01*
X19083706Y-14152746D02*
X19083706Y-14143222D01*
X19083706Y-14143222D02*
X19093230Y-14124174D01*
X19093230Y-14124174D02*
X19112277Y-14114650D01*
X19112277Y-14114650D02*
X19140849Y-14114650D01*
X19140849Y-14114650D02*
X19159897Y-14124174D01*
X19236087Y-14324174D02*
X19245611Y-14314650D01*
X19245611Y-14314650D02*
X19264658Y-14286079D01*
X19264658Y-14286079D02*
X19274182Y-14267031D01*
X19274182Y-14267031D02*
X19283706Y-14238460D01*
X19283706Y-14238460D02*
X19293230Y-14190841D01*
X19293230Y-14190841D02*
X19293230Y-14152746D01*
X19293230Y-14152746D02*
X19283706Y-14105127D01*
X19283706Y-14105127D02*
X19274182Y-14076555D01*
X19274182Y-14076555D02*
X19264658Y-14057508D01*
X19264658Y-14057508D02*
X19245611Y-14028936D01*
X19245611Y-14028936D02*
X19236087Y-14019412D01*
D13*
X12601462Y-14370462D02*
X12601462Y-14470538D01*
X12551424Y-14420500D02*
X12651500Y-14420500D01*
D11*
X13017039Y-14511984D02*
X12902753Y-14511984D01*
X12959896Y-14511984D02*
X12959896Y-14311984D01*
X12959896Y-14311984D02*
X12940848Y-14340555D01*
X12940848Y-14340555D02*
X12921801Y-14359603D01*
X12921801Y-14359603D02*
X12902753Y-14369127D01*
X13102753Y-14492936D02*
X13112277Y-14502460D01*
X13112277Y-14502460D02*
X13102753Y-14511984D01*
X13102753Y-14511984D02*
X13093229Y-14502460D01*
X13093229Y-14502460D02*
X13102753Y-14492936D01*
X13102753Y-14492936D02*
X13102753Y-14511984D01*
X13236086Y-14311984D02*
X13255134Y-14311984D01*
X13255134Y-14311984D02*
X13274182Y-14321508D01*
X13274182Y-14321508D02*
X13283705Y-14331031D01*
X13283705Y-14331031D02*
X13293229Y-14350079D01*
X13293229Y-14350079D02*
X13302753Y-14388174D01*
X13302753Y-14388174D02*
X13302753Y-14435793D01*
X13302753Y-14435793D02*
X13293229Y-14473888D01*
X13293229Y-14473888D02*
X13283705Y-14492936D01*
X13283705Y-14492936D02*
X13274182Y-14502460D01*
X13274182Y-14502460D02*
X13255134Y-14511984D01*
X13255134Y-14511984D02*
X13236086Y-14511984D01*
X13236086Y-14511984D02*
X13217039Y-14502460D01*
X13217039Y-14502460D02*
X13207515Y-14492936D01*
X13207515Y-14492936D02*
X13197991Y-14473888D01*
X13197991Y-14473888D02*
X13188467Y-14435793D01*
X13188467Y-14435793D02*
X13188467Y-14388174D01*
X13188467Y-14388174D02*
X13197991Y-14350079D01*
X13197991Y-14350079D02*
X13207515Y-14331031D01*
X13207515Y-14331031D02*
X13217039Y-14321508D01*
X13217039Y-14321508D02*
X13236086Y-14311984D01*
X13426562Y-14311984D02*
X13445610Y-14311984D01*
X13445610Y-14311984D02*
X13464658Y-14321508D01*
X13464658Y-14321508D02*
X13474182Y-14331031D01*
X13474182Y-14331031D02*
X13483705Y-14350079D01*
X13483705Y-14350079D02*
X13493229Y-14388174D01*
X13493229Y-14388174D02*
X13493229Y-14435793D01*
X13493229Y-14435793D02*
X13483705Y-14473888D01*
X13483705Y-14473888D02*
X13474182Y-14492936D01*
X13474182Y-14492936D02*
X13464658Y-14502460D01*
X13464658Y-14502460D02*
X13445610Y-14511984D01*
X13445610Y-14511984D02*
X13426562Y-14511984D01*
X13426562Y-14511984D02*
X13407515Y-14502460D01*
X13407515Y-14502460D02*
X13397991Y-14492936D01*
X13397991Y-14492936D02*
X13388467Y-14473888D01*
X13388467Y-14473888D02*
X13378943Y-14435793D01*
X13378943Y-14435793D02*
X13378943Y-14388174D01*
X13378943Y-14388174D02*
X13388467Y-14350079D01*
X13388467Y-14350079D02*
X13397991Y-14331031D01*
X13397991Y-14331031D02*
X13407515Y-14321508D01*
X13407515Y-14321508D02*
X13426562Y-14311984D01*
X13683705Y-14511984D02*
X13569420Y-14511984D01*
X13626562Y-14511984D02*
X13626562Y-14311984D01*
X13626562Y-14311984D02*
X13607515Y-14340555D01*
X13607515Y-14340555D02*
X13588467Y-14359603D01*
X13588467Y-14359603D02*
X13569420Y-14369127D01*
X13769420Y-14511984D02*
X13769420Y-14378650D01*
X13769420Y-14397698D02*
X13778943Y-14388174D01*
X13778943Y-14388174D02*
X13797991Y-14378650D01*
X13797991Y-14378650D02*
X13826563Y-14378650D01*
X13826563Y-14378650D02*
X13845610Y-14388174D01*
X13845610Y-14388174D02*
X13855134Y-14407222D01*
X13855134Y-14407222D02*
X13855134Y-14511984D01*
X13855134Y-14407222D02*
X13864658Y-14388174D01*
X13864658Y-14388174D02*
X13883705Y-14378650D01*
X13883705Y-14378650D02*
X13912277Y-14378650D01*
X13912277Y-14378650D02*
X13931324Y-14388174D01*
X13931324Y-14388174D02*
X13940848Y-14407222D01*
X13940848Y-14407222D02*
X13940848Y-14511984D01*
X14036086Y-14511984D02*
X14036086Y-14378650D01*
X14036086Y-14397698D02*
X14045610Y-14388174D01*
X14045610Y-14388174D02*
X14064658Y-14378650D01*
X14064658Y-14378650D02*
X14093229Y-14378650D01*
X14093229Y-14378650D02*
X14112277Y-14388174D01*
X14112277Y-14388174D02*
X14121801Y-14407222D01*
X14121801Y-14407222D02*
X14121801Y-14511984D01*
X14121801Y-14407222D02*
X14131324Y-14388174D01*
X14131324Y-14388174D02*
X14150372Y-14378650D01*
X14150372Y-14378650D02*
X14178943Y-14378650D01*
X14178943Y-14378650D02*
X14197991Y-14388174D01*
X14197991Y-14388174D02*
X14207515Y-14407222D01*
X14207515Y-14407222D02*
X14207515Y-14511984D01*
X14597991Y-14302460D02*
X14426563Y-14559603D01*
X14855134Y-14311984D02*
X14874182Y-14311984D01*
X14874182Y-14311984D02*
X14893229Y-14321508D01*
X14893229Y-14321508D02*
X14902753Y-14331031D01*
X14902753Y-14331031D02*
X14912277Y-14350079D01*
X14912277Y-14350079D02*
X14921801Y-14388174D01*
X14921801Y-14388174D02*
X14921801Y-14435793D01*
X14921801Y-14435793D02*
X14912277Y-14473888D01*
X14912277Y-14473888D02*
X14902753Y-14492936D01*
X14902753Y-14492936D02*
X14893229Y-14502460D01*
X14893229Y-14502460D02*
X14874182Y-14511984D01*
X14874182Y-14511984D02*
X14855134Y-14511984D01*
X14855134Y-14511984D02*
X14836086Y-14502460D01*
X14836086Y-14502460D02*
X14826563Y-14492936D01*
X14826563Y-14492936D02*
X14817039Y-14473888D01*
X14817039Y-14473888D02*
X14807515Y-14435793D01*
X14807515Y-14435793D02*
X14807515Y-14388174D01*
X14807515Y-14388174D02*
X14817039Y-14350079D01*
X14817039Y-14350079D02*
X14826563Y-14331031D01*
X14826563Y-14331031D02*
X14836086Y-14321508D01*
X14836086Y-14321508D02*
X14855134Y-14311984D01*
X15007515Y-14492936D02*
X15017039Y-14502460D01*
X15017039Y-14502460D02*
X15007515Y-14511984D01*
X15007515Y-14511984D02*
X14997991Y-14502460D01*
X14997991Y-14502460D02*
X15007515Y-14492936D01*
X15007515Y-14492936D02*
X15007515Y-14511984D01*
X15140848Y-14311984D02*
X15159896Y-14311984D01*
X15159896Y-14311984D02*
X15178944Y-14321508D01*
X15178944Y-14321508D02*
X15188467Y-14331031D01*
X15188467Y-14331031D02*
X15197991Y-14350079D01*
X15197991Y-14350079D02*
X15207515Y-14388174D01*
X15207515Y-14388174D02*
X15207515Y-14435793D01*
X15207515Y-14435793D02*
X15197991Y-14473888D01*
X15197991Y-14473888D02*
X15188467Y-14492936D01*
X15188467Y-14492936D02*
X15178944Y-14502460D01*
X15178944Y-14502460D02*
X15159896Y-14511984D01*
X15159896Y-14511984D02*
X15140848Y-14511984D01*
X15140848Y-14511984D02*
X15121801Y-14502460D01*
X15121801Y-14502460D02*
X15112277Y-14492936D01*
X15112277Y-14492936D02*
X15102753Y-14473888D01*
X15102753Y-14473888D02*
X15093229Y-14435793D01*
X15093229Y-14435793D02*
X15093229Y-14388174D01*
X15093229Y-14388174D02*
X15102753Y-14350079D01*
X15102753Y-14350079D02*
X15112277Y-14331031D01*
X15112277Y-14331031D02*
X15121801Y-14321508D01*
X15121801Y-14321508D02*
X15140848Y-14311984D01*
X15274182Y-14311984D02*
X15397991Y-14311984D01*
X15397991Y-14311984D02*
X15331325Y-14388174D01*
X15331325Y-14388174D02*
X15359896Y-14388174D01*
X15359896Y-14388174D02*
X15378944Y-14397698D01*
X15378944Y-14397698D02*
X15388467Y-14407222D01*
X15388467Y-14407222D02*
X15397991Y-14426269D01*
X15397991Y-14426269D02*
X15397991Y-14473888D01*
X15397991Y-14473888D02*
X15388467Y-14492936D01*
X15388467Y-14492936D02*
X15378944Y-14502460D01*
X15378944Y-14502460D02*
X15359896Y-14511984D01*
X15359896Y-14511984D02*
X15302753Y-14511984D01*
X15302753Y-14511984D02*
X15283706Y-14502460D01*
X15283706Y-14502460D02*
X15274182Y-14492936D01*
X15493229Y-14511984D02*
X15531325Y-14511984D01*
X15531325Y-14511984D02*
X15550372Y-14502460D01*
X15550372Y-14502460D02*
X15559896Y-14492936D01*
X15559896Y-14492936D02*
X15578944Y-14464365D01*
X15578944Y-14464365D02*
X15588467Y-14426269D01*
X15588467Y-14426269D02*
X15588467Y-14350079D01*
X15588467Y-14350079D02*
X15578944Y-14331031D01*
X15578944Y-14331031D02*
X15569420Y-14321508D01*
X15569420Y-14321508D02*
X15550372Y-14311984D01*
X15550372Y-14311984D02*
X15512277Y-14311984D01*
X15512277Y-14311984D02*
X15493229Y-14321508D01*
X15493229Y-14321508D02*
X15483706Y-14331031D01*
X15483706Y-14331031D02*
X15474182Y-14350079D01*
X15474182Y-14350079D02*
X15474182Y-14397698D01*
X15474182Y-14397698D02*
X15483706Y-14416746D01*
X15483706Y-14416746D02*
X15493229Y-14426269D01*
X15493229Y-14426269D02*
X15512277Y-14435793D01*
X15512277Y-14435793D02*
X15550372Y-14435793D01*
X15550372Y-14435793D02*
X15569420Y-14426269D01*
X15569420Y-14426269D02*
X15578944Y-14416746D01*
X15578944Y-14416746D02*
X15588467Y-14397698D01*
X15759896Y-14378650D02*
X15759896Y-14511984D01*
X15712277Y-14302460D02*
X15664658Y-14445317D01*
X15664658Y-14445317D02*
X15788467Y-14445317D01*
X15855134Y-14311984D02*
X15855134Y-14350079D01*
X15931325Y-14311984D02*
X15931325Y-14350079D01*
X16226563Y-14588174D02*
X16217039Y-14578650D01*
X16217039Y-14578650D02*
X16197991Y-14550079D01*
X16197991Y-14550079D02*
X16188468Y-14531031D01*
X16188468Y-14531031D02*
X16178944Y-14502460D01*
X16178944Y-14502460D02*
X16169420Y-14454841D01*
X16169420Y-14454841D02*
X16169420Y-14416746D01*
X16169420Y-14416746D02*
X16178944Y-14369127D01*
X16178944Y-14369127D02*
X16188468Y-14340555D01*
X16188468Y-14340555D02*
X16197991Y-14321508D01*
X16197991Y-14321508D02*
X16217039Y-14292936D01*
X16217039Y-14292936D02*
X16226563Y-14283412D01*
X16293229Y-14331031D02*
X16302753Y-14321508D01*
X16302753Y-14321508D02*
X16321801Y-14311984D01*
X16321801Y-14311984D02*
X16369420Y-14311984D01*
X16369420Y-14311984D02*
X16388468Y-14321508D01*
X16388468Y-14321508D02*
X16397991Y-14331031D01*
X16397991Y-14331031D02*
X16407515Y-14350079D01*
X16407515Y-14350079D02*
X16407515Y-14369127D01*
X16407515Y-14369127D02*
X16397991Y-14397698D01*
X16397991Y-14397698D02*
X16283706Y-14511984D01*
X16283706Y-14511984D02*
X16407515Y-14511984D01*
X16645610Y-14511984D02*
X16645610Y-14311984D01*
X16731325Y-14511984D02*
X16731325Y-14407222D01*
X16731325Y-14407222D02*
X16721801Y-14388174D01*
X16721801Y-14388174D02*
X16702753Y-14378650D01*
X16702753Y-14378650D02*
X16674182Y-14378650D01*
X16674182Y-14378650D02*
X16655134Y-14388174D01*
X16655134Y-14388174D02*
X16645610Y-14397698D01*
X16855134Y-14511984D02*
X16836087Y-14502460D01*
X16836087Y-14502460D02*
X16826563Y-14492936D01*
X16826563Y-14492936D02*
X16817039Y-14473888D01*
X16817039Y-14473888D02*
X16817039Y-14416746D01*
X16817039Y-14416746D02*
X16826563Y-14397698D01*
X16826563Y-14397698D02*
X16836087Y-14388174D01*
X16836087Y-14388174D02*
X16855134Y-14378650D01*
X16855134Y-14378650D02*
X16883706Y-14378650D01*
X16883706Y-14378650D02*
X16902753Y-14388174D01*
X16902753Y-14388174D02*
X16912277Y-14397698D01*
X16912277Y-14397698D02*
X16921801Y-14416746D01*
X16921801Y-14416746D02*
X16921801Y-14473888D01*
X16921801Y-14473888D02*
X16912277Y-14492936D01*
X16912277Y-14492936D02*
X16902753Y-14502460D01*
X16902753Y-14502460D02*
X16883706Y-14511984D01*
X16883706Y-14511984D02*
X16855134Y-14511984D01*
X17036087Y-14511984D02*
X17017039Y-14502460D01*
X17017039Y-14502460D02*
X17007515Y-14483412D01*
X17007515Y-14483412D02*
X17007515Y-14311984D01*
X17188468Y-14502460D02*
X17169420Y-14511984D01*
X17169420Y-14511984D02*
X17131325Y-14511984D01*
X17131325Y-14511984D02*
X17112277Y-14502460D01*
X17112277Y-14502460D02*
X17102753Y-14483412D01*
X17102753Y-14483412D02*
X17102753Y-14407222D01*
X17102753Y-14407222D02*
X17112277Y-14388174D01*
X17112277Y-14388174D02*
X17131325Y-14378650D01*
X17131325Y-14378650D02*
X17169420Y-14378650D01*
X17169420Y-14378650D02*
X17188468Y-14388174D01*
X17188468Y-14388174D02*
X17197992Y-14407222D01*
X17197992Y-14407222D02*
X17197992Y-14426269D01*
X17197992Y-14426269D02*
X17102753Y-14445317D01*
X17274182Y-14502460D02*
X17293230Y-14511984D01*
X17293230Y-14511984D02*
X17331325Y-14511984D01*
X17331325Y-14511984D02*
X17350373Y-14502460D01*
X17350373Y-14502460D02*
X17359896Y-14483412D01*
X17359896Y-14483412D02*
X17359896Y-14473888D01*
X17359896Y-14473888D02*
X17350373Y-14454841D01*
X17350373Y-14454841D02*
X17331325Y-14445317D01*
X17331325Y-14445317D02*
X17302753Y-14445317D01*
X17302753Y-14445317D02*
X17283706Y-14435793D01*
X17283706Y-14435793D02*
X17274182Y-14416746D01*
X17274182Y-14416746D02*
X17274182Y-14407222D01*
X17274182Y-14407222D02*
X17283706Y-14388174D01*
X17283706Y-14388174D02*
X17302753Y-14378650D01*
X17302753Y-14378650D02*
X17331325Y-14378650D01*
X17331325Y-14378650D02*
X17350373Y-14388174D01*
X17426563Y-14588174D02*
X17436087Y-14578650D01*
X17436087Y-14578650D02*
X17455134Y-14550079D01*
X17455134Y-14550079D02*
X17464658Y-14531031D01*
X17464658Y-14531031D02*
X17474182Y-14502460D01*
X17474182Y-14502460D02*
X17483706Y-14454841D01*
X17483706Y-14454841D02*
X17483706Y-14416746D01*
X17483706Y-14416746D02*
X17474182Y-14369127D01*
X17474182Y-14369127D02*
X17464658Y-14340555D01*
X17464658Y-14340555D02*
X17455134Y-14321508D01*
X17455134Y-14321508D02*
X17436087Y-14292936D01*
X17436087Y-14292936D02*
X17426563Y-14283412D01*
D14*
X12636563Y-14720563D02*
X12636563Y-14648437D01*
X12564437Y-14648437D01*
X12564437Y-14720563D01*
X12636563Y-14720563D01*
D11*
X13017039Y-14775984D02*
X12902753Y-14775984D01*
X12959896Y-14775984D02*
X12959896Y-14575984D01*
X12959896Y-14575984D02*
X12940848Y-14604555D01*
X12940848Y-14604555D02*
X12921801Y-14623603D01*
X12921801Y-14623603D02*
X12902753Y-14633127D01*
X13102753Y-14756936D02*
X13112277Y-14766460D01*
X13112277Y-14766460D02*
X13102753Y-14775984D01*
X13102753Y-14775984D02*
X13093229Y-14766460D01*
X13093229Y-14766460D02*
X13102753Y-14756936D01*
X13102753Y-14756936D02*
X13102753Y-14775984D01*
X13236086Y-14575984D02*
X13255134Y-14575984D01*
X13255134Y-14575984D02*
X13274182Y-14585508D01*
X13274182Y-14585508D02*
X13283705Y-14595031D01*
X13283705Y-14595031D02*
X13293229Y-14614079D01*
X13293229Y-14614079D02*
X13302753Y-14652174D01*
X13302753Y-14652174D02*
X13302753Y-14699793D01*
X13302753Y-14699793D02*
X13293229Y-14737888D01*
X13293229Y-14737888D02*
X13283705Y-14756936D01*
X13283705Y-14756936D02*
X13274182Y-14766460D01*
X13274182Y-14766460D02*
X13255134Y-14775984D01*
X13255134Y-14775984D02*
X13236086Y-14775984D01*
X13236086Y-14775984D02*
X13217039Y-14766460D01*
X13217039Y-14766460D02*
X13207515Y-14756936D01*
X13207515Y-14756936D02*
X13197991Y-14737888D01*
X13197991Y-14737888D02*
X13188467Y-14699793D01*
X13188467Y-14699793D02*
X13188467Y-14652174D01*
X13188467Y-14652174D02*
X13197991Y-14614079D01*
X13197991Y-14614079D02*
X13207515Y-14595031D01*
X13207515Y-14595031D02*
X13217039Y-14585508D01*
X13217039Y-14585508D02*
X13236086Y-14575984D01*
X13378943Y-14595031D02*
X13388467Y-14585508D01*
X13388467Y-14585508D02*
X13407515Y-14575984D01*
X13407515Y-14575984D02*
X13455134Y-14575984D01*
X13455134Y-14575984D02*
X13474182Y-14585508D01*
X13474182Y-14585508D02*
X13483705Y-14595031D01*
X13483705Y-14595031D02*
X13493229Y-14614079D01*
X13493229Y-14614079D02*
X13493229Y-14633127D01*
X13493229Y-14633127D02*
X13483705Y-14661698D01*
X13483705Y-14661698D02*
X13369420Y-14775984D01*
X13369420Y-14775984D02*
X13493229Y-14775984D01*
X13617039Y-14575984D02*
X13636086Y-14575984D01*
X13636086Y-14575984D02*
X13655134Y-14585508D01*
X13655134Y-14585508D02*
X13664658Y-14595031D01*
X13664658Y-14595031D02*
X13674182Y-14614079D01*
X13674182Y-14614079D02*
X13683705Y-14652174D01*
X13683705Y-14652174D02*
X13683705Y-14699793D01*
X13683705Y-14699793D02*
X13674182Y-14737888D01*
X13674182Y-14737888D02*
X13664658Y-14756936D01*
X13664658Y-14756936D02*
X13655134Y-14766460D01*
X13655134Y-14766460D02*
X13636086Y-14775984D01*
X13636086Y-14775984D02*
X13617039Y-14775984D01*
X13617039Y-14775984D02*
X13597991Y-14766460D01*
X13597991Y-14766460D02*
X13588467Y-14756936D01*
X13588467Y-14756936D02*
X13578943Y-14737888D01*
X13578943Y-14737888D02*
X13569420Y-14699793D01*
X13569420Y-14699793D02*
X13569420Y-14652174D01*
X13569420Y-14652174D02*
X13578943Y-14614079D01*
X13578943Y-14614079D02*
X13588467Y-14595031D01*
X13588467Y-14595031D02*
X13597991Y-14585508D01*
X13597991Y-14585508D02*
X13617039Y-14575984D01*
X13769420Y-14775984D02*
X13769420Y-14642650D01*
X13769420Y-14661698D02*
X13778943Y-14652174D01*
X13778943Y-14652174D02*
X13797991Y-14642650D01*
X13797991Y-14642650D02*
X13826563Y-14642650D01*
X13826563Y-14642650D02*
X13845610Y-14652174D01*
X13845610Y-14652174D02*
X13855134Y-14671222D01*
X13855134Y-14671222D02*
X13855134Y-14775984D01*
X13855134Y-14671222D02*
X13864658Y-14652174D01*
X13864658Y-14652174D02*
X13883705Y-14642650D01*
X13883705Y-14642650D02*
X13912277Y-14642650D01*
X13912277Y-14642650D02*
X13931324Y-14652174D01*
X13931324Y-14652174D02*
X13940848Y-14671222D01*
X13940848Y-14671222D02*
X13940848Y-14775984D01*
X14036086Y-14775984D02*
X14036086Y-14642650D01*
X14036086Y-14661698D02*
X14045610Y-14652174D01*
X14045610Y-14652174D02*
X14064658Y-14642650D01*
X14064658Y-14642650D02*
X14093229Y-14642650D01*
X14093229Y-14642650D02*
X14112277Y-14652174D01*
X14112277Y-14652174D02*
X14121801Y-14671222D01*
X14121801Y-14671222D02*
X14121801Y-14775984D01*
X14121801Y-14671222D02*
X14131324Y-14652174D01*
X14131324Y-14652174D02*
X14150372Y-14642650D01*
X14150372Y-14642650D02*
X14178943Y-14642650D01*
X14178943Y-14642650D02*
X14197991Y-14652174D01*
X14197991Y-14652174D02*
X14207515Y-14671222D01*
X14207515Y-14671222D02*
X14207515Y-14775984D01*
X14597991Y-14566460D02*
X14426563Y-14823603D01*
X14855134Y-14575984D02*
X14874182Y-14575984D01*
X14874182Y-14575984D02*
X14893229Y-14585508D01*
X14893229Y-14585508D02*
X14902753Y-14595031D01*
X14902753Y-14595031D02*
X14912277Y-14614079D01*
X14912277Y-14614079D02*
X14921801Y-14652174D01*
X14921801Y-14652174D02*
X14921801Y-14699793D01*
X14921801Y-14699793D02*
X14912277Y-14737888D01*
X14912277Y-14737888D02*
X14902753Y-14756936D01*
X14902753Y-14756936D02*
X14893229Y-14766460D01*
X14893229Y-14766460D02*
X14874182Y-14775984D01*
X14874182Y-14775984D02*
X14855134Y-14775984D01*
X14855134Y-14775984D02*
X14836086Y-14766460D01*
X14836086Y-14766460D02*
X14826563Y-14756936D01*
X14826563Y-14756936D02*
X14817039Y-14737888D01*
X14817039Y-14737888D02*
X14807515Y-14699793D01*
X14807515Y-14699793D02*
X14807515Y-14652174D01*
X14807515Y-14652174D02*
X14817039Y-14614079D01*
X14817039Y-14614079D02*
X14826563Y-14595031D01*
X14826563Y-14595031D02*
X14836086Y-14585508D01*
X14836086Y-14585508D02*
X14855134Y-14575984D01*
X15007515Y-14756936D02*
X15017039Y-14766460D01*
X15017039Y-14766460D02*
X15007515Y-14775984D01*
X15007515Y-14775984D02*
X14997991Y-14766460D01*
X14997991Y-14766460D02*
X15007515Y-14756936D01*
X15007515Y-14756936D02*
X15007515Y-14775984D01*
X15140848Y-14575984D02*
X15159896Y-14575984D01*
X15159896Y-14575984D02*
X15178944Y-14585508D01*
X15178944Y-14585508D02*
X15188467Y-14595031D01*
X15188467Y-14595031D02*
X15197991Y-14614079D01*
X15197991Y-14614079D02*
X15207515Y-14652174D01*
X15207515Y-14652174D02*
X15207515Y-14699793D01*
X15207515Y-14699793D02*
X15197991Y-14737888D01*
X15197991Y-14737888D02*
X15188467Y-14756936D01*
X15188467Y-14756936D02*
X15178944Y-14766460D01*
X15178944Y-14766460D02*
X15159896Y-14775984D01*
X15159896Y-14775984D02*
X15140848Y-14775984D01*
X15140848Y-14775984D02*
X15121801Y-14766460D01*
X15121801Y-14766460D02*
X15112277Y-14756936D01*
X15112277Y-14756936D02*
X15102753Y-14737888D01*
X15102753Y-14737888D02*
X15093229Y-14699793D01*
X15093229Y-14699793D02*
X15093229Y-14652174D01*
X15093229Y-14652174D02*
X15102753Y-14614079D01*
X15102753Y-14614079D02*
X15112277Y-14595031D01*
X15112277Y-14595031D02*
X15121801Y-14585508D01*
X15121801Y-14585508D02*
X15140848Y-14575984D01*
X15378944Y-14642650D02*
X15378944Y-14775984D01*
X15331325Y-14566460D02*
X15283706Y-14709317D01*
X15283706Y-14709317D02*
X15407515Y-14709317D01*
X15521801Y-14575984D02*
X15540848Y-14575984D01*
X15540848Y-14575984D02*
X15559896Y-14585508D01*
X15559896Y-14585508D02*
X15569420Y-14595031D01*
X15569420Y-14595031D02*
X15578944Y-14614079D01*
X15578944Y-14614079D02*
X15588467Y-14652174D01*
X15588467Y-14652174D02*
X15588467Y-14699793D01*
X15588467Y-14699793D02*
X15578944Y-14737888D01*
X15578944Y-14737888D02*
X15569420Y-14756936D01*
X15569420Y-14756936D02*
X15559896Y-14766460D01*
X15559896Y-14766460D02*
X15540848Y-14775984D01*
X15540848Y-14775984D02*
X15521801Y-14775984D01*
X15521801Y-14775984D02*
X15502753Y-14766460D01*
X15502753Y-14766460D02*
X15493229Y-14756936D01*
X15493229Y-14756936D02*
X15483706Y-14737888D01*
X15483706Y-14737888D02*
X15474182Y-14699793D01*
X15474182Y-14699793D02*
X15474182Y-14652174D01*
X15474182Y-14652174D02*
X15483706Y-14614079D01*
X15483706Y-14614079D02*
X15493229Y-14595031D01*
X15493229Y-14595031D02*
X15502753Y-14585508D01*
X15502753Y-14585508D02*
X15521801Y-14575984D01*
X15664658Y-14595031D02*
X15674182Y-14585508D01*
X15674182Y-14585508D02*
X15693229Y-14575984D01*
X15693229Y-14575984D02*
X15740848Y-14575984D01*
X15740848Y-14575984D02*
X15759896Y-14585508D01*
X15759896Y-14585508D02*
X15769420Y-14595031D01*
X15769420Y-14595031D02*
X15778944Y-14614079D01*
X15778944Y-14614079D02*
X15778944Y-14633127D01*
X15778944Y-14633127D02*
X15769420Y-14661698D01*
X15769420Y-14661698D02*
X15655134Y-14775984D01*
X15655134Y-14775984D02*
X15778944Y-14775984D01*
X15855134Y-14575984D02*
X15855134Y-14614079D01*
X15931325Y-14575984D02*
X15931325Y-14614079D01*
X16226563Y-14852174D02*
X16217039Y-14842650D01*
X16217039Y-14842650D02*
X16197991Y-14814079D01*
X16197991Y-14814079D02*
X16188468Y-14795031D01*
X16188468Y-14795031D02*
X16178944Y-14766460D01*
X16178944Y-14766460D02*
X16169420Y-14718841D01*
X16169420Y-14718841D02*
X16169420Y-14680746D01*
X16169420Y-14680746D02*
X16178944Y-14633127D01*
X16178944Y-14633127D02*
X16188468Y-14604555D01*
X16188468Y-14604555D02*
X16197991Y-14585508D01*
X16197991Y-14585508D02*
X16217039Y-14556936D01*
X16217039Y-14556936D02*
X16226563Y-14547412D01*
X16388468Y-14642650D02*
X16388468Y-14775984D01*
X16340848Y-14566460D02*
X16293229Y-14709317D01*
X16293229Y-14709317D02*
X16417039Y-14709317D01*
X16531325Y-14575984D02*
X16550372Y-14575984D01*
X16550372Y-14575984D02*
X16569420Y-14585508D01*
X16569420Y-14585508D02*
X16578944Y-14595031D01*
X16578944Y-14595031D02*
X16588468Y-14614079D01*
X16588468Y-14614079D02*
X16597991Y-14652174D01*
X16597991Y-14652174D02*
X16597991Y-14699793D01*
X16597991Y-14699793D02*
X16588468Y-14737888D01*
X16588468Y-14737888D02*
X16578944Y-14756936D01*
X16578944Y-14756936D02*
X16569420Y-14766460D01*
X16569420Y-14766460D02*
X16550372Y-14775984D01*
X16550372Y-14775984D02*
X16531325Y-14775984D01*
X16531325Y-14775984D02*
X16512277Y-14766460D01*
X16512277Y-14766460D02*
X16502753Y-14756936D01*
X16502753Y-14756936D02*
X16493229Y-14737888D01*
X16493229Y-14737888D02*
X16483706Y-14699793D01*
X16483706Y-14699793D02*
X16483706Y-14652174D01*
X16483706Y-14652174D02*
X16493229Y-14614079D01*
X16493229Y-14614079D02*
X16502753Y-14595031D01*
X16502753Y-14595031D02*
X16512277Y-14585508D01*
X16512277Y-14585508D02*
X16531325Y-14575984D01*
X16836087Y-14775984D02*
X16836087Y-14575984D01*
X16921801Y-14775984D02*
X16921801Y-14671222D01*
X16921801Y-14671222D02*
X16912277Y-14652174D01*
X16912277Y-14652174D02*
X16893230Y-14642650D01*
X16893230Y-14642650D02*
X16864658Y-14642650D01*
X16864658Y-14642650D02*
X16845611Y-14652174D01*
X16845611Y-14652174D02*
X16836087Y-14661698D01*
X17045611Y-14775984D02*
X17026563Y-14766460D01*
X17026563Y-14766460D02*
X17017039Y-14756936D01*
X17017039Y-14756936D02*
X17007515Y-14737888D01*
X17007515Y-14737888D02*
X17007515Y-14680746D01*
X17007515Y-14680746D02*
X17017039Y-14661698D01*
X17017039Y-14661698D02*
X17026563Y-14652174D01*
X17026563Y-14652174D02*
X17045611Y-14642650D01*
X17045611Y-14642650D02*
X17074182Y-14642650D01*
X17074182Y-14642650D02*
X17093230Y-14652174D01*
X17093230Y-14652174D02*
X17102753Y-14661698D01*
X17102753Y-14661698D02*
X17112277Y-14680746D01*
X17112277Y-14680746D02*
X17112277Y-14737888D01*
X17112277Y-14737888D02*
X17102753Y-14756936D01*
X17102753Y-14756936D02*
X17093230Y-14766460D01*
X17093230Y-14766460D02*
X17074182Y-14775984D01*
X17074182Y-14775984D02*
X17045611Y-14775984D01*
X17226563Y-14775984D02*
X17207515Y-14766460D01*
X17207515Y-14766460D02*
X17197992Y-14747412D01*
X17197992Y-14747412D02*
X17197992Y-14575984D01*
X17378944Y-14766460D02*
X17359896Y-14775984D01*
X17359896Y-14775984D02*
X17321801Y-14775984D01*
X17321801Y-14775984D02*
X17302753Y-14766460D01*
X17302753Y-14766460D02*
X17293230Y-14747412D01*
X17293230Y-14747412D02*
X17293230Y-14671222D01*
X17293230Y-14671222D02*
X17302753Y-14652174D01*
X17302753Y-14652174D02*
X17321801Y-14642650D01*
X17321801Y-14642650D02*
X17359896Y-14642650D01*
X17359896Y-14642650D02*
X17378944Y-14652174D01*
X17378944Y-14652174D02*
X17388468Y-14671222D01*
X17388468Y-14671222D02*
X17388468Y-14690269D01*
X17388468Y-14690269D02*
X17293230Y-14709317D01*
X17464658Y-14766460D02*
X17483706Y-14775984D01*
X17483706Y-14775984D02*
X17521801Y-14775984D01*
X17521801Y-14775984D02*
X17540849Y-14766460D01*
X17540849Y-14766460D02*
X17550373Y-14747412D01*
X17550373Y-14747412D02*
X17550373Y-14737888D01*
X17550373Y-14737888D02*
X17540849Y-14718841D01*
X17540849Y-14718841D02*
X17521801Y-14709317D01*
X17521801Y-14709317D02*
X17493230Y-14709317D01*
X17493230Y-14709317D02*
X17474182Y-14699793D01*
X17474182Y-14699793D02*
X17464658Y-14680746D01*
X17464658Y-14680746D02*
X17464658Y-14671222D01*
X17464658Y-14671222D02*
X17474182Y-14652174D01*
X17474182Y-14652174D02*
X17493230Y-14642650D01*
X17493230Y-14642650D02*
X17521801Y-14642650D01*
X17521801Y-14642650D02*
X17540849Y-14652174D01*
X17617039Y-14852174D02*
X17626563Y-14842650D01*
X17626563Y-14842650D02*
X17645611Y-14814079D01*
X17645611Y-14814079D02*
X17655134Y-14795031D01*
X17655134Y-14795031D02*
X17664658Y-14766460D01*
X17664658Y-14766460D02*
X17674182Y-14718841D01*
X17674182Y-14718841D02*
X17674182Y-14680746D01*
X17674182Y-14680746D02*
X17664658Y-14633127D01*
X17664658Y-14633127D02*
X17655134Y-14604555D01*
X17655134Y-14604555D02*
X17645611Y-14585508D01*
X17645611Y-14585508D02*
X17626563Y-14556936D01*
X17626563Y-14556936D02*
X17617039Y-14547412D01*
D15*
X12591556Y-15008444D02*
X12651500Y-14948500D01*
X12591556Y-14888556D01*
X12531612Y-14948500D01*
X12591556Y-15008444D01*
D11*
X13017039Y-15039984D02*
X12902753Y-15039984D01*
X12959896Y-15039984D02*
X12959896Y-14839984D01*
X12959896Y-14839984D02*
X12940848Y-14868555D01*
X12940848Y-14868555D02*
X12921801Y-14887603D01*
X12921801Y-14887603D02*
X12902753Y-14897127D01*
X13102753Y-15020936D02*
X13112277Y-15030460D01*
X13112277Y-15030460D02*
X13102753Y-15039984D01*
X13102753Y-15039984D02*
X13093229Y-15030460D01*
X13093229Y-15030460D02*
X13102753Y-15020936D01*
X13102753Y-15020936D02*
X13102753Y-15039984D01*
X13302753Y-15039984D02*
X13188467Y-15039984D01*
X13245610Y-15039984D02*
X13245610Y-14839984D01*
X13245610Y-14839984D02*
X13226562Y-14868555D01*
X13226562Y-14868555D02*
X13207515Y-14887603D01*
X13207515Y-14887603D02*
X13188467Y-14897127D01*
X13397991Y-15039984D02*
X13436086Y-15039984D01*
X13436086Y-15039984D02*
X13455134Y-15030460D01*
X13455134Y-15030460D02*
X13464658Y-15020936D01*
X13464658Y-15020936D02*
X13483705Y-14992365D01*
X13483705Y-14992365D02*
X13493229Y-14954269D01*
X13493229Y-14954269D02*
X13493229Y-14878079D01*
X13493229Y-14878079D02*
X13483705Y-14859031D01*
X13483705Y-14859031D02*
X13474182Y-14849508D01*
X13474182Y-14849508D02*
X13455134Y-14839984D01*
X13455134Y-14839984D02*
X13417039Y-14839984D01*
X13417039Y-14839984D02*
X13397991Y-14849508D01*
X13397991Y-14849508D02*
X13388467Y-14859031D01*
X13388467Y-14859031D02*
X13378943Y-14878079D01*
X13378943Y-14878079D02*
X13378943Y-14925698D01*
X13378943Y-14925698D02*
X13388467Y-14944746D01*
X13388467Y-14944746D02*
X13397991Y-14954269D01*
X13397991Y-14954269D02*
X13417039Y-14963793D01*
X13417039Y-14963793D02*
X13455134Y-14963793D01*
X13455134Y-14963793D02*
X13474182Y-14954269D01*
X13474182Y-14954269D02*
X13483705Y-14944746D01*
X13483705Y-14944746D02*
X13493229Y-14925698D01*
X13588467Y-15039984D02*
X13626562Y-15039984D01*
X13626562Y-15039984D02*
X13645610Y-15030460D01*
X13645610Y-15030460D02*
X13655134Y-15020936D01*
X13655134Y-15020936D02*
X13674182Y-14992365D01*
X13674182Y-14992365D02*
X13683705Y-14954269D01*
X13683705Y-14954269D02*
X13683705Y-14878079D01*
X13683705Y-14878079D02*
X13674182Y-14859031D01*
X13674182Y-14859031D02*
X13664658Y-14849508D01*
X13664658Y-14849508D02*
X13645610Y-14839984D01*
X13645610Y-14839984D02*
X13607515Y-14839984D01*
X13607515Y-14839984D02*
X13588467Y-14849508D01*
X13588467Y-14849508D02*
X13578943Y-14859031D01*
X13578943Y-14859031D02*
X13569420Y-14878079D01*
X13569420Y-14878079D02*
X13569420Y-14925698D01*
X13569420Y-14925698D02*
X13578943Y-14944746D01*
X13578943Y-14944746D02*
X13588467Y-14954269D01*
X13588467Y-14954269D02*
X13607515Y-14963793D01*
X13607515Y-14963793D02*
X13645610Y-14963793D01*
X13645610Y-14963793D02*
X13664658Y-14954269D01*
X13664658Y-14954269D02*
X13674182Y-14944746D01*
X13674182Y-14944746D02*
X13683705Y-14925698D01*
X13769420Y-15039984D02*
X13769420Y-14906650D01*
X13769420Y-14925698D02*
X13778943Y-14916174D01*
X13778943Y-14916174D02*
X13797991Y-14906650D01*
X13797991Y-14906650D02*
X13826563Y-14906650D01*
X13826563Y-14906650D02*
X13845610Y-14916174D01*
X13845610Y-14916174D02*
X13855134Y-14935222D01*
X13855134Y-14935222D02*
X13855134Y-15039984D01*
X13855134Y-14935222D02*
X13864658Y-14916174D01*
X13864658Y-14916174D02*
X13883705Y-14906650D01*
X13883705Y-14906650D02*
X13912277Y-14906650D01*
X13912277Y-14906650D02*
X13931324Y-14916174D01*
X13931324Y-14916174D02*
X13940848Y-14935222D01*
X13940848Y-14935222D02*
X13940848Y-15039984D01*
X14036086Y-15039984D02*
X14036086Y-14906650D01*
X14036086Y-14925698D02*
X14045610Y-14916174D01*
X14045610Y-14916174D02*
X14064658Y-14906650D01*
X14064658Y-14906650D02*
X14093229Y-14906650D01*
X14093229Y-14906650D02*
X14112277Y-14916174D01*
X14112277Y-14916174D02*
X14121801Y-14935222D01*
X14121801Y-14935222D02*
X14121801Y-15039984D01*
X14121801Y-14935222D02*
X14131324Y-14916174D01*
X14131324Y-14916174D02*
X14150372Y-14906650D01*
X14150372Y-14906650D02*
X14178943Y-14906650D01*
X14178943Y-14906650D02*
X14197991Y-14916174D01*
X14197991Y-14916174D02*
X14207515Y-14935222D01*
X14207515Y-14935222D02*
X14207515Y-15039984D01*
X14597991Y-14830460D02*
X14426563Y-15087603D01*
X14855134Y-14839984D02*
X14874182Y-14839984D01*
X14874182Y-14839984D02*
X14893229Y-14849508D01*
X14893229Y-14849508D02*
X14902753Y-14859031D01*
X14902753Y-14859031D02*
X14912277Y-14878079D01*
X14912277Y-14878079D02*
X14921801Y-14916174D01*
X14921801Y-14916174D02*
X14921801Y-14963793D01*
X14921801Y-14963793D02*
X14912277Y-15001888D01*
X14912277Y-15001888D02*
X14902753Y-15020936D01*
X14902753Y-15020936D02*
X14893229Y-15030460D01*
X14893229Y-15030460D02*
X14874182Y-15039984D01*
X14874182Y-15039984D02*
X14855134Y-15039984D01*
X14855134Y-15039984D02*
X14836086Y-15030460D01*
X14836086Y-15030460D02*
X14826563Y-15020936D01*
X14826563Y-15020936D02*
X14817039Y-15001888D01*
X14817039Y-15001888D02*
X14807515Y-14963793D01*
X14807515Y-14963793D02*
X14807515Y-14916174D01*
X14807515Y-14916174D02*
X14817039Y-14878079D01*
X14817039Y-14878079D02*
X14826563Y-14859031D01*
X14826563Y-14859031D02*
X14836086Y-14849508D01*
X14836086Y-14849508D02*
X14855134Y-14839984D01*
X15007515Y-15020936D02*
X15017039Y-15030460D01*
X15017039Y-15030460D02*
X15007515Y-15039984D01*
X15007515Y-15039984D02*
X14997991Y-15030460D01*
X14997991Y-15030460D02*
X15007515Y-15020936D01*
X15007515Y-15020936D02*
X15007515Y-15039984D01*
X15140848Y-14839984D02*
X15159896Y-14839984D01*
X15159896Y-14839984D02*
X15178944Y-14849508D01*
X15178944Y-14849508D02*
X15188467Y-14859031D01*
X15188467Y-14859031D02*
X15197991Y-14878079D01*
X15197991Y-14878079D02*
X15207515Y-14916174D01*
X15207515Y-14916174D02*
X15207515Y-14963793D01*
X15207515Y-14963793D02*
X15197991Y-15001888D01*
X15197991Y-15001888D02*
X15188467Y-15020936D01*
X15188467Y-15020936D02*
X15178944Y-15030460D01*
X15178944Y-15030460D02*
X15159896Y-15039984D01*
X15159896Y-15039984D02*
X15140848Y-15039984D01*
X15140848Y-15039984D02*
X15121801Y-15030460D01*
X15121801Y-15030460D02*
X15112277Y-15020936D01*
X15112277Y-15020936D02*
X15102753Y-15001888D01*
X15102753Y-15001888D02*
X15093229Y-14963793D01*
X15093229Y-14963793D02*
X15093229Y-14916174D01*
X15093229Y-14916174D02*
X15102753Y-14878079D01*
X15102753Y-14878079D02*
X15112277Y-14859031D01*
X15112277Y-14859031D02*
X15121801Y-14849508D01*
X15121801Y-14849508D02*
X15140848Y-14839984D01*
X15378944Y-14906650D02*
X15378944Y-15039984D01*
X15331325Y-14830460D02*
X15283706Y-14973317D01*
X15283706Y-14973317D02*
X15407515Y-14973317D01*
X15464658Y-14839984D02*
X15597991Y-14839984D01*
X15597991Y-14839984D02*
X15512277Y-15039984D01*
X15664658Y-14859031D02*
X15674182Y-14849508D01*
X15674182Y-14849508D02*
X15693229Y-14839984D01*
X15693229Y-14839984D02*
X15740848Y-14839984D01*
X15740848Y-14839984D02*
X15759896Y-14849508D01*
X15759896Y-14849508D02*
X15769420Y-14859031D01*
X15769420Y-14859031D02*
X15778944Y-14878079D01*
X15778944Y-14878079D02*
X15778944Y-14897127D01*
X15778944Y-14897127D02*
X15769420Y-14925698D01*
X15769420Y-14925698D02*
X15655134Y-15039984D01*
X15655134Y-15039984D02*
X15778944Y-15039984D01*
X15855134Y-14839984D02*
X15855134Y-14878079D01*
X15931325Y-14839984D02*
X15931325Y-14878079D01*
X16226563Y-15116174D02*
X16217039Y-15106650D01*
X16217039Y-15106650D02*
X16197991Y-15078079D01*
X16197991Y-15078079D02*
X16188468Y-15059031D01*
X16188468Y-15059031D02*
X16178944Y-15030460D01*
X16178944Y-15030460D02*
X16169420Y-14982841D01*
X16169420Y-14982841D02*
X16169420Y-14944746D01*
X16169420Y-14944746D02*
X16178944Y-14897127D01*
X16178944Y-14897127D02*
X16188468Y-14868555D01*
X16188468Y-14868555D02*
X16197991Y-14849508D01*
X16197991Y-14849508D02*
X16217039Y-14820936D01*
X16217039Y-14820936D02*
X16226563Y-14811412D01*
X16388468Y-14906650D02*
X16388468Y-15039984D01*
X16340848Y-14830460D02*
X16293229Y-14973317D01*
X16293229Y-14973317D02*
X16417039Y-14973317D01*
X16645610Y-15039984D02*
X16645610Y-14839984D01*
X16731325Y-15039984D02*
X16731325Y-14935222D01*
X16731325Y-14935222D02*
X16721801Y-14916174D01*
X16721801Y-14916174D02*
X16702753Y-14906650D01*
X16702753Y-14906650D02*
X16674182Y-14906650D01*
X16674182Y-14906650D02*
X16655134Y-14916174D01*
X16655134Y-14916174D02*
X16645610Y-14925698D01*
X16855134Y-15039984D02*
X16836087Y-15030460D01*
X16836087Y-15030460D02*
X16826563Y-15020936D01*
X16826563Y-15020936D02*
X16817039Y-15001888D01*
X16817039Y-15001888D02*
X16817039Y-14944746D01*
X16817039Y-14944746D02*
X16826563Y-14925698D01*
X16826563Y-14925698D02*
X16836087Y-14916174D01*
X16836087Y-14916174D02*
X16855134Y-14906650D01*
X16855134Y-14906650D02*
X16883706Y-14906650D01*
X16883706Y-14906650D02*
X16902753Y-14916174D01*
X16902753Y-14916174D02*
X16912277Y-14925698D01*
X16912277Y-14925698D02*
X16921801Y-14944746D01*
X16921801Y-14944746D02*
X16921801Y-15001888D01*
X16921801Y-15001888D02*
X16912277Y-15020936D01*
X16912277Y-15020936D02*
X16902753Y-15030460D01*
X16902753Y-15030460D02*
X16883706Y-15039984D01*
X16883706Y-15039984D02*
X16855134Y-15039984D01*
X17036087Y-15039984D02*
X17017039Y-15030460D01*
X17017039Y-15030460D02*
X17007515Y-15011412D01*
X17007515Y-15011412D02*
X17007515Y-14839984D01*
X17188468Y-15030460D02*
X17169420Y-15039984D01*
X17169420Y-15039984D02*
X17131325Y-15039984D01*
X17131325Y-15039984D02*
X17112277Y-15030460D01*
X17112277Y-15030460D02*
X17102753Y-15011412D01*
X17102753Y-15011412D02*
X17102753Y-14935222D01*
X17102753Y-14935222D02*
X17112277Y-14916174D01*
X17112277Y-14916174D02*
X17131325Y-14906650D01*
X17131325Y-14906650D02*
X17169420Y-14906650D01*
X17169420Y-14906650D02*
X17188468Y-14916174D01*
X17188468Y-14916174D02*
X17197992Y-14935222D01*
X17197992Y-14935222D02*
X17197992Y-14954269D01*
X17197992Y-14954269D02*
X17102753Y-14973317D01*
X17274182Y-15030460D02*
X17293230Y-15039984D01*
X17293230Y-15039984D02*
X17331325Y-15039984D01*
X17331325Y-15039984D02*
X17350373Y-15030460D01*
X17350373Y-15030460D02*
X17359896Y-15011412D01*
X17359896Y-15011412D02*
X17359896Y-15001888D01*
X17359896Y-15001888D02*
X17350373Y-14982841D01*
X17350373Y-14982841D02*
X17331325Y-14973317D01*
X17331325Y-14973317D02*
X17302753Y-14973317D01*
X17302753Y-14973317D02*
X17283706Y-14963793D01*
X17283706Y-14963793D02*
X17274182Y-14944746D01*
X17274182Y-14944746D02*
X17274182Y-14935222D01*
X17274182Y-14935222D02*
X17283706Y-14916174D01*
X17283706Y-14916174D02*
X17302753Y-14906650D01*
X17302753Y-14906650D02*
X17331325Y-14906650D01*
X17331325Y-14906650D02*
X17350373Y-14916174D01*
X17426563Y-15116174D02*
X17436087Y-15106650D01*
X17436087Y-15106650D02*
X17455134Y-15078079D01*
X17455134Y-15078079D02*
X17464658Y-15059031D01*
X17464658Y-15059031D02*
X17474182Y-15030460D01*
X17474182Y-15030460D02*
X17483706Y-14982841D01*
X17483706Y-14982841D02*
X17483706Y-14944746D01*
X17483706Y-14944746D02*
X17474182Y-14897127D01*
X17474182Y-14897127D02*
X17464658Y-14868555D01*
X17464658Y-14868555D02*
X17455134Y-14849508D01*
X17455134Y-14849508D02*
X17436087Y-14820936D01*
X17436087Y-14820936D02*
X17426563Y-14811412D01*
D16*
X12524500Y-15149000D02*
X12651500Y-15276000D01*
X12651500Y-15149000D02*
X12524500Y-15276000D01*
X12651500Y-15212500D02*
G75*
G02*
X12524500Y-15212500I-63500J0D01*
G01*
X12524500Y-15212500D02*
G75*
G02*
X12651500Y-15212500I63500J0D01*
G01*
D11*
X13017039Y-15303984D02*
X12902753Y-15303984D01*
X12959896Y-15303984D02*
X12959896Y-15103984D01*
X12959896Y-15103984D02*
X12940848Y-15132555D01*
X12940848Y-15132555D02*
X12921801Y-15151603D01*
X12921801Y-15151603D02*
X12902753Y-15161127D01*
X13102753Y-15284936D02*
X13112277Y-15294460D01*
X13112277Y-15294460D02*
X13102753Y-15303984D01*
X13102753Y-15303984D02*
X13093229Y-15294460D01*
X13093229Y-15294460D02*
X13102753Y-15284936D01*
X13102753Y-15284936D02*
X13102753Y-15303984D01*
X13188467Y-15123031D02*
X13197991Y-15113508D01*
X13197991Y-15113508D02*
X13217039Y-15103984D01*
X13217039Y-15103984D02*
X13264658Y-15103984D01*
X13264658Y-15103984D02*
X13283705Y-15113508D01*
X13283705Y-15113508D02*
X13293229Y-15123031D01*
X13293229Y-15123031D02*
X13302753Y-15142079D01*
X13302753Y-15142079D02*
X13302753Y-15161127D01*
X13302753Y-15161127D02*
X13293229Y-15189698D01*
X13293229Y-15189698D02*
X13178943Y-15303984D01*
X13178943Y-15303984D02*
X13302753Y-15303984D01*
X13369420Y-15103984D02*
X13502753Y-15103984D01*
X13502753Y-15103984D02*
X13417039Y-15303984D01*
X13617039Y-15103984D02*
X13636086Y-15103984D01*
X13636086Y-15103984D02*
X13655134Y-15113508D01*
X13655134Y-15113508D02*
X13664658Y-15123031D01*
X13664658Y-15123031D02*
X13674182Y-15142079D01*
X13674182Y-15142079D02*
X13683705Y-15180174D01*
X13683705Y-15180174D02*
X13683705Y-15227793D01*
X13683705Y-15227793D02*
X13674182Y-15265888D01*
X13674182Y-15265888D02*
X13664658Y-15284936D01*
X13664658Y-15284936D02*
X13655134Y-15294460D01*
X13655134Y-15294460D02*
X13636086Y-15303984D01*
X13636086Y-15303984D02*
X13617039Y-15303984D01*
X13617039Y-15303984D02*
X13597991Y-15294460D01*
X13597991Y-15294460D02*
X13588467Y-15284936D01*
X13588467Y-15284936D02*
X13578943Y-15265888D01*
X13578943Y-15265888D02*
X13569420Y-15227793D01*
X13569420Y-15227793D02*
X13569420Y-15180174D01*
X13569420Y-15180174D02*
X13578943Y-15142079D01*
X13578943Y-15142079D02*
X13588467Y-15123031D01*
X13588467Y-15123031D02*
X13597991Y-15113508D01*
X13597991Y-15113508D02*
X13617039Y-15103984D01*
X13769420Y-15303984D02*
X13769420Y-15170650D01*
X13769420Y-15189698D02*
X13778943Y-15180174D01*
X13778943Y-15180174D02*
X13797991Y-15170650D01*
X13797991Y-15170650D02*
X13826563Y-15170650D01*
X13826563Y-15170650D02*
X13845610Y-15180174D01*
X13845610Y-15180174D02*
X13855134Y-15199222D01*
X13855134Y-15199222D02*
X13855134Y-15303984D01*
X13855134Y-15199222D02*
X13864658Y-15180174D01*
X13864658Y-15180174D02*
X13883705Y-15170650D01*
X13883705Y-15170650D02*
X13912277Y-15170650D01*
X13912277Y-15170650D02*
X13931324Y-15180174D01*
X13931324Y-15180174D02*
X13940848Y-15199222D01*
X13940848Y-15199222D02*
X13940848Y-15303984D01*
X14036086Y-15303984D02*
X14036086Y-15170650D01*
X14036086Y-15189698D02*
X14045610Y-15180174D01*
X14045610Y-15180174D02*
X14064658Y-15170650D01*
X14064658Y-15170650D02*
X14093229Y-15170650D01*
X14093229Y-15170650D02*
X14112277Y-15180174D01*
X14112277Y-15180174D02*
X14121801Y-15199222D01*
X14121801Y-15199222D02*
X14121801Y-15303984D01*
X14121801Y-15199222D02*
X14131324Y-15180174D01*
X14131324Y-15180174D02*
X14150372Y-15170650D01*
X14150372Y-15170650D02*
X14178943Y-15170650D01*
X14178943Y-15170650D02*
X14197991Y-15180174D01*
X14197991Y-15180174D02*
X14207515Y-15199222D01*
X14207515Y-15199222D02*
X14207515Y-15303984D01*
X14597991Y-15094460D02*
X14426563Y-15351603D01*
X14855134Y-15103984D02*
X14874182Y-15103984D01*
X14874182Y-15103984D02*
X14893229Y-15113508D01*
X14893229Y-15113508D02*
X14902753Y-15123031D01*
X14902753Y-15123031D02*
X14912277Y-15142079D01*
X14912277Y-15142079D02*
X14921801Y-15180174D01*
X14921801Y-15180174D02*
X14921801Y-15227793D01*
X14921801Y-15227793D02*
X14912277Y-15265888D01*
X14912277Y-15265888D02*
X14902753Y-15284936D01*
X14902753Y-15284936D02*
X14893229Y-15294460D01*
X14893229Y-15294460D02*
X14874182Y-15303984D01*
X14874182Y-15303984D02*
X14855134Y-15303984D01*
X14855134Y-15303984D02*
X14836086Y-15294460D01*
X14836086Y-15294460D02*
X14826563Y-15284936D01*
X14826563Y-15284936D02*
X14817039Y-15265888D01*
X14817039Y-15265888D02*
X14807515Y-15227793D01*
X14807515Y-15227793D02*
X14807515Y-15180174D01*
X14807515Y-15180174D02*
X14817039Y-15142079D01*
X14817039Y-15142079D02*
X14826563Y-15123031D01*
X14826563Y-15123031D02*
X14836086Y-15113508D01*
X14836086Y-15113508D02*
X14855134Y-15103984D01*
X15007515Y-15284936D02*
X15017039Y-15294460D01*
X15017039Y-15294460D02*
X15007515Y-15303984D01*
X15007515Y-15303984D02*
X14997991Y-15294460D01*
X14997991Y-15294460D02*
X15007515Y-15284936D01*
X15007515Y-15284936D02*
X15007515Y-15303984D01*
X15140848Y-15103984D02*
X15159896Y-15103984D01*
X15159896Y-15103984D02*
X15178944Y-15113508D01*
X15178944Y-15113508D02*
X15188467Y-15123031D01*
X15188467Y-15123031D02*
X15197991Y-15142079D01*
X15197991Y-15142079D02*
X15207515Y-15180174D01*
X15207515Y-15180174D02*
X15207515Y-15227793D01*
X15207515Y-15227793D02*
X15197991Y-15265888D01*
X15197991Y-15265888D02*
X15188467Y-15284936D01*
X15188467Y-15284936D02*
X15178944Y-15294460D01*
X15178944Y-15294460D02*
X15159896Y-15303984D01*
X15159896Y-15303984D02*
X15140848Y-15303984D01*
X15140848Y-15303984D02*
X15121801Y-15294460D01*
X15121801Y-15294460D02*
X15112277Y-15284936D01*
X15112277Y-15284936D02*
X15102753Y-15265888D01*
X15102753Y-15265888D02*
X15093229Y-15227793D01*
X15093229Y-15227793D02*
X15093229Y-15180174D01*
X15093229Y-15180174D02*
X15102753Y-15142079D01*
X15102753Y-15142079D02*
X15112277Y-15123031D01*
X15112277Y-15123031D02*
X15121801Y-15113508D01*
X15121801Y-15113508D02*
X15140848Y-15103984D01*
X15388467Y-15103984D02*
X15293229Y-15103984D01*
X15293229Y-15103984D02*
X15283706Y-15199222D01*
X15283706Y-15199222D02*
X15293229Y-15189698D01*
X15293229Y-15189698D02*
X15312277Y-15180174D01*
X15312277Y-15180174D02*
X15359896Y-15180174D01*
X15359896Y-15180174D02*
X15378944Y-15189698D01*
X15378944Y-15189698D02*
X15388467Y-15199222D01*
X15388467Y-15199222D02*
X15397991Y-15218269D01*
X15397991Y-15218269D02*
X15397991Y-15265888D01*
X15397991Y-15265888D02*
X15388467Y-15284936D01*
X15388467Y-15284936D02*
X15378944Y-15294460D01*
X15378944Y-15294460D02*
X15359896Y-15303984D01*
X15359896Y-15303984D02*
X15312277Y-15303984D01*
X15312277Y-15303984D02*
X15293229Y-15294460D01*
X15293229Y-15294460D02*
X15283706Y-15284936D01*
X15521801Y-15103984D02*
X15540848Y-15103984D01*
X15540848Y-15103984D02*
X15559896Y-15113508D01*
X15559896Y-15113508D02*
X15569420Y-15123031D01*
X15569420Y-15123031D02*
X15578944Y-15142079D01*
X15578944Y-15142079D02*
X15588467Y-15180174D01*
X15588467Y-15180174D02*
X15588467Y-15227793D01*
X15588467Y-15227793D02*
X15578944Y-15265888D01*
X15578944Y-15265888D02*
X15569420Y-15284936D01*
X15569420Y-15284936D02*
X15559896Y-15294460D01*
X15559896Y-15294460D02*
X15540848Y-15303984D01*
X15540848Y-15303984D02*
X15521801Y-15303984D01*
X15521801Y-15303984D02*
X15502753Y-15294460D01*
X15502753Y-15294460D02*
X15493229Y-15284936D01*
X15493229Y-15284936D02*
X15483706Y-15265888D01*
X15483706Y-15265888D02*
X15474182Y-15227793D01*
X15474182Y-15227793D02*
X15474182Y-15180174D01*
X15474182Y-15180174D02*
X15483706Y-15142079D01*
X15483706Y-15142079D02*
X15493229Y-15123031D01*
X15493229Y-15123031D02*
X15502753Y-15113508D01*
X15502753Y-15113508D02*
X15521801Y-15103984D01*
X15712277Y-15103984D02*
X15731325Y-15103984D01*
X15731325Y-15103984D02*
X15750372Y-15113508D01*
X15750372Y-15113508D02*
X15759896Y-15123031D01*
X15759896Y-15123031D02*
X15769420Y-15142079D01*
X15769420Y-15142079D02*
X15778944Y-15180174D01*
X15778944Y-15180174D02*
X15778944Y-15227793D01*
X15778944Y-15227793D02*
X15769420Y-15265888D01*
X15769420Y-15265888D02*
X15759896Y-15284936D01*
X15759896Y-15284936D02*
X15750372Y-15294460D01*
X15750372Y-15294460D02*
X15731325Y-15303984D01*
X15731325Y-15303984D02*
X15712277Y-15303984D01*
X15712277Y-15303984D02*
X15693229Y-15294460D01*
X15693229Y-15294460D02*
X15683706Y-15284936D01*
X15683706Y-15284936D02*
X15674182Y-15265888D01*
X15674182Y-15265888D02*
X15664658Y-15227793D01*
X15664658Y-15227793D02*
X15664658Y-15180174D01*
X15664658Y-15180174D02*
X15674182Y-15142079D01*
X15674182Y-15142079D02*
X15683706Y-15123031D01*
X15683706Y-15123031D02*
X15693229Y-15113508D01*
X15693229Y-15113508D02*
X15712277Y-15103984D01*
X15855134Y-15103984D02*
X15855134Y-15142079D01*
X15931325Y-15103984D02*
X15931325Y-15142079D01*
X16226563Y-15380174D02*
X16217039Y-15370650D01*
X16217039Y-15370650D02*
X16197991Y-15342079D01*
X16197991Y-15342079D02*
X16188468Y-15323031D01*
X16188468Y-15323031D02*
X16178944Y-15294460D01*
X16178944Y-15294460D02*
X16169420Y-15246841D01*
X16169420Y-15246841D02*
X16169420Y-15208746D01*
X16169420Y-15208746D02*
X16178944Y-15161127D01*
X16178944Y-15161127D02*
X16188468Y-15132555D01*
X16188468Y-15132555D02*
X16197991Y-15113508D01*
X16197991Y-15113508D02*
X16217039Y-15084936D01*
X16217039Y-15084936D02*
X16226563Y-15075412D01*
X16407515Y-15303984D02*
X16293229Y-15303984D01*
X16350372Y-15303984D02*
X16350372Y-15103984D01*
X16350372Y-15103984D02*
X16331325Y-15132555D01*
X16331325Y-15132555D02*
X16312277Y-15151603D01*
X16312277Y-15151603D02*
X16293229Y-15161127D01*
X16521801Y-15189698D02*
X16502753Y-15180174D01*
X16502753Y-15180174D02*
X16493229Y-15170650D01*
X16493229Y-15170650D02*
X16483706Y-15151603D01*
X16483706Y-15151603D02*
X16483706Y-15142079D01*
X16483706Y-15142079D02*
X16493229Y-15123031D01*
X16493229Y-15123031D02*
X16502753Y-15113508D01*
X16502753Y-15113508D02*
X16521801Y-15103984D01*
X16521801Y-15103984D02*
X16559896Y-15103984D01*
X16559896Y-15103984D02*
X16578944Y-15113508D01*
X16578944Y-15113508D02*
X16588468Y-15123031D01*
X16588468Y-15123031D02*
X16597991Y-15142079D01*
X16597991Y-15142079D02*
X16597991Y-15151603D01*
X16597991Y-15151603D02*
X16588468Y-15170650D01*
X16588468Y-15170650D02*
X16578944Y-15180174D01*
X16578944Y-15180174D02*
X16559896Y-15189698D01*
X16559896Y-15189698D02*
X16521801Y-15189698D01*
X16521801Y-15189698D02*
X16502753Y-15199222D01*
X16502753Y-15199222D02*
X16493229Y-15208746D01*
X16493229Y-15208746D02*
X16483706Y-15227793D01*
X16483706Y-15227793D02*
X16483706Y-15265888D01*
X16483706Y-15265888D02*
X16493229Y-15284936D01*
X16493229Y-15284936D02*
X16502753Y-15294460D01*
X16502753Y-15294460D02*
X16521801Y-15303984D01*
X16521801Y-15303984D02*
X16559896Y-15303984D01*
X16559896Y-15303984D02*
X16578944Y-15294460D01*
X16578944Y-15294460D02*
X16588468Y-15284936D01*
X16588468Y-15284936D02*
X16597991Y-15265888D01*
X16597991Y-15265888D02*
X16597991Y-15227793D01*
X16597991Y-15227793D02*
X16588468Y-15208746D01*
X16588468Y-15208746D02*
X16578944Y-15199222D01*
X16578944Y-15199222D02*
X16559896Y-15189698D01*
X16836087Y-15303984D02*
X16836087Y-15103984D01*
X16921801Y-15303984D02*
X16921801Y-15199222D01*
X16921801Y-15199222D02*
X16912277Y-15180174D01*
X16912277Y-15180174D02*
X16893230Y-15170650D01*
X16893230Y-15170650D02*
X16864658Y-15170650D01*
X16864658Y-15170650D02*
X16845611Y-15180174D01*
X16845611Y-15180174D02*
X16836087Y-15189698D01*
X17045611Y-15303984D02*
X17026563Y-15294460D01*
X17026563Y-15294460D02*
X17017039Y-15284936D01*
X17017039Y-15284936D02*
X17007515Y-15265888D01*
X17007515Y-15265888D02*
X17007515Y-15208746D01*
X17007515Y-15208746D02*
X17017039Y-15189698D01*
X17017039Y-15189698D02*
X17026563Y-15180174D01*
X17026563Y-15180174D02*
X17045611Y-15170650D01*
X17045611Y-15170650D02*
X17074182Y-15170650D01*
X17074182Y-15170650D02*
X17093230Y-15180174D01*
X17093230Y-15180174D02*
X17102753Y-15189698D01*
X17102753Y-15189698D02*
X17112277Y-15208746D01*
X17112277Y-15208746D02*
X17112277Y-15265888D01*
X17112277Y-15265888D02*
X17102753Y-15284936D01*
X17102753Y-15284936D02*
X17093230Y-15294460D01*
X17093230Y-15294460D02*
X17074182Y-15303984D01*
X17074182Y-15303984D02*
X17045611Y-15303984D01*
X17226563Y-15303984D02*
X17207515Y-15294460D01*
X17207515Y-15294460D02*
X17197992Y-15275412D01*
X17197992Y-15275412D02*
X17197992Y-15103984D01*
X17378944Y-15294460D02*
X17359896Y-15303984D01*
X17359896Y-15303984D02*
X17321801Y-15303984D01*
X17321801Y-15303984D02*
X17302753Y-15294460D01*
X17302753Y-15294460D02*
X17293230Y-15275412D01*
X17293230Y-15275412D02*
X17293230Y-15199222D01*
X17293230Y-15199222D02*
X17302753Y-15180174D01*
X17302753Y-15180174D02*
X17321801Y-15170650D01*
X17321801Y-15170650D02*
X17359896Y-15170650D01*
X17359896Y-15170650D02*
X17378944Y-15180174D01*
X17378944Y-15180174D02*
X17388468Y-15199222D01*
X17388468Y-15199222D02*
X17388468Y-15218269D01*
X17388468Y-15218269D02*
X17293230Y-15237317D01*
X17464658Y-15294460D02*
X17483706Y-15303984D01*
X17483706Y-15303984D02*
X17521801Y-15303984D01*
X17521801Y-15303984D02*
X17540849Y-15294460D01*
X17540849Y-15294460D02*
X17550373Y-15275412D01*
X17550373Y-15275412D02*
X17550373Y-15265888D01*
X17550373Y-15265888D02*
X17540849Y-15246841D01*
X17540849Y-15246841D02*
X17521801Y-15237317D01*
X17521801Y-15237317D02*
X17493230Y-15237317D01*
X17493230Y-15237317D02*
X17474182Y-15227793D01*
X17474182Y-15227793D02*
X17464658Y-15208746D01*
X17464658Y-15208746D02*
X17464658Y-15199222D01*
X17464658Y-15199222D02*
X17474182Y-15180174D01*
X17474182Y-15180174D02*
X17493230Y-15170650D01*
X17493230Y-15170650D02*
X17521801Y-15170650D01*
X17521801Y-15170650D02*
X17540849Y-15180174D01*
X17617039Y-15380174D02*
X17626563Y-15370650D01*
X17626563Y-15370650D02*
X17645611Y-15342079D01*
X17645611Y-15342079D02*
X17655134Y-15323031D01*
X17655134Y-15323031D02*
X17664658Y-15294460D01*
X17664658Y-15294460D02*
X17674182Y-15246841D01*
X17674182Y-15246841D02*
X17674182Y-15208746D01*
X17674182Y-15208746D02*
X17664658Y-15161127D01*
X17664658Y-15161127D02*
X17655134Y-15132555D01*
X17655134Y-15132555D02*
X17645611Y-15113508D01*
X17645611Y-15113508D02*
X17626563Y-15084936D01*
X17626563Y-15084936D02*
X17617039Y-15075412D01*
D17*
X12521500Y-15411500D02*
X12651500Y-15541500D01*
X12651500Y-15411500D02*
X12521500Y-15541500D01*
X12586500Y-15411500D02*
X12586500Y-15541500D01*
X12521500Y-15476500D02*
X12651500Y-15476500D01*
D11*
X13017039Y-15567984D02*
X12902753Y-15567984D01*
X12959896Y-15567984D02*
X12959896Y-15367984D01*
X12959896Y-15367984D02*
X12940848Y-15396555D01*
X12940848Y-15396555D02*
X12921801Y-15415603D01*
X12921801Y-15415603D02*
X12902753Y-15425127D01*
X13102753Y-15548936D02*
X13112277Y-15558460D01*
X13112277Y-15558460D02*
X13102753Y-15567984D01*
X13102753Y-15567984D02*
X13093229Y-15558460D01*
X13093229Y-15558460D02*
X13102753Y-15548936D01*
X13102753Y-15548936D02*
X13102753Y-15567984D01*
X13178943Y-15367984D02*
X13302753Y-15367984D01*
X13302753Y-15367984D02*
X13236086Y-15444174D01*
X13236086Y-15444174D02*
X13264658Y-15444174D01*
X13264658Y-15444174D02*
X13283705Y-15453698D01*
X13283705Y-15453698D02*
X13293229Y-15463222D01*
X13293229Y-15463222D02*
X13302753Y-15482269D01*
X13302753Y-15482269D02*
X13302753Y-15529888D01*
X13302753Y-15529888D02*
X13293229Y-15548936D01*
X13293229Y-15548936D02*
X13283705Y-15558460D01*
X13283705Y-15558460D02*
X13264658Y-15567984D01*
X13264658Y-15567984D02*
X13207515Y-15567984D01*
X13207515Y-15567984D02*
X13188467Y-15558460D01*
X13188467Y-15558460D02*
X13178943Y-15548936D01*
X13426562Y-15367984D02*
X13445610Y-15367984D01*
X13445610Y-15367984D02*
X13464658Y-15377508D01*
X13464658Y-15377508D02*
X13474182Y-15387031D01*
X13474182Y-15387031D02*
X13483705Y-15406079D01*
X13483705Y-15406079D02*
X13493229Y-15444174D01*
X13493229Y-15444174D02*
X13493229Y-15491793D01*
X13493229Y-15491793D02*
X13483705Y-15529888D01*
X13483705Y-15529888D02*
X13474182Y-15548936D01*
X13474182Y-15548936D02*
X13464658Y-15558460D01*
X13464658Y-15558460D02*
X13445610Y-15567984D01*
X13445610Y-15567984D02*
X13426562Y-15567984D01*
X13426562Y-15567984D02*
X13407515Y-15558460D01*
X13407515Y-15558460D02*
X13397991Y-15548936D01*
X13397991Y-15548936D02*
X13388467Y-15529888D01*
X13388467Y-15529888D02*
X13378943Y-15491793D01*
X13378943Y-15491793D02*
X13378943Y-15444174D01*
X13378943Y-15444174D02*
X13388467Y-15406079D01*
X13388467Y-15406079D02*
X13397991Y-15387031D01*
X13397991Y-15387031D02*
X13407515Y-15377508D01*
X13407515Y-15377508D02*
X13426562Y-15367984D01*
X13617039Y-15367984D02*
X13636086Y-15367984D01*
X13636086Y-15367984D02*
X13655134Y-15377508D01*
X13655134Y-15377508D02*
X13664658Y-15387031D01*
X13664658Y-15387031D02*
X13674182Y-15406079D01*
X13674182Y-15406079D02*
X13683705Y-15444174D01*
X13683705Y-15444174D02*
X13683705Y-15491793D01*
X13683705Y-15491793D02*
X13674182Y-15529888D01*
X13674182Y-15529888D02*
X13664658Y-15548936D01*
X13664658Y-15548936D02*
X13655134Y-15558460D01*
X13655134Y-15558460D02*
X13636086Y-15567984D01*
X13636086Y-15567984D02*
X13617039Y-15567984D01*
X13617039Y-15567984D02*
X13597991Y-15558460D01*
X13597991Y-15558460D02*
X13588467Y-15548936D01*
X13588467Y-15548936D02*
X13578943Y-15529888D01*
X13578943Y-15529888D02*
X13569420Y-15491793D01*
X13569420Y-15491793D02*
X13569420Y-15444174D01*
X13569420Y-15444174D02*
X13578943Y-15406079D01*
X13578943Y-15406079D02*
X13588467Y-15387031D01*
X13588467Y-15387031D02*
X13597991Y-15377508D01*
X13597991Y-15377508D02*
X13617039Y-15367984D01*
X13769420Y-15567984D02*
X13769420Y-15434650D01*
X13769420Y-15453698D02*
X13778943Y-15444174D01*
X13778943Y-15444174D02*
X13797991Y-15434650D01*
X13797991Y-15434650D02*
X13826563Y-15434650D01*
X13826563Y-15434650D02*
X13845610Y-15444174D01*
X13845610Y-15444174D02*
X13855134Y-15463222D01*
X13855134Y-15463222D02*
X13855134Y-15567984D01*
X13855134Y-15463222D02*
X13864658Y-15444174D01*
X13864658Y-15444174D02*
X13883705Y-15434650D01*
X13883705Y-15434650D02*
X13912277Y-15434650D01*
X13912277Y-15434650D02*
X13931324Y-15444174D01*
X13931324Y-15444174D02*
X13940848Y-15463222D01*
X13940848Y-15463222D02*
X13940848Y-15567984D01*
X14036086Y-15567984D02*
X14036086Y-15434650D01*
X14036086Y-15453698D02*
X14045610Y-15444174D01*
X14045610Y-15444174D02*
X14064658Y-15434650D01*
X14064658Y-15434650D02*
X14093229Y-15434650D01*
X14093229Y-15434650D02*
X14112277Y-15444174D01*
X14112277Y-15444174D02*
X14121801Y-15463222D01*
X14121801Y-15463222D02*
X14121801Y-15567984D01*
X14121801Y-15463222D02*
X14131324Y-15444174D01*
X14131324Y-15444174D02*
X14150372Y-15434650D01*
X14150372Y-15434650D02*
X14178943Y-15434650D01*
X14178943Y-15434650D02*
X14197991Y-15444174D01*
X14197991Y-15444174D02*
X14207515Y-15463222D01*
X14207515Y-15463222D02*
X14207515Y-15567984D01*
X14597991Y-15358460D02*
X14426563Y-15615603D01*
X14855134Y-15367984D02*
X14874182Y-15367984D01*
X14874182Y-15367984D02*
X14893229Y-15377508D01*
X14893229Y-15377508D02*
X14902753Y-15387031D01*
X14902753Y-15387031D02*
X14912277Y-15406079D01*
X14912277Y-15406079D02*
X14921801Y-15444174D01*
X14921801Y-15444174D02*
X14921801Y-15491793D01*
X14921801Y-15491793D02*
X14912277Y-15529888D01*
X14912277Y-15529888D02*
X14902753Y-15548936D01*
X14902753Y-15548936D02*
X14893229Y-15558460D01*
X14893229Y-15558460D02*
X14874182Y-15567984D01*
X14874182Y-15567984D02*
X14855134Y-15567984D01*
X14855134Y-15567984D02*
X14836086Y-15558460D01*
X14836086Y-15558460D02*
X14826563Y-15548936D01*
X14826563Y-15548936D02*
X14817039Y-15529888D01*
X14817039Y-15529888D02*
X14807515Y-15491793D01*
X14807515Y-15491793D02*
X14807515Y-15444174D01*
X14807515Y-15444174D02*
X14817039Y-15406079D01*
X14817039Y-15406079D02*
X14826563Y-15387031D01*
X14826563Y-15387031D02*
X14836086Y-15377508D01*
X14836086Y-15377508D02*
X14855134Y-15367984D01*
X15007515Y-15548936D02*
X15017039Y-15558460D01*
X15017039Y-15558460D02*
X15007515Y-15567984D01*
X15007515Y-15567984D02*
X14997991Y-15558460D01*
X14997991Y-15558460D02*
X15007515Y-15548936D01*
X15007515Y-15548936D02*
X15007515Y-15567984D01*
X15140848Y-15367984D02*
X15159896Y-15367984D01*
X15159896Y-15367984D02*
X15178944Y-15377508D01*
X15178944Y-15377508D02*
X15188467Y-15387031D01*
X15188467Y-15387031D02*
X15197991Y-15406079D01*
X15197991Y-15406079D02*
X15207515Y-15444174D01*
X15207515Y-15444174D02*
X15207515Y-15491793D01*
X15207515Y-15491793D02*
X15197991Y-15529888D01*
X15197991Y-15529888D02*
X15188467Y-15548936D01*
X15188467Y-15548936D02*
X15178944Y-15558460D01*
X15178944Y-15558460D02*
X15159896Y-15567984D01*
X15159896Y-15567984D02*
X15140848Y-15567984D01*
X15140848Y-15567984D02*
X15121801Y-15558460D01*
X15121801Y-15558460D02*
X15112277Y-15548936D01*
X15112277Y-15548936D02*
X15102753Y-15529888D01*
X15102753Y-15529888D02*
X15093229Y-15491793D01*
X15093229Y-15491793D02*
X15093229Y-15444174D01*
X15093229Y-15444174D02*
X15102753Y-15406079D01*
X15102753Y-15406079D02*
X15112277Y-15387031D01*
X15112277Y-15387031D02*
X15121801Y-15377508D01*
X15121801Y-15377508D02*
X15140848Y-15367984D01*
X15388467Y-15367984D02*
X15293229Y-15367984D01*
X15293229Y-15367984D02*
X15283706Y-15463222D01*
X15283706Y-15463222D02*
X15293229Y-15453698D01*
X15293229Y-15453698D02*
X15312277Y-15444174D01*
X15312277Y-15444174D02*
X15359896Y-15444174D01*
X15359896Y-15444174D02*
X15378944Y-15453698D01*
X15378944Y-15453698D02*
X15388467Y-15463222D01*
X15388467Y-15463222D02*
X15397991Y-15482269D01*
X15397991Y-15482269D02*
X15397991Y-15529888D01*
X15397991Y-15529888D02*
X15388467Y-15548936D01*
X15388467Y-15548936D02*
X15378944Y-15558460D01*
X15378944Y-15558460D02*
X15359896Y-15567984D01*
X15359896Y-15567984D02*
X15312277Y-15567984D01*
X15312277Y-15567984D02*
X15293229Y-15558460D01*
X15293229Y-15558460D02*
X15283706Y-15548936D01*
X15588467Y-15567984D02*
X15474182Y-15567984D01*
X15531325Y-15567984D02*
X15531325Y-15367984D01*
X15531325Y-15367984D02*
X15512277Y-15396555D01*
X15512277Y-15396555D02*
X15493229Y-15415603D01*
X15493229Y-15415603D02*
X15474182Y-15425127D01*
X15664658Y-15387031D02*
X15674182Y-15377508D01*
X15674182Y-15377508D02*
X15693229Y-15367984D01*
X15693229Y-15367984D02*
X15740848Y-15367984D01*
X15740848Y-15367984D02*
X15759896Y-15377508D01*
X15759896Y-15377508D02*
X15769420Y-15387031D01*
X15769420Y-15387031D02*
X15778944Y-15406079D01*
X15778944Y-15406079D02*
X15778944Y-15425127D01*
X15778944Y-15425127D02*
X15769420Y-15453698D01*
X15769420Y-15453698D02*
X15655134Y-15567984D01*
X15655134Y-15567984D02*
X15778944Y-15567984D01*
X15855134Y-15367984D02*
X15855134Y-15406079D01*
X15931325Y-15367984D02*
X15931325Y-15406079D01*
X16226563Y-15644174D02*
X16217039Y-15634650D01*
X16217039Y-15634650D02*
X16197991Y-15606079D01*
X16197991Y-15606079D02*
X16188468Y-15587031D01*
X16188468Y-15587031D02*
X16178944Y-15558460D01*
X16178944Y-15558460D02*
X16169420Y-15510841D01*
X16169420Y-15510841D02*
X16169420Y-15472746D01*
X16169420Y-15472746D02*
X16178944Y-15425127D01*
X16178944Y-15425127D02*
X16188468Y-15396555D01*
X16188468Y-15396555D02*
X16197991Y-15377508D01*
X16197991Y-15377508D02*
X16217039Y-15348936D01*
X16217039Y-15348936D02*
X16226563Y-15339412D01*
X16388468Y-15434650D02*
X16388468Y-15567984D01*
X16340848Y-15358460D02*
X16293229Y-15501317D01*
X16293229Y-15501317D02*
X16417039Y-15501317D01*
X16645610Y-15567984D02*
X16645610Y-15367984D01*
X16731325Y-15567984D02*
X16731325Y-15463222D01*
X16731325Y-15463222D02*
X16721801Y-15444174D01*
X16721801Y-15444174D02*
X16702753Y-15434650D01*
X16702753Y-15434650D02*
X16674182Y-15434650D01*
X16674182Y-15434650D02*
X16655134Y-15444174D01*
X16655134Y-15444174D02*
X16645610Y-15453698D01*
X16855134Y-15567984D02*
X16836087Y-15558460D01*
X16836087Y-15558460D02*
X16826563Y-15548936D01*
X16826563Y-15548936D02*
X16817039Y-15529888D01*
X16817039Y-15529888D02*
X16817039Y-15472746D01*
X16817039Y-15472746D02*
X16826563Y-15453698D01*
X16826563Y-15453698D02*
X16836087Y-15444174D01*
X16836087Y-15444174D02*
X16855134Y-15434650D01*
X16855134Y-15434650D02*
X16883706Y-15434650D01*
X16883706Y-15434650D02*
X16902753Y-15444174D01*
X16902753Y-15444174D02*
X16912277Y-15453698D01*
X16912277Y-15453698D02*
X16921801Y-15472746D01*
X16921801Y-15472746D02*
X16921801Y-15529888D01*
X16921801Y-15529888D02*
X16912277Y-15548936D01*
X16912277Y-15548936D02*
X16902753Y-15558460D01*
X16902753Y-15558460D02*
X16883706Y-15567984D01*
X16883706Y-15567984D02*
X16855134Y-15567984D01*
X17036087Y-15567984D02*
X17017039Y-15558460D01*
X17017039Y-15558460D02*
X17007515Y-15539412D01*
X17007515Y-15539412D02*
X17007515Y-15367984D01*
X17188468Y-15558460D02*
X17169420Y-15567984D01*
X17169420Y-15567984D02*
X17131325Y-15567984D01*
X17131325Y-15567984D02*
X17112277Y-15558460D01*
X17112277Y-15558460D02*
X17102753Y-15539412D01*
X17102753Y-15539412D02*
X17102753Y-15463222D01*
X17102753Y-15463222D02*
X17112277Y-15444174D01*
X17112277Y-15444174D02*
X17131325Y-15434650D01*
X17131325Y-15434650D02*
X17169420Y-15434650D01*
X17169420Y-15434650D02*
X17188468Y-15444174D01*
X17188468Y-15444174D02*
X17197992Y-15463222D01*
X17197992Y-15463222D02*
X17197992Y-15482269D01*
X17197992Y-15482269D02*
X17102753Y-15501317D01*
X17274182Y-15558460D02*
X17293230Y-15567984D01*
X17293230Y-15567984D02*
X17331325Y-15567984D01*
X17331325Y-15567984D02*
X17350373Y-15558460D01*
X17350373Y-15558460D02*
X17359896Y-15539412D01*
X17359896Y-15539412D02*
X17359896Y-15529888D01*
X17359896Y-15529888D02*
X17350373Y-15510841D01*
X17350373Y-15510841D02*
X17331325Y-15501317D01*
X17331325Y-15501317D02*
X17302753Y-15501317D01*
X17302753Y-15501317D02*
X17283706Y-15491793D01*
X17283706Y-15491793D02*
X17274182Y-15472746D01*
X17274182Y-15472746D02*
X17274182Y-15463222D01*
X17274182Y-15463222D02*
X17283706Y-15444174D01*
X17283706Y-15444174D02*
X17302753Y-15434650D01*
X17302753Y-15434650D02*
X17331325Y-15434650D01*
X17331325Y-15434650D02*
X17350373Y-15444174D01*
X17426563Y-15644174D02*
X17436087Y-15634650D01*
X17436087Y-15634650D02*
X17455134Y-15606079D01*
X17455134Y-15606079D02*
X17464658Y-15587031D01*
X17464658Y-15587031D02*
X17474182Y-15558460D01*
X17474182Y-15558460D02*
X17483706Y-15510841D01*
X17483706Y-15510841D02*
X17483706Y-15472746D01*
X17483706Y-15472746D02*
X17474182Y-15425127D01*
X17474182Y-15425127D02*
X17464658Y-15396555D01*
X17464658Y-15396555D02*
X17455134Y-15377508D01*
X17455134Y-15377508D02*
X17436087Y-15348936D01*
X17436087Y-15348936D02*
X17426563Y-15339412D01*
D18*
X12501500Y-15665500D02*
X12651500Y-15815500D01*
X12651500Y-15665500D02*
X12501500Y-15815500D01*
X12629533Y-15793533D02*
X12629533Y-15687466D01*
X12523466Y-15687466D01*
X12523466Y-15793533D01*
X12629533Y-15793533D01*
D11*
X13017039Y-15831984D02*
X12902753Y-15831984D01*
X12959896Y-15831984D02*
X12959896Y-15631984D01*
X12959896Y-15631984D02*
X12940848Y-15660555D01*
X12940848Y-15660555D02*
X12921801Y-15679603D01*
X12921801Y-15679603D02*
X12902753Y-15689127D01*
X13102753Y-15812936D02*
X13112277Y-15822460D01*
X13112277Y-15822460D02*
X13102753Y-15831984D01*
X13102753Y-15831984D02*
X13093229Y-15822460D01*
X13093229Y-15822460D02*
X13102753Y-15812936D01*
X13102753Y-15812936D02*
X13102753Y-15831984D01*
X13293229Y-15631984D02*
X13197991Y-15631984D01*
X13197991Y-15631984D02*
X13188467Y-15727222D01*
X13188467Y-15727222D02*
X13197991Y-15717698D01*
X13197991Y-15717698D02*
X13217039Y-15708174D01*
X13217039Y-15708174D02*
X13264658Y-15708174D01*
X13264658Y-15708174D02*
X13283705Y-15717698D01*
X13283705Y-15717698D02*
X13293229Y-15727222D01*
X13293229Y-15727222D02*
X13302753Y-15746269D01*
X13302753Y-15746269D02*
X13302753Y-15793888D01*
X13302753Y-15793888D02*
X13293229Y-15812936D01*
X13293229Y-15812936D02*
X13283705Y-15822460D01*
X13283705Y-15822460D02*
X13264658Y-15831984D01*
X13264658Y-15831984D02*
X13217039Y-15831984D01*
X13217039Y-15831984D02*
X13197991Y-15822460D01*
X13197991Y-15822460D02*
X13188467Y-15812936D01*
X13426562Y-15631984D02*
X13445610Y-15631984D01*
X13445610Y-15631984D02*
X13464658Y-15641508D01*
X13464658Y-15641508D02*
X13474182Y-15651031D01*
X13474182Y-15651031D02*
X13483705Y-15670079D01*
X13483705Y-15670079D02*
X13493229Y-15708174D01*
X13493229Y-15708174D02*
X13493229Y-15755793D01*
X13493229Y-15755793D02*
X13483705Y-15793888D01*
X13483705Y-15793888D02*
X13474182Y-15812936D01*
X13474182Y-15812936D02*
X13464658Y-15822460D01*
X13464658Y-15822460D02*
X13445610Y-15831984D01*
X13445610Y-15831984D02*
X13426562Y-15831984D01*
X13426562Y-15831984D02*
X13407515Y-15822460D01*
X13407515Y-15822460D02*
X13397991Y-15812936D01*
X13397991Y-15812936D02*
X13388467Y-15793888D01*
X13388467Y-15793888D02*
X13378943Y-15755793D01*
X13378943Y-15755793D02*
X13378943Y-15708174D01*
X13378943Y-15708174D02*
X13388467Y-15670079D01*
X13388467Y-15670079D02*
X13397991Y-15651031D01*
X13397991Y-15651031D02*
X13407515Y-15641508D01*
X13407515Y-15641508D02*
X13426562Y-15631984D01*
X13617039Y-15631984D02*
X13636086Y-15631984D01*
X13636086Y-15631984D02*
X13655134Y-15641508D01*
X13655134Y-15641508D02*
X13664658Y-15651031D01*
X13664658Y-15651031D02*
X13674182Y-15670079D01*
X13674182Y-15670079D02*
X13683705Y-15708174D01*
X13683705Y-15708174D02*
X13683705Y-15755793D01*
X13683705Y-15755793D02*
X13674182Y-15793888D01*
X13674182Y-15793888D02*
X13664658Y-15812936D01*
X13664658Y-15812936D02*
X13655134Y-15822460D01*
X13655134Y-15822460D02*
X13636086Y-15831984D01*
X13636086Y-15831984D02*
X13617039Y-15831984D01*
X13617039Y-15831984D02*
X13597991Y-15822460D01*
X13597991Y-15822460D02*
X13588467Y-15812936D01*
X13588467Y-15812936D02*
X13578943Y-15793888D01*
X13578943Y-15793888D02*
X13569420Y-15755793D01*
X13569420Y-15755793D02*
X13569420Y-15708174D01*
X13569420Y-15708174D02*
X13578943Y-15670079D01*
X13578943Y-15670079D02*
X13588467Y-15651031D01*
X13588467Y-15651031D02*
X13597991Y-15641508D01*
X13597991Y-15641508D02*
X13617039Y-15631984D01*
X13769420Y-15831984D02*
X13769420Y-15698650D01*
X13769420Y-15717698D02*
X13778943Y-15708174D01*
X13778943Y-15708174D02*
X13797991Y-15698650D01*
X13797991Y-15698650D02*
X13826563Y-15698650D01*
X13826563Y-15698650D02*
X13845610Y-15708174D01*
X13845610Y-15708174D02*
X13855134Y-15727222D01*
X13855134Y-15727222D02*
X13855134Y-15831984D01*
X13855134Y-15727222D02*
X13864658Y-15708174D01*
X13864658Y-15708174D02*
X13883705Y-15698650D01*
X13883705Y-15698650D02*
X13912277Y-15698650D01*
X13912277Y-15698650D02*
X13931324Y-15708174D01*
X13931324Y-15708174D02*
X13940848Y-15727222D01*
X13940848Y-15727222D02*
X13940848Y-15831984D01*
X14036086Y-15831984D02*
X14036086Y-15698650D01*
X14036086Y-15717698D02*
X14045610Y-15708174D01*
X14045610Y-15708174D02*
X14064658Y-15698650D01*
X14064658Y-15698650D02*
X14093229Y-15698650D01*
X14093229Y-15698650D02*
X14112277Y-15708174D01*
X14112277Y-15708174D02*
X14121801Y-15727222D01*
X14121801Y-15727222D02*
X14121801Y-15831984D01*
X14121801Y-15727222D02*
X14131324Y-15708174D01*
X14131324Y-15708174D02*
X14150372Y-15698650D01*
X14150372Y-15698650D02*
X14178943Y-15698650D01*
X14178943Y-15698650D02*
X14197991Y-15708174D01*
X14197991Y-15708174D02*
X14207515Y-15727222D01*
X14207515Y-15727222D02*
X14207515Y-15831984D01*
X14597991Y-15622460D02*
X14426563Y-15879603D01*
X14855134Y-15631984D02*
X14874182Y-15631984D01*
X14874182Y-15631984D02*
X14893229Y-15641508D01*
X14893229Y-15641508D02*
X14902753Y-15651031D01*
X14902753Y-15651031D02*
X14912277Y-15670079D01*
X14912277Y-15670079D02*
X14921801Y-15708174D01*
X14921801Y-15708174D02*
X14921801Y-15755793D01*
X14921801Y-15755793D02*
X14912277Y-15793888D01*
X14912277Y-15793888D02*
X14902753Y-15812936D01*
X14902753Y-15812936D02*
X14893229Y-15822460D01*
X14893229Y-15822460D02*
X14874182Y-15831984D01*
X14874182Y-15831984D02*
X14855134Y-15831984D01*
X14855134Y-15831984D02*
X14836086Y-15822460D01*
X14836086Y-15822460D02*
X14826563Y-15812936D01*
X14826563Y-15812936D02*
X14817039Y-15793888D01*
X14817039Y-15793888D02*
X14807515Y-15755793D01*
X14807515Y-15755793D02*
X14807515Y-15708174D01*
X14807515Y-15708174D02*
X14817039Y-15670079D01*
X14817039Y-15670079D02*
X14826563Y-15651031D01*
X14826563Y-15651031D02*
X14836086Y-15641508D01*
X14836086Y-15641508D02*
X14855134Y-15631984D01*
X15007515Y-15812936D02*
X15017039Y-15822460D01*
X15017039Y-15822460D02*
X15007515Y-15831984D01*
X15007515Y-15831984D02*
X14997991Y-15822460D01*
X14997991Y-15822460D02*
X15007515Y-15812936D01*
X15007515Y-15812936D02*
X15007515Y-15831984D01*
X15140848Y-15631984D02*
X15159896Y-15631984D01*
X15159896Y-15631984D02*
X15178944Y-15641508D01*
X15178944Y-15641508D02*
X15188467Y-15651031D01*
X15188467Y-15651031D02*
X15197991Y-15670079D01*
X15197991Y-15670079D02*
X15207515Y-15708174D01*
X15207515Y-15708174D02*
X15207515Y-15755793D01*
X15207515Y-15755793D02*
X15197991Y-15793888D01*
X15197991Y-15793888D02*
X15188467Y-15812936D01*
X15188467Y-15812936D02*
X15178944Y-15822460D01*
X15178944Y-15822460D02*
X15159896Y-15831984D01*
X15159896Y-15831984D02*
X15140848Y-15831984D01*
X15140848Y-15831984D02*
X15121801Y-15822460D01*
X15121801Y-15822460D02*
X15112277Y-15812936D01*
X15112277Y-15812936D02*
X15102753Y-15793888D01*
X15102753Y-15793888D02*
X15093229Y-15755793D01*
X15093229Y-15755793D02*
X15093229Y-15708174D01*
X15093229Y-15708174D02*
X15102753Y-15670079D01*
X15102753Y-15670079D02*
X15112277Y-15651031D01*
X15112277Y-15651031D02*
X15121801Y-15641508D01*
X15121801Y-15641508D02*
X15140848Y-15631984D01*
X15388467Y-15631984D02*
X15293229Y-15631984D01*
X15293229Y-15631984D02*
X15283706Y-15727222D01*
X15283706Y-15727222D02*
X15293229Y-15717698D01*
X15293229Y-15717698D02*
X15312277Y-15708174D01*
X15312277Y-15708174D02*
X15359896Y-15708174D01*
X15359896Y-15708174D02*
X15378944Y-15717698D01*
X15378944Y-15717698D02*
X15388467Y-15727222D01*
X15388467Y-15727222D02*
X15397991Y-15746269D01*
X15397991Y-15746269D02*
X15397991Y-15793888D01*
X15397991Y-15793888D02*
X15388467Y-15812936D01*
X15388467Y-15812936D02*
X15378944Y-15822460D01*
X15378944Y-15822460D02*
X15359896Y-15831984D01*
X15359896Y-15831984D02*
X15312277Y-15831984D01*
X15312277Y-15831984D02*
X15293229Y-15822460D01*
X15293229Y-15822460D02*
X15283706Y-15812936D01*
X15493229Y-15831984D02*
X15531325Y-15831984D01*
X15531325Y-15831984D02*
X15550372Y-15822460D01*
X15550372Y-15822460D02*
X15559896Y-15812936D01*
X15559896Y-15812936D02*
X15578944Y-15784365D01*
X15578944Y-15784365D02*
X15588467Y-15746269D01*
X15588467Y-15746269D02*
X15588467Y-15670079D01*
X15588467Y-15670079D02*
X15578944Y-15651031D01*
X15578944Y-15651031D02*
X15569420Y-15641508D01*
X15569420Y-15641508D02*
X15550372Y-15631984D01*
X15550372Y-15631984D02*
X15512277Y-15631984D01*
X15512277Y-15631984D02*
X15493229Y-15641508D01*
X15493229Y-15641508D02*
X15483706Y-15651031D01*
X15483706Y-15651031D02*
X15474182Y-15670079D01*
X15474182Y-15670079D02*
X15474182Y-15717698D01*
X15474182Y-15717698D02*
X15483706Y-15736746D01*
X15483706Y-15736746D02*
X15493229Y-15746269D01*
X15493229Y-15746269D02*
X15512277Y-15755793D01*
X15512277Y-15755793D02*
X15550372Y-15755793D01*
X15550372Y-15755793D02*
X15569420Y-15746269D01*
X15569420Y-15746269D02*
X15578944Y-15736746D01*
X15578944Y-15736746D02*
X15588467Y-15717698D01*
X15778944Y-15831984D02*
X15664658Y-15831984D01*
X15721801Y-15831984D02*
X15721801Y-15631984D01*
X15721801Y-15631984D02*
X15702753Y-15660555D01*
X15702753Y-15660555D02*
X15683706Y-15679603D01*
X15683706Y-15679603D02*
X15664658Y-15689127D01*
X15855134Y-15631984D02*
X15855134Y-15670079D01*
X15931325Y-15631984D02*
X15931325Y-15670079D01*
X16226563Y-15908174D02*
X16217039Y-15898650D01*
X16217039Y-15898650D02*
X16197991Y-15870079D01*
X16197991Y-15870079D02*
X16188468Y-15851031D01*
X16188468Y-15851031D02*
X16178944Y-15822460D01*
X16178944Y-15822460D02*
X16169420Y-15774841D01*
X16169420Y-15774841D02*
X16169420Y-15736746D01*
X16169420Y-15736746D02*
X16178944Y-15689127D01*
X16178944Y-15689127D02*
X16188468Y-15660555D01*
X16188468Y-15660555D02*
X16197991Y-15641508D01*
X16197991Y-15641508D02*
X16217039Y-15612936D01*
X16217039Y-15612936D02*
X16226563Y-15603412D01*
X16340848Y-15631984D02*
X16359896Y-15631984D01*
X16359896Y-15631984D02*
X16378944Y-15641508D01*
X16378944Y-15641508D02*
X16388468Y-15651031D01*
X16388468Y-15651031D02*
X16397991Y-15670079D01*
X16397991Y-15670079D02*
X16407515Y-15708174D01*
X16407515Y-15708174D02*
X16407515Y-15755793D01*
X16407515Y-15755793D02*
X16397991Y-15793888D01*
X16397991Y-15793888D02*
X16388468Y-15812936D01*
X16388468Y-15812936D02*
X16378944Y-15822460D01*
X16378944Y-15822460D02*
X16359896Y-15831984D01*
X16359896Y-15831984D02*
X16340848Y-15831984D01*
X16340848Y-15831984D02*
X16321801Y-15822460D01*
X16321801Y-15822460D02*
X16312277Y-15812936D01*
X16312277Y-15812936D02*
X16302753Y-15793888D01*
X16302753Y-15793888D02*
X16293229Y-15755793D01*
X16293229Y-15755793D02*
X16293229Y-15708174D01*
X16293229Y-15708174D02*
X16302753Y-15670079D01*
X16302753Y-15670079D02*
X16312277Y-15651031D01*
X16312277Y-15651031D02*
X16321801Y-15641508D01*
X16321801Y-15641508D02*
X16340848Y-15631984D01*
X16645610Y-15831984D02*
X16645610Y-15631984D01*
X16731325Y-15831984D02*
X16731325Y-15727222D01*
X16731325Y-15727222D02*
X16721801Y-15708174D01*
X16721801Y-15708174D02*
X16702753Y-15698650D01*
X16702753Y-15698650D02*
X16674182Y-15698650D01*
X16674182Y-15698650D02*
X16655134Y-15708174D01*
X16655134Y-15708174D02*
X16645610Y-15717698D01*
X16855134Y-15831984D02*
X16836087Y-15822460D01*
X16836087Y-15822460D02*
X16826563Y-15812936D01*
X16826563Y-15812936D02*
X16817039Y-15793888D01*
X16817039Y-15793888D02*
X16817039Y-15736746D01*
X16817039Y-15736746D02*
X16826563Y-15717698D01*
X16826563Y-15717698D02*
X16836087Y-15708174D01*
X16836087Y-15708174D02*
X16855134Y-15698650D01*
X16855134Y-15698650D02*
X16883706Y-15698650D01*
X16883706Y-15698650D02*
X16902753Y-15708174D01*
X16902753Y-15708174D02*
X16912277Y-15717698D01*
X16912277Y-15717698D02*
X16921801Y-15736746D01*
X16921801Y-15736746D02*
X16921801Y-15793888D01*
X16921801Y-15793888D02*
X16912277Y-15812936D01*
X16912277Y-15812936D02*
X16902753Y-15822460D01*
X16902753Y-15822460D02*
X16883706Y-15831984D01*
X16883706Y-15831984D02*
X16855134Y-15831984D01*
X17036087Y-15831984D02*
X17017039Y-15822460D01*
X17017039Y-15822460D02*
X17007515Y-15803412D01*
X17007515Y-15803412D02*
X17007515Y-15631984D01*
X17188468Y-15822460D02*
X17169420Y-15831984D01*
X17169420Y-15831984D02*
X17131325Y-15831984D01*
X17131325Y-15831984D02*
X17112277Y-15822460D01*
X17112277Y-15822460D02*
X17102753Y-15803412D01*
X17102753Y-15803412D02*
X17102753Y-15727222D01*
X17102753Y-15727222D02*
X17112277Y-15708174D01*
X17112277Y-15708174D02*
X17131325Y-15698650D01*
X17131325Y-15698650D02*
X17169420Y-15698650D01*
X17169420Y-15698650D02*
X17188468Y-15708174D01*
X17188468Y-15708174D02*
X17197992Y-15727222D01*
X17197992Y-15727222D02*
X17197992Y-15746269D01*
X17197992Y-15746269D02*
X17102753Y-15765317D01*
X17274182Y-15822460D02*
X17293230Y-15831984D01*
X17293230Y-15831984D02*
X17331325Y-15831984D01*
X17331325Y-15831984D02*
X17350373Y-15822460D01*
X17350373Y-15822460D02*
X17359896Y-15803412D01*
X17359896Y-15803412D02*
X17359896Y-15793888D01*
X17359896Y-15793888D02*
X17350373Y-15774841D01*
X17350373Y-15774841D02*
X17331325Y-15765317D01*
X17331325Y-15765317D02*
X17302753Y-15765317D01*
X17302753Y-15765317D02*
X17283706Y-15755793D01*
X17283706Y-15755793D02*
X17274182Y-15736746D01*
X17274182Y-15736746D02*
X17274182Y-15727222D01*
X17274182Y-15727222D02*
X17283706Y-15708174D01*
X17283706Y-15708174D02*
X17302753Y-15698650D01*
X17302753Y-15698650D02*
X17331325Y-15698650D01*
X17331325Y-15698650D02*
X17350373Y-15708174D01*
X17597992Y-15755793D02*
X17750373Y-15755793D01*
X17674182Y-15831984D02*
X17674182Y-15679603D01*
X18083706Y-15698650D02*
X18083706Y-15831984D01*
X18036087Y-15622460D02*
X17988468Y-15765317D01*
X17988468Y-15765317D02*
X18112277Y-15765317D01*
X18331325Y-15822460D02*
X18350373Y-15831984D01*
X18350373Y-15831984D02*
X18388468Y-15831984D01*
X18388468Y-15831984D02*
X18407516Y-15822460D01*
X18407516Y-15822460D02*
X18417039Y-15803412D01*
X18417039Y-15803412D02*
X18417039Y-15793888D01*
X18417039Y-15793888D02*
X18407516Y-15774841D01*
X18407516Y-15774841D02*
X18388468Y-15765317D01*
X18388468Y-15765317D02*
X18359896Y-15765317D01*
X18359896Y-15765317D02*
X18340849Y-15755793D01*
X18340849Y-15755793D02*
X18331325Y-15736746D01*
X18331325Y-15736746D02*
X18331325Y-15727222D01*
X18331325Y-15727222D02*
X18340849Y-15708174D01*
X18340849Y-15708174D02*
X18359896Y-15698650D01*
X18359896Y-15698650D02*
X18388468Y-15698650D01*
X18388468Y-15698650D02*
X18407516Y-15708174D01*
X18531325Y-15831984D02*
X18512277Y-15822460D01*
X18512277Y-15822460D02*
X18502754Y-15803412D01*
X18502754Y-15803412D02*
X18502754Y-15631984D01*
X18636087Y-15831984D02*
X18617039Y-15822460D01*
X18617039Y-15822460D02*
X18607516Y-15812936D01*
X18607516Y-15812936D02*
X18597992Y-15793888D01*
X18597992Y-15793888D02*
X18597992Y-15736746D01*
X18597992Y-15736746D02*
X18607516Y-15717698D01*
X18607516Y-15717698D02*
X18617039Y-15708174D01*
X18617039Y-15708174D02*
X18636087Y-15698650D01*
X18636087Y-15698650D02*
X18664658Y-15698650D01*
X18664658Y-15698650D02*
X18683706Y-15708174D01*
X18683706Y-15708174D02*
X18693230Y-15717698D01*
X18693230Y-15717698D02*
X18702754Y-15736746D01*
X18702754Y-15736746D02*
X18702754Y-15793888D01*
X18702754Y-15793888D02*
X18693230Y-15812936D01*
X18693230Y-15812936D02*
X18683706Y-15822460D01*
X18683706Y-15822460D02*
X18664658Y-15831984D01*
X18664658Y-15831984D02*
X18636087Y-15831984D01*
X18759897Y-15698650D02*
X18836087Y-15698650D01*
X18788468Y-15631984D02*
X18788468Y-15803412D01*
X18788468Y-15803412D02*
X18797992Y-15822460D01*
X18797992Y-15822460D02*
X18817039Y-15831984D01*
X18817039Y-15831984D02*
X18836087Y-15831984D01*
X18893230Y-15822460D02*
X18912277Y-15831984D01*
X18912277Y-15831984D02*
X18950373Y-15831984D01*
X18950373Y-15831984D02*
X18969420Y-15822460D01*
X18969420Y-15822460D02*
X18978944Y-15803412D01*
X18978944Y-15803412D02*
X18978944Y-15793888D01*
X18978944Y-15793888D02*
X18969420Y-15774841D01*
X18969420Y-15774841D02*
X18950373Y-15765317D01*
X18950373Y-15765317D02*
X18921801Y-15765317D01*
X18921801Y-15765317D02*
X18902754Y-15755793D01*
X18902754Y-15755793D02*
X18893230Y-15736746D01*
X18893230Y-15736746D02*
X18893230Y-15727222D01*
X18893230Y-15727222D02*
X18902754Y-15708174D01*
X18902754Y-15708174D02*
X18921801Y-15698650D01*
X18921801Y-15698650D02*
X18950373Y-15698650D01*
X18950373Y-15698650D02*
X18969420Y-15708174D01*
X19045611Y-15908174D02*
X19055135Y-15898650D01*
X19055135Y-15898650D02*
X19074182Y-15870079D01*
X19074182Y-15870079D02*
X19083706Y-15851031D01*
X19083706Y-15851031D02*
X19093230Y-15822460D01*
X19093230Y-15822460D02*
X19102754Y-15774841D01*
X19102754Y-15774841D02*
X19102754Y-15736746D01*
X19102754Y-15736746D02*
X19093230Y-15689127D01*
X19093230Y-15689127D02*
X19083706Y-15660555D01*
X19083706Y-15660555D02*
X19074182Y-15641508D01*
X19074182Y-15641508D02*
X19055135Y-15612936D01*
X19055135Y-15612936D02*
X19045611Y-15603412D01*
M02*
