%TF.GenerationSoftware,KiCad,Pcbnew,8.0.0*%
%TF.CreationDate,2024-04-03T12:08:00-04:00*%
%TF.ProjectId,macropad,6d616372-6f70-4616-942e-6b696361645f,rev?*%
%TF.SameCoordinates,Original*%
%TF.FileFunction,Soldermask,Bot*%
%TF.FilePolarity,Negative*%
%FSLAX46Y46*%
G04 Gerber Fmt 4.6, Leading zero omitted, Abs format (unit mm)*
G04 Created by KiCad (PCBNEW 8.0.0) date 2024-04-03 12:08:00*
%MOMM*%
%LPD*%
G01*
G04 APERTURE LIST*
%ADD10C,1.700000*%
%ADD11C,4.000000*%
%ADD12C,2.200000*%
%ADD13R,2.000000X2.000000*%
%ADD14C,2.000000*%
%ADD15R,3.200000X2.000000*%
%ADD16R,1.700000X1.700000*%
%ADD17O,1.700000X1.700000*%
%ADD18O,3.048000X1.850000*%
%ADD19O,1.800000X1.800000*%
%ADD20O,1.500000X1.500000*%
%ADD21O,2.499360X1.800860*%
%ADD22O,1.998980X1.600200*%
G04 APERTURE END LIST*
D10*
%TO.C,SW8*%
X206248000Y-103886000D03*
D11*
X211328000Y-103886000D03*
D10*
X216408000Y-103886000D03*
D12*
X213868000Y-98806000D03*
X207518000Y-101346000D03*
%TD*%
D13*
%TO.C,SW11*%
X134134000Y-81942000D03*
D14*
X134134000Y-86942000D03*
X134134000Y-84442000D03*
D15*
X141634000Y-78842000D03*
X141634000Y-90042000D03*
D14*
X148634000Y-86942000D03*
X148634000Y-81942000D03*
%TD*%
D10*
%TO.C,SW4*%
X187198000Y-84836000D03*
D11*
X192278000Y-84836000D03*
D10*
X197358000Y-84836000D03*
D12*
X194818000Y-79756000D03*
X188468000Y-82296000D03*
%TD*%
D10*
%TO.C,SW2*%
X168148000Y-103886000D03*
D11*
X173228000Y-103886000D03*
D10*
X178308000Y-103886000D03*
D12*
X175768000Y-98806000D03*
X169418000Y-101346000D03*
%TD*%
D13*
%TO.C,SW10*%
X133880000Y-102262000D03*
D14*
X133880000Y-107262000D03*
X133880000Y-104762000D03*
D15*
X141380000Y-99162000D03*
X141380000Y-110362000D03*
D14*
X148380000Y-107262000D03*
X148380000Y-102262000D03*
%TD*%
D10*
%TO.C,SW5*%
X187198000Y-103886000D03*
D11*
X192278000Y-103886000D03*
D10*
X197358000Y-103886000D03*
D12*
X194818000Y-98806000D03*
X188468000Y-101346000D03*
%TD*%
D16*
%TO.C,J1*%
X169578000Y-53942000D03*
D17*
X169578000Y-51402000D03*
X169578000Y-48862000D03*
X169578000Y-46322000D03*
%TD*%
D10*
%TO.C,SW3*%
X168148000Y-122936000D03*
D11*
X173228000Y-122936000D03*
D10*
X178308000Y-122936000D03*
D12*
X175768000Y-117856000D03*
X169418000Y-120396000D03*
%TD*%
D10*
%TO.C,SW7*%
X206248000Y-84836000D03*
D11*
X211328000Y-84836000D03*
D10*
X216408000Y-84836000D03*
D12*
X213868000Y-79756000D03*
X207518000Y-82296000D03*
%TD*%
D10*
%TO.C,SW6*%
X187198000Y-122936000D03*
D11*
X192278000Y-122936000D03*
D10*
X197358000Y-122936000D03*
D12*
X194818000Y-117856000D03*
X188468000Y-120396000D03*
%TD*%
D10*
%TO.C,SW9*%
X206248000Y-122936000D03*
D11*
X211328000Y-122936000D03*
D10*
X216408000Y-122936000D03*
D12*
X213868000Y-117856000D03*
X207518000Y-120396000D03*
%TD*%
D18*
%TO.C,SW12*%
X135652000Y-62384000D03*
X148152000Y-62384000D03*
X135652000Y-67384000D03*
X148152000Y-67384000D03*
%TD*%
D10*
%TO.C,SW1*%
X168148000Y-84836000D03*
D11*
X173228000Y-84836000D03*
D10*
X178308000Y-84836000D03*
D12*
X175768000Y-79756000D03*
X169418000Y-82296000D03*
%TD*%
D19*
%TO.C,U1*%
X225712000Y-52692000D03*
D20*
X222682000Y-52992000D03*
X222682000Y-57842000D03*
D19*
X225712000Y-58142000D03*
D17*
X225842000Y-46527000D03*
X223302000Y-46527000D03*
D16*
X220762000Y-46527000D03*
D17*
X218222000Y-46527000D03*
X215682000Y-46527000D03*
X213142000Y-46527000D03*
X210602000Y-46527000D03*
D16*
X208062000Y-46527000D03*
D17*
X205522000Y-46527000D03*
X202982000Y-46527000D03*
X200442000Y-46527000D03*
X197902000Y-46527000D03*
D16*
X195362000Y-46527000D03*
D17*
X192822000Y-46527000D03*
X190282000Y-46527000D03*
X187742000Y-46527000D03*
X185202000Y-46527000D03*
D16*
X182662000Y-46527000D03*
D17*
X180122000Y-46527000D03*
X177582000Y-46527000D03*
X177582000Y-64307000D03*
X180122000Y-64307000D03*
D16*
X182662000Y-64307000D03*
D17*
X185202000Y-64307000D03*
X187742000Y-64307000D03*
X190282000Y-64307000D03*
X192822000Y-64307000D03*
D16*
X195362000Y-64307000D03*
D17*
X197902000Y-64307000D03*
X200442000Y-64307000D03*
X202982000Y-64307000D03*
X205522000Y-64307000D03*
D16*
X208062000Y-64307000D03*
D17*
X210602000Y-64307000D03*
X213142000Y-64307000D03*
X215682000Y-64307000D03*
X218222000Y-64307000D03*
D16*
X220762000Y-64307000D03*
D17*
X223302000Y-64307000D03*
X225842000Y-64307000D03*
%TD*%
D21*
%TO.C,U2*%
X135978880Y-120052800D03*
D22*
X135978880Y-123754000D03*
D21*
X135978880Y-126555200D03*
X146281120Y-126555200D03*
D22*
X146281120Y-123754000D03*
D21*
X146281120Y-120052800D03*
%TD*%
M02*
