M48
; DRILL file {KiCad 8.0.0} date 2024-04-03T12:07:57-0400
; FORMAT={-:-/ absolute / inch / decimal}
; #@! TF.CreationDate,2024-04-03T12:07:57-04:00
; #@! TF.GenerationSoftware,Kicad,Pcbnew,8.0.0
; #@! TF.FileFunction,NonPlated,1,2,NPTH
FMAT,2
INCH
; #@! TA.AperFunction,NonPlated,NPTH,ComponentDrill
T1C0.0591
; #@! TA.AperFunction,NonPlated,NPTH,ComponentDrill
T2C0.0669
; #@! TA.AperFunction,NonPlated,NPTH,ComponentDrill
T3C0.0709
; #@! TA.AperFunction,NonPlated,NPTH,ComponentDrill
T4C0.1575
%
G90
G05
T1
X8.767Y-2.0863
X8.767Y-2.2772
T2
X6.62Y-3.34
X6.62Y-4.09
X6.62Y-4.84
X7.02Y-3.34
X7.02Y-4.09
X7.02Y-4.84
X7.37Y-3.34
X7.37Y-4.09
X7.37Y-4.84
X7.77Y-3.34
X7.77Y-4.09
X7.77Y-4.84
X8.12Y-3.34
X8.12Y-4.09
X8.12Y-4.84
X8.52Y-3.34
X8.52Y-4.09
X8.52Y-4.84
T3
X8.8863Y-2.0745
X8.8863Y-2.2891
T4
X6.82Y-3.34
X6.82Y-4.09
X6.82Y-4.84
X7.57Y-3.34
X7.57Y-4.09
X7.57Y-4.84
X8.32Y-3.34
X8.32Y-4.09
X8.32Y-4.84
M30
