M48
; DRILL file {KiCad 8.0.0} date 2024-04-03T12:07:57-0400
; FORMAT={-:-/ absolute / inch / decimal}
; #@! TF.CreationDate,2024-04-03T12:07:57-04:00
; #@! TF.GenerationSoftware,Kicad,Pcbnew,8.0.0
; #@! TF.FileFunction,Plated,1,2,PTH
FMAT,2
INCH
; #@! TA.AperFunction,Plated,PTH,ViaDrill
T1C0.0118
; #@! TA.AperFunction,Plated,PTH,ComponentDrill
T2C0.0394
; #@! TA.AperFunction,Plated,PTH,ComponentDrill
T3C0.0394
; #@! TA.AperFunction,Plated,PTH,ComponentDrill
T4C0.0402
; #@! TA.AperFunction,Plated,PTH,ComponentDrill
T5C0.0472
; #@! TA.AperFunction,Plated,PTH,ComponentDrill
T6C0.0512
; #@! TA.AperFunction,Plated,PTH,ComponentDrill
T7C0.0591
%
G90
G05
T1
X6.1063Y-4.5945
X6.1063Y-4.7445
X6.1063Y-4.8445
X6.2063Y-4.3445
X6.2063Y-4.4945
X6.2563Y-4.4445
X7.1563Y-2.2445
X7.1563Y-2.2945
X7.2063Y-2.2181
X7.3813Y-2.3195
X7.6063Y-2.2445
X7.6563Y-2.2945
T2
X5.2709Y-4.0261
X5.2709Y-4.1245
X5.2709Y-4.2229
X5.2809Y-3.2261
X5.2809Y-3.3245
X5.2809Y-3.4229
X5.8417Y-4.0261
X5.8417Y-4.2229
X5.8517Y-3.2261
X5.8517Y-3.4229
X6.6763Y-1.8237
X6.6763Y-1.9237
X6.6763Y-2.0237
X6.6763Y-2.1237
T3
X5.3535Y-4.8722
X5.7591Y-4.8722
T4
X6.9914Y-1.8318
X6.9914Y-2.5318
X7.0914Y-1.8318
X7.0914Y-2.5318
X7.1914Y-1.8318
X7.1914Y-2.5318
X7.2914Y-1.8318
X7.2914Y-2.5318
X7.3914Y-1.8318
X7.3914Y-2.5318
X7.4914Y-1.8318
X7.4914Y-2.5318
X7.5914Y-1.8318
X7.5914Y-2.5318
X7.6914Y-1.8318
X7.6914Y-2.5318
X7.7914Y-1.8318
X7.7914Y-2.5318
X7.8914Y-1.8318
X7.8914Y-2.5318
X7.9914Y-1.8318
X7.9914Y-2.5318
X8.0914Y-1.8318
X8.0914Y-2.5318
X8.1914Y-1.8318
X8.1914Y-2.5318
X8.2914Y-1.8318
X8.2914Y-2.5318
X8.3914Y-1.8318
X8.3914Y-2.5318
X8.4914Y-1.8318
X8.4914Y-2.5318
X8.5914Y-1.8318
X8.5914Y-2.5318
X8.6914Y-1.8318
X8.6914Y-2.5318
X8.7914Y-1.8318
X8.7914Y-2.5318
X8.8914Y-1.8318
X8.8914Y-2.5318
T5
X5.3535Y-4.7265
X5.3535Y-4.9825
X5.7591Y-4.7265
X5.7591Y-4.9825
T6
X5.3406Y-2.4561
X5.3406Y-2.6529
X5.8328Y-2.4561
X5.8328Y-2.6529
T7
X6.67Y-3.24
X6.67Y-3.99
X6.67Y-4.74
X6.92Y-3.14
X6.92Y-3.89
X6.92Y-4.64
X7.42Y-3.24
X7.42Y-3.99
X7.42Y-4.74
X7.67Y-3.14
X7.67Y-3.89
X7.67Y-4.64
X8.17Y-3.24
X8.17Y-3.99
X8.17Y-4.74
X8.42Y-3.14
X8.42Y-3.89
X8.42Y-4.64
T7
G00X5.5406Y-3.904
M15
G01X5.5917Y-3.904
M16
G05
G00X5.5406Y-4.345
M15
G01X5.5917Y-4.345
M16
G05
G00X5.5506Y-3.104
M15
G01X5.6017Y-3.104
M16
G05
G00X5.5506Y-3.545
M15
G01X5.6017Y-3.545
M16
G05
M30
