%TF.GenerationSoftware,KiCad,Pcbnew,8.0.0*%
%TF.CreationDate,2024-04-03T12:08:00-04:00*%
%TF.ProjectId,macropad,6d616372-6f70-4616-942e-6b696361645f,rev?*%
%TF.SameCoordinates,Original*%
%TF.FileFunction,Legend,Top*%
%TF.FilePolarity,Positive*%
%FSLAX46Y46*%
G04 Gerber Fmt 4.6, Leading zero omitted, Abs format (unit mm)*
G04 Created by KiCad (PCBNEW 8.0.0) date 2024-04-03 12:08:00*
%MOMM*%
%LPD*%
G01*
G04 APERTURE LIST*
%ADD10C,0.150000*%
%ADD11C,0.304800*%
%ADD12C,0.127000*%
%ADD13C,0.120000*%
%ADD14C,0.381000*%
%ADD15C,0.254000*%
%ADD16O,2.499360X1.800860*%
%ADD17O,1.998980X1.600200*%
G04 APERTURE END LIST*
D10*
X209994667Y-96419200D02*
X210137524Y-96466819D01*
X210137524Y-96466819D02*
X210375619Y-96466819D01*
X210375619Y-96466819D02*
X210470857Y-96419200D01*
X210470857Y-96419200D02*
X210518476Y-96371580D01*
X210518476Y-96371580D02*
X210566095Y-96276342D01*
X210566095Y-96276342D02*
X210566095Y-96181104D01*
X210566095Y-96181104D02*
X210518476Y-96085866D01*
X210518476Y-96085866D02*
X210470857Y-96038247D01*
X210470857Y-96038247D02*
X210375619Y-95990628D01*
X210375619Y-95990628D02*
X210185143Y-95943009D01*
X210185143Y-95943009D02*
X210089905Y-95895390D01*
X210089905Y-95895390D02*
X210042286Y-95847771D01*
X210042286Y-95847771D02*
X209994667Y-95752533D01*
X209994667Y-95752533D02*
X209994667Y-95657295D01*
X209994667Y-95657295D02*
X210042286Y-95562057D01*
X210042286Y-95562057D02*
X210089905Y-95514438D01*
X210089905Y-95514438D02*
X210185143Y-95466819D01*
X210185143Y-95466819D02*
X210423238Y-95466819D01*
X210423238Y-95466819D02*
X210566095Y-95514438D01*
X210899429Y-95466819D02*
X211137524Y-96466819D01*
X211137524Y-96466819D02*
X211328000Y-95752533D01*
X211328000Y-95752533D02*
X211518476Y-96466819D01*
X211518476Y-96466819D02*
X211756572Y-95466819D01*
X212280381Y-95895390D02*
X212185143Y-95847771D01*
X212185143Y-95847771D02*
X212137524Y-95800152D01*
X212137524Y-95800152D02*
X212089905Y-95704914D01*
X212089905Y-95704914D02*
X212089905Y-95657295D01*
X212089905Y-95657295D02*
X212137524Y-95562057D01*
X212137524Y-95562057D02*
X212185143Y-95514438D01*
X212185143Y-95514438D02*
X212280381Y-95466819D01*
X212280381Y-95466819D02*
X212470857Y-95466819D01*
X212470857Y-95466819D02*
X212566095Y-95514438D01*
X212566095Y-95514438D02*
X212613714Y-95562057D01*
X212613714Y-95562057D02*
X212661333Y-95657295D01*
X212661333Y-95657295D02*
X212661333Y-95704914D01*
X212661333Y-95704914D02*
X212613714Y-95800152D01*
X212613714Y-95800152D02*
X212566095Y-95847771D01*
X212566095Y-95847771D02*
X212470857Y-95895390D01*
X212470857Y-95895390D02*
X212280381Y-95895390D01*
X212280381Y-95895390D02*
X212185143Y-95943009D01*
X212185143Y-95943009D02*
X212137524Y-95990628D01*
X212137524Y-95990628D02*
X212089905Y-96085866D01*
X212089905Y-96085866D02*
X212089905Y-96276342D01*
X212089905Y-96276342D02*
X212137524Y-96371580D01*
X212137524Y-96371580D02*
X212185143Y-96419200D01*
X212185143Y-96419200D02*
X212280381Y-96466819D01*
X212280381Y-96466819D02*
X212470857Y-96466819D01*
X212470857Y-96466819D02*
X212566095Y-96419200D01*
X212566095Y-96419200D02*
X212613714Y-96371580D01*
X212613714Y-96371580D02*
X212661333Y-96276342D01*
X212661333Y-96276342D02*
X212661333Y-96085866D01*
X212661333Y-96085866D02*
X212613714Y-95990628D01*
X212613714Y-95990628D02*
X212566095Y-95943009D01*
X212566095Y-95943009D02*
X212470857Y-95895390D01*
X135124476Y-77649200D02*
X135267333Y-77696819D01*
X135267333Y-77696819D02*
X135505428Y-77696819D01*
X135505428Y-77696819D02*
X135600666Y-77649200D01*
X135600666Y-77649200D02*
X135648285Y-77601580D01*
X135648285Y-77601580D02*
X135695904Y-77506342D01*
X135695904Y-77506342D02*
X135695904Y-77411104D01*
X135695904Y-77411104D02*
X135648285Y-77315866D01*
X135648285Y-77315866D02*
X135600666Y-77268247D01*
X135600666Y-77268247D02*
X135505428Y-77220628D01*
X135505428Y-77220628D02*
X135314952Y-77173009D01*
X135314952Y-77173009D02*
X135219714Y-77125390D01*
X135219714Y-77125390D02*
X135172095Y-77077771D01*
X135172095Y-77077771D02*
X135124476Y-76982533D01*
X135124476Y-76982533D02*
X135124476Y-76887295D01*
X135124476Y-76887295D02*
X135172095Y-76792057D01*
X135172095Y-76792057D02*
X135219714Y-76744438D01*
X135219714Y-76744438D02*
X135314952Y-76696819D01*
X135314952Y-76696819D02*
X135553047Y-76696819D01*
X135553047Y-76696819D02*
X135695904Y-76744438D01*
X136029238Y-76696819D02*
X136267333Y-77696819D01*
X136267333Y-77696819D02*
X136457809Y-76982533D01*
X136457809Y-76982533D02*
X136648285Y-77696819D01*
X136648285Y-77696819D02*
X136886381Y-76696819D01*
X137791142Y-77696819D02*
X137219714Y-77696819D01*
X137505428Y-77696819D02*
X137505428Y-76696819D01*
X137505428Y-76696819D02*
X137410190Y-76839676D01*
X137410190Y-76839676D02*
X137314952Y-76934914D01*
X137314952Y-76934914D02*
X137219714Y-76982533D01*
X138743523Y-77696819D02*
X138172095Y-77696819D01*
X138457809Y-77696819D02*
X138457809Y-76696819D01*
X138457809Y-76696819D02*
X138362571Y-76839676D01*
X138362571Y-76839676D02*
X138267333Y-76934914D01*
X138267333Y-76934914D02*
X138172095Y-76982533D01*
X190944667Y-77369200D02*
X191087524Y-77416819D01*
X191087524Y-77416819D02*
X191325619Y-77416819D01*
X191325619Y-77416819D02*
X191420857Y-77369200D01*
X191420857Y-77369200D02*
X191468476Y-77321580D01*
X191468476Y-77321580D02*
X191516095Y-77226342D01*
X191516095Y-77226342D02*
X191516095Y-77131104D01*
X191516095Y-77131104D02*
X191468476Y-77035866D01*
X191468476Y-77035866D02*
X191420857Y-76988247D01*
X191420857Y-76988247D02*
X191325619Y-76940628D01*
X191325619Y-76940628D02*
X191135143Y-76893009D01*
X191135143Y-76893009D02*
X191039905Y-76845390D01*
X191039905Y-76845390D02*
X190992286Y-76797771D01*
X190992286Y-76797771D02*
X190944667Y-76702533D01*
X190944667Y-76702533D02*
X190944667Y-76607295D01*
X190944667Y-76607295D02*
X190992286Y-76512057D01*
X190992286Y-76512057D02*
X191039905Y-76464438D01*
X191039905Y-76464438D02*
X191135143Y-76416819D01*
X191135143Y-76416819D02*
X191373238Y-76416819D01*
X191373238Y-76416819D02*
X191516095Y-76464438D01*
X191849429Y-76416819D02*
X192087524Y-77416819D01*
X192087524Y-77416819D02*
X192278000Y-76702533D01*
X192278000Y-76702533D02*
X192468476Y-77416819D01*
X192468476Y-77416819D02*
X192706572Y-76416819D01*
X193516095Y-76750152D02*
X193516095Y-77416819D01*
X193278000Y-76369200D02*
X193039905Y-77083485D01*
X193039905Y-77083485D02*
X193658952Y-77083485D01*
X171894667Y-96419200D02*
X172037524Y-96466819D01*
X172037524Y-96466819D02*
X172275619Y-96466819D01*
X172275619Y-96466819D02*
X172370857Y-96419200D01*
X172370857Y-96419200D02*
X172418476Y-96371580D01*
X172418476Y-96371580D02*
X172466095Y-96276342D01*
X172466095Y-96276342D02*
X172466095Y-96181104D01*
X172466095Y-96181104D02*
X172418476Y-96085866D01*
X172418476Y-96085866D02*
X172370857Y-96038247D01*
X172370857Y-96038247D02*
X172275619Y-95990628D01*
X172275619Y-95990628D02*
X172085143Y-95943009D01*
X172085143Y-95943009D02*
X171989905Y-95895390D01*
X171989905Y-95895390D02*
X171942286Y-95847771D01*
X171942286Y-95847771D02*
X171894667Y-95752533D01*
X171894667Y-95752533D02*
X171894667Y-95657295D01*
X171894667Y-95657295D02*
X171942286Y-95562057D01*
X171942286Y-95562057D02*
X171989905Y-95514438D01*
X171989905Y-95514438D02*
X172085143Y-95466819D01*
X172085143Y-95466819D02*
X172323238Y-95466819D01*
X172323238Y-95466819D02*
X172466095Y-95514438D01*
X172799429Y-95466819D02*
X173037524Y-96466819D01*
X173037524Y-96466819D02*
X173228000Y-95752533D01*
X173228000Y-95752533D02*
X173418476Y-96466819D01*
X173418476Y-96466819D02*
X173656572Y-95466819D01*
X173989905Y-95562057D02*
X174037524Y-95514438D01*
X174037524Y-95514438D02*
X174132762Y-95466819D01*
X174132762Y-95466819D02*
X174370857Y-95466819D01*
X174370857Y-95466819D02*
X174466095Y-95514438D01*
X174466095Y-95514438D02*
X174513714Y-95562057D01*
X174513714Y-95562057D02*
X174561333Y-95657295D01*
X174561333Y-95657295D02*
X174561333Y-95752533D01*
X174561333Y-95752533D02*
X174513714Y-95895390D01*
X174513714Y-95895390D02*
X173942286Y-96466819D01*
X173942286Y-96466819D02*
X174561333Y-96466819D01*
X134870476Y-97969200D02*
X135013333Y-98016819D01*
X135013333Y-98016819D02*
X135251428Y-98016819D01*
X135251428Y-98016819D02*
X135346666Y-97969200D01*
X135346666Y-97969200D02*
X135394285Y-97921580D01*
X135394285Y-97921580D02*
X135441904Y-97826342D01*
X135441904Y-97826342D02*
X135441904Y-97731104D01*
X135441904Y-97731104D02*
X135394285Y-97635866D01*
X135394285Y-97635866D02*
X135346666Y-97588247D01*
X135346666Y-97588247D02*
X135251428Y-97540628D01*
X135251428Y-97540628D02*
X135060952Y-97493009D01*
X135060952Y-97493009D02*
X134965714Y-97445390D01*
X134965714Y-97445390D02*
X134918095Y-97397771D01*
X134918095Y-97397771D02*
X134870476Y-97302533D01*
X134870476Y-97302533D02*
X134870476Y-97207295D01*
X134870476Y-97207295D02*
X134918095Y-97112057D01*
X134918095Y-97112057D02*
X134965714Y-97064438D01*
X134965714Y-97064438D02*
X135060952Y-97016819D01*
X135060952Y-97016819D02*
X135299047Y-97016819D01*
X135299047Y-97016819D02*
X135441904Y-97064438D01*
X135775238Y-97016819D02*
X136013333Y-98016819D01*
X136013333Y-98016819D02*
X136203809Y-97302533D01*
X136203809Y-97302533D02*
X136394285Y-98016819D01*
X136394285Y-98016819D02*
X136632381Y-97016819D01*
X137537142Y-98016819D02*
X136965714Y-98016819D01*
X137251428Y-98016819D02*
X137251428Y-97016819D01*
X137251428Y-97016819D02*
X137156190Y-97159676D01*
X137156190Y-97159676D02*
X137060952Y-97254914D01*
X137060952Y-97254914D02*
X136965714Y-97302533D01*
X138156190Y-97016819D02*
X138251428Y-97016819D01*
X138251428Y-97016819D02*
X138346666Y-97064438D01*
X138346666Y-97064438D02*
X138394285Y-97112057D01*
X138394285Y-97112057D02*
X138441904Y-97207295D01*
X138441904Y-97207295D02*
X138489523Y-97397771D01*
X138489523Y-97397771D02*
X138489523Y-97635866D01*
X138489523Y-97635866D02*
X138441904Y-97826342D01*
X138441904Y-97826342D02*
X138394285Y-97921580D01*
X138394285Y-97921580D02*
X138346666Y-97969200D01*
X138346666Y-97969200D02*
X138251428Y-98016819D01*
X138251428Y-98016819D02*
X138156190Y-98016819D01*
X138156190Y-98016819D02*
X138060952Y-97969200D01*
X138060952Y-97969200D02*
X138013333Y-97921580D01*
X138013333Y-97921580D02*
X137965714Y-97826342D01*
X137965714Y-97826342D02*
X137918095Y-97635866D01*
X137918095Y-97635866D02*
X137918095Y-97397771D01*
X137918095Y-97397771D02*
X137965714Y-97207295D01*
X137965714Y-97207295D02*
X138013333Y-97112057D01*
X138013333Y-97112057D02*
X138060952Y-97064438D01*
X138060952Y-97064438D02*
X138156190Y-97016819D01*
X190944667Y-96419200D02*
X191087524Y-96466819D01*
X191087524Y-96466819D02*
X191325619Y-96466819D01*
X191325619Y-96466819D02*
X191420857Y-96419200D01*
X191420857Y-96419200D02*
X191468476Y-96371580D01*
X191468476Y-96371580D02*
X191516095Y-96276342D01*
X191516095Y-96276342D02*
X191516095Y-96181104D01*
X191516095Y-96181104D02*
X191468476Y-96085866D01*
X191468476Y-96085866D02*
X191420857Y-96038247D01*
X191420857Y-96038247D02*
X191325619Y-95990628D01*
X191325619Y-95990628D02*
X191135143Y-95943009D01*
X191135143Y-95943009D02*
X191039905Y-95895390D01*
X191039905Y-95895390D02*
X190992286Y-95847771D01*
X190992286Y-95847771D02*
X190944667Y-95752533D01*
X190944667Y-95752533D02*
X190944667Y-95657295D01*
X190944667Y-95657295D02*
X190992286Y-95562057D01*
X190992286Y-95562057D02*
X191039905Y-95514438D01*
X191039905Y-95514438D02*
X191135143Y-95466819D01*
X191135143Y-95466819D02*
X191373238Y-95466819D01*
X191373238Y-95466819D02*
X191516095Y-95514438D01*
X191849429Y-95466819D02*
X192087524Y-96466819D01*
X192087524Y-96466819D02*
X192278000Y-95752533D01*
X192278000Y-95752533D02*
X192468476Y-96466819D01*
X192468476Y-96466819D02*
X192706572Y-95466819D01*
X193563714Y-95466819D02*
X193087524Y-95466819D01*
X193087524Y-95466819D02*
X193039905Y-95943009D01*
X193039905Y-95943009D02*
X193087524Y-95895390D01*
X193087524Y-95895390D02*
X193182762Y-95847771D01*
X193182762Y-95847771D02*
X193420857Y-95847771D01*
X193420857Y-95847771D02*
X193516095Y-95895390D01*
X193516095Y-95895390D02*
X193563714Y-95943009D01*
X193563714Y-95943009D02*
X193611333Y-96038247D01*
X193611333Y-96038247D02*
X193611333Y-96276342D01*
X193611333Y-96276342D02*
X193563714Y-96371580D01*
X193563714Y-96371580D02*
X193516095Y-96419200D01*
X193516095Y-96419200D02*
X193420857Y-96466819D01*
X193420857Y-96466819D02*
X193182762Y-96466819D01*
X193182762Y-96466819D02*
X193087524Y-96419200D01*
X193087524Y-96419200D02*
X193039905Y-96371580D01*
X169244666Y-55726819D02*
X169244666Y-56441104D01*
X169244666Y-56441104D02*
X169197047Y-56583961D01*
X169197047Y-56583961D02*
X169101809Y-56679200D01*
X169101809Y-56679200D02*
X168958952Y-56726819D01*
X168958952Y-56726819D02*
X168863714Y-56726819D01*
X170244666Y-56726819D02*
X169673238Y-56726819D01*
X169958952Y-56726819D02*
X169958952Y-55726819D01*
X169958952Y-55726819D02*
X169863714Y-55869676D01*
X169863714Y-55869676D02*
X169768476Y-55964914D01*
X169768476Y-55964914D02*
X169673238Y-56012533D01*
X171894667Y-115469200D02*
X172037524Y-115516819D01*
X172037524Y-115516819D02*
X172275619Y-115516819D01*
X172275619Y-115516819D02*
X172370857Y-115469200D01*
X172370857Y-115469200D02*
X172418476Y-115421580D01*
X172418476Y-115421580D02*
X172466095Y-115326342D01*
X172466095Y-115326342D02*
X172466095Y-115231104D01*
X172466095Y-115231104D02*
X172418476Y-115135866D01*
X172418476Y-115135866D02*
X172370857Y-115088247D01*
X172370857Y-115088247D02*
X172275619Y-115040628D01*
X172275619Y-115040628D02*
X172085143Y-114993009D01*
X172085143Y-114993009D02*
X171989905Y-114945390D01*
X171989905Y-114945390D02*
X171942286Y-114897771D01*
X171942286Y-114897771D02*
X171894667Y-114802533D01*
X171894667Y-114802533D02*
X171894667Y-114707295D01*
X171894667Y-114707295D02*
X171942286Y-114612057D01*
X171942286Y-114612057D02*
X171989905Y-114564438D01*
X171989905Y-114564438D02*
X172085143Y-114516819D01*
X172085143Y-114516819D02*
X172323238Y-114516819D01*
X172323238Y-114516819D02*
X172466095Y-114564438D01*
X172799429Y-114516819D02*
X173037524Y-115516819D01*
X173037524Y-115516819D02*
X173228000Y-114802533D01*
X173228000Y-114802533D02*
X173418476Y-115516819D01*
X173418476Y-115516819D02*
X173656572Y-114516819D01*
X173942286Y-114516819D02*
X174561333Y-114516819D01*
X174561333Y-114516819D02*
X174228000Y-114897771D01*
X174228000Y-114897771D02*
X174370857Y-114897771D01*
X174370857Y-114897771D02*
X174466095Y-114945390D01*
X174466095Y-114945390D02*
X174513714Y-114993009D01*
X174513714Y-114993009D02*
X174561333Y-115088247D01*
X174561333Y-115088247D02*
X174561333Y-115326342D01*
X174561333Y-115326342D02*
X174513714Y-115421580D01*
X174513714Y-115421580D02*
X174466095Y-115469200D01*
X174466095Y-115469200D02*
X174370857Y-115516819D01*
X174370857Y-115516819D02*
X174085143Y-115516819D01*
X174085143Y-115516819D02*
X173989905Y-115469200D01*
X173989905Y-115469200D02*
X173942286Y-115421580D01*
X209994667Y-77369200D02*
X210137524Y-77416819D01*
X210137524Y-77416819D02*
X210375619Y-77416819D01*
X210375619Y-77416819D02*
X210470857Y-77369200D01*
X210470857Y-77369200D02*
X210518476Y-77321580D01*
X210518476Y-77321580D02*
X210566095Y-77226342D01*
X210566095Y-77226342D02*
X210566095Y-77131104D01*
X210566095Y-77131104D02*
X210518476Y-77035866D01*
X210518476Y-77035866D02*
X210470857Y-76988247D01*
X210470857Y-76988247D02*
X210375619Y-76940628D01*
X210375619Y-76940628D02*
X210185143Y-76893009D01*
X210185143Y-76893009D02*
X210089905Y-76845390D01*
X210089905Y-76845390D02*
X210042286Y-76797771D01*
X210042286Y-76797771D02*
X209994667Y-76702533D01*
X209994667Y-76702533D02*
X209994667Y-76607295D01*
X209994667Y-76607295D02*
X210042286Y-76512057D01*
X210042286Y-76512057D02*
X210089905Y-76464438D01*
X210089905Y-76464438D02*
X210185143Y-76416819D01*
X210185143Y-76416819D02*
X210423238Y-76416819D01*
X210423238Y-76416819D02*
X210566095Y-76464438D01*
X210899429Y-76416819D02*
X211137524Y-77416819D01*
X211137524Y-77416819D02*
X211328000Y-76702533D01*
X211328000Y-76702533D02*
X211518476Y-77416819D01*
X211518476Y-77416819D02*
X211756572Y-76416819D01*
X212042286Y-76416819D02*
X212708952Y-76416819D01*
X212708952Y-76416819D02*
X212280381Y-77416819D01*
X190944667Y-115469200D02*
X191087524Y-115516819D01*
X191087524Y-115516819D02*
X191325619Y-115516819D01*
X191325619Y-115516819D02*
X191420857Y-115469200D01*
X191420857Y-115469200D02*
X191468476Y-115421580D01*
X191468476Y-115421580D02*
X191516095Y-115326342D01*
X191516095Y-115326342D02*
X191516095Y-115231104D01*
X191516095Y-115231104D02*
X191468476Y-115135866D01*
X191468476Y-115135866D02*
X191420857Y-115088247D01*
X191420857Y-115088247D02*
X191325619Y-115040628D01*
X191325619Y-115040628D02*
X191135143Y-114993009D01*
X191135143Y-114993009D02*
X191039905Y-114945390D01*
X191039905Y-114945390D02*
X190992286Y-114897771D01*
X190992286Y-114897771D02*
X190944667Y-114802533D01*
X190944667Y-114802533D02*
X190944667Y-114707295D01*
X190944667Y-114707295D02*
X190992286Y-114612057D01*
X190992286Y-114612057D02*
X191039905Y-114564438D01*
X191039905Y-114564438D02*
X191135143Y-114516819D01*
X191135143Y-114516819D02*
X191373238Y-114516819D01*
X191373238Y-114516819D02*
X191516095Y-114564438D01*
X191849429Y-114516819D02*
X192087524Y-115516819D01*
X192087524Y-115516819D02*
X192278000Y-114802533D01*
X192278000Y-114802533D02*
X192468476Y-115516819D01*
X192468476Y-115516819D02*
X192706572Y-114516819D01*
X193516095Y-114516819D02*
X193325619Y-114516819D01*
X193325619Y-114516819D02*
X193230381Y-114564438D01*
X193230381Y-114564438D02*
X193182762Y-114612057D01*
X193182762Y-114612057D02*
X193087524Y-114754914D01*
X193087524Y-114754914D02*
X193039905Y-114945390D01*
X193039905Y-114945390D02*
X193039905Y-115326342D01*
X193039905Y-115326342D02*
X193087524Y-115421580D01*
X193087524Y-115421580D02*
X193135143Y-115469200D01*
X193135143Y-115469200D02*
X193230381Y-115516819D01*
X193230381Y-115516819D02*
X193420857Y-115516819D01*
X193420857Y-115516819D02*
X193516095Y-115469200D01*
X193516095Y-115469200D02*
X193563714Y-115421580D01*
X193563714Y-115421580D02*
X193611333Y-115326342D01*
X193611333Y-115326342D02*
X193611333Y-115088247D01*
X193611333Y-115088247D02*
X193563714Y-114993009D01*
X193563714Y-114993009D02*
X193516095Y-114945390D01*
X193516095Y-114945390D02*
X193420857Y-114897771D01*
X193420857Y-114897771D02*
X193230381Y-114897771D01*
X193230381Y-114897771D02*
X193135143Y-114945390D01*
X193135143Y-114945390D02*
X193087524Y-114993009D01*
X193087524Y-114993009D02*
X193039905Y-115088247D01*
X209994667Y-115469200D02*
X210137524Y-115516819D01*
X210137524Y-115516819D02*
X210375619Y-115516819D01*
X210375619Y-115516819D02*
X210470857Y-115469200D01*
X210470857Y-115469200D02*
X210518476Y-115421580D01*
X210518476Y-115421580D02*
X210566095Y-115326342D01*
X210566095Y-115326342D02*
X210566095Y-115231104D01*
X210566095Y-115231104D02*
X210518476Y-115135866D01*
X210518476Y-115135866D02*
X210470857Y-115088247D01*
X210470857Y-115088247D02*
X210375619Y-115040628D01*
X210375619Y-115040628D02*
X210185143Y-114993009D01*
X210185143Y-114993009D02*
X210089905Y-114945390D01*
X210089905Y-114945390D02*
X210042286Y-114897771D01*
X210042286Y-114897771D02*
X209994667Y-114802533D01*
X209994667Y-114802533D02*
X209994667Y-114707295D01*
X209994667Y-114707295D02*
X210042286Y-114612057D01*
X210042286Y-114612057D02*
X210089905Y-114564438D01*
X210089905Y-114564438D02*
X210185143Y-114516819D01*
X210185143Y-114516819D02*
X210423238Y-114516819D01*
X210423238Y-114516819D02*
X210566095Y-114564438D01*
X210899429Y-114516819D02*
X211137524Y-115516819D01*
X211137524Y-115516819D02*
X211328000Y-114802533D01*
X211328000Y-114802533D02*
X211518476Y-115516819D01*
X211518476Y-115516819D02*
X211756572Y-114516819D01*
X212185143Y-115516819D02*
X212375619Y-115516819D01*
X212375619Y-115516819D02*
X212470857Y-115469200D01*
X212470857Y-115469200D02*
X212518476Y-115421580D01*
X212518476Y-115421580D02*
X212613714Y-115278723D01*
X212613714Y-115278723D02*
X212661333Y-115088247D01*
X212661333Y-115088247D02*
X212661333Y-114707295D01*
X212661333Y-114707295D02*
X212613714Y-114612057D01*
X212613714Y-114612057D02*
X212566095Y-114564438D01*
X212566095Y-114564438D02*
X212470857Y-114516819D01*
X212470857Y-114516819D02*
X212280381Y-114516819D01*
X212280381Y-114516819D02*
X212185143Y-114564438D01*
X212185143Y-114564438D02*
X212137524Y-114612057D01*
X212137524Y-114612057D02*
X212089905Y-114707295D01*
X212089905Y-114707295D02*
X212089905Y-114945390D01*
X212089905Y-114945390D02*
X212137524Y-115040628D01*
X212137524Y-115040628D02*
X212185143Y-115088247D01*
X212185143Y-115088247D02*
X212280381Y-115135866D01*
X212280381Y-115135866D02*
X212470857Y-115135866D01*
X212470857Y-115135866D02*
X212566095Y-115088247D01*
X212566095Y-115088247D02*
X212613714Y-115040628D01*
X212613714Y-115040628D02*
X212661333Y-114945390D01*
X139922476Y-58131200D02*
X140065333Y-58178819D01*
X140065333Y-58178819D02*
X140303428Y-58178819D01*
X140303428Y-58178819D02*
X140398666Y-58131200D01*
X140398666Y-58131200D02*
X140446285Y-58083580D01*
X140446285Y-58083580D02*
X140493904Y-57988342D01*
X140493904Y-57988342D02*
X140493904Y-57893104D01*
X140493904Y-57893104D02*
X140446285Y-57797866D01*
X140446285Y-57797866D02*
X140398666Y-57750247D01*
X140398666Y-57750247D02*
X140303428Y-57702628D01*
X140303428Y-57702628D02*
X140112952Y-57655009D01*
X140112952Y-57655009D02*
X140017714Y-57607390D01*
X140017714Y-57607390D02*
X139970095Y-57559771D01*
X139970095Y-57559771D02*
X139922476Y-57464533D01*
X139922476Y-57464533D02*
X139922476Y-57369295D01*
X139922476Y-57369295D02*
X139970095Y-57274057D01*
X139970095Y-57274057D02*
X140017714Y-57226438D01*
X140017714Y-57226438D02*
X140112952Y-57178819D01*
X140112952Y-57178819D02*
X140351047Y-57178819D01*
X140351047Y-57178819D02*
X140493904Y-57226438D01*
X140827238Y-57178819D02*
X141065333Y-58178819D01*
X141065333Y-58178819D02*
X141255809Y-57464533D01*
X141255809Y-57464533D02*
X141446285Y-58178819D01*
X141446285Y-58178819D02*
X141684381Y-57178819D01*
X142589142Y-58178819D02*
X142017714Y-58178819D01*
X142303428Y-58178819D02*
X142303428Y-57178819D01*
X142303428Y-57178819D02*
X142208190Y-57321676D01*
X142208190Y-57321676D02*
X142112952Y-57416914D01*
X142112952Y-57416914D02*
X142017714Y-57464533D01*
X142970095Y-57274057D02*
X143017714Y-57226438D01*
X143017714Y-57226438D02*
X143112952Y-57178819D01*
X143112952Y-57178819D02*
X143351047Y-57178819D01*
X143351047Y-57178819D02*
X143446285Y-57226438D01*
X143446285Y-57226438D02*
X143493904Y-57274057D01*
X143493904Y-57274057D02*
X143541523Y-57369295D01*
X143541523Y-57369295D02*
X143541523Y-57464533D01*
X143541523Y-57464533D02*
X143493904Y-57607390D01*
X143493904Y-57607390D02*
X142922476Y-58178819D01*
X142922476Y-58178819D02*
X143541523Y-58178819D01*
X171894667Y-77369200D02*
X172037524Y-77416819D01*
X172037524Y-77416819D02*
X172275619Y-77416819D01*
X172275619Y-77416819D02*
X172370857Y-77369200D01*
X172370857Y-77369200D02*
X172418476Y-77321580D01*
X172418476Y-77321580D02*
X172466095Y-77226342D01*
X172466095Y-77226342D02*
X172466095Y-77131104D01*
X172466095Y-77131104D02*
X172418476Y-77035866D01*
X172418476Y-77035866D02*
X172370857Y-76988247D01*
X172370857Y-76988247D02*
X172275619Y-76940628D01*
X172275619Y-76940628D02*
X172085143Y-76893009D01*
X172085143Y-76893009D02*
X171989905Y-76845390D01*
X171989905Y-76845390D02*
X171942286Y-76797771D01*
X171942286Y-76797771D02*
X171894667Y-76702533D01*
X171894667Y-76702533D02*
X171894667Y-76607295D01*
X171894667Y-76607295D02*
X171942286Y-76512057D01*
X171942286Y-76512057D02*
X171989905Y-76464438D01*
X171989905Y-76464438D02*
X172085143Y-76416819D01*
X172085143Y-76416819D02*
X172323238Y-76416819D01*
X172323238Y-76416819D02*
X172466095Y-76464438D01*
X172799429Y-76416819D02*
X173037524Y-77416819D01*
X173037524Y-77416819D02*
X173228000Y-76702533D01*
X173228000Y-76702533D02*
X173418476Y-77416819D01*
X173418476Y-77416819D02*
X173656572Y-76416819D01*
X174561333Y-77416819D02*
X173989905Y-77416819D01*
X174275619Y-77416819D02*
X174275619Y-76416819D01*
X174275619Y-76416819D02*
X174180381Y-76559676D01*
X174180381Y-76559676D02*
X174085143Y-76654914D01*
X174085143Y-76654914D02*
X173989905Y-76702533D01*
X201166819Y-56178904D02*
X201976342Y-56178904D01*
X201976342Y-56178904D02*
X202071580Y-56131285D01*
X202071580Y-56131285D02*
X202119200Y-56083666D01*
X202119200Y-56083666D02*
X202166819Y-55988428D01*
X202166819Y-55988428D02*
X202166819Y-55797952D01*
X202166819Y-55797952D02*
X202119200Y-55702714D01*
X202119200Y-55702714D02*
X202071580Y-55655095D01*
X202071580Y-55655095D02*
X201976342Y-55607476D01*
X201976342Y-55607476D02*
X201166819Y-55607476D01*
X202166819Y-54607476D02*
X202166819Y-55178904D01*
X202166819Y-54893190D02*
X201166819Y-54893190D01*
X201166819Y-54893190D02*
X201309676Y-54988428D01*
X201309676Y-54988428D02*
X201404914Y-55083666D01*
X201404914Y-55083666D02*
X201452533Y-55178904D01*
X175836200Y-51526524D02*
X175874295Y-51412238D01*
X175874295Y-51412238D02*
X175874295Y-51221762D01*
X175874295Y-51221762D02*
X175836200Y-51145571D01*
X175836200Y-51145571D02*
X175798104Y-51107476D01*
X175798104Y-51107476D02*
X175721914Y-51069381D01*
X175721914Y-51069381D02*
X175645723Y-51069381D01*
X175645723Y-51069381D02*
X175569533Y-51107476D01*
X175569533Y-51107476D02*
X175531438Y-51145571D01*
X175531438Y-51145571D02*
X175493342Y-51221762D01*
X175493342Y-51221762D02*
X175455247Y-51374143D01*
X175455247Y-51374143D02*
X175417152Y-51450333D01*
X175417152Y-51450333D02*
X175379057Y-51488428D01*
X175379057Y-51488428D02*
X175302866Y-51526524D01*
X175302866Y-51526524D02*
X175226676Y-51526524D01*
X175226676Y-51526524D02*
X175150485Y-51488428D01*
X175150485Y-51488428D02*
X175112390Y-51450333D01*
X175112390Y-51450333D02*
X175074295Y-51374143D01*
X175074295Y-51374143D02*
X175074295Y-51183666D01*
X175074295Y-51183666D02*
X175112390Y-51069381D01*
X175074295Y-50802714D02*
X175874295Y-50612238D01*
X175874295Y-50612238D02*
X175302866Y-50459857D01*
X175302866Y-50459857D02*
X175874295Y-50307476D01*
X175874295Y-50307476D02*
X175074295Y-50117000D01*
X175798104Y-49355094D02*
X175836200Y-49393190D01*
X175836200Y-49393190D02*
X175874295Y-49507475D01*
X175874295Y-49507475D02*
X175874295Y-49583666D01*
X175874295Y-49583666D02*
X175836200Y-49697952D01*
X175836200Y-49697952D02*
X175760009Y-49774142D01*
X175760009Y-49774142D02*
X175683819Y-49812237D01*
X175683819Y-49812237D02*
X175531438Y-49850333D01*
X175531438Y-49850333D02*
X175417152Y-49850333D01*
X175417152Y-49850333D02*
X175264771Y-49812237D01*
X175264771Y-49812237D02*
X175188580Y-49774142D01*
X175188580Y-49774142D02*
X175112390Y-49697952D01*
X175112390Y-49697952D02*
X175074295Y-49583666D01*
X175074295Y-49583666D02*
X175074295Y-49507475D01*
X175074295Y-49507475D02*
X175112390Y-49393190D01*
X175112390Y-49393190D02*
X175150485Y-49355094D01*
X175874295Y-48631285D02*
X175874295Y-49012237D01*
X175874295Y-49012237D02*
X175074295Y-49012237D01*
X175874295Y-48364618D02*
X175074295Y-48364618D01*
X175874295Y-47907475D02*
X175417152Y-48250333D01*
X175074295Y-47907475D02*
X175531438Y-48364618D01*
X182513568Y-67503435D02*
X182486631Y-67422623D01*
X182486631Y-67422623D02*
X182405819Y-67341811D01*
X182405819Y-67341811D02*
X182298069Y-67287936D01*
X182298069Y-67287936D02*
X182190319Y-67287936D01*
X182190319Y-67287936D02*
X182109507Y-67314873D01*
X182109507Y-67314873D02*
X181974820Y-67395685D01*
X181974820Y-67395685D02*
X181894008Y-67476498D01*
X181894008Y-67476498D02*
X181813196Y-67611185D01*
X181813196Y-67611185D02*
X181786258Y-67691997D01*
X181786258Y-67691997D02*
X181786258Y-67799746D01*
X181786258Y-67799746D02*
X181840133Y-67907496D01*
X181840133Y-67907496D02*
X181894008Y-67961371D01*
X181894008Y-67961371D02*
X182001758Y-68015246D01*
X182001758Y-68015246D02*
X182055632Y-68015246D01*
X182055632Y-68015246D02*
X182244194Y-67826684D01*
X182244194Y-67826684D02*
X182136445Y-67718934D01*
X182244194Y-68311557D02*
X182809880Y-67745872D01*
X182809880Y-67745872D02*
X182567443Y-68634806D01*
X182567443Y-68634806D02*
X183133128Y-68069120D01*
X182836817Y-68904180D02*
X183402502Y-68338494D01*
X183402502Y-68338494D02*
X183537189Y-68473181D01*
X183537189Y-68473181D02*
X183591064Y-68580931D01*
X183591064Y-68580931D02*
X183591064Y-68688680D01*
X183591064Y-68688680D02*
X183564127Y-68769493D01*
X183564127Y-68769493D02*
X183483314Y-68904180D01*
X183483314Y-68904180D02*
X183402502Y-68984992D01*
X183402502Y-68984992D02*
X183267815Y-69065804D01*
X183267815Y-69065804D02*
X183187003Y-69092741D01*
X183187003Y-69092741D02*
X183079253Y-69092741D01*
X183079253Y-69092741D02*
X182971504Y-69038867D01*
X182971504Y-69038867D02*
X182836817Y-68904180D01*
X195213568Y-67503435D02*
X195186631Y-67422623D01*
X195186631Y-67422623D02*
X195105819Y-67341811D01*
X195105819Y-67341811D02*
X194998069Y-67287936D01*
X194998069Y-67287936D02*
X194890319Y-67287936D01*
X194890319Y-67287936D02*
X194809507Y-67314873D01*
X194809507Y-67314873D02*
X194674820Y-67395685D01*
X194674820Y-67395685D02*
X194594008Y-67476498D01*
X194594008Y-67476498D02*
X194513196Y-67611185D01*
X194513196Y-67611185D02*
X194486258Y-67691997D01*
X194486258Y-67691997D02*
X194486258Y-67799746D01*
X194486258Y-67799746D02*
X194540133Y-67907496D01*
X194540133Y-67907496D02*
X194594008Y-67961371D01*
X194594008Y-67961371D02*
X194701758Y-68015246D01*
X194701758Y-68015246D02*
X194755632Y-68015246D01*
X194755632Y-68015246D02*
X194944194Y-67826684D01*
X194944194Y-67826684D02*
X194836445Y-67718934D01*
X194944194Y-68311557D02*
X195509880Y-67745872D01*
X195509880Y-67745872D02*
X195267443Y-68634806D01*
X195267443Y-68634806D02*
X195833128Y-68069120D01*
X195536817Y-68904180D02*
X196102502Y-68338494D01*
X196102502Y-68338494D02*
X196237189Y-68473181D01*
X196237189Y-68473181D02*
X196291064Y-68580931D01*
X196291064Y-68580931D02*
X196291064Y-68688680D01*
X196291064Y-68688680D02*
X196264127Y-68769493D01*
X196264127Y-68769493D02*
X196183314Y-68904180D01*
X196183314Y-68904180D02*
X196102502Y-68984992D01*
X196102502Y-68984992D02*
X195967815Y-69065804D01*
X195967815Y-69065804D02*
X195887003Y-69092741D01*
X195887003Y-69092741D02*
X195779253Y-69092741D01*
X195779253Y-69092741D02*
X195671504Y-69038867D01*
X195671504Y-69038867D02*
X195536817Y-68904180D01*
X187351131Y-67514998D02*
X187324194Y-67434185D01*
X187324194Y-67434185D02*
X187243381Y-67353373D01*
X187243381Y-67353373D02*
X187135632Y-67299498D01*
X187135632Y-67299498D02*
X187027882Y-67299498D01*
X187027882Y-67299498D02*
X186947070Y-67326436D01*
X186947070Y-67326436D02*
X186812383Y-67407248D01*
X186812383Y-67407248D02*
X186731571Y-67488060D01*
X186731571Y-67488060D02*
X186650758Y-67622747D01*
X186650758Y-67622747D02*
X186623821Y-67703560D01*
X186623821Y-67703560D02*
X186623821Y-67811309D01*
X186623821Y-67811309D02*
X186677696Y-67919059D01*
X186677696Y-67919059D02*
X186731571Y-67972934D01*
X186731571Y-67972934D02*
X186839320Y-68026808D01*
X186839320Y-68026808D02*
X186893195Y-68026808D01*
X186893195Y-68026808D02*
X187081757Y-67838247D01*
X187081757Y-67838247D02*
X186974007Y-67730497D01*
X187081757Y-68323120D02*
X187647442Y-67757434D01*
X187647442Y-67757434D02*
X187862942Y-67972934D01*
X187862942Y-67972934D02*
X187889879Y-68053746D01*
X187889879Y-68053746D02*
X187889879Y-68107621D01*
X187889879Y-68107621D02*
X187862942Y-68188433D01*
X187862942Y-68188433D02*
X187782129Y-68269245D01*
X187782129Y-68269245D02*
X187701317Y-68296182D01*
X187701317Y-68296182D02*
X187647442Y-68296182D01*
X187647442Y-68296182D02*
X187566630Y-68269245D01*
X187566630Y-68269245D02*
X187351131Y-68053746D01*
X187943754Y-69185117D02*
X187620505Y-68861868D01*
X187782129Y-69023492D02*
X188347815Y-68457807D01*
X188347815Y-68457807D02*
X188213128Y-68484744D01*
X188213128Y-68484744D02*
X188105378Y-68484744D01*
X188105378Y-68484744D02*
X188024566Y-68457807D01*
X188213128Y-69454491D02*
X188320878Y-69562240D01*
X188320878Y-69562240D02*
X188401690Y-69589178D01*
X188401690Y-69589178D02*
X188455565Y-69589178D01*
X188455565Y-69589178D02*
X188590252Y-69562240D01*
X188590252Y-69562240D02*
X188724939Y-69481428D01*
X188724939Y-69481428D02*
X188940438Y-69265929D01*
X188940438Y-69265929D02*
X188967375Y-69185117D01*
X188967375Y-69185117D02*
X188967375Y-69131242D01*
X188967375Y-69131242D02*
X188940438Y-69050430D01*
X188940438Y-69050430D02*
X188832688Y-68942680D01*
X188832688Y-68942680D02*
X188751876Y-68915743D01*
X188751876Y-68915743D02*
X188698001Y-68915743D01*
X188698001Y-68915743D02*
X188617189Y-68942680D01*
X188617189Y-68942680D02*
X188482502Y-69077367D01*
X188482502Y-69077367D02*
X188455565Y-69158179D01*
X188455565Y-69158179D02*
X188455565Y-69212054D01*
X188455565Y-69212054D02*
X188482502Y-69292866D01*
X188482502Y-69292866D02*
X188590252Y-69400616D01*
X188590252Y-69400616D02*
X188671064Y-69427553D01*
X188671064Y-69427553D02*
X188724939Y-69427553D01*
X188724939Y-69427553D02*
X188805751Y-69400616D01*
X225720505Y-41930372D02*
X225693568Y-41849560D01*
X225693568Y-41849560D02*
X225612756Y-41768748D01*
X225612756Y-41768748D02*
X225505006Y-41714873D01*
X225505006Y-41714873D02*
X225397257Y-41714873D01*
X225397257Y-41714873D02*
X225316444Y-41741810D01*
X225316444Y-41741810D02*
X225181757Y-41822623D01*
X225181757Y-41822623D02*
X225100945Y-41903435D01*
X225100945Y-41903435D02*
X225020133Y-42038122D01*
X225020133Y-42038122D02*
X224993196Y-42118934D01*
X224993196Y-42118934D02*
X224993196Y-42226684D01*
X224993196Y-42226684D02*
X225047070Y-42334433D01*
X225047070Y-42334433D02*
X225100945Y-42388308D01*
X225100945Y-42388308D02*
X225208695Y-42442183D01*
X225208695Y-42442183D02*
X225262570Y-42442183D01*
X225262570Y-42442183D02*
X225451131Y-42253621D01*
X225451131Y-42253621D02*
X225343382Y-42145871D01*
X225451131Y-42738494D02*
X226016817Y-42172809D01*
X226016817Y-42172809D02*
X226232316Y-42388308D01*
X226232316Y-42388308D02*
X226259253Y-42469120D01*
X226259253Y-42469120D02*
X226259253Y-42522995D01*
X226259253Y-42522995D02*
X226232316Y-42603807D01*
X226232316Y-42603807D02*
X226151504Y-42684619D01*
X226151504Y-42684619D02*
X226070692Y-42711557D01*
X226070692Y-42711557D02*
X226016817Y-42711557D01*
X226016817Y-42711557D02*
X225936005Y-42684619D01*
X225936005Y-42684619D02*
X225720505Y-42469120D01*
X226690252Y-42846244D02*
X226744127Y-42900119D01*
X226744127Y-42900119D02*
X226771064Y-42980931D01*
X226771064Y-42980931D02*
X226771064Y-43034806D01*
X226771064Y-43034806D02*
X226744127Y-43115618D01*
X226744127Y-43115618D02*
X226663314Y-43250305D01*
X226663314Y-43250305D02*
X226528627Y-43384992D01*
X226528627Y-43384992D02*
X226393940Y-43465804D01*
X226393940Y-43465804D02*
X226313128Y-43492741D01*
X226313128Y-43492741D02*
X226259253Y-43492741D01*
X226259253Y-43492741D02*
X226178441Y-43465804D01*
X226178441Y-43465804D02*
X226124566Y-43411929D01*
X226124566Y-43411929D02*
X226097629Y-43331117D01*
X226097629Y-43331117D02*
X226097629Y-43277242D01*
X226097629Y-43277242D02*
X226124566Y-43196430D01*
X226124566Y-43196430D02*
X226205379Y-43061743D01*
X226205379Y-43061743D02*
X226340066Y-42927056D01*
X226340066Y-42927056D02*
X226474753Y-42846244D01*
X226474753Y-42846244D02*
X226555565Y-42819306D01*
X226555565Y-42819306D02*
X226609440Y-42819306D01*
X226609440Y-42819306D02*
X226690252Y-42846244D01*
X202890505Y-42030372D02*
X202863568Y-41949560D01*
X202863568Y-41949560D02*
X202782756Y-41868748D01*
X202782756Y-41868748D02*
X202675006Y-41814873D01*
X202675006Y-41814873D02*
X202567257Y-41814873D01*
X202567257Y-41814873D02*
X202486444Y-41841810D01*
X202486444Y-41841810D02*
X202351757Y-41922623D01*
X202351757Y-41922623D02*
X202270945Y-42003435D01*
X202270945Y-42003435D02*
X202190133Y-42138122D01*
X202190133Y-42138122D02*
X202163196Y-42218934D01*
X202163196Y-42218934D02*
X202163196Y-42326684D01*
X202163196Y-42326684D02*
X202217070Y-42434433D01*
X202217070Y-42434433D02*
X202270945Y-42488308D01*
X202270945Y-42488308D02*
X202378695Y-42542183D01*
X202378695Y-42542183D02*
X202432570Y-42542183D01*
X202432570Y-42542183D02*
X202621131Y-42353621D01*
X202621131Y-42353621D02*
X202513382Y-42245871D01*
X202621131Y-42838494D02*
X203186817Y-42272809D01*
X203186817Y-42272809D02*
X203402316Y-42488308D01*
X203402316Y-42488308D02*
X203429253Y-42569120D01*
X203429253Y-42569120D02*
X203429253Y-42622995D01*
X203429253Y-42622995D02*
X203402316Y-42703807D01*
X203402316Y-42703807D02*
X203321504Y-42784619D01*
X203321504Y-42784619D02*
X203240692Y-42811557D01*
X203240692Y-42811557D02*
X203186817Y-42811557D01*
X203186817Y-42811557D02*
X203106005Y-42784619D01*
X203106005Y-42784619D02*
X202890505Y-42569120D01*
X203698627Y-42784619D02*
X204075751Y-43161743D01*
X204075751Y-43161743D02*
X203267629Y-43484992D01*
X205121131Y-67514998D02*
X205094194Y-67434185D01*
X205094194Y-67434185D02*
X205013381Y-67353373D01*
X205013381Y-67353373D02*
X204905632Y-67299498D01*
X204905632Y-67299498D02*
X204797882Y-67299498D01*
X204797882Y-67299498D02*
X204717070Y-67326436D01*
X204717070Y-67326436D02*
X204582383Y-67407248D01*
X204582383Y-67407248D02*
X204501571Y-67488060D01*
X204501571Y-67488060D02*
X204420758Y-67622747D01*
X204420758Y-67622747D02*
X204393821Y-67703560D01*
X204393821Y-67703560D02*
X204393821Y-67811309D01*
X204393821Y-67811309D02*
X204447696Y-67919059D01*
X204447696Y-67919059D02*
X204501571Y-67972934D01*
X204501571Y-67972934D02*
X204609320Y-68026808D01*
X204609320Y-68026808D02*
X204663195Y-68026808D01*
X204663195Y-68026808D02*
X204851757Y-67838247D01*
X204851757Y-67838247D02*
X204744007Y-67730497D01*
X204851757Y-68323120D02*
X205417442Y-67757434D01*
X205417442Y-67757434D02*
X205632942Y-67972934D01*
X205632942Y-67972934D02*
X205659879Y-68053746D01*
X205659879Y-68053746D02*
X205659879Y-68107621D01*
X205659879Y-68107621D02*
X205632942Y-68188433D01*
X205632942Y-68188433D02*
X205552129Y-68269245D01*
X205552129Y-68269245D02*
X205471317Y-68296182D01*
X205471317Y-68296182D02*
X205417442Y-68296182D01*
X205417442Y-68296182D02*
X205336630Y-68269245D01*
X205336630Y-68269245D02*
X205121131Y-68053746D01*
X205902316Y-68350057D02*
X205956190Y-68350057D01*
X205956190Y-68350057D02*
X206037003Y-68376995D01*
X206037003Y-68376995D02*
X206171690Y-68511682D01*
X206171690Y-68511682D02*
X206198627Y-68592494D01*
X206198627Y-68592494D02*
X206198627Y-68646369D01*
X206198627Y-68646369D02*
X206171690Y-68727181D01*
X206171690Y-68727181D02*
X206117815Y-68781056D01*
X206117815Y-68781056D02*
X206010065Y-68834930D01*
X206010065Y-68834930D02*
X205363568Y-68834930D01*
X205363568Y-68834930D02*
X205713754Y-69185117D01*
X206468001Y-68807993D02*
X206845125Y-69185117D01*
X206845125Y-69185117D02*
X206037003Y-69508366D01*
X220613568Y-67503435D02*
X220586631Y-67422623D01*
X220586631Y-67422623D02*
X220505819Y-67341811D01*
X220505819Y-67341811D02*
X220398069Y-67287936D01*
X220398069Y-67287936D02*
X220290319Y-67287936D01*
X220290319Y-67287936D02*
X220209507Y-67314873D01*
X220209507Y-67314873D02*
X220074820Y-67395685D01*
X220074820Y-67395685D02*
X219994008Y-67476498D01*
X219994008Y-67476498D02*
X219913196Y-67611185D01*
X219913196Y-67611185D02*
X219886258Y-67691997D01*
X219886258Y-67691997D02*
X219886258Y-67799746D01*
X219886258Y-67799746D02*
X219940133Y-67907496D01*
X219940133Y-67907496D02*
X219994008Y-67961371D01*
X219994008Y-67961371D02*
X220101758Y-68015246D01*
X220101758Y-68015246D02*
X220155632Y-68015246D01*
X220155632Y-68015246D02*
X220344194Y-67826684D01*
X220344194Y-67826684D02*
X220236445Y-67718934D01*
X220344194Y-68311557D02*
X220909880Y-67745872D01*
X220909880Y-67745872D02*
X220667443Y-68634806D01*
X220667443Y-68634806D02*
X221233128Y-68069120D01*
X220936817Y-68904180D02*
X221502502Y-68338494D01*
X221502502Y-68338494D02*
X221637189Y-68473181D01*
X221637189Y-68473181D02*
X221691064Y-68580931D01*
X221691064Y-68580931D02*
X221691064Y-68688680D01*
X221691064Y-68688680D02*
X221664127Y-68769493D01*
X221664127Y-68769493D02*
X221583314Y-68904180D01*
X221583314Y-68904180D02*
X221502502Y-68984992D01*
X221502502Y-68984992D02*
X221367815Y-69065804D01*
X221367815Y-69065804D02*
X221287003Y-69092741D01*
X221287003Y-69092741D02*
X221179253Y-69092741D01*
X221179253Y-69092741D02*
X221071504Y-69038867D01*
X221071504Y-69038867D02*
X220936817Y-68904180D01*
X199768289Y-68255651D02*
X199849101Y-67797716D01*
X199445040Y-67932403D02*
X200010725Y-67366717D01*
X200010725Y-67366717D02*
X200226224Y-67582216D01*
X200226224Y-67582216D02*
X200253162Y-67663029D01*
X200253162Y-67663029D02*
X200253162Y-67716903D01*
X200253162Y-67716903D02*
X200226224Y-67797716D01*
X200226224Y-67797716D02*
X200145412Y-67878528D01*
X200145412Y-67878528D02*
X200064600Y-67905465D01*
X200064600Y-67905465D02*
X200010725Y-67905465D01*
X200010725Y-67905465D02*
X199929913Y-67878528D01*
X199929913Y-67878528D02*
X199714414Y-67663029D01*
X200576411Y-67932403D02*
X200118475Y-68390338D01*
X200118475Y-68390338D02*
X200091537Y-68471151D01*
X200091537Y-68471151D02*
X200091537Y-68525025D01*
X200091537Y-68525025D02*
X200118475Y-68605838D01*
X200118475Y-68605838D02*
X200226224Y-68713587D01*
X200226224Y-68713587D02*
X200307037Y-68740525D01*
X200307037Y-68740525D02*
X200360911Y-68740525D01*
X200360911Y-68740525D02*
X200441724Y-68713587D01*
X200441724Y-68713587D02*
X200899659Y-68255651D01*
X200603348Y-69090711D02*
X201169033Y-68525025D01*
X201169033Y-68525025D02*
X200926597Y-69413959D01*
X200926597Y-69413959D02*
X201492282Y-68848274D01*
X207913568Y-41903435D02*
X207886631Y-41822623D01*
X207886631Y-41822623D02*
X207805819Y-41741811D01*
X207805819Y-41741811D02*
X207698069Y-41687936D01*
X207698069Y-41687936D02*
X207590319Y-41687936D01*
X207590319Y-41687936D02*
X207509507Y-41714873D01*
X207509507Y-41714873D02*
X207374820Y-41795685D01*
X207374820Y-41795685D02*
X207294008Y-41876498D01*
X207294008Y-41876498D02*
X207213196Y-42011185D01*
X207213196Y-42011185D02*
X207186258Y-42091997D01*
X207186258Y-42091997D02*
X207186258Y-42199746D01*
X207186258Y-42199746D02*
X207240133Y-42307496D01*
X207240133Y-42307496D02*
X207294008Y-42361371D01*
X207294008Y-42361371D02*
X207401758Y-42415246D01*
X207401758Y-42415246D02*
X207455632Y-42415246D01*
X207455632Y-42415246D02*
X207644194Y-42226684D01*
X207644194Y-42226684D02*
X207536445Y-42118934D01*
X207644194Y-42711557D02*
X208209880Y-42145872D01*
X208209880Y-42145872D02*
X207967443Y-43034806D01*
X207967443Y-43034806D02*
X208533128Y-42469120D01*
X208236817Y-43304180D02*
X208802502Y-42738494D01*
X208802502Y-42738494D02*
X208937189Y-42873181D01*
X208937189Y-42873181D02*
X208991064Y-42980931D01*
X208991064Y-42980931D02*
X208991064Y-43088680D01*
X208991064Y-43088680D02*
X208964127Y-43169493D01*
X208964127Y-43169493D02*
X208883314Y-43304180D01*
X208883314Y-43304180D02*
X208802502Y-43384992D01*
X208802502Y-43384992D02*
X208667815Y-43465804D01*
X208667815Y-43465804D02*
X208587003Y-43492741D01*
X208587003Y-43492741D02*
X208479253Y-43492741D01*
X208479253Y-43492741D02*
X208371504Y-43438867D01*
X208371504Y-43438867D02*
X208236817Y-43304180D01*
X210465131Y-67514998D02*
X210438194Y-67434185D01*
X210438194Y-67434185D02*
X210357381Y-67353373D01*
X210357381Y-67353373D02*
X210249632Y-67299498D01*
X210249632Y-67299498D02*
X210141882Y-67299498D01*
X210141882Y-67299498D02*
X210061070Y-67326436D01*
X210061070Y-67326436D02*
X209926383Y-67407248D01*
X209926383Y-67407248D02*
X209845571Y-67488060D01*
X209845571Y-67488060D02*
X209764758Y-67622747D01*
X209764758Y-67622747D02*
X209737821Y-67703560D01*
X209737821Y-67703560D02*
X209737821Y-67811309D01*
X209737821Y-67811309D02*
X209791696Y-67919059D01*
X209791696Y-67919059D02*
X209845571Y-67972934D01*
X209845571Y-67972934D02*
X209953320Y-68026808D01*
X209953320Y-68026808D02*
X210007195Y-68026808D01*
X210007195Y-68026808D02*
X210195757Y-67838247D01*
X210195757Y-67838247D02*
X210088007Y-67730497D01*
X210195757Y-68323120D02*
X210761442Y-67757434D01*
X210761442Y-67757434D02*
X210976942Y-67972934D01*
X210976942Y-67972934D02*
X211003879Y-68053746D01*
X211003879Y-68053746D02*
X211003879Y-68107621D01*
X211003879Y-68107621D02*
X210976942Y-68188433D01*
X210976942Y-68188433D02*
X210896129Y-68269245D01*
X210896129Y-68269245D02*
X210815317Y-68296182D01*
X210815317Y-68296182D02*
X210761442Y-68296182D01*
X210761442Y-68296182D02*
X210680630Y-68269245D01*
X210680630Y-68269245D02*
X210465131Y-68053746D01*
X211246316Y-68350057D02*
X211300190Y-68350057D01*
X211300190Y-68350057D02*
X211381003Y-68376995D01*
X211381003Y-68376995D02*
X211515690Y-68511682D01*
X211515690Y-68511682D02*
X211542627Y-68592494D01*
X211542627Y-68592494D02*
X211542627Y-68646369D01*
X211542627Y-68646369D02*
X211515690Y-68727181D01*
X211515690Y-68727181D02*
X211461815Y-68781056D01*
X211461815Y-68781056D02*
X211354065Y-68834930D01*
X211354065Y-68834930D02*
X210707568Y-68834930D01*
X210707568Y-68834930D02*
X211057754Y-69185117D01*
X211704252Y-69185117D02*
X211677314Y-69104305D01*
X211677314Y-69104305D02*
X211677314Y-69050430D01*
X211677314Y-69050430D02*
X211704252Y-68969618D01*
X211704252Y-68969618D02*
X211731189Y-68942680D01*
X211731189Y-68942680D02*
X211812001Y-68915743D01*
X211812001Y-68915743D02*
X211865876Y-68915743D01*
X211865876Y-68915743D02*
X211946688Y-68942680D01*
X211946688Y-68942680D02*
X212054438Y-69050430D01*
X212054438Y-69050430D02*
X212081375Y-69131242D01*
X212081375Y-69131242D02*
X212081375Y-69185117D01*
X212081375Y-69185117D02*
X212054438Y-69265929D01*
X212054438Y-69265929D02*
X212027500Y-69292866D01*
X212027500Y-69292866D02*
X211946688Y-69319804D01*
X211946688Y-69319804D02*
X211892813Y-69319804D01*
X211892813Y-69319804D02*
X211812001Y-69292866D01*
X211812001Y-69292866D02*
X211704252Y-69185117D01*
X211704252Y-69185117D02*
X211623439Y-69158179D01*
X211623439Y-69158179D02*
X211569565Y-69158179D01*
X211569565Y-69158179D02*
X211488752Y-69185117D01*
X211488752Y-69185117D02*
X211381003Y-69292866D01*
X211381003Y-69292866D02*
X211354065Y-69373679D01*
X211354065Y-69373679D02*
X211354065Y-69427553D01*
X211354065Y-69427553D02*
X211381003Y-69508366D01*
X211381003Y-69508366D02*
X211488752Y-69616115D01*
X211488752Y-69616115D02*
X211569565Y-69643053D01*
X211569565Y-69643053D02*
X211623439Y-69643053D01*
X211623439Y-69643053D02*
X211704252Y-69616115D01*
X211704252Y-69616115D02*
X211812001Y-69508366D01*
X211812001Y-69508366D02*
X211838939Y-69427553D01*
X211838939Y-69427553D02*
X211838939Y-69373679D01*
X211838939Y-69373679D02*
X211812001Y-69292866D01*
X189891131Y-41260998D02*
X189864194Y-41180185D01*
X189864194Y-41180185D02*
X189783381Y-41099373D01*
X189783381Y-41099373D02*
X189675632Y-41045498D01*
X189675632Y-41045498D02*
X189567882Y-41045498D01*
X189567882Y-41045498D02*
X189487070Y-41072436D01*
X189487070Y-41072436D02*
X189352383Y-41153248D01*
X189352383Y-41153248D02*
X189271571Y-41234060D01*
X189271571Y-41234060D02*
X189190758Y-41368747D01*
X189190758Y-41368747D02*
X189163821Y-41449560D01*
X189163821Y-41449560D02*
X189163821Y-41557309D01*
X189163821Y-41557309D02*
X189217696Y-41665059D01*
X189217696Y-41665059D02*
X189271571Y-41718934D01*
X189271571Y-41718934D02*
X189379320Y-41772808D01*
X189379320Y-41772808D02*
X189433195Y-41772808D01*
X189433195Y-41772808D02*
X189621757Y-41584247D01*
X189621757Y-41584247D02*
X189514007Y-41476497D01*
X189621757Y-42069120D02*
X190187442Y-41503434D01*
X190187442Y-41503434D02*
X190402942Y-41718934D01*
X190402942Y-41718934D02*
X190429879Y-41799746D01*
X190429879Y-41799746D02*
X190429879Y-41853621D01*
X190429879Y-41853621D02*
X190402942Y-41934433D01*
X190402942Y-41934433D02*
X190322129Y-42015245D01*
X190322129Y-42015245D02*
X190241317Y-42042182D01*
X190241317Y-42042182D02*
X190187442Y-42042182D01*
X190187442Y-42042182D02*
X190106630Y-42015245D01*
X190106630Y-42015245D02*
X189891131Y-41799746D01*
X190483754Y-42931117D02*
X190160505Y-42607868D01*
X190322129Y-42769492D02*
X190887815Y-42203807D01*
X190887815Y-42203807D02*
X190753128Y-42230744D01*
X190753128Y-42230744D02*
X190645378Y-42230744D01*
X190645378Y-42230744D02*
X190564566Y-42203807D01*
X191022502Y-43469865D02*
X190699253Y-43146616D01*
X190860878Y-43308240D02*
X191426563Y-42742555D01*
X191426563Y-42742555D02*
X191291876Y-42769492D01*
X191291876Y-42769492D02*
X191184126Y-42769492D01*
X191184126Y-42769492D02*
X191103314Y-42742555D01*
X192421131Y-67514998D02*
X192394194Y-67434185D01*
X192394194Y-67434185D02*
X192313381Y-67353373D01*
X192313381Y-67353373D02*
X192205632Y-67299498D01*
X192205632Y-67299498D02*
X192097882Y-67299498D01*
X192097882Y-67299498D02*
X192017070Y-67326436D01*
X192017070Y-67326436D02*
X191882383Y-67407248D01*
X191882383Y-67407248D02*
X191801571Y-67488060D01*
X191801571Y-67488060D02*
X191720758Y-67622747D01*
X191720758Y-67622747D02*
X191693821Y-67703560D01*
X191693821Y-67703560D02*
X191693821Y-67811309D01*
X191693821Y-67811309D02*
X191747696Y-67919059D01*
X191747696Y-67919059D02*
X191801571Y-67972934D01*
X191801571Y-67972934D02*
X191909320Y-68026808D01*
X191909320Y-68026808D02*
X191963195Y-68026808D01*
X191963195Y-68026808D02*
X192151757Y-67838247D01*
X192151757Y-67838247D02*
X192044007Y-67730497D01*
X192151757Y-68323120D02*
X192717442Y-67757434D01*
X192717442Y-67757434D02*
X192932942Y-67972934D01*
X192932942Y-67972934D02*
X192959879Y-68053746D01*
X192959879Y-68053746D02*
X192959879Y-68107621D01*
X192959879Y-68107621D02*
X192932942Y-68188433D01*
X192932942Y-68188433D02*
X192852129Y-68269245D01*
X192852129Y-68269245D02*
X192771317Y-68296182D01*
X192771317Y-68296182D02*
X192717442Y-68296182D01*
X192717442Y-68296182D02*
X192636630Y-68269245D01*
X192636630Y-68269245D02*
X192421131Y-68053746D01*
X193202316Y-68350057D02*
X193256190Y-68350057D01*
X193256190Y-68350057D02*
X193337003Y-68376995D01*
X193337003Y-68376995D02*
X193471690Y-68511682D01*
X193471690Y-68511682D02*
X193498627Y-68592494D01*
X193498627Y-68592494D02*
X193498627Y-68646369D01*
X193498627Y-68646369D02*
X193471690Y-68727181D01*
X193471690Y-68727181D02*
X193417815Y-68781056D01*
X193417815Y-68781056D02*
X193310065Y-68834930D01*
X193310065Y-68834930D02*
X192663568Y-68834930D01*
X192663568Y-68834930D02*
X193013754Y-69185117D01*
X193552502Y-69723865D02*
X193229253Y-69400616D01*
X193390878Y-69562240D02*
X193956563Y-68996555D01*
X193956563Y-68996555D02*
X193821876Y-69023492D01*
X193821876Y-69023492D02*
X193714126Y-69023492D01*
X193714126Y-69023492D02*
X193633314Y-68996555D01*
X210480505Y-41930372D02*
X210453568Y-41849560D01*
X210453568Y-41849560D02*
X210372756Y-41768748D01*
X210372756Y-41768748D02*
X210265006Y-41714873D01*
X210265006Y-41714873D02*
X210157257Y-41714873D01*
X210157257Y-41714873D02*
X210076444Y-41741810D01*
X210076444Y-41741810D02*
X209941757Y-41822623D01*
X209941757Y-41822623D02*
X209860945Y-41903435D01*
X209860945Y-41903435D02*
X209780133Y-42038122D01*
X209780133Y-42038122D02*
X209753196Y-42118934D01*
X209753196Y-42118934D02*
X209753196Y-42226684D01*
X209753196Y-42226684D02*
X209807070Y-42334433D01*
X209807070Y-42334433D02*
X209860945Y-42388308D01*
X209860945Y-42388308D02*
X209968695Y-42442183D01*
X209968695Y-42442183D02*
X210022570Y-42442183D01*
X210022570Y-42442183D02*
X210211131Y-42253621D01*
X210211131Y-42253621D02*
X210103382Y-42145871D01*
X210211131Y-42738494D02*
X210776817Y-42172809D01*
X210776817Y-42172809D02*
X210992316Y-42388308D01*
X210992316Y-42388308D02*
X211019253Y-42469120D01*
X211019253Y-42469120D02*
X211019253Y-42522995D01*
X211019253Y-42522995D02*
X210992316Y-42603807D01*
X210992316Y-42603807D02*
X210911504Y-42684619D01*
X210911504Y-42684619D02*
X210830692Y-42711557D01*
X210830692Y-42711557D02*
X210776817Y-42711557D01*
X210776817Y-42711557D02*
X210696005Y-42684619D01*
X210696005Y-42684619D02*
X210480505Y-42469120D01*
X211611876Y-43007868D02*
X211342502Y-42738494D01*
X211342502Y-42738494D02*
X211046191Y-42980931D01*
X211046191Y-42980931D02*
X211100066Y-42980931D01*
X211100066Y-42980931D02*
X211180878Y-43007868D01*
X211180878Y-43007868D02*
X211315565Y-43142555D01*
X211315565Y-43142555D02*
X211342502Y-43223367D01*
X211342502Y-43223367D02*
X211342502Y-43277242D01*
X211342502Y-43277242D02*
X211315565Y-43358054D01*
X211315565Y-43358054D02*
X211180878Y-43492741D01*
X211180878Y-43492741D02*
X211100066Y-43519679D01*
X211100066Y-43519679D02*
X211046191Y-43519679D01*
X211046191Y-43519679D02*
X210965379Y-43492741D01*
X210965379Y-43492741D02*
X210830692Y-43358054D01*
X210830692Y-43358054D02*
X210803754Y-43277242D01*
X210803754Y-43277242D02*
X210803754Y-43223367D01*
X206970759Y-67568873D02*
X207240133Y-67838247D01*
X206755260Y-67676623D02*
X207509507Y-67299499D01*
X207509507Y-67299499D02*
X207132384Y-68053746D01*
X208156005Y-67999871D02*
X208129067Y-67919059D01*
X208129067Y-67919059D02*
X208048255Y-67838247D01*
X208048255Y-67838247D02*
X207940505Y-67784372D01*
X207940505Y-67784372D02*
X207832756Y-67784372D01*
X207832756Y-67784372D02*
X207751944Y-67811310D01*
X207751944Y-67811310D02*
X207617257Y-67892122D01*
X207617257Y-67892122D02*
X207536444Y-67972934D01*
X207536444Y-67972934D02*
X207455632Y-68107621D01*
X207455632Y-68107621D02*
X207428695Y-68188433D01*
X207428695Y-68188433D02*
X207428695Y-68296183D01*
X207428695Y-68296183D02*
X207482570Y-68403932D01*
X207482570Y-68403932D02*
X207536444Y-68457807D01*
X207536444Y-68457807D02*
X207644194Y-68511682D01*
X207644194Y-68511682D02*
X207698069Y-68511682D01*
X207698069Y-68511682D02*
X207886631Y-68323120D01*
X207886631Y-68323120D02*
X207778881Y-68215371D01*
X207886631Y-68807993D02*
X208452316Y-68242308D01*
X208452316Y-68242308D02*
X208209879Y-69131242D01*
X208209879Y-69131242D02*
X208775565Y-68565557D01*
X208479253Y-69400616D02*
X209044939Y-68834931D01*
X209044939Y-68834931D02*
X209179626Y-68969618D01*
X209179626Y-68969618D02*
X209233501Y-69077367D01*
X209233501Y-69077367D02*
X209233501Y-69185117D01*
X209233501Y-69185117D02*
X209206563Y-69265929D01*
X209206563Y-69265929D02*
X209125751Y-69400616D01*
X209125751Y-69400616D02*
X209044939Y-69481428D01*
X209044939Y-69481428D02*
X208910252Y-69562241D01*
X208910252Y-69562241D02*
X208829439Y-69589178D01*
X208829439Y-69589178D02*
X208721690Y-69589178D01*
X208721690Y-69589178D02*
X208613940Y-69535303D01*
X208613940Y-69535303D02*
X208479253Y-69400616D01*
X184811131Y-41406998D02*
X184784194Y-41326185D01*
X184784194Y-41326185D02*
X184703381Y-41245373D01*
X184703381Y-41245373D02*
X184595632Y-41191498D01*
X184595632Y-41191498D02*
X184487882Y-41191498D01*
X184487882Y-41191498D02*
X184407070Y-41218436D01*
X184407070Y-41218436D02*
X184272383Y-41299248D01*
X184272383Y-41299248D02*
X184191571Y-41380060D01*
X184191571Y-41380060D02*
X184110758Y-41514747D01*
X184110758Y-41514747D02*
X184083821Y-41595560D01*
X184083821Y-41595560D02*
X184083821Y-41703309D01*
X184083821Y-41703309D02*
X184137696Y-41811059D01*
X184137696Y-41811059D02*
X184191571Y-41864934D01*
X184191571Y-41864934D02*
X184299320Y-41918808D01*
X184299320Y-41918808D02*
X184353195Y-41918808D01*
X184353195Y-41918808D02*
X184541757Y-41730247D01*
X184541757Y-41730247D02*
X184434007Y-41622497D01*
X184541757Y-42215120D02*
X185107442Y-41649434D01*
X185107442Y-41649434D02*
X185322942Y-41864934D01*
X185322942Y-41864934D02*
X185349879Y-41945746D01*
X185349879Y-41945746D02*
X185349879Y-41999621D01*
X185349879Y-41999621D02*
X185322942Y-42080433D01*
X185322942Y-42080433D02*
X185242129Y-42161245D01*
X185242129Y-42161245D02*
X185161317Y-42188182D01*
X185161317Y-42188182D02*
X185107442Y-42188182D01*
X185107442Y-42188182D02*
X185026630Y-42161245D01*
X185026630Y-42161245D02*
X184811131Y-41945746D01*
X185403754Y-43077117D02*
X185080505Y-42753868D01*
X185242129Y-42915492D02*
X185807815Y-42349807D01*
X185807815Y-42349807D02*
X185673128Y-42376744D01*
X185673128Y-42376744D02*
X185565378Y-42376744D01*
X185565378Y-42376744D02*
X185484566Y-42349807D01*
X186158001Y-42699993D02*
X186508187Y-43050179D01*
X186508187Y-43050179D02*
X186104126Y-43077117D01*
X186104126Y-43077117D02*
X186184939Y-43157929D01*
X186184939Y-43157929D02*
X186211876Y-43238741D01*
X186211876Y-43238741D02*
X186211876Y-43292616D01*
X186211876Y-43292616D02*
X186184939Y-43373428D01*
X186184939Y-43373428D02*
X186050252Y-43508115D01*
X186050252Y-43508115D02*
X185969439Y-43535053D01*
X185969439Y-43535053D02*
X185915565Y-43535053D01*
X185915565Y-43535053D02*
X185834752Y-43508115D01*
X185834752Y-43508115D02*
X185673128Y-43346491D01*
X185673128Y-43346491D02*
X185646191Y-43265679D01*
X185646191Y-43265679D02*
X185646191Y-43211804D01*
X215560505Y-41930372D02*
X215533568Y-41849560D01*
X215533568Y-41849560D02*
X215452756Y-41768748D01*
X215452756Y-41768748D02*
X215345006Y-41714873D01*
X215345006Y-41714873D02*
X215237257Y-41714873D01*
X215237257Y-41714873D02*
X215156444Y-41741810D01*
X215156444Y-41741810D02*
X215021757Y-41822623D01*
X215021757Y-41822623D02*
X214940945Y-41903435D01*
X214940945Y-41903435D02*
X214860133Y-42038122D01*
X214860133Y-42038122D02*
X214833196Y-42118934D01*
X214833196Y-42118934D02*
X214833196Y-42226684D01*
X214833196Y-42226684D02*
X214887070Y-42334433D01*
X214887070Y-42334433D02*
X214940945Y-42388308D01*
X214940945Y-42388308D02*
X215048695Y-42442183D01*
X215048695Y-42442183D02*
X215102570Y-42442183D01*
X215102570Y-42442183D02*
X215291131Y-42253621D01*
X215291131Y-42253621D02*
X215183382Y-42145871D01*
X215291131Y-42738494D02*
X215856817Y-42172809D01*
X215856817Y-42172809D02*
X216072316Y-42388308D01*
X216072316Y-42388308D02*
X216099253Y-42469120D01*
X216099253Y-42469120D02*
X216099253Y-42522995D01*
X216099253Y-42522995D02*
X216072316Y-42603807D01*
X216072316Y-42603807D02*
X215991504Y-42684619D01*
X215991504Y-42684619D02*
X215910692Y-42711557D01*
X215910692Y-42711557D02*
X215856817Y-42711557D01*
X215856817Y-42711557D02*
X215776005Y-42684619D01*
X215776005Y-42684619D02*
X215560505Y-42469120D01*
X216368627Y-42684619D02*
X216718814Y-43034806D01*
X216718814Y-43034806D02*
X216314753Y-43061743D01*
X216314753Y-43061743D02*
X216395565Y-43142555D01*
X216395565Y-43142555D02*
X216422502Y-43223367D01*
X216422502Y-43223367D02*
X216422502Y-43277242D01*
X216422502Y-43277242D02*
X216395565Y-43358054D01*
X216395565Y-43358054D02*
X216260878Y-43492741D01*
X216260878Y-43492741D02*
X216180066Y-43519679D01*
X216180066Y-43519679D02*
X216126191Y-43519679D01*
X216126191Y-43519679D02*
X216045379Y-43492741D01*
X216045379Y-43492741D02*
X215883754Y-43331117D01*
X215883754Y-43331117D02*
X215856817Y-43250305D01*
X215856817Y-43250305D02*
X215856817Y-43196430D01*
X179731131Y-67514998D02*
X179704194Y-67434185D01*
X179704194Y-67434185D02*
X179623381Y-67353373D01*
X179623381Y-67353373D02*
X179515632Y-67299498D01*
X179515632Y-67299498D02*
X179407882Y-67299498D01*
X179407882Y-67299498D02*
X179327070Y-67326436D01*
X179327070Y-67326436D02*
X179192383Y-67407248D01*
X179192383Y-67407248D02*
X179111571Y-67488060D01*
X179111571Y-67488060D02*
X179030758Y-67622747D01*
X179030758Y-67622747D02*
X179003821Y-67703560D01*
X179003821Y-67703560D02*
X179003821Y-67811309D01*
X179003821Y-67811309D02*
X179057696Y-67919059D01*
X179057696Y-67919059D02*
X179111571Y-67972934D01*
X179111571Y-67972934D02*
X179219320Y-68026808D01*
X179219320Y-68026808D02*
X179273195Y-68026808D01*
X179273195Y-68026808D02*
X179461757Y-67838247D01*
X179461757Y-67838247D02*
X179354007Y-67730497D01*
X179461757Y-68323120D02*
X180027442Y-67757434D01*
X180027442Y-67757434D02*
X180242942Y-67972934D01*
X180242942Y-67972934D02*
X180269879Y-68053746D01*
X180269879Y-68053746D02*
X180269879Y-68107621D01*
X180269879Y-68107621D02*
X180242942Y-68188433D01*
X180242942Y-68188433D02*
X180162129Y-68269245D01*
X180162129Y-68269245D02*
X180081317Y-68296182D01*
X180081317Y-68296182D02*
X180027442Y-68296182D01*
X180027442Y-68296182D02*
X179946630Y-68269245D01*
X179946630Y-68269245D02*
X179731131Y-68053746D01*
X180323754Y-69185117D02*
X180000505Y-68861868D01*
X180162129Y-69023492D02*
X180727815Y-68457807D01*
X180727815Y-68457807D02*
X180593128Y-68484744D01*
X180593128Y-68484744D02*
X180485378Y-68484744D01*
X180485378Y-68484744D02*
X180404566Y-68457807D01*
X181078001Y-68807993D02*
X181455125Y-69185117D01*
X181455125Y-69185117D02*
X180647003Y-69508366D01*
X177191131Y-67514998D02*
X177164194Y-67434185D01*
X177164194Y-67434185D02*
X177083381Y-67353373D01*
X177083381Y-67353373D02*
X176975632Y-67299498D01*
X176975632Y-67299498D02*
X176867882Y-67299498D01*
X176867882Y-67299498D02*
X176787070Y-67326436D01*
X176787070Y-67326436D02*
X176652383Y-67407248D01*
X176652383Y-67407248D02*
X176571571Y-67488060D01*
X176571571Y-67488060D02*
X176490758Y-67622747D01*
X176490758Y-67622747D02*
X176463821Y-67703560D01*
X176463821Y-67703560D02*
X176463821Y-67811309D01*
X176463821Y-67811309D02*
X176517696Y-67919059D01*
X176517696Y-67919059D02*
X176571571Y-67972934D01*
X176571571Y-67972934D02*
X176679320Y-68026808D01*
X176679320Y-68026808D02*
X176733195Y-68026808D01*
X176733195Y-68026808D02*
X176921757Y-67838247D01*
X176921757Y-67838247D02*
X176814007Y-67730497D01*
X176921757Y-68323120D02*
X177487442Y-67757434D01*
X177487442Y-67757434D02*
X177702942Y-67972934D01*
X177702942Y-67972934D02*
X177729879Y-68053746D01*
X177729879Y-68053746D02*
X177729879Y-68107621D01*
X177729879Y-68107621D02*
X177702942Y-68188433D01*
X177702942Y-68188433D02*
X177622129Y-68269245D01*
X177622129Y-68269245D02*
X177541317Y-68296182D01*
X177541317Y-68296182D02*
X177487442Y-68296182D01*
X177487442Y-68296182D02*
X177406630Y-68269245D01*
X177406630Y-68269245D02*
X177191131Y-68053746D01*
X177783754Y-69185117D02*
X177460505Y-68861868D01*
X177622129Y-69023492D02*
X178187815Y-68457807D01*
X178187815Y-68457807D02*
X178053128Y-68484744D01*
X178053128Y-68484744D02*
X177945378Y-68484744D01*
X177945378Y-68484744D02*
X177864566Y-68457807D01*
X178834313Y-69104305D02*
X178726563Y-68996555D01*
X178726563Y-68996555D02*
X178645751Y-68969618D01*
X178645751Y-68969618D02*
X178591876Y-68969618D01*
X178591876Y-68969618D02*
X178457189Y-68996555D01*
X178457189Y-68996555D02*
X178322502Y-69077367D01*
X178322502Y-69077367D02*
X178107003Y-69292866D01*
X178107003Y-69292866D02*
X178080065Y-69373679D01*
X178080065Y-69373679D02*
X178080065Y-69427553D01*
X178080065Y-69427553D02*
X178107003Y-69508366D01*
X178107003Y-69508366D02*
X178214752Y-69616115D01*
X178214752Y-69616115D02*
X178295565Y-69643053D01*
X178295565Y-69643053D02*
X178349439Y-69643053D01*
X178349439Y-69643053D02*
X178430252Y-69616115D01*
X178430252Y-69616115D02*
X178564939Y-69481428D01*
X178564939Y-69481428D02*
X178591876Y-69400616D01*
X178591876Y-69400616D02*
X178591876Y-69346741D01*
X178591876Y-69346741D02*
X178564939Y-69265929D01*
X178564939Y-69265929D02*
X178457189Y-69158179D01*
X178457189Y-69158179D02*
X178376377Y-69131242D01*
X178376377Y-69131242D02*
X178322502Y-69131242D01*
X178322502Y-69131242D02*
X178241690Y-69158179D01*
X179731131Y-41360998D02*
X179704194Y-41280185D01*
X179704194Y-41280185D02*
X179623381Y-41199373D01*
X179623381Y-41199373D02*
X179515632Y-41145498D01*
X179515632Y-41145498D02*
X179407882Y-41145498D01*
X179407882Y-41145498D02*
X179327070Y-41172436D01*
X179327070Y-41172436D02*
X179192383Y-41253248D01*
X179192383Y-41253248D02*
X179111571Y-41334060D01*
X179111571Y-41334060D02*
X179030758Y-41468747D01*
X179030758Y-41468747D02*
X179003821Y-41549560D01*
X179003821Y-41549560D02*
X179003821Y-41657309D01*
X179003821Y-41657309D02*
X179057696Y-41765059D01*
X179057696Y-41765059D02*
X179111571Y-41818934D01*
X179111571Y-41818934D02*
X179219320Y-41872808D01*
X179219320Y-41872808D02*
X179273195Y-41872808D01*
X179273195Y-41872808D02*
X179461757Y-41684247D01*
X179461757Y-41684247D02*
X179354007Y-41576497D01*
X179461757Y-42169120D02*
X180027442Y-41603434D01*
X180027442Y-41603434D02*
X180242942Y-41818934D01*
X180242942Y-41818934D02*
X180269879Y-41899746D01*
X180269879Y-41899746D02*
X180269879Y-41953621D01*
X180269879Y-41953621D02*
X180242942Y-42034433D01*
X180242942Y-42034433D02*
X180162129Y-42115245D01*
X180162129Y-42115245D02*
X180081317Y-42142182D01*
X180081317Y-42142182D02*
X180027442Y-42142182D01*
X180027442Y-42142182D02*
X179946630Y-42115245D01*
X179946630Y-42115245D02*
X179731131Y-41899746D01*
X180323754Y-43031117D02*
X180000505Y-42707868D01*
X180162129Y-42869492D02*
X180727815Y-42303807D01*
X180727815Y-42303807D02*
X180593128Y-42330744D01*
X180593128Y-42330744D02*
X180485378Y-42330744D01*
X180485378Y-42330744D02*
X180404566Y-42303807D01*
X181185751Y-43138866D02*
X180808627Y-43515990D01*
X181266563Y-42788680D02*
X180727815Y-43058054D01*
X180727815Y-43058054D02*
X181078001Y-43408240D01*
X213020505Y-41930372D02*
X212993568Y-41849560D01*
X212993568Y-41849560D02*
X212912756Y-41768748D01*
X212912756Y-41768748D02*
X212805006Y-41714873D01*
X212805006Y-41714873D02*
X212697257Y-41714873D01*
X212697257Y-41714873D02*
X212616444Y-41741810D01*
X212616444Y-41741810D02*
X212481757Y-41822623D01*
X212481757Y-41822623D02*
X212400945Y-41903435D01*
X212400945Y-41903435D02*
X212320133Y-42038122D01*
X212320133Y-42038122D02*
X212293196Y-42118934D01*
X212293196Y-42118934D02*
X212293196Y-42226684D01*
X212293196Y-42226684D02*
X212347070Y-42334433D01*
X212347070Y-42334433D02*
X212400945Y-42388308D01*
X212400945Y-42388308D02*
X212508695Y-42442183D01*
X212508695Y-42442183D02*
X212562570Y-42442183D01*
X212562570Y-42442183D02*
X212751131Y-42253621D01*
X212751131Y-42253621D02*
X212643382Y-42145871D01*
X212751131Y-42738494D02*
X213316817Y-42172809D01*
X213316817Y-42172809D02*
X213532316Y-42388308D01*
X213532316Y-42388308D02*
X213559253Y-42469120D01*
X213559253Y-42469120D02*
X213559253Y-42522995D01*
X213559253Y-42522995D02*
X213532316Y-42603807D01*
X213532316Y-42603807D02*
X213451504Y-42684619D01*
X213451504Y-42684619D02*
X213370692Y-42711557D01*
X213370692Y-42711557D02*
X213316817Y-42711557D01*
X213316817Y-42711557D02*
X213236005Y-42684619D01*
X213236005Y-42684619D02*
X213020505Y-42469120D01*
X213936377Y-43169493D02*
X213559253Y-43546616D01*
X214017189Y-42819306D02*
X213478441Y-43088680D01*
X213478441Y-43088680D02*
X213828627Y-43438867D01*
X182513568Y-41903435D02*
X182486631Y-41822623D01*
X182486631Y-41822623D02*
X182405819Y-41741811D01*
X182405819Y-41741811D02*
X182298069Y-41687936D01*
X182298069Y-41687936D02*
X182190319Y-41687936D01*
X182190319Y-41687936D02*
X182109507Y-41714873D01*
X182109507Y-41714873D02*
X181974820Y-41795685D01*
X181974820Y-41795685D02*
X181894008Y-41876498D01*
X181894008Y-41876498D02*
X181813196Y-42011185D01*
X181813196Y-42011185D02*
X181786258Y-42091997D01*
X181786258Y-42091997D02*
X181786258Y-42199746D01*
X181786258Y-42199746D02*
X181840133Y-42307496D01*
X181840133Y-42307496D02*
X181894008Y-42361371D01*
X181894008Y-42361371D02*
X182001758Y-42415246D01*
X182001758Y-42415246D02*
X182055632Y-42415246D01*
X182055632Y-42415246D02*
X182244194Y-42226684D01*
X182244194Y-42226684D02*
X182136445Y-42118934D01*
X182244194Y-42711557D02*
X182809880Y-42145872D01*
X182809880Y-42145872D02*
X182567443Y-43034806D01*
X182567443Y-43034806D02*
X183133128Y-42469120D01*
X182836817Y-43304180D02*
X183402502Y-42738494D01*
X183402502Y-42738494D02*
X183537189Y-42873181D01*
X183537189Y-42873181D02*
X183591064Y-42980931D01*
X183591064Y-42980931D02*
X183591064Y-43088680D01*
X183591064Y-43088680D02*
X183564127Y-43169493D01*
X183564127Y-43169493D02*
X183483314Y-43304180D01*
X183483314Y-43304180D02*
X183402502Y-43384992D01*
X183402502Y-43384992D02*
X183267815Y-43465804D01*
X183267815Y-43465804D02*
X183187003Y-43492741D01*
X183187003Y-43492741D02*
X183079253Y-43492741D01*
X183079253Y-43492741D02*
X182971504Y-43438867D01*
X182971504Y-43438867D02*
X182836817Y-43304180D01*
X192431131Y-41406998D02*
X192404194Y-41326185D01*
X192404194Y-41326185D02*
X192323381Y-41245373D01*
X192323381Y-41245373D02*
X192215632Y-41191498D01*
X192215632Y-41191498D02*
X192107882Y-41191498D01*
X192107882Y-41191498D02*
X192027070Y-41218436D01*
X192027070Y-41218436D02*
X191892383Y-41299248D01*
X191892383Y-41299248D02*
X191811571Y-41380060D01*
X191811571Y-41380060D02*
X191730758Y-41514747D01*
X191730758Y-41514747D02*
X191703821Y-41595560D01*
X191703821Y-41595560D02*
X191703821Y-41703309D01*
X191703821Y-41703309D02*
X191757696Y-41811059D01*
X191757696Y-41811059D02*
X191811571Y-41864934D01*
X191811571Y-41864934D02*
X191919320Y-41918808D01*
X191919320Y-41918808D02*
X191973195Y-41918808D01*
X191973195Y-41918808D02*
X192161757Y-41730247D01*
X192161757Y-41730247D02*
X192054007Y-41622497D01*
X192161757Y-42215120D02*
X192727442Y-41649434D01*
X192727442Y-41649434D02*
X192942942Y-41864934D01*
X192942942Y-41864934D02*
X192969879Y-41945746D01*
X192969879Y-41945746D02*
X192969879Y-41999621D01*
X192969879Y-41999621D02*
X192942942Y-42080433D01*
X192942942Y-42080433D02*
X192862129Y-42161245D01*
X192862129Y-42161245D02*
X192781317Y-42188182D01*
X192781317Y-42188182D02*
X192727442Y-42188182D01*
X192727442Y-42188182D02*
X192646630Y-42161245D01*
X192646630Y-42161245D02*
X192431131Y-41945746D01*
X193023754Y-43077117D02*
X192700505Y-42753868D01*
X192862129Y-42915492D02*
X193427815Y-42349807D01*
X193427815Y-42349807D02*
X193293128Y-42376744D01*
X193293128Y-42376744D02*
X193185378Y-42376744D01*
X193185378Y-42376744D02*
X193104566Y-42349807D01*
X193939626Y-42861618D02*
X193993500Y-42915492D01*
X193993500Y-42915492D02*
X194020438Y-42996305D01*
X194020438Y-42996305D02*
X194020438Y-43050179D01*
X194020438Y-43050179D02*
X193993500Y-43130992D01*
X193993500Y-43130992D02*
X193912688Y-43265679D01*
X193912688Y-43265679D02*
X193778001Y-43400366D01*
X193778001Y-43400366D02*
X193643314Y-43481178D01*
X193643314Y-43481178D02*
X193562502Y-43508115D01*
X193562502Y-43508115D02*
X193508627Y-43508115D01*
X193508627Y-43508115D02*
X193427815Y-43481178D01*
X193427815Y-43481178D02*
X193373940Y-43427303D01*
X193373940Y-43427303D02*
X193347003Y-43346491D01*
X193347003Y-43346491D02*
X193347003Y-43292616D01*
X193347003Y-43292616D02*
X193373940Y-43211804D01*
X193373940Y-43211804D02*
X193454752Y-43077117D01*
X193454752Y-43077117D02*
X193589439Y-42942430D01*
X193589439Y-42942430D02*
X193724126Y-42861618D01*
X193724126Y-42861618D02*
X193804939Y-42834680D01*
X193804939Y-42834680D02*
X193858813Y-42834680D01*
X193858813Y-42834680D02*
X193939626Y-42861618D01*
X177191131Y-41406998D02*
X177164194Y-41326185D01*
X177164194Y-41326185D02*
X177083381Y-41245373D01*
X177083381Y-41245373D02*
X176975632Y-41191498D01*
X176975632Y-41191498D02*
X176867882Y-41191498D01*
X176867882Y-41191498D02*
X176787070Y-41218436D01*
X176787070Y-41218436D02*
X176652383Y-41299248D01*
X176652383Y-41299248D02*
X176571571Y-41380060D01*
X176571571Y-41380060D02*
X176490758Y-41514747D01*
X176490758Y-41514747D02*
X176463821Y-41595560D01*
X176463821Y-41595560D02*
X176463821Y-41703309D01*
X176463821Y-41703309D02*
X176517696Y-41811059D01*
X176517696Y-41811059D02*
X176571571Y-41864934D01*
X176571571Y-41864934D02*
X176679320Y-41918808D01*
X176679320Y-41918808D02*
X176733195Y-41918808D01*
X176733195Y-41918808D02*
X176921757Y-41730247D01*
X176921757Y-41730247D02*
X176814007Y-41622497D01*
X176921757Y-42215120D02*
X177487442Y-41649434D01*
X177487442Y-41649434D02*
X177702942Y-41864934D01*
X177702942Y-41864934D02*
X177729879Y-41945746D01*
X177729879Y-41945746D02*
X177729879Y-41999621D01*
X177729879Y-41999621D02*
X177702942Y-42080433D01*
X177702942Y-42080433D02*
X177622129Y-42161245D01*
X177622129Y-42161245D02*
X177541317Y-42188182D01*
X177541317Y-42188182D02*
X177487442Y-42188182D01*
X177487442Y-42188182D02*
X177406630Y-42161245D01*
X177406630Y-42161245D02*
X177191131Y-41945746D01*
X177783754Y-43077117D02*
X177460505Y-42753868D01*
X177622129Y-42915492D02*
X178187815Y-42349807D01*
X178187815Y-42349807D02*
X178053128Y-42376744D01*
X178053128Y-42376744D02*
X177945378Y-42376744D01*
X177945378Y-42376744D02*
X177864566Y-42349807D01*
X178861250Y-43023242D02*
X178591876Y-42753868D01*
X178591876Y-42753868D02*
X178295565Y-42996305D01*
X178295565Y-42996305D02*
X178349439Y-42996305D01*
X178349439Y-42996305D02*
X178430252Y-43023242D01*
X178430252Y-43023242D02*
X178564939Y-43157929D01*
X178564939Y-43157929D02*
X178591876Y-43238741D01*
X178591876Y-43238741D02*
X178591876Y-43292616D01*
X178591876Y-43292616D02*
X178564939Y-43373428D01*
X178564939Y-43373428D02*
X178430252Y-43508115D01*
X178430252Y-43508115D02*
X178349439Y-43535053D01*
X178349439Y-43535053D02*
X178295565Y-43535053D01*
X178295565Y-43535053D02*
X178214752Y-43508115D01*
X178214752Y-43508115D02*
X178080065Y-43373428D01*
X178080065Y-43373428D02*
X178053128Y-43292616D01*
X178053128Y-43292616D02*
X178053128Y-43238741D01*
X222641757Y-67337749D02*
X222264633Y-68091996D01*
X222264633Y-68091996D02*
X223018881Y-67714873D01*
X222641757Y-68415245D02*
X222695632Y-68522995D01*
X222695632Y-68522995D02*
X222830319Y-68657682D01*
X222830319Y-68657682D02*
X222911131Y-68684619D01*
X222911131Y-68684619D02*
X222965006Y-68684619D01*
X222965006Y-68684619D02*
X223045818Y-68657682D01*
X223045818Y-68657682D02*
X223099693Y-68603807D01*
X223099693Y-68603807D02*
X223126630Y-68522995D01*
X223126630Y-68522995D02*
X223126630Y-68469120D01*
X223126630Y-68469120D02*
X223099693Y-68388308D01*
X223099693Y-68388308D02*
X223018881Y-68253621D01*
X223018881Y-68253621D02*
X222991943Y-68172808D01*
X222991943Y-68172808D02*
X222991943Y-68118934D01*
X222991943Y-68118934D02*
X223018881Y-68038121D01*
X223018881Y-68038121D02*
X223072755Y-67984247D01*
X223072755Y-67984247D02*
X223153568Y-67957309D01*
X223153568Y-67957309D02*
X223207442Y-67957309D01*
X223207442Y-67957309D02*
X223288255Y-67984247D01*
X223288255Y-67984247D02*
X223422942Y-68118934D01*
X223422942Y-68118934D02*
X223476816Y-68226683D01*
X223557629Y-68846244D02*
X223288255Y-69115618D01*
X223665378Y-68361370D02*
X223557629Y-68846244D01*
X223557629Y-68846244D02*
X224042502Y-68738494D01*
X223665378Y-69438866D02*
X223719253Y-69546616D01*
X223719253Y-69546616D02*
X223853940Y-69681303D01*
X223853940Y-69681303D02*
X223934752Y-69708240D01*
X223934752Y-69708240D02*
X223988627Y-69708240D01*
X223988627Y-69708240D02*
X224069439Y-69681303D01*
X224069439Y-69681303D02*
X224123314Y-69627428D01*
X224123314Y-69627428D02*
X224150251Y-69546616D01*
X224150251Y-69546616D02*
X224150251Y-69492741D01*
X224150251Y-69492741D02*
X224123314Y-69411929D01*
X224123314Y-69411929D02*
X224042502Y-69277242D01*
X224042502Y-69277242D02*
X224015564Y-69196430D01*
X224015564Y-69196430D02*
X224015564Y-69142555D01*
X224015564Y-69142555D02*
X224042502Y-69061743D01*
X224042502Y-69061743D02*
X224096377Y-69007868D01*
X224096377Y-69007868D02*
X224177189Y-68980930D01*
X224177189Y-68980930D02*
X224231064Y-68980930D01*
X224231064Y-68980930D02*
X224311876Y-69007868D01*
X224311876Y-69007868D02*
X224446563Y-69142555D01*
X224446563Y-69142555D02*
X224500438Y-69250304D01*
X187351131Y-41260998D02*
X187324194Y-41180185D01*
X187324194Y-41180185D02*
X187243381Y-41099373D01*
X187243381Y-41099373D02*
X187135632Y-41045498D01*
X187135632Y-41045498D02*
X187027882Y-41045498D01*
X187027882Y-41045498D02*
X186947070Y-41072436D01*
X186947070Y-41072436D02*
X186812383Y-41153248D01*
X186812383Y-41153248D02*
X186731571Y-41234060D01*
X186731571Y-41234060D02*
X186650758Y-41368747D01*
X186650758Y-41368747D02*
X186623821Y-41449560D01*
X186623821Y-41449560D02*
X186623821Y-41557309D01*
X186623821Y-41557309D02*
X186677696Y-41665059D01*
X186677696Y-41665059D02*
X186731571Y-41718934D01*
X186731571Y-41718934D02*
X186839320Y-41772808D01*
X186839320Y-41772808D02*
X186893195Y-41772808D01*
X186893195Y-41772808D02*
X187081757Y-41584247D01*
X187081757Y-41584247D02*
X186974007Y-41476497D01*
X187081757Y-42069120D02*
X187647442Y-41503434D01*
X187647442Y-41503434D02*
X187862942Y-41718934D01*
X187862942Y-41718934D02*
X187889879Y-41799746D01*
X187889879Y-41799746D02*
X187889879Y-41853621D01*
X187889879Y-41853621D02*
X187862942Y-41934433D01*
X187862942Y-41934433D02*
X187782129Y-42015245D01*
X187782129Y-42015245D02*
X187701317Y-42042182D01*
X187701317Y-42042182D02*
X187647442Y-42042182D01*
X187647442Y-42042182D02*
X187566630Y-42015245D01*
X187566630Y-42015245D02*
X187351131Y-41799746D01*
X187943754Y-42931117D02*
X187620505Y-42607868D01*
X187782129Y-42769492D02*
X188347815Y-42203807D01*
X188347815Y-42203807D02*
X188213128Y-42230744D01*
X188213128Y-42230744D02*
X188105378Y-42230744D01*
X188105378Y-42230744D02*
X188024566Y-42203807D01*
X188671064Y-42634805D02*
X188724939Y-42634805D01*
X188724939Y-42634805D02*
X188805751Y-42661743D01*
X188805751Y-42661743D02*
X188940438Y-42796430D01*
X188940438Y-42796430D02*
X188967375Y-42877242D01*
X188967375Y-42877242D02*
X188967375Y-42931117D01*
X188967375Y-42931117D02*
X188940438Y-43011929D01*
X188940438Y-43011929D02*
X188886563Y-43065804D01*
X188886563Y-43065804D02*
X188778813Y-43119679D01*
X188778813Y-43119679D02*
X188132316Y-43119679D01*
X188132316Y-43119679D02*
X188482502Y-43469865D01*
X205400505Y-41930372D02*
X205373568Y-41849560D01*
X205373568Y-41849560D02*
X205292756Y-41768748D01*
X205292756Y-41768748D02*
X205185006Y-41714873D01*
X205185006Y-41714873D02*
X205077257Y-41714873D01*
X205077257Y-41714873D02*
X204996444Y-41741810D01*
X204996444Y-41741810D02*
X204861757Y-41822623D01*
X204861757Y-41822623D02*
X204780945Y-41903435D01*
X204780945Y-41903435D02*
X204700133Y-42038122D01*
X204700133Y-42038122D02*
X204673196Y-42118934D01*
X204673196Y-42118934D02*
X204673196Y-42226684D01*
X204673196Y-42226684D02*
X204727070Y-42334433D01*
X204727070Y-42334433D02*
X204780945Y-42388308D01*
X204780945Y-42388308D02*
X204888695Y-42442183D01*
X204888695Y-42442183D02*
X204942570Y-42442183D01*
X204942570Y-42442183D02*
X205131131Y-42253621D01*
X205131131Y-42253621D02*
X205023382Y-42145871D01*
X205131131Y-42738494D02*
X205696817Y-42172809D01*
X205696817Y-42172809D02*
X205912316Y-42388308D01*
X205912316Y-42388308D02*
X205939253Y-42469120D01*
X205939253Y-42469120D02*
X205939253Y-42522995D01*
X205939253Y-42522995D02*
X205912316Y-42603807D01*
X205912316Y-42603807D02*
X205831504Y-42684619D01*
X205831504Y-42684619D02*
X205750692Y-42711557D01*
X205750692Y-42711557D02*
X205696817Y-42711557D01*
X205696817Y-42711557D02*
X205616005Y-42684619D01*
X205616005Y-42684619D02*
X205400505Y-42469120D01*
X206504939Y-42980931D02*
X206397189Y-42873181D01*
X206397189Y-42873181D02*
X206316377Y-42846244D01*
X206316377Y-42846244D02*
X206262502Y-42846244D01*
X206262502Y-42846244D02*
X206127815Y-42873181D01*
X206127815Y-42873181D02*
X205993128Y-42953993D01*
X205993128Y-42953993D02*
X205777629Y-43169493D01*
X205777629Y-43169493D02*
X205750692Y-43250305D01*
X205750692Y-43250305D02*
X205750692Y-43304180D01*
X205750692Y-43304180D02*
X205777629Y-43384992D01*
X205777629Y-43384992D02*
X205885379Y-43492741D01*
X205885379Y-43492741D02*
X205966191Y-43519679D01*
X205966191Y-43519679D02*
X206020066Y-43519679D01*
X206020066Y-43519679D02*
X206100878Y-43492741D01*
X206100878Y-43492741D02*
X206235565Y-43358054D01*
X206235565Y-43358054D02*
X206262502Y-43277242D01*
X206262502Y-43277242D02*
X206262502Y-43223367D01*
X206262502Y-43223367D02*
X206235565Y-43142555D01*
X206235565Y-43142555D02*
X206127815Y-43034806D01*
X206127815Y-43034806D02*
X206047003Y-43007868D01*
X206047003Y-43007868D02*
X205993128Y-43007868D01*
X205993128Y-43007868D02*
X205912316Y-43034806D01*
X200320505Y-41930372D02*
X200293568Y-41849560D01*
X200293568Y-41849560D02*
X200212756Y-41768748D01*
X200212756Y-41768748D02*
X200105006Y-41714873D01*
X200105006Y-41714873D02*
X199997257Y-41714873D01*
X199997257Y-41714873D02*
X199916444Y-41741810D01*
X199916444Y-41741810D02*
X199781757Y-41822623D01*
X199781757Y-41822623D02*
X199700945Y-41903435D01*
X199700945Y-41903435D02*
X199620133Y-42038122D01*
X199620133Y-42038122D02*
X199593196Y-42118934D01*
X199593196Y-42118934D02*
X199593196Y-42226684D01*
X199593196Y-42226684D02*
X199647070Y-42334433D01*
X199647070Y-42334433D02*
X199700945Y-42388308D01*
X199700945Y-42388308D02*
X199808695Y-42442183D01*
X199808695Y-42442183D02*
X199862570Y-42442183D01*
X199862570Y-42442183D02*
X200051131Y-42253621D01*
X200051131Y-42253621D02*
X199943382Y-42145871D01*
X200051131Y-42738494D02*
X200616817Y-42172809D01*
X200616817Y-42172809D02*
X200832316Y-42388308D01*
X200832316Y-42388308D02*
X200859253Y-42469120D01*
X200859253Y-42469120D02*
X200859253Y-42522995D01*
X200859253Y-42522995D02*
X200832316Y-42603807D01*
X200832316Y-42603807D02*
X200751504Y-42684619D01*
X200751504Y-42684619D02*
X200670692Y-42711557D01*
X200670692Y-42711557D02*
X200616817Y-42711557D01*
X200616817Y-42711557D02*
X200536005Y-42684619D01*
X200536005Y-42684619D02*
X200320505Y-42469120D01*
X201020878Y-43061743D02*
X200993940Y-42980931D01*
X200993940Y-42980931D02*
X200993940Y-42927056D01*
X200993940Y-42927056D02*
X201020878Y-42846244D01*
X201020878Y-42846244D02*
X201047815Y-42819306D01*
X201047815Y-42819306D02*
X201128627Y-42792369D01*
X201128627Y-42792369D02*
X201182502Y-42792369D01*
X201182502Y-42792369D02*
X201263314Y-42819306D01*
X201263314Y-42819306D02*
X201371064Y-42927056D01*
X201371064Y-42927056D02*
X201398001Y-43007868D01*
X201398001Y-43007868D02*
X201398001Y-43061743D01*
X201398001Y-43061743D02*
X201371064Y-43142555D01*
X201371064Y-43142555D02*
X201344127Y-43169493D01*
X201344127Y-43169493D02*
X201263314Y-43196430D01*
X201263314Y-43196430D02*
X201209440Y-43196430D01*
X201209440Y-43196430D02*
X201128627Y-43169493D01*
X201128627Y-43169493D02*
X201020878Y-43061743D01*
X201020878Y-43061743D02*
X200940066Y-43034806D01*
X200940066Y-43034806D02*
X200886191Y-43034806D01*
X200886191Y-43034806D02*
X200805379Y-43061743D01*
X200805379Y-43061743D02*
X200697629Y-43169493D01*
X200697629Y-43169493D02*
X200670692Y-43250305D01*
X200670692Y-43250305D02*
X200670692Y-43304180D01*
X200670692Y-43304180D02*
X200697629Y-43384992D01*
X200697629Y-43384992D02*
X200805379Y-43492741D01*
X200805379Y-43492741D02*
X200886191Y-43519679D01*
X200886191Y-43519679D02*
X200940066Y-43519679D01*
X200940066Y-43519679D02*
X201020878Y-43492741D01*
X201020878Y-43492741D02*
X201128627Y-43384992D01*
X201128627Y-43384992D02*
X201155565Y-43304180D01*
X201155565Y-43304180D02*
X201155565Y-43250305D01*
X201155565Y-43250305D02*
X201128627Y-43169493D01*
X195213568Y-41903435D02*
X195186631Y-41822623D01*
X195186631Y-41822623D02*
X195105819Y-41741811D01*
X195105819Y-41741811D02*
X194998069Y-41687936D01*
X194998069Y-41687936D02*
X194890319Y-41687936D01*
X194890319Y-41687936D02*
X194809507Y-41714873D01*
X194809507Y-41714873D02*
X194674820Y-41795685D01*
X194674820Y-41795685D02*
X194594008Y-41876498D01*
X194594008Y-41876498D02*
X194513196Y-42011185D01*
X194513196Y-42011185D02*
X194486258Y-42091997D01*
X194486258Y-42091997D02*
X194486258Y-42199746D01*
X194486258Y-42199746D02*
X194540133Y-42307496D01*
X194540133Y-42307496D02*
X194594008Y-42361371D01*
X194594008Y-42361371D02*
X194701758Y-42415246D01*
X194701758Y-42415246D02*
X194755632Y-42415246D01*
X194755632Y-42415246D02*
X194944194Y-42226684D01*
X194944194Y-42226684D02*
X194836445Y-42118934D01*
X194944194Y-42711557D02*
X195509880Y-42145872D01*
X195509880Y-42145872D02*
X195267443Y-43034806D01*
X195267443Y-43034806D02*
X195833128Y-42469120D01*
X195536817Y-43304180D02*
X196102502Y-42738494D01*
X196102502Y-42738494D02*
X196237189Y-42873181D01*
X196237189Y-42873181D02*
X196291064Y-42980931D01*
X196291064Y-42980931D02*
X196291064Y-43088680D01*
X196291064Y-43088680D02*
X196264127Y-43169493D01*
X196264127Y-43169493D02*
X196183314Y-43304180D01*
X196183314Y-43304180D02*
X196102502Y-43384992D01*
X196102502Y-43384992D02*
X195967815Y-43465804D01*
X195967815Y-43465804D02*
X195887003Y-43492741D01*
X195887003Y-43492741D02*
X195779253Y-43492741D01*
X195779253Y-43492741D02*
X195671504Y-43438867D01*
X195671504Y-43438867D02*
X195536817Y-43304180D01*
X175836200Y-62712238D02*
X175874295Y-62597952D01*
X175874295Y-62597952D02*
X175874295Y-62407476D01*
X175874295Y-62407476D02*
X175836200Y-62331285D01*
X175836200Y-62331285D02*
X175798104Y-62293190D01*
X175798104Y-62293190D02*
X175721914Y-62255095D01*
X175721914Y-62255095D02*
X175645723Y-62255095D01*
X175645723Y-62255095D02*
X175569533Y-62293190D01*
X175569533Y-62293190D02*
X175531438Y-62331285D01*
X175531438Y-62331285D02*
X175493342Y-62407476D01*
X175493342Y-62407476D02*
X175455247Y-62559857D01*
X175455247Y-62559857D02*
X175417152Y-62636047D01*
X175417152Y-62636047D02*
X175379057Y-62674142D01*
X175379057Y-62674142D02*
X175302866Y-62712238D01*
X175302866Y-62712238D02*
X175226676Y-62712238D01*
X175226676Y-62712238D02*
X175150485Y-62674142D01*
X175150485Y-62674142D02*
X175112390Y-62636047D01*
X175112390Y-62636047D02*
X175074295Y-62559857D01*
X175074295Y-62559857D02*
X175074295Y-62369380D01*
X175074295Y-62369380D02*
X175112390Y-62255095D01*
X175074295Y-61988428D02*
X175874295Y-61797952D01*
X175874295Y-61797952D02*
X175302866Y-61645571D01*
X175302866Y-61645571D02*
X175874295Y-61493190D01*
X175874295Y-61493190D02*
X175074295Y-61302714D01*
X175874295Y-60997951D02*
X175074295Y-60997951D01*
X175074295Y-60997951D02*
X175074295Y-60807475D01*
X175074295Y-60807475D02*
X175112390Y-60693189D01*
X175112390Y-60693189D02*
X175188580Y-60616999D01*
X175188580Y-60616999D02*
X175264771Y-60578904D01*
X175264771Y-60578904D02*
X175417152Y-60540808D01*
X175417152Y-60540808D02*
X175531438Y-60540808D01*
X175531438Y-60540808D02*
X175683819Y-60578904D01*
X175683819Y-60578904D02*
X175760009Y-60616999D01*
X175760009Y-60616999D02*
X175836200Y-60693189D01*
X175836200Y-60693189D02*
X175874295Y-60807475D01*
X175874295Y-60807475D02*
X175874295Y-60997951D01*
X175874295Y-60197951D02*
X175074295Y-60197951D01*
X175074295Y-59664618D02*
X175074295Y-59512237D01*
X175074295Y-59512237D02*
X175112390Y-59436047D01*
X175112390Y-59436047D02*
X175188580Y-59359856D01*
X175188580Y-59359856D02*
X175340961Y-59321761D01*
X175340961Y-59321761D02*
X175607628Y-59321761D01*
X175607628Y-59321761D02*
X175760009Y-59359856D01*
X175760009Y-59359856D02*
X175836200Y-59436047D01*
X175836200Y-59436047D02*
X175874295Y-59512237D01*
X175874295Y-59512237D02*
X175874295Y-59664618D01*
X175874295Y-59664618D02*
X175836200Y-59740809D01*
X175836200Y-59740809D02*
X175760009Y-59816999D01*
X175760009Y-59816999D02*
X175607628Y-59855095D01*
X175607628Y-59855095D02*
X175340961Y-59855095D01*
X175340961Y-59855095D02*
X175188580Y-59816999D01*
X175188580Y-59816999D02*
X175112390Y-59740809D01*
X175112390Y-59740809D02*
X175074295Y-59664618D01*
X184811131Y-67514998D02*
X184784194Y-67434185D01*
X184784194Y-67434185D02*
X184703381Y-67353373D01*
X184703381Y-67353373D02*
X184595632Y-67299498D01*
X184595632Y-67299498D02*
X184487882Y-67299498D01*
X184487882Y-67299498D02*
X184407070Y-67326436D01*
X184407070Y-67326436D02*
X184272383Y-67407248D01*
X184272383Y-67407248D02*
X184191571Y-67488060D01*
X184191571Y-67488060D02*
X184110758Y-67622747D01*
X184110758Y-67622747D02*
X184083821Y-67703560D01*
X184083821Y-67703560D02*
X184083821Y-67811309D01*
X184083821Y-67811309D02*
X184137696Y-67919059D01*
X184137696Y-67919059D02*
X184191571Y-67972934D01*
X184191571Y-67972934D02*
X184299320Y-68026808D01*
X184299320Y-68026808D02*
X184353195Y-68026808D01*
X184353195Y-68026808D02*
X184541757Y-67838247D01*
X184541757Y-67838247D02*
X184434007Y-67730497D01*
X184541757Y-68323120D02*
X185107442Y-67757434D01*
X185107442Y-67757434D02*
X185322942Y-67972934D01*
X185322942Y-67972934D02*
X185349879Y-68053746D01*
X185349879Y-68053746D02*
X185349879Y-68107621D01*
X185349879Y-68107621D02*
X185322942Y-68188433D01*
X185322942Y-68188433D02*
X185242129Y-68269245D01*
X185242129Y-68269245D02*
X185161317Y-68296182D01*
X185161317Y-68296182D02*
X185107442Y-68296182D01*
X185107442Y-68296182D02*
X185026630Y-68269245D01*
X185026630Y-68269245D02*
X184811131Y-68053746D01*
X185403754Y-69185117D02*
X185080505Y-68861868D01*
X185242129Y-69023492D02*
X185807815Y-68457807D01*
X185807815Y-68457807D02*
X185673128Y-68484744D01*
X185673128Y-68484744D02*
X185565378Y-68484744D01*
X185565378Y-68484744D02*
X185484566Y-68457807D01*
X186050252Y-69185117D02*
X186023314Y-69104305D01*
X186023314Y-69104305D02*
X186023314Y-69050430D01*
X186023314Y-69050430D02*
X186050252Y-68969618D01*
X186050252Y-68969618D02*
X186077189Y-68942680D01*
X186077189Y-68942680D02*
X186158001Y-68915743D01*
X186158001Y-68915743D02*
X186211876Y-68915743D01*
X186211876Y-68915743D02*
X186292688Y-68942680D01*
X186292688Y-68942680D02*
X186400438Y-69050430D01*
X186400438Y-69050430D02*
X186427375Y-69131242D01*
X186427375Y-69131242D02*
X186427375Y-69185117D01*
X186427375Y-69185117D02*
X186400438Y-69265929D01*
X186400438Y-69265929D02*
X186373500Y-69292866D01*
X186373500Y-69292866D02*
X186292688Y-69319804D01*
X186292688Y-69319804D02*
X186238813Y-69319804D01*
X186238813Y-69319804D02*
X186158001Y-69292866D01*
X186158001Y-69292866D02*
X186050252Y-69185117D01*
X186050252Y-69185117D02*
X185969439Y-69158179D01*
X185969439Y-69158179D02*
X185915565Y-69158179D01*
X185915565Y-69158179D02*
X185834752Y-69185117D01*
X185834752Y-69185117D02*
X185727003Y-69292866D01*
X185727003Y-69292866D02*
X185700065Y-69373679D01*
X185700065Y-69373679D02*
X185700065Y-69427553D01*
X185700065Y-69427553D02*
X185727003Y-69508366D01*
X185727003Y-69508366D02*
X185834752Y-69616115D01*
X185834752Y-69616115D02*
X185915565Y-69643053D01*
X185915565Y-69643053D02*
X185969439Y-69643053D01*
X185969439Y-69643053D02*
X186050252Y-69616115D01*
X186050252Y-69616115D02*
X186158001Y-69508366D01*
X186158001Y-69508366D02*
X186184939Y-69427553D01*
X186184939Y-69427553D02*
X186184939Y-69373679D01*
X186184939Y-69373679D02*
X186158001Y-69292866D01*
X212177950Y-67572064D02*
X212447324Y-67841438D01*
X211962450Y-67679813D02*
X212716698Y-67302690D01*
X212716698Y-67302690D02*
X212339574Y-68056937D01*
X212528136Y-68245499D02*
X213093821Y-67679813D01*
X213093821Y-67679813D02*
X213228508Y-67814500D01*
X213228508Y-67814500D02*
X213282383Y-67922250D01*
X213282383Y-67922250D02*
X213282383Y-68029999D01*
X213282383Y-68029999D02*
X213255446Y-68110812D01*
X213255446Y-68110812D02*
X213174633Y-68245499D01*
X213174633Y-68245499D02*
X213093821Y-68326311D01*
X213093821Y-68326311D02*
X212959134Y-68407123D01*
X212959134Y-68407123D02*
X212878322Y-68434060D01*
X212878322Y-68434060D02*
X212770572Y-68434060D01*
X212770572Y-68434060D02*
X212662823Y-68380186D01*
X212662823Y-68380186D02*
X212528136Y-68245499D01*
X213470945Y-69080558D02*
X213417070Y-69080558D01*
X213417070Y-69080558D02*
X213309320Y-69026683D01*
X213309320Y-69026683D02*
X213255446Y-68972808D01*
X213255446Y-68972808D02*
X213201571Y-68865059D01*
X213201571Y-68865059D02*
X213201571Y-68757309D01*
X213201571Y-68757309D02*
X213228508Y-68676497D01*
X213228508Y-68676497D02*
X213309320Y-68541810D01*
X213309320Y-68541810D02*
X213390133Y-68460998D01*
X213390133Y-68460998D02*
X213524820Y-68380186D01*
X213524820Y-68380186D02*
X213605632Y-68353248D01*
X213605632Y-68353248D02*
X213713381Y-68353248D01*
X213713381Y-68353248D02*
X213821131Y-68407123D01*
X213821131Y-68407123D02*
X213875006Y-68460998D01*
X213875006Y-68460998D02*
X213928881Y-68568747D01*
X213928881Y-68568747D02*
X213928881Y-68622622D01*
X213470945Y-69296057D02*
X213901943Y-69727056D01*
X214575378Y-69161370D02*
X214198255Y-69915618D01*
X214198255Y-69915618D02*
X214952502Y-69538494D01*
X214898627Y-70615990D02*
X214979439Y-70158054D01*
X214575378Y-70292741D02*
X215141064Y-69727056D01*
X215141064Y-69727056D02*
X215356563Y-69942555D01*
X215356563Y-69942555D02*
X215383500Y-70023367D01*
X215383500Y-70023367D02*
X215383500Y-70077242D01*
X215383500Y-70077242D02*
X215356563Y-70158054D01*
X215356563Y-70158054D02*
X215275751Y-70238866D01*
X215275751Y-70238866D02*
X215194938Y-70265804D01*
X215194938Y-70265804D02*
X215141064Y-70265804D01*
X215141064Y-70265804D02*
X215060251Y-70238866D01*
X215060251Y-70238866D02*
X214844752Y-70023367D01*
X215437375Y-70562115D02*
X215625937Y-70750677D01*
X215410438Y-71127800D02*
X215141064Y-70858426D01*
X215141064Y-70858426D02*
X215706749Y-70292741D01*
X215706749Y-70292741D02*
X215976123Y-70562115D01*
X216137748Y-71262488D02*
X215949186Y-71073926D01*
X215652874Y-71370237D02*
X216218560Y-70804552D01*
X216218560Y-70804552D02*
X216487934Y-71073926D01*
X202591131Y-67514998D02*
X202564194Y-67434185D01*
X202564194Y-67434185D02*
X202483381Y-67353373D01*
X202483381Y-67353373D02*
X202375632Y-67299498D01*
X202375632Y-67299498D02*
X202267882Y-67299498D01*
X202267882Y-67299498D02*
X202187070Y-67326436D01*
X202187070Y-67326436D02*
X202052383Y-67407248D01*
X202052383Y-67407248D02*
X201971571Y-67488060D01*
X201971571Y-67488060D02*
X201890758Y-67622747D01*
X201890758Y-67622747D02*
X201863821Y-67703560D01*
X201863821Y-67703560D02*
X201863821Y-67811309D01*
X201863821Y-67811309D02*
X201917696Y-67919059D01*
X201917696Y-67919059D02*
X201971571Y-67972934D01*
X201971571Y-67972934D02*
X202079320Y-68026808D01*
X202079320Y-68026808D02*
X202133195Y-68026808D01*
X202133195Y-68026808D02*
X202321757Y-67838247D01*
X202321757Y-67838247D02*
X202214007Y-67730497D01*
X202321757Y-68323120D02*
X202887442Y-67757434D01*
X202887442Y-67757434D02*
X203102942Y-67972934D01*
X203102942Y-67972934D02*
X203129879Y-68053746D01*
X203129879Y-68053746D02*
X203129879Y-68107621D01*
X203129879Y-68107621D02*
X203102942Y-68188433D01*
X203102942Y-68188433D02*
X203022129Y-68269245D01*
X203022129Y-68269245D02*
X202941317Y-68296182D01*
X202941317Y-68296182D02*
X202887442Y-68296182D01*
X202887442Y-68296182D02*
X202806630Y-68269245D01*
X202806630Y-68269245D02*
X202591131Y-68053746D01*
X203372316Y-68350057D02*
X203426190Y-68350057D01*
X203426190Y-68350057D02*
X203507003Y-68376995D01*
X203507003Y-68376995D02*
X203641690Y-68511682D01*
X203641690Y-68511682D02*
X203668627Y-68592494D01*
X203668627Y-68592494D02*
X203668627Y-68646369D01*
X203668627Y-68646369D02*
X203641690Y-68727181D01*
X203641690Y-68727181D02*
X203587815Y-68781056D01*
X203587815Y-68781056D02*
X203480065Y-68834930D01*
X203480065Y-68834930D02*
X202833568Y-68834930D01*
X202833568Y-68834930D02*
X203183754Y-69185117D01*
X204234313Y-69104305D02*
X204126563Y-68996555D01*
X204126563Y-68996555D02*
X204045751Y-68969618D01*
X204045751Y-68969618D02*
X203991876Y-68969618D01*
X203991876Y-68969618D02*
X203857189Y-68996555D01*
X203857189Y-68996555D02*
X203722502Y-69077367D01*
X203722502Y-69077367D02*
X203507003Y-69292866D01*
X203507003Y-69292866D02*
X203480065Y-69373679D01*
X203480065Y-69373679D02*
X203480065Y-69427553D01*
X203480065Y-69427553D02*
X203507003Y-69508366D01*
X203507003Y-69508366D02*
X203614752Y-69616115D01*
X203614752Y-69616115D02*
X203695565Y-69643053D01*
X203695565Y-69643053D02*
X203749439Y-69643053D01*
X203749439Y-69643053D02*
X203830252Y-69616115D01*
X203830252Y-69616115D02*
X203964939Y-69481428D01*
X203964939Y-69481428D02*
X203991876Y-69400616D01*
X203991876Y-69400616D02*
X203991876Y-69346741D01*
X203991876Y-69346741D02*
X203964939Y-69265929D01*
X203964939Y-69265929D02*
X203857189Y-69158179D01*
X203857189Y-69158179D02*
X203776377Y-69131242D01*
X203776377Y-69131242D02*
X203722502Y-69131242D01*
X203722502Y-69131242D02*
X203641690Y-69158179D01*
X225184414Y-67370406D02*
X224807290Y-68124653D01*
X224807290Y-68124653D02*
X225561537Y-67747529D01*
X225669287Y-68394027D02*
X225723161Y-68501776D01*
X225723161Y-68501776D02*
X225723161Y-68555651D01*
X225723161Y-68555651D02*
X225696224Y-68636463D01*
X225696224Y-68636463D02*
X225615412Y-68717276D01*
X225615412Y-68717276D02*
X225534600Y-68744213D01*
X225534600Y-68744213D02*
X225480725Y-68744213D01*
X225480725Y-68744213D02*
X225399913Y-68717276D01*
X225399913Y-68717276D02*
X225184413Y-68501776D01*
X225184413Y-68501776D02*
X225750099Y-67936091D01*
X225750099Y-67936091D02*
X225938661Y-68124653D01*
X225938661Y-68124653D02*
X225965598Y-68205465D01*
X225965598Y-68205465D02*
X225965598Y-68259340D01*
X225965598Y-68259340D02*
X225938661Y-68340152D01*
X225938661Y-68340152D02*
X225884786Y-68394027D01*
X225884786Y-68394027D02*
X225803974Y-68420964D01*
X225803974Y-68420964D02*
X225750099Y-68420964D01*
X225750099Y-68420964D02*
X225669287Y-68394027D01*
X225669287Y-68394027D02*
X225480725Y-68205465D01*
X226315784Y-68501776D02*
X225857848Y-68959712D01*
X225857848Y-68959712D02*
X225830911Y-69040524D01*
X225830911Y-69040524D02*
X225830911Y-69094399D01*
X225830911Y-69094399D02*
X225857848Y-69175211D01*
X225857848Y-69175211D02*
X225965598Y-69282961D01*
X225965598Y-69282961D02*
X226046410Y-69309898D01*
X226046410Y-69309898D02*
X226100285Y-69309898D01*
X226100285Y-69309898D02*
X226181097Y-69282961D01*
X226181097Y-69282961D02*
X226639033Y-68825025D01*
X226342722Y-69606210D02*
X226396596Y-69713959D01*
X226396596Y-69713959D02*
X226531283Y-69848646D01*
X226531283Y-69848646D02*
X226612096Y-69875584D01*
X226612096Y-69875584D02*
X226665970Y-69875584D01*
X226665970Y-69875584D02*
X226746783Y-69848646D01*
X226746783Y-69848646D02*
X226800657Y-69794771D01*
X226800657Y-69794771D02*
X226827595Y-69713959D01*
X226827595Y-69713959D02*
X226827595Y-69660084D01*
X226827595Y-69660084D02*
X226800657Y-69579272D01*
X226800657Y-69579272D02*
X226719845Y-69444585D01*
X226719845Y-69444585D02*
X226692908Y-69363773D01*
X226692908Y-69363773D02*
X226692908Y-69309898D01*
X226692908Y-69309898D02*
X226719845Y-69229086D01*
X226719845Y-69229086D02*
X226773720Y-69175211D01*
X226773720Y-69175211D02*
X226854532Y-69148274D01*
X226854532Y-69148274D02*
X226908407Y-69148274D01*
X226908407Y-69148274D02*
X226989219Y-69175211D01*
X226989219Y-69175211D02*
X227123906Y-69309898D01*
X227123906Y-69309898D02*
X227177781Y-69417648D01*
X217753415Y-67339407D02*
X218103601Y-67689593D01*
X218103601Y-67689593D02*
X217699540Y-67716531D01*
X217699540Y-67716531D02*
X217780353Y-67797343D01*
X217780353Y-67797343D02*
X217807290Y-67878155D01*
X217807290Y-67878155D02*
X217807290Y-67932030D01*
X217807290Y-67932030D02*
X217780353Y-68012842D01*
X217780353Y-68012842D02*
X217645666Y-68147529D01*
X217645666Y-68147529D02*
X217564853Y-68174467D01*
X217564853Y-68174467D02*
X217510979Y-68174467D01*
X217510979Y-68174467D02*
X217430166Y-68147529D01*
X217430166Y-68147529D02*
X217268542Y-67985905D01*
X217268542Y-67985905D02*
X217241605Y-67905093D01*
X217241605Y-67905093D02*
X217241605Y-67851218D01*
X218265226Y-67851218D02*
X217888102Y-68605465D01*
X217888102Y-68605465D02*
X218642350Y-68228342D01*
X218777036Y-68363028D02*
X219127223Y-68713215D01*
X219127223Y-68713215D02*
X218723162Y-68740152D01*
X218723162Y-68740152D02*
X218803974Y-68820964D01*
X218803974Y-68820964D02*
X218830911Y-68901776D01*
X218830911Y-68901776D02*
X218830911Y-68955651D01*
X218830911Y-68955651D02*
X218803974Y-69036464D01*
X218803974Y-69036464D02*
X218669287Y-69171151D01*
X218669287Y-69171151D02*
X218588475Y-69198088D01*
X218588475Y-69198088D02*
X218534600Y-69198088D01*
X218534600Y-69198088D02*
X218453788Y-69171151D01*
X218453788Y-69171151D02*
X218292163Y-69009526D01*
X218292163Y-69009526D02*
X218265226Y-68928714D01*
X218265226Y-68928714D02*
X218265226Y-68874839D01*
X218615412Y-69440525D02*
X219046411Y-69871523D01*
X219531284Y-69656024D02*
X219719846Y-69844586D01*
X219504347Y-70221709D02*
X219234973Y-69952335D01*
X219234973Y-69952335D02*
X219800658Y-69386650D01*
X219800658Y-69386650D02*
X220070032Y-69656024D01*
X219746784Y-70464146D02*
X220312469Y-69898461D01*
X220312469Y-69898461D02*
X220070032Y-70787395D01*
X220070032Y-70787395D02*
X220635718Y-70221710D01*
X197511131Y-67514998D02*
X197484194Y-67434185D01*
X197484194Y-67434185D02*
X197403381Y-67353373D01*
X197403381Y-67353373D02*
X197295632Y-67299498D01*
X197295632Y-67299498D02*
X197187882Y-67299498D01*
X197187882Y-67299498D02*
X197107070Y-67326436D01*
X197107070Y-67326436D02*
X196972383Y-67407248D01*
X196972383Y-67407248D02*
X196891571Y-67488060D01*
X196891571Y-67488060D02*
X196810758Y-67622747D01*
X196810758Y-67622747D02*
X196783821Y-67703560D01*
X196783821Y-67703560D02*
X196783821Y-67811309D01*
X196783821Y-67811309D02*
X196837696Y-67919059D01*
X196837696Y-67919059D02*
X196891571Y-67972934D01*
X196891571Y-67972934D02*
X196999320Y-68026808D01*
X196999320Y-68026808D02*
X197053195Y-68026808D01*
X197053195Y-68026808D02*
X197241757Y-67838247D01*
X197241757Y-67838247D02*
X197134007Y-67730497D01*
X197241757Y-68323120D02*
X197807442Y-67757434D01*
X197807442Y-67757434D02*
X198022942Y-67972934D01*
X198022942Y-67972934D02*
X198049879Y-68053746D01*
X198049879Y-68053746D02*
X198049879Y-68107621D01*
X198049879Y-68107621D02*
X198022942Y-68188433D01*
X198022942Y-68188433D02*
X197942129Y-68269245D01*
X197942129Y-68269245D02*
X197861317Y-68296182D01*
X197861317Y-68296182D02*
X197807442Y-68296182D01*
X197807442Y-68296182D02*
X197726630Y-68269245D01*
X197726630Y-68269245D02*
X197511131Y-68053746D01*
X198292316Y-68350057D02*
X198346190Y-68350057D01*
X198346190Y-68350057D02*
X198427003Y-68376995D01*
X198427003Y-68376995D02*
X198561690Y-68511682D01*
X198561690Y-68511682D02*
X198588627Y-68592494D01*
X198588627Y-68592494D02*
X198588627Y-68646369D01*
X198588627Y-68646369D02*
X198561690Y-68727181D01*
X198561690Y-68727181D02*
X198507815Y-68781056D01*
X198507815Y-68781056D02*
X198400065Y-68834930D01*
X198400065Y-68834930D02*
X197753568Y-68834930D01*
X197753568Y-68834930D02*
X198103754Y-69185117D01*
X198831064Y-68888805D02*
X198884939Y-68888805D01*
X198884939Y-68888805D02*
X198965751Y-68915743D01*
X198965751Y-68915743D02*
X199100438Y-69050430D01*
X199100438Y-69050430D02*
X199127375Y-69131242D01*
X199127375Y-69131242D02*
X199127375Y-69185117D01*
X199127375Y-69185117D02*
X199100438Y-69265929D01*
X199100438Y-69265929D02*
X199046563Y-69319804D01*
X199046563Y-69319804D02*
X198938813Y-69373679D01*
X198938813Y-69373679D02*
X198292316Y-69373679D01*
X198292316Y-69373679D02*
X198642502Y-69723865D01*
X220613568Y-41903435D02*
X220586631Y-41822623D01*
X220586631Y-41822623D02*
X220505819Y-41741811D01*
X220505819Y-41741811D02*
X220398069Y-41687936D01*
X220398069Y-41687936D02*
X220290319Y-41687936D01*
X220290319Y-41687936D02*
X220209507Y-41714873D01*
X220209507Y-41714873D02*
X220074820Y-41795685D01*
X220074820Y-41795685D02*
X219994008Y-41876498D01*
X219994008Y-41876498D02*
X219913196Y-42011185D01*
X219913196Y-42011185D02*
X219886258Y-42091997D01*
X219886258Y-42091997D02*
X219886258Y-42199746D01*
X219886258Y-42199746D02*
X219940133Y-42307496D01*
X219940133Y-42307496D02*
X219994008Y-42361371D01*
X219994008Y-42361371D02*
X220101758Y-42415246D01*
X220101758Y-42415246D02*
X220155632Y-42415246D01*
X220155632Y-42415246D02*
X220344194Y-42226684D01*
X220344194Y-42226684D02*
X220236445Y-42118934D01*
X220344194Y-42711557D02*
X220909880Y-42145872D01*
X220909880Y-42145872D02*
X220667443Y-43034806D01*
X220667443Y-43034806D02*
X221233128Y-42469120D01*
X220936817Y-43304180D02*
X221502502Y-42738494D01*
X221502502Y-42738494D02*
X221637189Y-42873181D01*
X221637189Y-42873181D02*
X221691064Y-42980931D01*
X221691064Y-42980931D02*
X221691064Y-43088680D01*
X221691064Y-43088680D02*
X221664127Y-43169493D01*
X221664127Y-43169493D02*
X221583314Y-43304180D01*
X221583314Y-43304180D02*
X221502502Y-43384992D01*
X221502502Y-43384992D02*
X221367815Y-43465804D01*
X221367815Y-43465804D02*
X221287003Y-43492741D01*
X221287003Y-43492741D02*
X221179253Y-43492741D01*
X221179253Y-43492741D02*
X221071504Y-43438867D01*
X221071504Y-43438867D02*
X220936817Y-43304180D01*
X189891131Y-67514998D02*
X189864194Y-67434185D01*
X189864194Y-67434185D02*
X189783381Y-67353373D01*
X189783381Y-67353373D02*
X189675632Y-67299498D01*
X189675632Y-67299498D02*
X189567882Y-67299498D01*
X189567882Y-67299498D02*
X189487070Y-67326436D01*
X189487070Y-67326436D02*
X189352383Y-67407248D01*
X189352383Y-67407248D02*
X189271571Y-67488060D01*
X189271571Y-67488060D02*
X189190758Y-67622747D01*
X189190758Y-67622747D02*
X189163821Y-67703560D01*
X189163821Y-67703560D02*
X189163821Y-67811309D01*
X189163821Y-67811309D02*
X189217696Y-67919059D01*
X189217696Y-67919059D02*
X189271571Y-67972934D01*
X189271571Y-67972934D02*
X189379320Y-68026808D01*
X189379320Y-68026808D02*
X189433195Y-68026808D01*
X189433195Y-68026808D02*
X189621757Y-67838247D01*
X189621757Y-67838247D02*
X189514007Y-67730497D01*
X189621757Y-68323120D02*
X190187442Y-67757434D01*
X190187442Y-67757434D02*
X190402942Y-67972934D01*
X190402942Y-67972934D02*
X190429879Y-68053746D01*
X190429879Y-68053746D02*
X190429879Y-68107621D01*
X190429879Y-68107621D02*
X190402942Y-68188433D01*
X190402942Y-68188433D02*
X190322129Y-68269245D01*
X190322129Y-68269245D02*
X190241317Y-68296182D01*
X190241317Y-68296182D02*
X190187442Y-68296182D01*
X190187442Y-68296182D02*
X190106630Y-68269245D01*
X190106630Y-68269245D02*
X189891131Y-68053746D01*
X190672316Y-68350057D02*
X190726190Y-68350057D01*
X190726190Y-68350057D02*
X190807003Y-68376995D01*
X190807003Y-68376995D02*
X190941690Y-68511682D01*
X190941690Y-68511682D02*
X190968627Y-68592494D01*
X190968627Y-68592494D02*
X190968627Y-68646369D01*
X190968627Y-68646369D02*
X190941690Y-68727181D01*
X190941690Y-68727181D02*
X190887815Y-68781056D01*
X190887815Y-68781056D02*
X190780065Y-68834930D01*
X190780065Y-68834930D02*
X190133568Y-68834930D01*
X190133568Y-68834930D02*
X190483754Y-69185117D01*
X191399626Y-68969618D02*
X191453500Y-69023492D01*
X191453500Y-69023492D02*
X191480438Y-69104305D01*
X191480438Y-69104305D02*
X191480438Y-69158179D01*
X191480438Y-69158179D02*
X191453500Y-69238992D01*
X191453500Y-69238992D02*
X191372688Y-69373679D01*
X191372688Y-69373679D02*
X191238001Y-69508366D01*
X191238001Y-69508366D02*
X191103314Y-69589178D01*
X191103314Y-69589178D02*
X191022502Y-69616115D01*
X191022502Y-69616115D02*
X190968627Y-69616115D01*
X190968627Y-69616115D02*
X190887815Y-69589178D01*
X190887815Y-69589178D02*
X190833940Y-69535303D01*
X190833940Y-69535303D02*
X190807003Y-69454491D01*
X190807003Y-69454491D02*
X190807003Y-69400616D01*
X190807003Y-69400616D02*
X190833940Y-69319804D01*
X190833940Y-69319804D02*
X190914752Y-69185117D01*
X190914752Y-69185117D02*
X191049439Y-69050430D01*
X191049439Y-69050430D02*
X191184126Y-68969618D01*
X191184126Y-68969618D02*
X191264939Y-68942680D01*
X191264939Y-68942680D02*
X191318813Y-68942680D01*
X191318813Y-68942680D02*
X191399626Y-68969618D01*
X197780505Y-41930372D02*
X197753568Y-41849560D01*
X197753568Y-41849560D02*
X197672756Y-41768748D01*
X197672756Y-41768748D02*
X197565006Y-41714873D01*
X197565006Y-41714873D02*
X197457257Y-41714873D01*
X197457257Y-41714873D02*
X197376444Y-41741810D01*
X197376444Y-41741810D02*
X197241757Y-41822623D01*
X197241757Y-41822623D02*
X197160945Y-41903435D01*
X197160945Y-41903435D02*
X197080133Y-42038122D01*
X197080133Y-42038122D02*
X197053196Y-42118934D01*
X197053196Y-42118934D02*
X197053196Y-42226684D01*
X197053196Y-42226684D02*
X197107070Y-42334433D01*
X197107070Y-42334433D02*
X197160945Y-42388308D01*
X197160945Y-42388308D02*
X197268695Y-42442183D01*
X197268695Y-42442183D02*
X197322570Y-42442183D01*
X197322570Y-42442183D02*
X197511131Y-42253621D01*
X197511131Y-42253621D02*
X197403382Y-42145871D01*
X197511131Y-42738494D02*
X198076817Y-42172809D01*
X198076817Y-42172809D02*
X198292316Y-42388308D01*
X198292316Y-42388308D02*
X198319253Y-42469120D01*
X198319253Y-42469120D02*
X198319253Y-42522995D01*
X198319253Y-42522995D02*
X198292316Y-42603807D01*
X198292316Y-42603807D02*
X198211504Y-42684619D01*
X198211504Y-42684619D02*
X198130692Y-42711557D01*
X198130692Y-42711557D02*
X198076817Y-42711557D01*
X198076817Y-42711557D02*
X197996005Y-42684619D01*
X197996005Y-42684619D02*
X197780505Y-42469120D01*
X198103754Y-43331117D02*
X198211504Y-43438867D01*
X198211504Y-43438867D02*
X198292316Y-43465804D01*
X198292316Y-43465804D02*
X198346191Y-43465804D01*
X198346191Y-43465804D02*
X198480878Y-43438867D01*
X198480878Y-43438867D02*
X198615565Y-43358054D01*
X198615565Y-43358054D02*
X198831064Y-43142555D01*
X198831064Y-43142555D02*
X198858001Y-43061743D01*
X198858001Y-43061743D02*
X198858001Y-43007868D01*
X198858001Y-43007868D02*
X198831064Y-42927056D01*
X198831064Y-42927056D02*
X198723314Y-42819306D01*
X198723314Y-42819306D02*
X198642502Y-42792369D01*
X198642502Y-42792369D02*
X198588627Y-42792369D01*
X198588627Y-42792369D02*
X198507815Y-42819306D01*
X198507815Y-42819306D02*
X198373128Y-42953993D01*
X198373128Y-42953993D02*
X198346191Y-43034806D01*
X198346191Y-43034806D02*
X198346191Y-43088680D01*
X198346191Y-43088680D02*
X198373128Y-43169493D01*
X198373128Y-43169493D02*
X198480878Y-43277242D01*
X198480878Y-43277242D02*
X198561690Y-43304180D01*
X198561690Y-43304180D02*
X198615565Y-43304180D01*
X198615565Y-43304180D02*
X198696377Y-43277242D01*
X223190505Y-41830372D02*
X223163568Y-41749560D01*
X223163568Y-41749560D02*
X223082756Y-41668748D01*
X223082756Y-41668748D02*
X222975006Y-41614873D01*
X222975006Y-41614873D02*
X222867257Y-41614873D01*
X222867257Y-41614873D02*
X222786444Y-41641810D01*
X222786444Y-41641810D02*
X222651757Y-41722623D01*
X222651757Y-41722623D02*
X222570945Y-41803435D01*
X222570945Y-41803435D02*
X222490133Y-41938122D01*
X222490133Y-41938122D02*
X222463196Y-42018934D01*
X222463196Y-42018934D02*
X222463196Y-42126684D01*
X222463196Y-42126684D02*
X222517070Y-42234433D01*
X222517070Y-42234433D02*
X222570945Y-42288308D01*
X222570945Y-42288308D02*
X222678695Y-42342183D01*
X222678695Y-42342183D02*
X222732570Y-42342183D01*
X222732570Y-42342183D02*
X222921131Y-42153621D01*
X222921131Y-42153621D02*
X222813382Y-42045871D01*
X222921131Y-42638494D02*
X223486817Y-42072809D01*
X223486817Y-42072809D02*
X223702316Y-42288308D01*
X223702316Y-42288308D02*
X223729253Y-42369120D01*
X223729253Y-42369120D02*
X223729253Y-42422995D01*
X223729253Y-42422995D02*
X223702316Y-42503807D01*
X223702316Y-42503807D02*
X223621504Y-42584619D01*
X223621504Y-42584619D02*
X223540692Y-42611557D01*
X223540692Y-42611557D02*
X223486817Y-42611557D01*
X223486817Y-42611557D02*
X223406005Y-42584619D01*
X223406005Y-42584619D02*
X223190505Y-42369120D01*
X223783128Y-43500491D02*
X223459879Y-43177242D01*
X223621504Y-43338867D02*
X224187189Y-42773181D01*
X224187189Y-42773181D02*
X224052502Y-42800119D01*
X224052502Y-42800119D02*
X223944753Y-42800119D01*
X223944753Y-42800119D02*
X223863940Y-42773181D01*
X218100505Y-41830372D02*
X218073568Y-41749560D01*
X218073568Y-41749560D02*
X217992756Y-41668748D01*
X217992756Y-41668748D02*
X217885006Y-41614873D01*
X217885006Y-41614873D02*
X217777257Y-41614873D01*
X217777257Y-41614873D02*
X217696444Y-41641810D01*
X217696444Y-41641810D02*
X217561757Y-41722623D01*
X217561757Y-41722623D02*
X217480945Y-41803435D01*
X217480945Y-41803435D02*
X217400133Y-41938122D01*
X217400133Y-41938122D02*
X217373196Y-42018934D01*
X217373196Y-42018934D02*
X217373196Y-42126684D01*
X217373196Y-42126684D02*
X217427070Y-42234433D01*
X217427070Y-42234433D02*
X217480945Y-42288308D01*
X217480945Y-42288308D02*
X217588695Y-42342183D01*
X217588695Y-42342183D02*
X217642570Y-42342183D01*
X217642570Y-42342183D02*
X217831131Y-42153621D01*
X217831131Y-42153621D02*
X217723382Y-42045871D01*
X217831131Y-42638494D02*
X218396817Y-42072809D01*
X218396817Y-42072809D02*
X218612316Y-42288308D01*
X218612316Y-42288308D02*
X218639253Y-42369120D01*
X218639253Y-42369120D02*
X218639253Y-42422995D01*
X218639253Y-42422995D02*
X218612316Y-42503807D01*
X218612316Y-42503807D02*
X218531504Y-42584619D01*
X218531504Y-42584619D02*
X218450692Y-42611557D01*
X218450692Y-42611557D02*
X218396817Y-42611557D01*
X218396817Y-42611557D02*
X218316005Y-42584619D01*
X218316005Y-42584619D02*
X218100505Y-42369120D01*
X218881690Y-42665432D02*
X218935565Y-42665432D01*
X218935565Y-42665432D02*
X219016377Y-42692369D01*
X219016377Y-42692369D02*
X219151064Y-42827056D01*
X219151064Y-42827056D02*
X219178001Y-42907868D01*
X219178001Y-42907868D02*
X219178001Y-42961743D01*
X219178001Y-42961743D02*
X219151064Y-43042555D01*
X219151064Y-43042555D02*
X219097189Y-43096430D01*
X219097189Y-43096430D02*
X218989440Y-43150305D01*
X218989440Y-43150305D02*
X218342942Y-43150305D01*
X218342942Y-43150305D02*
X218693128Y-43500491D01*
X215221131Y-67307123D02*
X215571317Y-67657309D01*
X215571317Y-67657309D02*
X215167256Y-67684247D01*
X215167256Y-67684247D02*
X215248068Y-67765059D01*
X215248068Y-67765059D02*
X215275006Y-67845871D01*
X215275006Y-67845871D02*
X215275006Y-67899746D01*
X215275006Y-67899746D02*
X215248068Y-67980558D01*
X215248068Y-67980558D02*
X215113381Y-68115245D01*
X215113381Y-68115245D02*
X215032569Y-68142182D01*
X215032569Y-68142182D02*
X214978694Y-68142182D01*
X214978694Y-68142182D02*
X214897882Y-68115245D01*
X214897882Y-68115245D02*
X214736258Y-67953621D01*
X214736258Y-67953621D02*
X214709320Y-67872808D01*
X214709320Y-67872808D02*
X214709320Y-67818934D01*
X215732942Y-67818934D02*
X215355818Y-68573181D01*
X215355818Y-68573181D02*
X216110065Y-68196057D01*
X216244752Y-68330744D02*
X216594938Y-68680930D01*
X216594938Y-68680930D02*
X216190877Y-68707868D01*
X216190877Y-68707868D02*
X216271690Y-68788680D01*
X216271690Y-68788680D02*
X216298627Y-68869492D01*
X216298627Y-68869492D02*
X216298627Y-68923367D01*
X216298627Y-68923367D02*
X216271690Y-69004179D01*
X216271690Y-69004179D02*
X216137003Y-69138866D01*
X216137003Y-69138866D02*
X216056190Y-69165804D01*
X216056190Y-69165804D02*
X216002316Y-69165804D01*
X216002316Y-69165804D02*
X215921503Y-69138866D01*
X215921503Y-69138866D02*
X215759879Y-68977242D01*
X215759879Y-68977242D02*
X215732942Y-68896430D01*
X215732942Y-68896430D02*
X215732942Y-68842555D01*
D11*
X139968857Y-128969041D02*
X139968857Y-130202755D01*
X139968857Y-130202755D02*
X140041428Y-130347898D01*
X140041428Y-130347898D02*
X140114000Y-130420470D01*
X140114000Y-130420470D02*
X140259142Y-130493041D01*
X140259142Y-130493041D02*
X140549428Y-130493041D01*
X140549428Y-130493041D02*
X140694571Y-130420470D01*
X140694571Y-130420470D02*
X140767142Y-130347898D01*
X140767142Y-130347898D02*
X140839714Y-130202755D01*
X140839714Y-130202755D02*
X140839714Y-128969041D01*
X141492856Y-129114184D02*
X141565428Y-129041612D01*
X141565428Y-129041612D02*
X141710571Y-128969041D01*
X141710571Y-128969041D02*
X142073428Y-128969041D01*
X142073428Y-128969041D02*
X142218571Y-129041612D01*
X142218571Y-129041612D02*
X142291142Y-129114184D01*
X142291142Y-129114184D02*
X142363713Y-129259327D01*
X142363713Y-129259327D02*
X142363713Y-129404470D01*
X142363713Y-129404470D02*
X142291142Y-129622184D01*
X142291142Y-129622184D02*
X141420285Y-130493041D01*
X141420285Y-130493041D02*
X142363713Y-130493041D01*
D12*
X138009047Y-119887263D02*
X138250952Y-119887263D01*
X137960666Y-120032406D02*
X138130000Y-119524406D01*
X138130000Y-119524406D02*
X138299333Y-120032406D01*
X138287238Y-126984025D02*
X138263047Y-127008216D01*
X138263047Y-127008216D02*
X138190476Y-127032406D01*
X138190476Y-127032406D02*
X138142095Y-127032406D01*
X138142095Y-127032406D02*
X138069523Y-127008216D01*
X138069523Y-127008216D02*
X138021142Y-126959835D01*
X138021142Y-126959835D02*
X137996952Y-126911454D01*
X137996952Y-126911454D02*
X137972761Y-126814692D01*
X137972761Y-126814692D02*
X137972761Y-126742120D01*
X137972761Y-126742120D02*
X137996952Y-126645358D01*
X137996952Y-126645358D02*
X138021142Y-126596977D01*
X138021142Y-126596977D02*
X138069523Y-126548596D01*
X138069523Y-126548596D02*
X138142095Y-126524406D01*
X138142095Y-126524406D02*
X138190476Y-126524406D01*
X138190476Y-126524406D02*
X138263047Y-126548596D01*
X138263047Y-126548596D02*
X138287238Y-126572787D01*
X143549428Y-120008216D02*
X143622000Y-120032406D01*
X143622000Y-120032406D02*
X143742952Y-120032406D01*
X143742952Y-120032406D02*
X143791333Y-120008216D01*
X143791333Y-120008216D02*
X143815524Y-119984025D01*
X143815524Y-119984025D02*
X143839714Y-119935644D01*
X143839714Y-119935644D02*
X143839714Y-119887263D01*
X143839714Y-119887263D02*
X143815524Y-119838882D01*
X143815524Y-119838882D02*
X143791333Y-119814692D01*
X143791333Y-119814692D02*
X143742952Y-119790501D01*
X143742952Y-119790501D02*
X143646190Y-119766311D01*
X143646190Y-119766311D02*
X143597809Y-119742120D01*
X143597809Y-119742120D02*
X143573619Y-119717930D01*
X143573619Y-119717930D02*
X143549428Y-119669549D01*
X143549428Y-119669549D02*
X143549428Y-119621168D01*
X143549428Y-119621168D02*
X143573619Y-119572787D01*
X143573619Y-119572787D02*
X143597809Y-119548596D01*
X143597809Y-119548596D02*
X143646190Y-119524406D01*
X143646190Y-119524406D02*
X143767143Y-119524406D01*
X143767143Y-119524406D02*
X143839714Y-119548596D01*
X144057429Y-119766311D02*
X144226762Y-119766311D01*
X144299334Y-120032406D02*
X144057429Y-120032406D01*
X144057429Y-120032406D02*
X144057429Y-119524406D01*
X144057429Y-119524406D02*
X144299334Y-119524406D01*
X144758953Y-120032406D02*
X144517048Y-120032406D01*
X144517048Y-120032406D02*
X144517048Y-119524406D01*
X143730858Y-127484025D02*
X143706667Y-127508216D01*
X143706667Y-127508216D02*
X143634096Y-127532406D01*
X143634096Y-127532406D02*
X143585715Y-127532406D01*
X143585715Y-127532406D02*
X143513143Y-127508216D01*
X143513143Y-127508216D02*
X143464762Y-127459835D01*
X143464762Y-127459835D02*
X143440572Y-127411454D01*
X143440572Y-127411454D02*
X143416381Y-127314692D01*
X143416381Y-127314692D02*
X143416381Y-127242120D01*
X143416381Y-127242120D02*
X143440572Y-127145358D01*
X143440572Y-127145358D02*
X143464762Y-127096977D01*
X143464762Y-127096977D02*
X143513143Y-127048596D01*
X143513143Y-127048596D02*
X143585715Y-127024406D01*
X143585715Y-127024406D02*
X143634096Y-127024406D01*
X143634096Y-127024406D02*
X143706667Y-127048596D01*
X143706667Y-127048596D02*
X143730858Y-127072787D01*
X144045334Y-127024406D02*
X144142096Y-127024406D01*
X144142096Y-127024406D02*
X144190477Y-127048596D01*
X144190477Y-127048596D02*
X144238858Y-127096977D01*
X144238858Y-127096977D02*
X144263048Y-127193739D01*
X144263048Y-127193739D02*
X144263048Y-127363073D01*
X144263048Y-127363073D02*
X144238858Y-127459835D01*
X144238858Y-127459835D02*
X144190477Y-127508216D01*
X144190477Y-127508216D02*
X144142096Y-127532406D01*
X144142096Y-127532406D02*
X144045334Y-127532406D01*
X144045334Y-127532406D02*
X143996953Y-127508216D01*
X143996953Y-127508216D02*
X143948572Y-127459835D01*
X143948572Y-127459835D02*
X143924381Y-127363073D01*
X143924381Y-127363073D02*
X143924381Y-127193739D01*
X143924381Y-127193739D02*
X143948572Y-127096977D01*
X143948572Y-127096977D02*
X143996953Y-127048596D01*
X143996953Y-127048596D02*
X144045334Y-127024406D01*
X144480762Y-127532406D02*
X144480762Y-127024406D01*
X144480762Y-127024406D02*
X144650095Y-127387263D01*
X144650095Y-127387263D02*
X144819429Y-127024406D01*
X144819429Y-127024406D02*
X144819429Y-127532406D01*
X137666285Y-123266311D02*
X137738857Y-123290501D01*
X137738857Y-123290501D02*
X137763047Y-123314692D01*
X137763047Y-123314692D02*
X137787238Y-123363073D01*
X137787238Y-123363073D02*
X137787238Y-123435644D01*
X137787238Y-123435644D02*
X137763047Y-123484025D01*
X137763047Y-123484025D02*
X137738857Y-123508216D01*
X137738857Y-123508216D02*
X137690476Y-123532406D01*
X137690476Y-123532406D02*
X137496952Y-123532406D01*
X137496952Y-123532406D02*
X137496952Y-123024406D01*
X137496952Y-123024406D02*
X137666285Y-123024406D01*
X137666285Y-123024406D02*
X137714666Y-123048596D01*
X137714666Y-123048596D02*
X137738857Y-123072787D01*
X137738857Y-123072787D02*
X137763047Y-123121168D01*
X137763047Y-123121168D02*
X137763047Y-123169549D01*
X137763047Y-123169549D02*
X137738857Y-123217930D01*
X137738857Y-123217930D02*
X137714666Y-123242120D01*
X137714666Y-123242120D02*
X137666285Y-123266311D01*
X137666285Y-123266311D02*
X137496952Y-123266311D01*
X144496952Y-123532406D02*
X144496952Y-123024406D01*
X144496952Y-123024406D02*
X144617904Y-123024406D01*
X144617904Y-123024406D02*
X144690476Y-123048596D01*
X144690476Y-123048596D02*
X144738857Y-123096977D01*
X144738857Y-123096977D02*
X144763047Y-123145358D01*
X144763047Y-123145358D02*
X144787238Y-123242120D01*
X144787238Y-123242120D02*
X144787238Y-123314692D01*
X144787238Y-123314692D02*
X144763047Y-123411454D01*
X144763047Y-123411454D02*
X144738857Y-123459835D01*
X144738857Y-123459835D02*
X144690476Y-123508216D01*
X144690476Y-123508216D02*
X144617904Y-123532406D01*
X144617904Y-123532406D02*
X144496952Y-123532406D01*
D13*
%TO.C,SW8*%
X204343000Y-96901000D02*
X218313000Y-96901000D01*
X204343000Y-110871000D02*
X204343000Y-96901000D01*
X218313000Y-96901000D02*
X218313000Y-110871000D01*
X218313000Y-110871000D02*
X204343000Y-110871000D01*
%TO.C,SW11*%
X133834000Y-80342000D02*
X134434000Y-80342000D01*
X134134000Y-80642000D02*
X133834000Y-80342000D01*
X134434000Y-80342000D02*
X134134000Y-80642000D01*
X135534000Y-78542000D02*
X135534000Y-90342000D01*
X139634000Y-78542000D02*
X135534000Y-78542000D01*
X139634000Y-90342000D02*
X135534000Y-90342000D01*
X141134000Y-84442000D02*
X142134000Y-84442000D01*
X141634000Y-83942000D02*
X141634000Y-84942000D01*
X143634000Y-78542000D02*
X147734000Y-78542000D01*
X147734000Y-78542000D02*
X147734000Y-80942000D01*
X147734000Y-83142000D02*
X147734000Y-85742000D01*
X147734000Y-87942000D02*
X147734000Y-90342000D01*
X147734000Y-90342000D02*
X143634000Y-90342000D01*
X144634000Y-84442000D02*
G75*
G02*
X138634000Y-84442000I-3000000J0D01*
G01*
X138634000Y-84442000D02*
G75*
G02*
X144634000Y-84442000I3000000J0D01*
G01*
%TO.C,SW4*%
X185293000Y-77851000D02*
X199263000Y-77851000D01*
X185293000Y-91821000D02*
X185293000Y-77851000D01*
X199263000Y-77851000D02*
X199263000Y-91821000D01*
X199263000Y-91821000D02*
X185293000Y-91821000D01*
%TO.C,SW2*%
X166243000Y-96901000D02*
X180213000Y-96901000D01*
X166243000Y-110871000D02*
X166243000Y-96901000D01*
X180213000Y-96901000D02*
X180213000Y-110871000D01*
X180213000Y-110871000D02*
X166243000Y-110871000D01*
%TO.C,SW10*%
X133580000Y-100662000D02*
X134180000Y-100662000D01*
X133880000Y-100962000D02*
X133580000Y-100662000D01*
X134180000Y-100662000D02*
X133880000Y-100962000D01*
X135280000Y-98862000D02*
X135280000Y-110662000D01*
X139380000Y-98862000D02*
X135280000Y-98862000D01*
X139380000Y-110662000D02*
X135280000Y-110662000D01*
X140880000Y-104762000D02*
X141880000Y-104762000D01*
X141380000Y-104262000D02*
X141380000Y-105262000D01*
X143380000Y-98862000D02*
X147480000Y-98862000D01*
X147480000Y-98862000D02*
X147480000Y-101262000D01*
X147480000Y-103462000D02*
X147480000Y-106062000D01*
X147480000Y-108262000D02*
X147480000Y-110662000D01*
X147480000Y-110662000D02*
X143380000Y-110662000D01*
X144380000Y-104762000D02*
G75*
G02*
X138380000Y-104762000I-3000000J0D01*
G01*
X138380000Y-104762000D02*
G75*
G02*
X144380000Y-104762000I3000000J0D01*
G01*
%TO.C,SW5*%
X185293000Y-96901000D02*
X199263000Y-96901000D01*
X185293000Y-110871000D02*
X185293000Y-96901000D01*
X199263000Y-96901000D02*
X199263000Y-110871000D01*
X199263000Y-110871000D02*
X185293000Y-110871000D01*
%TO.C,J1*%
X168248000Y-52672000D02*
X168248000Y-44992000D01*
X170908000Y-44992000D02*
X168248000Y-44992000D01*
X170908000Y-52672000D02*
X168248000Y-52672000D01*
X170908000Y-52672000D02*
X170908000Y-44992000D01*
X170908000Y-53942000D02*
X170908000Y-55272000D01*
X170908000Y-55272000D02*
X169578000Y-55272000D01*
%TO.C,SW3*%
X166243000Y-115951000D02*
X180213000Y-115951000D01*
X166243000Y-129921000D02*
X166243000Y-115951000D01*
X180213000Y-115951000D02*
X180213000Y-129921000D01*
X180213000Y-129921000D02*
X166243000Y-129921000D01*
%TO.C,SW7*%
X204343000Y-77851000D02*
X218313000Y-77851000D01*
X204343000Y-91821000D02*
X204343000Y-77851000D01*
X218313000Y-77851000D02*
X218313000Y-91821000D01*
X218313000Y-91821000D02*
X204343000Y-91821000D01*
%TO.C,SW6*%
X185293000Y-115951000D02*
X199263000Y-115951000D01*
X185293000Y-129921000D02*
X185293000Y-115951000D01*
X199263000Y-115951000D02*
X199263000Y-129921000D01*
X199263000Y-129921000D02*
X185293000Y-129921000D01*
%TO.C,SW9*%
X204343000Y-115951000D02*
X218313000Y-115951000D01*
X204343000Y-129921000D02*
X204343000Y-115951000D01*
X218313000Y-115951000D02*
X218313000Y-129921000D01*
X218313000Y-129921000D02*
X204343000Y-129921000D01*
%TO.C,SW12*%
X135752000Y-58734000D02*
X148052000Y-58734000D01*
X135752000Y-61454000D02*
X135752000Y-58734000D01*
X135752000Y-66454000D02*
X135752000Y-63314000D01*
X135752000Y-71034000D02*
X135752000Y-68314000D01*
X148052000Y-58734000D02*
X148052000Y-61454000D01*
X148052000Y-63314000D02*
X148052000Y-66454000D01*
X148052000Y-68314000D02*
X148052000Y-71034000D01*
X148052000Y-71034000D02*
X135752000Y-71034000D01*
X146581050Y-64924000D02*
G75*
G02*
X137422950Y-64924000I-4579050J0D01*
G01*
X137422950Y-64924000D02*
G75*
G02*
X146581050Y-64924000I4579050J0D01*
G01*
%TO.C,SW1*%
X166243000Y-77851000D02*
X180213000Y-77851000D01*
X166243000Y-91821000D02*
X166243000Y-77851000D01*
X180213000Y-77851000D02*
X180213000Y-91821000D01*
X180213000Y-91821000D02*
X166243000Y-91821000D01*
%TO.C,U1*%
X176212000Y-51717000D02*
X176212000Y-44917000D01*
X176212000Y-53917000D02*
X176212000Y-54317000D01*
X176212000Y-56517000D02*
X176212000Y-56917000D01*
X176212000Y-65917000D02*
X176212000Y-59117000D01*
X179012000Y-44917000D02*
X178612000Y-44917000D01*
X179012000Y-65917000D02*
X178612000Y-65917000D01*
X181612000Y-44917000D02*
X181212000Y-44917000D01*
X181612000Y-65917000D02*
X181212000Y-65917000D01*
X184112000Y-44917000D02*
X183712000Y-44917000D01*
X184112000Y-65917000D02*
X183712000Y-65917000D01*
X186612000Y-44917000D02*
X186212000Y-44917000D01*
X186612000Y-65917000D02*
X186212000Y-65917000D01*
X189212000Y-44917000D02*
X188812000Y-44917000D01*
X189212000Y-65917000D02*
X188812000Y-65917000D01*
X191712000Y-44917000D02*
X191312000Y-44917000D01*
X191712000Y-65917000D02*
X191312000Y-65917000D01*
X194312000Y-44917000D02*
X193912000Y-44917000D01*
X194312000Y-65917000D02*
X193912000Y-65917000D01*
X196812000Y-44917000D02*
X196412000Y-44917000D01*
X196812000Y-65917000D02*
X196412000Y-65917000D01*
X199412000Y-44917000D02*
X199012000Y-44917000D01*
X199412000Y-65917000D02*
X199012000Y-65917000D01*
X201912000Y-44917000D02*
X201512000Y-44917000D01*
X201912000Y-65917000D02*
X201512000Y-65917000D01*
X204412000Y-44917000D02*
X204012000Y-44917000D01*
X204412000Y-65917000D02*
X204012000Y-65917000D01*
X207012000Y-44917000D02*
X206612000Y-44917000D01*
X207012000Y-65917000D02*
X206612000Y-65917000D01*
X209512000Y-44917000D02*
X209112000Y-44917000D01*
X209512000Y-65917000D02*
X209112000Y-65917000D01*
X212112000Y-44917000D02*
X211712000Y-44917000D01*
X212112000Y-65917000D02*
X211712000Y-65917000D01*
X214612000Y-44917000D02*
X214212000Y-44917000D01*
X214612000Y-65917000D02*
X214212000Y-65917000D01*
X217112000Y-44917000D02*
X216712000Y-44917000D01*
X217112000Y-65917000D02*
X216712000Y-65917000D01*
X219712000Y-44917000D02*
X219312000Y-44917000D01*
X219712000Y-65917000D02*
X219312000Y-65917000D01*
X222212000Y-44917000D02*
X221812000Y-44917000D01*
X222212000Y-65917000D02*
X221812000Y-65917000D01*
X224545000Y-44917000D02*
X224545000Y-47924000D01*
X224545000Y-47924000D02*
X227212000Y-47924000D01*
X224812000Y-44917000D02*
X224412000Y-44917000D01*
X224812000Y-65917000D02*
X224412000Y-65917000D01*
X227212000Y-44917000D02*
X226912000Y-44917000D01*
X227212000Y-44917000D02*
X227212000Y-65917000D01*
X227212000Y-65917000D02*
X226912000Y-65917000D01*
D14*
%TO.C,U2*%
X136128740Y-118302740D02*
X136128740Y-128305260D01*
X136128740Y-128305260D02*
X146131260Y-128305260D01*
X139628860Y-121802860D02*
X142631140Y-121802860D01*
X139628860Y-124805140D02*
X139628860Y-121802860D01*
D15*
X141130000Y-120804000D02*
X141130000Y-121804000D01*
D14*
X142631140Y-121802860D02*
X142631140Y-124805140D01*
X142631140Y-124805140D02*
X139628860Y-124805140D01*
X146131260Y-118302740D02*
X136128740Y-118302740D01*
X146131260Y-128305260D02*
X146131260Y-118302740D01*
X143835162Y-123304000D02*
G75*
G02*
X138424838Y-123304000I-2705162J0D01*
G01*
X138424838Y-123304000D02*
G75*
G02*
X143835162Y-123304000I2705162J0D01*
G01*
%TD*%
D16*
%TO.C,U2*%
X135978880Y-120052800D03*
D17*
X135978880Y-123754000D03*
D16*
X135978880Y-126555200D03*
X146281120Y-126555200D03*
D17*
X146281120Y-123754000D03*
D16*
X146281120Y-120052800D03*
%TD*%
M02*
