%TF.GenerationSoftware,KiCad,Pcbnew,8.0.3*%
%TF.CreationDate,2024-07-07T11:27:56-04:00*%
%TF.ProjectId,macropad,6d616372-6f70-4616-942e-6b696361645f,1.0*%
%TF.SameCoordinates,Original*%
%TF.FileFunction,Legend,Top*%
%TF.FilePolarity,Positive*%
%FSLAX46Y46*%
G04 Gerber Fmt 4.6, Leading zero omitted, Abs format (unit mm)*
G04 Created by KiCad (PCBNEW 8.0.3) date 2024-07-07 11:27:56*
%MOMM*%
%LPD*%
G01*
G04 APERTURE LIST*
%ADD10C,0.127000*%
%ADD11C,0.150000*%
%ADD12C,0.375000*%
%ADD13C,0.100000*%
%ADD14C,0.400000*%
%ADD15C,1.000000*%
%ADD16C,0.250000*%
%ADD17C,0.750000*%
%ADD18C,0.381000*%
%ADD19C,0.254000*%
%ADD20C,0.120000*%
%ADD21C,0.050000*%
%ADD22O,2.499360X1.800860*%
%ADD23O,1.998980X1.600200*%
G04 APERTURE END LIST*
D10*
X142778095Y-113156015D02*
X142778095Y-113965538D01*
X142778095Y-113965538D02*
X142825714Y-114060776D01*
X142825714Y-114060776D02*
X142873333Y-114108396D01*
X142873333Y-114108396D02*
X142968571Y-114156015D01*
X142968571Y-114156015D02*
X143159047Y-114156015D01*
X143159047Y-114156015D02*
X143254285Y-114108396D01*
X143254285Y-114108396D02*
X143301904Y-114060776D01*
X143301904Y-114060776D02*
X143349523Y-113965538D01*
X143349523Y-113965538D02*
X143349523Y-113156015D01*
X143778095Y-113251253D02*
X143825714Y-113203634D01*
X143825714Y-113203634D02*
X143920952Y-113156015D01*
X143920952Y-113156015D02*
X144159047Y-113156015D01*
X144159047Y-113156015D02*
X144254285Y-113203634D01*
X144254285Y-113203634D02*
X144301904Y-113251253D01*
X144301904Y-113251253D02*
X144349523Y-113346491D01*
X144349523Y-113346491D02*
X144349523Y-113441729D01*
X144349523Y-113441729D02*
X144301904Y-113584586D01*
X144301904Y-113584586D02*
X143730476Y-114156015D01*
X143730476Y-114156015D02*
X144349523Y-114156015D01*
D11*
X151004285Y-123109580D02*
X150956666Y-123157200D01*
X150956666Y-123157200D02*
X150813809Y-123204819D01*
X150813809Y-123204819D02*
X150718571Y-123204819D01*
X150718571Y-123204819D02*
X150575714Y-123157200D01*
X150575714Y-123157200D02*
X150480476Y-123061961D01*
X150480476Y-123061961D02*
X150432857Y-122966723D01*
X150432857Y-122966723D02*
X150385238Y-122776247D01*
X150385238Y-122776247D02*
X150385238Y-122633390D01*
X150385238Y-122633390D02*
X150432857Y-122442914D01*
X150432857Y-122442914D02*
X150480476Y-122347676D01*
X150480476Y-122347676D02*
X150575714Y-122252438D01*
X150575714Y-122252438D02*
X150718571Y-122204819D01*
X150718571Y-122204819D02*
X150813809Y-122204819D01*
X150813809Y-122204819D02*
X150956666Y-122252438D01*
X150956666Y-122252438D02*
X151004285Y-122300057D01*
X151623333Y-122204819D02*
X151813809Y-122204819D01*
X151813809Y-122204819D02*
X151909047Y-122252438D01*
X151909047Y-122252438D02*
X152004285Y-122347676D01*
X152004285Y-122347676D02*
X152051904Y-122538152D01*
X152051904Y-122538152D02*
X152051904Y-122871485D01*
X152051904Y-122871485D02*
X152004285Y-123061961D01*
X152004285Y-123061961D02*
X151909047Y-123157200D01*
X151909047Y-123157200D02*
X151813809Y-123204819D01*
X151813809Y-123204819D02*
X151623333Y-123204819D01*
X151623333Y-123204819D02*
X151528095Y-123157200D01*
X151528095Y-123157200D02*
X151432857Y-123061961D01*
X151432857Y-123061961D02*
X151385238Y-122871485D01*
X151385238Y-122871485D02*
X151385238Y-122538152D01*
X151385238Y-122538152D02*
X151432857Y-122347676D01*
X151432857Y-122347676D02*
X151528095Y-122252438D01*
X151528095Y-122252438D02*
X151623333Y-122204819D01*
X152480476Y-123204819D02*
X152480476Y-122204819D01*
X152480476Y-122204819D02*
X152813809Y-122919104D01*
X152813809Y-122919104D02*
X153147142Y-122204819D01*
X153147142Y-122204819D02*
X153147142Y-123204819D01*
X136051905Y-116419104D02*
X136528095Y-116419104D01*
X135956667Y-116704819D02*
X136290000Y-115704819D01*
X136290000Y-115704819D02*
X136623333Y-116704819D01*
X150397143Y-116657200D02*
X150540000Y-116704819D01*
X150540000Y-116704819D02*
X150778095Y-116704819D01*
X150778095Y-116704819D02*
X150873333Y-116657200D01*
X150873333Y-116657200D02*
X150920952Y-116609580D01*
X150920952Y-116609580D02*
X150968571Y-116514342D01*
X150968571Y-116514342D02*
X150968571Y-116419104D01*
X150968571Y-116419104D02*
X150920952Y-116323866D01*
X150920952Y-116323866D02*
X150873333Y-116276247D01*
X150873333Y-116276247D02*
X150778095Y-116228628D01*
X150778095Y-116228628D02*
X150587619Y-116181009D01*
X150587619Y-116181009D02*
X150492381Y-116133390D01*
X150492381Y-116133390D02*
X150444762Y-116085771D01*
X150444762Y-116085771D02*
X150397143Y-115990533D01*
X150397143Y-115990533D02*
X150397143Y-115895295D01*
X150397143Y-115895295D02*
X150444762Y-115800057D01*
X150444762Y-115800057D02*
X150492381Y-115752438D01*
X150492381Y-115752438D02*
X150587619Y-115704819D01*
X150587619Y-115704819D02*
X150825714Y-115704819D01*
X150825714Y-115704819D02*
X150968571Y-115752438D01*
X151397143Y-116181009D02*
X151730476Y-116181009D01*
X151873333Y-116704819D02*
X151397143Y-116704819D01*
X151397143Y-116704819D02*
X151397143Y-115704819D01*
X151397143Y-115704819D02*
X151873333Y-115704819D01*
X152778095Y-116704819D02*
X152301905Y-116704819D01*
X152301905Y-116704819D02*
X152301905Y-115704819D01*
D10*
X136611428Y-119932205D02*
X136754285Y-119979824D01*
X136754285Y-119979824D02*
X136801904Y-120027443D01*
X136801904Y-120027443D02*
X136849523Y-120122681D01*
X136849523Y-120122681D02*
X136849523Y-120265538D01*
X136849523Y-120265538D02*
X136801904Y-120360776D01*
X136801904Y-120360776D02*
X136754285Y-120408396D01*
X136754285Y-120408396D02*
X136659047Y-120456015D01*
X136659047Y-120456015D02*
X136278095Y-120456015D01*
X136278095Y-120456015D02*
X136278095Y-119456015D01*
X136278095Y-119456015D02*
X136611428Y-119456015D01*
X136611428Y-119456015D02*
X136706666Y-119503634D01*
X136706666Y-119503634D02*
X136754285Y-119551253D01*
X136754285Y-119551253D02*
X136801904Y-119646491D01*
X136801904Y-119646491D02*
X136801904Y-119741729D01*
X136801904Y-119741729D02*
X136754285Y-119836967D01*
X136754285Y-119836967D02*
X136706666Y-119884586D01*
X136706666Y-119884586D02*
X136611428Y-119932205D01*
X136611428Y-119932205D02*
X136278095Y-119932205D01*
X136599523Y-123110776D02*
X136551904Y-123158396D01*
X136551904Y-123158396D02*
X136409047Y-123206015D01*
X136409047Y-123206015D02*
X136313809Y-123206015D01*
X136313809Y-123206015D02*
X136170952Y-123158396D01*
X136170952Y-123158396D02*
X136075714Y-123063157D01*
X136075714Y-123063157D02*
X136028095Y-122967919D01*
X136028095Y-122967919D02*
X135980476Y-122777443D01*
X135980476Y-122777443D02*
X135980476Y-122634586D01*
X135980476Y-122634586D02*
X136028095Y-122444110D01*
X136028095Y-122444110D02*
X136075714Y-122348872D01*
X136075714Y-122348872D02*
X136170952Y-122253634D01*
X136170952Y-122253634D02*
X136313809Y-122206015D01*
X136313809Y-122206015D02*
X136409047Y-122206015D01*
X136409047Y-122206015D02*
X136551904Y-122253634D01*
X136551904Y-122253634D02*
X136599523Y-122301253D01*
D11*
X150278095Y-120454819D02*
X150278095Y-119454819D01*
X150278095Y-119454819D02*
X150516190Y-119454819D01*
X150516190Y-119454819D02*
X150659047Y-119502438D01*
X150659047Y-119502438D02*
X150754285Y-119597676D01*
X150754285Y-119597676D02*
X150801904Y-119692914D01*
X150801904Y-119692914D02*
X150849523Y-119883390D01*
X150849523Y-119883390D02*
X150849523Y-120026247D01*
X150849523Y-120026247D02*
X150801904Y-120216723D01*
X150801904Y-120216723D02*
X150754285Y-120311961D01*
X150754285Y-120311961D02*
X150659047Y-120407200D01*
X150659047Y-120407200D02*
X150516190Y-120454819D01*
X150516190Y-120454819D02*
X150278095Y-120454819D01*
X137480476Y-58107200D02*
X137623333Y-58154819D01*
X137623333Y-58154819D02*
X137861428Y-58154819D01*
X137861428Y-58154819D02*
X137956666Y-58107200D01*
X137956666Y-58107200D02*
X138004285Y-58059580D01*
X138004285Y-58059580D02*
X138051904Y-57964342D01*
X138051904Y-57964342D02*
X138051904Y-57869104D01*
X138051904Y-57869104D02*
X138004285Y-57773866D01*
X138004285Y-57773866D02*
X137956666Y-57726247D01*
X137956666Y-57726247D02*
X137861428Y-57678628D01*
X137861428Y-57678628D02*
X137670952Y-57631009D01*
X137670952Y-57631009D02*
X137575714Y-57583390D01*
X137575714Y-57583390D02*
X137528095Y-57535771D01*
X137528095Y-57535771D02*
X137480476Y-57440533D01*
X137480476Y-57440533D02*
X137480476Y-57345295D01*
X137480476Y-57345295D02*
X137528095Y-57250057D01*
X137528095Y-57250057D02*
X137575714Y-57202438D01*
X137575714Y-57202438D02*
X137670952Y-57154819D01*
X137670952Y-57154819D02*
X137909047Y-57154819D01*
X137909047Y-57154819D02*
X138051904Y-57202438D01*
X138385238Y-57154819D02*
X138623333Y-58154819D01*
X138623333Y-58154819D02*
X138813809Y-57440533D01*
X138813809Y-57440533D02*
X139004285Y-58154819D01*
X139004285Y-58154819D02*
X139242381Y-57154819D01*
X140147142Y-58154819D02*
X139575714Y-58154819D01*
X139861428Y-58154819D02*
X139861428Y-57154819D01*
X139861428Y-57154819D02*
X139766190Y-57297676D01*
X139766190Y-57297676D02*
X139670952Y-57392914D01*
X139670952Y-57392914D02*
X139575714Y-57440533D01*
X140528095Y-57250057D02*
X140575714Y-57202438D01*
X140575714Y-57202438D02*
X140670952Y-57154819D01*
X140670952Y-57154819D02*
X140909047Y-57154819D01*
X140909047Y-57154819D02*
X141004285Y-57202438D01*
X141004285Y-57202438D02*
X141051904Y-57250057D01*
X141051904Y-57250057D02*
X141099523Y-57345295D01*
X141099523Y-57345295D02*
X141099523Y-57440533D01*
X141099523Y-57440533D02*
X141051904Y-57583390D01*
X141051904Y-57583390D02*
X140480476Y-58154819D01*
X140480476Y-58154819D02*
X141099523Y-58154819D01*
D12*
X136789999Y-72546928D02*
X136789999Y-71046928D01*
X136789999Y-71046928D02*
X137289999Y-72118357D01*
X137289999Y-72118357D02*
X137789999Y-71046928D01*
X137789999Y-71046928D02*
X137789999Y-72546928D01*
X138790000Y-71046928D02*
X139075714Y-71046928D01*
X139075714Y-71046928D02*
X139218571Y-71118357D01*
X139218571Y-71118357D02*
X139361428Y-71261214D01*
X139361428Y-71261214D02*
X139432857Y-71546928D01*
X139432857Y-71546928D02*
X139432857Y-72046928D01*
X139432857Y-72046928D02*
X139361428Y-72332642D01*
X139361428Y-72332642D02*
X139218571Y-72475500D01*
X139218571Y-72475500D02*
X139075714Y-72546928D01*
X139075714Y-72546928D02*
X138790000Y-72546928D01*
X138790000Y-72546928D02*
X138647143Y-72475500D01*
X138647143Y-72475500D02*
X138504285Y-72332642D01*
X138504285Y-72332642D02*
X138432857Y-72046928D01*
X138432857Y-72046928D02*
X138432857Y-71546928D01*
X138432857Y-71546928D02*
X138504285Y-71261214D01*
X138504285Y-71261214D02*
X138647143Y-71118357D01*
X138647143Y-71118357D02*
X138790000Y-71046928D01*
X140075714Y-72546928D02*
X140075714Y-71046928D01*
X140075714Y-71046928D02*
X140432857Y-71046928D01*
X140432857Y-71046928D02*
X140647143Y-71118357D01*
X140647143Y-71118357D02*
X140790000Y-71261214D01*
X140790000Y-71261214D02*
X140861429Y-71404071D01*
X140861429Y-71404071D02*
X140932857Y-71689785D01*
X140932857Y-71689785D02*
X140932857Y-71904071D01*
X140932857Y-71904071D02*
X140861429Y-72189785D01*
X140861429Y-72189785D02*
X140790000Y-72332642D01*
X140790000Y-72332642D02*
X140647143Y-72475500D01*
X140647143Y-72475500D02*
X140432857Y-72546928D01*
X140432857Y-72546928D02*
X140075714Y-72546928D01*
X141575714Y-71761214D02*
X142075714Y-71761214D01*
X142290000Y-72546928D02*
X141575714Y-72546928D01*
X141575714Y-72546928D02*
X141575714Y-71046928D01*
X141575714Y-71046928D02*
X142290000Y-71046928D01*
X142861429Y-72475500D02*
X143075715Y-72546928D01*
X143075715Y-72546928D02*
X143432857Y-72546928D01*
X143432857Y-72546928D02*
X143575715Y-72475500D01*
X143575715Y-72475500D02*
X143647143Y-72404071D01*
X143647143Y-72404071D02*
X143718572Y-72261214D01*
X143718572Y-72261214D02*
X143718572Y-72118357D01*
X143718572Y-72118357D02*
X143647143Y-71975500D01*
X143647143Y-71975500D02*
X143575715Y-71904071D01*
X143575715Y-71904071D02*
X143432857Y-71832642D01*
X143432857Y-71832642D02*
X143147143Y-71761214D01*
X143147143Y-71761214D02*
X143004286Y-71689785D01*
X143004286Y-71689785D02*
X142932857Y-71618357D01*
X142932857Y-71618357D02*
X142861429Y-71475500D01*
X142861429Y-71475500D02*
X142861429Y-71332642D01*
X142861429Y-71332642D02*
X142932857Y-71189785D01*
X142932857Y-71189785D02*
X143004286Y-71118357D01*
X143004286Y-71118357D02*
X143147143Y-71046928D01*
X143147143Y-71046928D02*
X143504286Y-71046928D01*
X143504286Y-71046928D02*
X143718572Y-71118357D01*
X144218571Y-71046928D02*
X144575714Y-72546928D01*
X144575714Y-72546928D02*
X144861428Y-71475500D01*
X144861428Y-71475500D02*
X145147143Y-72546928D01*
X145147143Y-72546928D02*
X145504286Y-71046928D01*
X146075714Y-72546928D02*
X146075714Y-71046928D01*
X146575715Y-71046928D02*
X147432858Y-71046928D01*
X147004286Y-72546928D02*
X147004286Y-71046928D01*
X148790000Y-72404071D02*
X148718572Y-72475500D01*
X148718572Y-72475500D02*
X148504286Y-72546928D01*
X148504286Y-72546928D02*
X148361429Y-72546928D01*
X148361429Y-72546928D02*
X148147143Y-72475500D01*
X148147143Y-72475500D02*
X148004286Y-72332642D01*
X148004286Y-72332642D02*
X147932857Y-72189785D01*
X147932857Y-72189785D02*
X147861429Y-71904071D01*
X147861429Y-71904071D02*
X147861429Y-71689785D01*
X147861429Y-71689785D02*
X147932857Y-71404071D01*
X147932857Y-71404071D02*
X148004286Y-71261214D01*
X148004286Y-71261214D02*
X148147143Y-71118357D01*
X148147143Y-71118357D02*
X148361429Y-71046928D01*
X148361429Y-71046928D02*
X148504286Y-71046928D01*
X148504286Y-71046928D02*
X148718572Y-71118357D01*
X148718572Y-71118357D02*
X148790000Y-71189785D01*
X149432857Y-72546928D02*
X149432857Y-71046928D01*
X149432857Y-71761214D02*
X150290000Y-71761214D01*
X150290000Y-72546928D02*
X150290000Y-71046928D01*
D11*
X134361429Y-66201485D02*
X134432857Y-66130057D01*
X134432857Y-66130057D02*
X134575715Y-66058628D01*
X134575715Y-66058628D02*
X134932857Y-66058628D01*
X134932857Y-66058628D02*
X135075715Y-66130057D01*
X135075715Y-66130057D02*
X135147143Y-66201485D01*
X135147143Y-66201485D02*
X135218572Y-66344342D01*
X135218572Y-66344342D02*
X135218572Y-66487200D01*
X135218572Y-66487200D02*
X135147143Y-66701485D01*
X135147143Y-66701485D02*
X134290000Y-67558628D01*
X134290000Y-67558628D02*
X135218572Y-67558628D01*
X152718572Y-62808628D02*
X151861429Y-62808628D01*
X152290000Y-62808628D02*
X152290000Y-61308628D01*
X152290000Y-61308628D02*
X152147143Y-61522914D01*
X152147143Y-61522914D02*
X152004286Y-61665771D01*
X152004286Y-61665771D02*
X151861429Y-61737200D01*
X135218572Y-62808628D02*
X134361429Y-62808628D01*
X134790000Y-62808628D02*
X134790000Y-61308628D01*
X134790000Y-61308628D02*
X134647143Y-61522914D01*
X134647143Y-61522914D02*
X134504286Y-61665771D01*
X134504286Y-61665771D02*
X134361429Y-61737200D01*
X151861429Y-66451485D02*
X151932857Y-66380057D01*
X151932857Y-66380057D02*
X152075715Y-66308628D01*
X152075715Y-66308628D02*
X152432857Y-66308628D01*
X152432857Y-66308628D02*
X152575715Y-66380057D01*
X152575715Y-66380057D02*
X152647143Y-66451485D01*
X152647143Y-66451485D02*
X152718572Y-66594342D01*
X152718572Y-66594342D02*
X152718572Y-66737200D01*
X152718572Y-66737200D02*
X152647143Y-66951485D01*
X152647143Y-66951485D02*
X151790000Y-67808628D01*
X151790000Y-67808628D02*
X152718572Y-67808628D01*
D13*
X143206666Y-128957419D02*
X142873333Y-128481228D01*
X142635238Y-128957419D02*
X142635238Y-127957419D01*
X142635238Y-127957419D02*
X143016190Y-127957419D01*
X143016190Y-127957419D02*
X143111428Y-128005038D01*
X143111428Y-128005038D02*
X143159047Y-128052657D01*
X143159047Y-128052657D02*
X143206666Y-128147895D01*
X143206666Y-128147895D02*
X143206666Y-128290752D01*
X143206666Y-128290752D02*
X143159047Y-128385990D01*
X143159047Y-128385990D02*
X143111428Y-128433609D01*
X143111428Y-128433609D02*
X143016190Y-128481228D01*
X143016190Y-128481228D02*
X142635238Y-128481228D01*
X143635238Y-128433609D02*
X143968571Y-128433609D01*
X144111428Y-128957419D02*
X143635238Y-128957419D01*
X143635238Y-128957419D02*
X143635238Y-127957419D01*
X143635238Y-127957419D02*
X144111428Y-127957419D01*
X144873333Y-128433609D02*
X144540000Y-128433609D01*
X144540000Y-128957419D02*
X144540000Y-127957419D01*
X144540000Y-127957419D02*
X145016190Y-127957419D01*
X145540000Y-127957419D02*
X145540000Y-128195514D01*
X145301905Y-128100276D02*
X145540000Y-128195514D01*
X145540000Y-128195514D02*
X145778095Y-128100276D01*
X145397143Y-128385990D02*
X145540000Y-128195514D01*
X145540000Y-128195514D02*
X145682857Y-128385990D01*
X146301905Y-127957419D02*
X146301905Y-128195514D01*
X146063810Y-128100276D02*
X146301905Y-128195514D01*
X146301905Y-128195514D02*
X146540000Y-128100276D01*
X146159048Y-128385990D02*
X146301905Y-128195514D01*
X146301905Y-128195514D02*
X146444762Y-128385990D01*
D14*
X127955537Y-101433390D02*
X128488871Y-103033390D01*
X128488871Y-103033390D02*
X129022204Y-101433390D01*
X130393633Y-103033390D02*
X129479347Y-103033390D01*
X129936490Y-103033390D02*
X129936490Y-101433390D01*
X129936490Y-101433390D02*
X129784109Y-101661961D01*
X129784109Y-101661961D02*
X129631728Y-101814342D01*
X129631728Y-101814342D02*
X129479347Y-101890533D01*
X131079348Y-102881009D02*
X131155538Y-102957200D01*
X131155538Y-102957200D02*
X131079348Y-103033390D01*
X131079348Y-103033390D02*
X131003157Y-102957200D01*
X131003157Y-102957200D02*
X131079348Y-102881009D01*
X131079348Y-102881009D02*
X131079348Y-103033390D01*
X132146015Y-101433390D02*
X132298396Y-101433390D01*
X132298396Y-101433390D02*
X132450777Y-101509580D01*
X132450777Y-101509580D02*
X132526967Y-101585771D01*
X132526967Y-101585771D02*
X132603158Y-101738152D01*
X132603158Y-101738152D02*
X132679348Y-102042914D01*
X132679348Y-102042914D02*
X132679348Y-102423866D01*
X132679348Y-102423866D02*
X132603158Y-102728628D01*
X132603158Y-102728628D02*
X132526967Y-102881009D01*
X132526967Y-102881009D02*
X132450777Y-102957200D01*
X132450777Y-102957200D02*
X132298396Y-103033390D01*
X132298396Y-103033390D02*
X132146015Y-103033390D01*
X132146015Y-103033390D02*
X131993634Y-102957200D01*
X131993634Y-102957200D02*
X131917443Y-102881009D01*
X131917443Y-102881009D02*
X131841253Y-102728628D01*
X131841253Y-102728628D02*
X131765062Y-102423866D01*
X131765062Y-102423866D02*
X131765062Y-102042914D01*
X131765062Y-102042914D02*
X131841253Y-101738152D01*
X131841253Y-101738152D02*
X131917443Y-101585771D01*
X131917443Y-101585771D02*
X131993634Y-101509580D01*
X131993634Y-101509580D02*
X132146015Y-101433390D01*
D15*
X130572952Y-72265036D02*
X130572952Y-70598370D01*
X127953904Y-70598370D02*
X132953904Y-70598370D01*
X132953904Y-70598370D02*
X132953904Y-72979322D01*
X127953904Y-74884084D02*
X131287238Y-74884084D01*
X132953904Y-74884084D02*
X132715809Y-74645988D01*
X132715809Y-74645988D02*
X132477714Y-74884084D01*
X132477714Y-74884084D02*
X132715809Y-75122179D01*
X132715809Y-75122179D02*
X132953904Y-74884084D01*
X132953904Y-74884084D02*
X132477714Y-74884084D01*
X131287238Y-77265036D02*
X127953904Y-77265036D01*
X130811047Y-77265036D02*
X131049142Y-77503131D01*
X131049142Y-77503131D02*
X131287238Y-77979321D01*
X131287238Y-77979321D02*
X131287238Y-78693607D01*
X131287238Y-78693607D02*
X131049142Y-79169798D01*
X131049142Y-79169798D02*
X130572952Y-79407893D01*
X130572952Y-79407893D02*
X127953904Y-79407893D01*
X127953904Y-83931703D02*
X130572952Y-83931703D01*
X130572952Y-83931703D02*
X131049142Y-83693608D01*
X131049142Y-83693608D02*
X131287238Y-83217417D01*
X131287238Y-83217417D02*
X131287238Y-82265036D01*
X131287238Y-82265036D02*
X131049142Y-81788846D01*
X128192000Y-83931703D02*
X127953904Y-83455512D01*
X127953904Y-83455512D02*
X127953904Y-82265036D01*
X127953904Y-82265036D02*
X128192000Y-81788846D01*
X128192000Y-81788846D02*
X128668190Y-81550750D01*
X128668190Y-81550750D02*
X129144380Y-81550750D01*
X129144380Y-81550750D02*
X129620571Y-81788846D01*
X129620571Y-81788846D02*
X129858666Y-82265036D01*
X129858666Y-82265036D02*
X129858666Y-83455512D01*
X129858666Y-83455512D02*
X130096761Y-83931703D01*
X127953904Y-87026941D02*
X128192000Y-86550751D01*
X128192000Y-86550751D02*
X128668190Y-86312656D01*
X128668190Y-86312656D02*
X132953904Y-86312656D01*
X127953904Y-88931704D02*
X132953904Y-88931704D01*
X132953904Y-88931704D02*
X132953904Y-90836466D01*
X132953904Y-90836466D02*
X132715809Y-91312656D01*
X132715809Y-91312656D02*
X132477714Y-91550751D01*
X132477714Y-91550751D02*
X132001523Y-91788847D01*
X132001523Y-91788847D02*
X131287238Y-91788847D01*
X131287238Y-91788847D02*
X130811047Y-91550751D01*
X130811047Y-91550751D02*
X130572952Y-91312656D01*
X130572952Y-91312656D02*
X130334857Y-90836466D01*
X130334857Y-90836466D02*
X130334857Y-88931704D01*
X127953904Y-96074561D02*
X130572952Y-96074561D01*
X130572952Y-96074561D02*
X131049142Y-95836466D01*
X131049142Y-95836466D02*
X131287238Y-95360275D01*
X131287238Y-95360275D02*
X131287238Y-94407894D01*
X131287238Y-94407894D02*
X131049142Y-93931704D01*
X128192000Y-96074561D02*
X127953904Y-95598370D01*
X127953904Y-95598370D02*
X127953904Y-94407894D01*
X127953904Y-94407894D02*
X128192000Y-93931704D01*
X128192000Y-93931704D02*
X128668190Y-93693608D01*
X128668190Y-93693608D02*
X129144380Y-93693608D01*
X129144380Y-93693608D02*
X129620571Y-93931704D01*
X129620571Y-93931704D02*
X129858666Y-94407894D01*
X129858666Y-94407894D02*
X129858666Y-95598370D01*
X129858666Y-95598370D02*
X130096761Y-96074561D01*
X127953904Y-100598371D02*
X132953904Y-100598371D01*
X128192000Y-100598371D02*
X127953904Y-100122180D01*
X127953904Y-100122180D02*
X127953904Y-99169799D01*
X127953904Y-99169799D02*
X128192000Y-98693609D01*
X128192000Y-98693609D02*
X128430095Y-98455514D01*
X128430095Y-98455514D02*
X128906285Y-98217418D01*
X128906285Y-98217418D02*
X130334857Y-98217418D01*
X130334857Y-98217418D02*
X130811047Y-98455514D01*
X130811047Y-98455514D02*
X131049142Y-98693609D01*
X131049142Y-98693609D02*
X131287238Y-99169799D01*
X131287238Y-99169799D02*
X131287238Y-100122180D01*
X131287238Y-100122180D02*
X131049142Y-100598371D01*
D13*
X225412419Y-123809523D02*
X225412419Y-123142857D01*
X225412419Y-123142857D02*
X226412419Y-123571428D01*
X225364800Y-122047619D02*
X226650514Y-122904761D01*
X225412419Y-121809523D02*
X225412419Y-121142857D01*
X225412419Y-121142857D02*
X226412419Y-121571428D01*
X225364800Y-120047619D02*
X226650514Y-120904761D01*
X225507657Y-119761904D02*
X225460038Y-119714285D01*
X225460038Y-119714285D02*
X225412419Y-119619047D01*
X225412419Y-119619047D02*
X225412419Y-119380952D01*
X225412419Y-119380952D02*
X225460038Y-119285714D01*
X225460038Y-119285714D02*
X225507657Y-119238095D01*
X225507657Y-119238095D02*
X225602895Y-119190476D01*
X225602895Y-119190476D02*
X225698133Y-119190476D01*
X225698133Y-119190476D02*
X225840990Y-119238095D01*
X225840990Y-119238095D02*
X226412419Y-119809523D01*
X226412419Y-119809523D02*
X226412419Y-119190476D01*
X225745752Y-118333333D02*
X226412419Y-118333333D01*
X225364800Y-118571428D02*
X226079085Y-118809523D01*
X226079085Y-118809523D02*
X226079085Y-118190476D01*
X226912419Y-123369048D02*
X227626704Y-123369048D01*
X227626704Y-123369048D02*
X227769561Y-123416667D01*
X227769561Y-123416667D02*
X227864800Y-123511905D01*
X227864800Y-123511905D02*
X227912419Y-123654762D01*
X227912419Y-123654762D02*
X227912419Y-123750000D01*
X227912419Y-122416667D02*
X227912419Y-122892857D01*
X227912419Y-122892857D02*
X226912419Y-122892857D01*
X227817180Y-121511905D02*
X227864800Y-121559524D01*
X227864800Y-121559524D02*
X227912419Y-121702381D01*
X227912419Y-121702381D02*
X227912419Y-121797619D01*
X227912419Y-121797619D02*
X227864800Y-121940476D01*
X227864800Y-121940476D02*
X227769561Y-122035714D01*
X227769561Y-122035714D02*
X227674323Y-122083333D01*
X227674323Y-122083333D02*
X227483847Y-122130952D01*
X227483847Y-122130952D02*
X227340990Y-122130952D01*
X227340990Y-122130952D02*
X227150514Y-122083333D01*
X227150514Y-122083333D02*
X227055276Y-122035714D01*
X227055276Y-122035714D02*
X226960038Y-121940476D01*
X226960038Y-121940476D02*
X226912419Y-121797619D01*
X226912419Y-121797619D02*
X226912419Y-121702381D01*
X226912419Y-121702381D02*
X226960038Y-121559524D01*
X226960038Y-121559524D02*
X227007657Y-121511905D01*
X226912419Y-120797619D02*
X227626704Y-120797619D01*
X227626704Y-120797619D02*
X227769561Y-120845238D01*
X227769561Y-120845238D02*
X227864800Y-120940476D01*
X227864800Y-120940476D02*
X227912419Y-121083333D01*
X227912419Y-121083333D02*
X227912419Y-121178571D01*
X227912419Y-119845238D02*
X227912419Y-120321428D01*
X227912419Y-120321428D02*
X226912419Y-120321428D01*
X227817180Y-118940476D02*
X227864800Y-118988095D01*
X227864800Y-118988095D02*
X227912419Y-119130952D01*
X227912419Y-119130952D02*
X227912419Y-119226190D01*
X227912419Y-119226190D02*
X227864800Y-119369047D01*
X227864800Y-119369047D02*
X227769561Y-119464285D01*
X227769561Y-119464285D02*
X227674323Y-119511904D01*
X227674323Y-119511904D02*
X227483847Y-119559523D01*
X227483847Y-119559523D02*
X227340990Y-119559523D01*
X227340990Y-119559523D02*
X227150514Y-119511904D01*
X227150514Y-119511904D02*
X227055276Y-119464285D01*
X227055276Y-119464285D02*
X226960038Y-119369047D01*
X226960038Y-119369047D02*
X226912419Y-119226190D01*
X226912419Y-119226190D02*
X226912419Y-119130952D01*
X226912419Y-119130952D02*
X226960038Y-118988095D01*
X226960038Y-118988095D02*
X227007657Y-118940476D01*
X226912419Y-118226190D02*
X227626704Y-118226190D01*
X227626704Y-118226190D02*
X227769561Y-118273809D01*
X227769561Y-118273809D02*
X227864800Y-118369047D01*
X227864800Y-118369047D02*
X227912419Y-118511904D01*
X227912419Y-118511904D02*
X227912419Y-118607142D01*
X227912419Y-117273809D02*
X227912419Y-117749999D01*
X227912419Y-117749999D02*
X226912419Y-117749999D01*
X227817180Y-116369047D02*
X227864800Y-116416666D01*
X227864800Y-116416666D02*
X227912419Y-116559523D01*
X227912419Y-116559523D02*
X227912419Y-116654761D01*
X227912419Y-116654761D02*
X227864800Y-116797618D01*
X227864800Y-116797618D02*
X227769561Y-116892856D01*
X227769561Y-116892856D02*
X227674323Y-116940475D01*
X227674323Y-116940475D02*
X227483847Y-116988094D01*
X227483847Y-116988094D02*
X227340990Y-116988094D01*
X227340990Y-116988094D02*
X227150514Y-116940475D01*
X227150514Y-116940475D02*
X227055276Y-116892856D01*
X227055276Y-116892856D02*
X226960038Y-116797618D01*
X226960038Y-116797618D02*
X226912419Y-116654761D01*
X226912419Y-116654761D02*
X226912419Y-116559523D01*
X226912419Y-116559523D02*
X226960038Y-116416666D01*
X226960038Y-116416666D02*
X227007657Y-116369047D01*
X226912419Y-115654761D02*
X227626704Y-115654761D01*
X227626704Y-115654761D02*
X227769561Y-115702380D01*
X227769561Y-115702380D02*
X227864800Y-115797618D01*
X227864800Y-115797618D02*
X227912419Y-115940475D01*
X227912419Y-115940475D02*
X227912419Y-116035713D01*
X227912419Y-114702380D02*
X227912419Y-115178570D01*
X227912419Y-115178570D02*
X226912419Y-115178570D01*
X227817180Y-113797618D02*
X227864800Y-113845237D01*
X227864800Y-113845237D02*
X227912419Y-113988094D01*
X227912419Y-113988094D02*
X227912419Y-114083332D01*
X227912419Y-114083332D02*
X227864800Y-114226189D01*
X227864800Y-114226189D02*
X227769561Y-114321427D01*
X227769561Y-114321427D02*
X227674323Y-114369046D01*
X227674323Y-114369046D02*
X227483847Y-114416665D01*
X227483847Y-114416665D02*
X227340990Y-114416665D01*
X227340990Y-114416665D02*
X227150514Y-114369046D01*
X227150514Y-114369046D02*
X227055276Y-114321427D01*
X227055276Y-114321427D02*
X226960038Y-114226189D01*
X226960038Y-114226189D02*
X226912419Y-114083332D01*
X226912419Y-114083332D02*
X226912419Y-113988094D01*
X226912419Y-113988094D02*
X226960038Y-113845237D01*
X226960038Y-113845237D02*
X227007657Y-113797618D01*
D11*
X208676667Y-90583200D02*
X208819524Y-90630819D01*
X208819524Y-90630819D02*
X209057619Y-90630819D01*
X209057619Y-90630819D02*
X209152857Y-90583200D01*
X209152857Y-90583200D02*
X209200476Y-90535580D01*
X209200476Y-90535580D02*
X209248095Y-90440342D01*
X209248095Y-90440342D02*
X209248095Y-90345104D01*
X209248095Y-90345104D02*
X209200476Y-90249866D01*
X209200476Y-90249866D02*
X209152857Y-90202247D01*
X209152857Y-90202247D02*
X209057619Y-90154628D01*
X209057619Y-90154628D02*
X208867143Y-90107009D01*
X208867143Y-90107009D02*
X208771905Y-90059390D01*
X208771905Y-90059390D02*
X208724286Y-90011771D01*
X208724286Y-90011771D02*
X208676667Y-89916533D01*
X208676667Y-89916533D02*
X208676667Y-89821295D01*
X208676667Y-89821295D02*
X208724286Y-89726057D01*
X208724286Y-89726057D02*
X208771905Y-89678438D01*
X208771905Y-89678438D02*
X208867143Y-89630819D01*
X208867143Y-89630819D02*
X209105238Y-89630819D01*
X209105238Y-89630819D02*
X209248095Y-89678438D01*
X209581429Y-89630819D02*
X209819524Y-90630819D01*
X209819524Y-90630819D02*
X210010000Y-89916533D01*
X210010000Y-89916533D02*
X210200476Y-90630819D01*
X210200476Y-90630819D02*
X210438572Y-89630819D01*
X210962381Y-90059390D02*
X210867143Y-90011771D01*
X210867143Y-90011771D02*
X210819524Y-89964152D01*
X210819524Y-89964152D02*
X210771905Y-89868914D01*
X210771905Y-89868914D02*
X210771905Y-89821295D01*
X210771905Y-89821295D02*
X210819524Y-89726057D01*
X210819524Y-89726057D02*
X210867143Y-89678438D01*
X210867143Y-89678438D02*
X210962381Y-89630819D01*
X210962381Y-89630819D02*
X211152857Y-89630819D01*
X211152857Y-89630819D02*
X211248095Y-89678438D01*
X211248095Y-89678438D02*
X211295714Y-89726057D01*
X211295714Y-89726057D02*
X211343333Y-89821295D01*
X211343333Y-89821295D02*
X211343333Y-89868914D01*
X211343333Y-89868914D02*
X211295714Y-89964152D01*
X211295714Y-89964152D02*
X211248095Y-90011771D01*
X211248095Y-90011771D02*
X211152857Y-90059390D01*
X211152857Y-90059390D02*
X210962381Y-90059390D01*
X210962381Y-90059390D02*
X210867143Y-90107009D01*
X210867143Y-90107009D02*
X210819524Y-90154628D01*
X210819524Y-90154628D02*
X210771905Y-90249866D01*
X210771905Y-90249866D02*
X210771905Y-90440342D01*
X210771905Y-90440342D02*
X210819524Y-90535580D01*
X210819524Y-90535580D02*
X210867143Y-90583200D01*
X210867143Y-90583200D02*
X210962381Y-90630819D01*
X210962381Y-90630819D02*
X211152857Y-90630819D01*
X211152857Y-90630819D02*
X211248095Y-90583200D01*
X211248095Y-90583200D02*
X211295714Y-90535580D01*
X211295714Y-90535580D02*
X211343333Y-90440342D01*
X211343333Y-90440342D02*
X211343333Y-90249866D01*
X211343333Y-90249866D02*
X211295714Y-90154628D01*
X211295714Y-90154628D02*
X211248095Y-90107009D01*
X211248095Y-90107009D02*
X211152857Y-90059390D01*
X137480476Y-76307200D02*
X137623333Y-76354819D01*
X137623333Y-76354819D02*
X137861428Y-76354819D01*
X137861428Y-76354819D02*
X137956666Y-76307200D01*
X137956666Y-76307200D02*
X138004285Y-76259580D01*
X138004285Y-76259580D02*
X138051904Y-76164342D01*
X138051904Y-76164342D02*
X138051904Y-76069104D01*
X138051904Y-76069104D02*
X138004285Y-75973866D01*
X138004285Y-75973866D02*
X137956666Y-75926247D01*
X137956666Y-75926247D02*
X137861428Y-75878628D01*
X137861428Y-75878628D02*
X137670952Y-75831009D01*
X137670952Y-75831009D02*
X137575714Y-75783390D01*
X137575714Y-75783390D02*
X137528095Y-75735771D01*
X137528095Y-75735771D02*
X137480476Y-75640533D01*
X137480476Y-75640533D02*
X137480476Y-75545295D01*
X137480476Y-75545295D02*
X137528095Y-75450057D01*
X137528095Y-75450057D02*
X137575714Y-75402438D01*
X137575714Y-75402438D02*
X137670952Y-75354819D01*
X137670952Y-75354819D02*
X137909047Y-75354819D01*
X137909047Y-75354819D02*
X138051904Y-75402438D01*
X138385238Y-75354819D02*
X138623333Y-76354819D01*
X138623333Y-76354819D02*
X138813809Y-75640533D01*
X138813809Y-75640533D02*
X139004285Y-76354819D01*
X139004285Y-76354819D02*
X139242381Y-75354819D01*
X140147142Y-76354819D02*
X139575714Y-76354819D01*
X139861428Y-76354819D02*
X139861428Y-75354819D01*
X139861428Y-75354819D02*
X139766190Y-75497676D01*
X139766190Y-75497676D02*
X139670952Y-75592914D01*
X139670952Y-75592914D02*
X139575714Y-75640533D01*
X141099523Y-76354819D02*
X140528095Y-76354819D01*
X140813809Y-76354819D02*
X140813809Y-75354819D01*
X140813809Y-75354819D02*
X140718571Y-75497676D01*
X140718571Y-75497676D02*
X140623333Y-75592914D01*
X140623333Y-75592914D02*
X140528095Y-75640533D01*
D14*
X148344704Y-77144109D02*
X148344704Y-77677442D01*
X147506609Y-77906014D02*
X147506609Y-77144109D01*
X147506609Y-77144109D02*
X149106609Y-77144109D01*
X149106609Y-77144109D02*
X149106609Y-77906014D01*
X147506609Y-78591728D02*
X149106609Y-78591728D01*
X149106609Y-78591728D02*
X147506609Y-79506014D01*
X147506609Y-79506014D02*
X149106609Y-79506014D01*
X147658990Y-81182204D02*
X147582800Y-81106013D01*
X147582800Y-81106013D02*
X147506609Y-80877442D01*
X147506609Y-80877442D02*
X147506609Y-80725061D01*
X147506609Y-80725061D02*
X147582800Y-80496489D01*
X147582800Y-80496489D02*
X147735180Y-80344108D01*
X147735180Y-80344108D02*
X147887561Y-80267918D01*
X147887561Y-80267918D02*
X148192323Y-80191727D01*
X148192323Y-80191727D02*
X148420895Y-80191727D01*
X148420895Y-80191727D02*
X148725657Y-80267918D01*
X148725657Y-80267918D02*
X148878038Y-80344108D01*
X148878038Y-80344108D02*
X149030419Y-80496489D01*
X149030419Y-80496489D02*
X149106609Y-80725061D01*
X149106609Y-80725061D02*
X149106609Y-80877442D01*
X149106609Y-80877442D02*
X149030419Y-81106013D01*
X149030419Y-81106013D02*
X148954228Y-81182204D01*
X149106609Y-82172680D02*
X149106609Y-82477442D01*
X149106609Y-82477442D02*
X149030419Y-82629823D01*
X149030419Y-82629823D02*
X148878038Y-82782204D01*
X148878038Y-82782204D02*
X148573276Y-82858394D01*
X148573276Y-82858394D02*
X148039942Y-82858394D01*
X148039942Y-82858394D02*
X147735180Y-82782204D01*
X147735180Y-82782204D02*
X147582800Y-82629823D01*
X147582800Y-82629823D02*
X147506609Y-82477442D01*
X147506609Y-82477442D02*
X147506609Y-82172680D01*
X147506609Y-82172680D02*
X147582800Y-82020299D01*
X147582800Y-82020299D02*
X147735180Y-81867918D01*
X147735180Y-81867918D02*
X148039942Y-81791727D01*
X148039942Y-81791727D02*
X148573276Y-81791727D01*
X148573276Y-81791727D02*
X148878038Y-81867918D01*
X148878038Y-81867918D02*
X149030419Y-82020299D01*
X149030419Y-82020299D02*
X149106609Y-82172680D01*
X147506609Y-83544108D02*
X149106609Y-83544108D01*
X149106609Y-83544108D02*
X149106609Y-83925060D01*
X149106609Y-83925060D02*
X149030419Y-84153632D01*
X149030419Y-84153632D02*
X148878038Y-84306013D01*
X148878038Y-84306013D02*
X148725657Y-84382203D01*
X148725657Y-84382203D02*
X148420895Y-84458394D01*
X148420895Y-84458394D02*
X148192323Y-84458394D01*
X148192323Y-84458394D02*
X147887561Y-84382203D01*
X147887561Y-84382203D02*
X147735180Y-84306013D01*
X147735180Y-84306013D02*
X147582800Y-84153632D01*
X147582800Y-84153632D02*
X147506609Y-83925060D01*
X147506609Y-83925060D02*
X147506609Y-83544108D01*
X148344704Y-85144108D02*
X148344704Y-85677441D01*
X147506609Y-85906013D02*
X147506609Y-85144108D01*
X147506609Y-85144108D02*
X149106609Y-85144108D01*
X149106609Y-85144108D02*
X149106609Y-85906013D01*
X147506609Y-87506013D02*
X148268514Y-86972679D01*
X147506609Y-86591727D02*
X149106609Y-86591727D01*
X149106609Y-86591727D02*
X149106609Y-87201251D01*
X149106609Y-87201251D02*
X149030419Y-87353632D01*
X149030419Y-87353632D02*
X148954228Y-87429822D01*
X148954228Y-87429822D02*
X148801847Y-87506013D01*
X148801847Y-87506013D02*
X148573276Y-87506013D01*
X148573276Y-87506013D02*
X148420895Y-87429822D01*
X148420895Y-87429822D02*
X148344704Y-87353632D01*
X148344704Y-87353632D02*
X148268514Y-87201251D01*
X148268514Y-87201251D02*
X148268514Y-86591727D01*
D13*
X134051905Y-80336704D02*
X134528095Y-80336704D01*
X133956667Y-80622419D02*
X134290000Y-79622419D01*
X134290000Y-79622419D02*
X134623333Y-80622419D01*
X134361428Y-85098609D02*
X134504285Y-85146228D01*
X134504285Y-85146228D02*
X134551904Y-85193847D01*
X134551904Y-85193847D02*
X134599523Y-85289085D01*
X134599523Y-85289085D02*
X134599523Y-85431942D01*
X134599523Y-85431942D02*
X134551904Y-85527180D01*
X134551904Y-85527180D02*
X134504285Y-85574800D01*
X134504285Y-85574800D02*
X134409047Y-85622419D01*
X134409047Y-85622419D02*
X134028095Y-85622419D01*
X134028095Y-85622419D02*
X134028095Y-84622419D01*
X134028095Y-84622419D02*
X134361428Y-84622419D01*
X134361428Y-84622419D02*
X134456666Y-84670038D01*
X134456666Y-84670038D02*
X134504285Y-84717657D01*
X134504285Y-84717657D02*
X134551904Y-84812895D01*
X134551904Y-84812895D02*
X134551904Y-84908133D01*
X134551904Y-84908133D02*
X134504285Y-85003371D01*
X134504285Y-85003371D02*
X134456666Y-85050990D01*
X134456666Y-85050990D02*
X134361428Y-85098609D01*
X134361428Y-85098609D02*
X134028095Y-85098609D01*
X151778095Y-80574800D02*
X151920952Y-80622419D01*
X151920952Y-80622419D02*
X152159047Y-80622419D01*
X152159047Y-80622419D02*
X152254285Y-80574800D01*
X152254285Y-80574800D02*
X152301904Y-80527180D01*
X152301904Y-80527180D02*
X152349523Y-80431942D01*
X152349523Y-80431942D02*
X152349523Y-80336704D01*
X152349523Y-80336704D02*
X152301904Y-80241466D01*
X152301904Y-80241466D02*
X152254285Y-80193847D01*
X152254285Y-80193847D02*
X152159047Y-80146228D01*
X152159047Y-80146228D02*
X151968571Y-80098609D01*
X151968571Y-80098609D02*
X151873333Y-80050990D01*
X151873333Y-80050990D02*
X151825714Y-80003371D01*
X151825714Y-80003371D02*
X151778095Y-79908133D01*
X151778095Y-79908133D02*
X151778095Y-79812895D01*
X151778095Y-79812895D02*
X151825714Y-79717657D01*
X151825714Y-79717657D02*
X151873333Y-79670038D01*
X151873333Y-79670038D02*
X151968571Y-79622419D01*
X151968571Y-79622419D02*
X152206666Y-79622419D01*
X152206666Y-79622419D02*
X152349523Y-79670038D01*
X152730476Y-79717657D02*
X152778095Y-79670038D01*
X152778095Y-79670038D02*
X152873333Y-79622419D01*
X152873333Y-79622419D02*
X153111428Y-79622419D01*
X153111428Y-79622419D02*
X153206666Y-79670038D01*
X153206666Y-79670038D02*
X153254285Y-79717657D01*
X153254285Y-79717657D02*
X153301904Y-79812895D01*
X153301904Y-79812895D02*
X153301904Y-79908133D01*
X153301904Y-79908133D02*
X153254285Y-80050990D01*
X153254285Y-80050990D02*
X152682857Y-80622419D01*
X152682857Y-80622419D02*
X153301904Y-80622419D01*
X134599523Y-83027180D02*
X134551904Y-83074800D01*
X134551904Y-83074800D02*
X134409047Y-83122419D01*
X134409047Y-83122419D02*
X134313809Y-83122419D01*
X134313809Y-83122419D02*
X134170952Y-83074800D01*
X134170952Y-83074800D02*
X134075714Y-82979561D01*
X134075714Y-82979561D02*
X134028095Y-82884323D01*
X134028095Y-82884323D02*
X133980476Y-82693847D01*
X133980476Y-82693847D02*
X133980476Y-82550990D01*
X133980476Y-82550990D02*
X134028095Y-82360514D01*
X134028095Y-82360514D02*
X134075714Y-82265276D01*
X134075714Y-82265276D02*
X134170952Y-82170038D01*
X134170952Y-82170038D02*
X134313809Y-82122419D01*
X134313809Y-82122419D02*
X134409047Y-82122419D01*
X134409047Y-82122419D02*
X134551904Y-82170038D01*
X134551904Y-82170038D02*
X134599523Y-82217657D01*
X151778095Y-85574800D02*
X151920952Y-85622419D01*
X151920952Y-85622419D02*
X152159047Y-85622419D01*
X152159047Y-85622419D02*
X152254285Y-85574800D01*
X152254285Y-85574800D02*
X152301904Y-85527180D01*
X152301904Y-85527180D02*
X152349523Y-85431942D01*
X152349523Y-85431942D02*
X152349523Y-85336704D01*
X152349523Y-85336704D02*
X152301904Y-85241466D01*
X152301904Y-85241466D02*
X152254285Y-85193847D01*
X152254285Y-85193847D02*
X152159047Y-85146228D01*
X152159047Y-85146228D02*
X151968571Y-85098609D01*
X151968571Y-85098609D02*
X151873333Y-85050990D01*
X151873333Y-85050990D02*
X151825714Y-85003371D01*
X151825714Y-85003371D02*
X151778095Y-84908133D01*
X151778095Y-84908133D02*
X151778095Y-84812895D01*
X151778095Y-84812895D02*
X151825714Y-84717657D01*
X151825714Y-84717657D02*
X151873333Y-84670038D01*
X151873333Y-84670038D02*
X151968571Y-84622419D01*
X151968571Y-84622419D02*
X152206666Y-84622419D01*
X152206666Y-84622419D02*
X152349523Y-84670038D01*
X153301904Y-85622419D02*
X152730476Y-85622419D01*
X153016190Y-85622419D02*
X153016190Y-84622419D01*
X153016190Y-84622419D02*
X152920952Y-84765276D01*
X152920952Y-84765276D02*
X152825714Y-84860514D01*
X152825714Y-84860514D02*
X152730476Y-84908133D01*
D14*
X139573390Y-86941604D02*
X138811485Y-87474938D01*
X139573390Y-87855890D02*
X137973390Y-87855890D01*
X137973390Y-87855890D02*
X137973390Y-87246366D01*
X137973390Y-87246366D02*
X138049580Y-87093985D01*
X138049580Y-87093985D02*
X138125771Y-87017795D01*
X138125771Y-87017795D02*
X138278152Y-86941604D01*
X138278152Y-86941604D02*
X138506723Y-86941604D01*
X138506723Y-86941604D02*
X138659104Y-87017795D01*
X138659104Y-87017795D02*
X138735295Y-87093985D01*
X138735295Y-87093985D02*
X138811485Y-87246366D01*
X138811485Y-87246366D02*
X138811485Y-87855890D01*
X137973390Y-85951128D02*
X137973390Y-85646366D01*
X137973390Y-85646366D02*
X138049580Y-85493985D01*
X138049580Y-85493985D02*
X138201961Y-85341604D01*
X138201961Y-85341604D02*
X138506723Y-85265414D01*
X138506723Y-85265414D02*
X139040057Y-85265414D01*
X139040057Y-85265414D02*
X139344819Y-85341604D01*
X139344819Y-85341604D02*
X139497200Y-85493985D01*
X139497200Y-85493985D02*
X139573390Y-85646366D01*
X139573390Y-85646366D02*
X139573390Y-85951128D01*
X139573390Y-85951128D02*
X139497200Y-86103509D01*
X139497200Y-86103509D02*
X139344819Y-86255890D01*
X139344819Y-86255890D02*
X139040057Y-86332081D01*
X139040057Y-86332081D02*
X138506723Y-86332081D01*
X138506723Y-86332081D02*
X138201961Y-86255890D01*
X138201961Y-86255890D02*
X138049580Y-86103509D01*
X138049580Y-86103509D02*
X137973390Y-85951128D01*
X137973390Y-84808272D02*
X137973390Y-83893986D01*
X139573390Y-84351129D02*
X137973390Y-84351129D01*
X139116247Y-83436843D02*
X139116247Y-82674938D01*
X139573390Y-83589224D02*
X137973390Y-83055890D01*
X137973390Y-83055890D02*
X139573390Y-82522557D01*
X139573390Y-81074937D02*
X138811485Y-81608271D01*
X139573390Y-81989223D02*
X137973390Y-81989223D01*
X137973390Y-81989223D02*
X137973390Y-81379699D01*
X137973390Y-81379699D02*
X138049580Y-81227318D01*
X138049580Y-81227318D02*
X138125771Y-81151128D01*
X138125771Y-81151128D02*
X138278152Y-81074937D01*
X138278152Y-81074937D02*
X138506723Y-81074937D01*
X138506723Y-81074937D02*
X138659104Y-81151128D01*
X138659104Y-81151128D02*
X138735295Y-81227318D01*
X138735295Y-81227318D02*
X138811485Y-81379699D01*
X138811485Y-81379699D02*
X138811485Y-81989223D01*
X138811485Y-80084461D02*
X139573390Y-80084461D01*
X137973390Y-80617795D02*
X138811485Y-80084461D01*
X138811485Y-80084461D02*
X137973390Y-79551128D01*
D11*
X189626667Y-71533200D02*
X189769524Y-71580819D01*
X189769524Y-71580819D02*
X190007619Y-71580819D01*
X190007619Y-71580819D02*
X190102857Y-71533200D01*
X190102857Y-71533200D02*
X190150476Y-71485580D01*
X190150476Y-71485580D02*
X190198095Y-71390342D01*
X190198095Y-71390342D02*
X190198095Y-71295104D01*
X190198095Y-71295104D02*
X190150476Y-71199866D01*
X190150476Y-71199866D02*
X190102857Y-71152247D01*
X190102857Y-71152247D02*
X190007619Y-71104628D01*
X190007619Y-71104628D02*
X189817143Y-71057009D01*
X189817143Y-71057009D02*
X189721905Y-71009390D01*
X189721905Y-71009390D02*
X189674286Y-70961771D01*
X189674286Y-70961771D02*
X189626667Y-70866533D01*
X189626667Y-70866533D02*
X189626667Y-70771295D01*
X189626667Y-70771295D02*
X189674286Y-70676057D01*
X189674286Y-70676057D02*
X189721905Y-70628438D01*
X189721905Y-70628438D02*
X189817143Y-70580819D01*
X189817143Y-70580819D02*
X190055238Y-70580819D01*
X190055238Y-70580819D02*
X190198095Y-70628438D01*
X190531429Y-70580819D02*
X190769524Y-71580819D01*
X190769524Y-71580819D02*
X190960000Y-70866533D01*
X190960000Y-70866533D02*
X191150476Y-71580819D01*
X191150476Y-71580819D02*
X191388572Y-70580819D01*
X192198095Y-70914152D02*
X192198095Y-71580819D01*
X191960000Y-70533200D02*
X191721905Y-71247485D01*
X191721905Y-71247485D02*
X192340952Y-71247485D01*
X170576667Y-90583200D02*
X170719524Y-90630819D01*
X170719524Y-90630819D02*
X170957619Y-90630819D01*
X170957619Y-90630819D02*
X171052857Y-90583200D01*
X171052857Y-90583200D02*
X171100476Y-90535580D01*
X171100476Y-90535580D02*
X171148095Y-90440342D01*
X171148095Y-90440342D02*
X171148095Y-90345104D01*
X171148095Y-90345104D02*
X171100476Y-90249866D01*
X171100476Y-90249866D02*
X171052857Y-90202247D01*
X171052857Y-90202247D02*
X170957619Y-90154628D01*
X170957619Y-90154628D02*
X170767143Y-90107009D01*
X170767143Y-90107009D02*
X170671905Y-90059390D01*
X170671905Y-90059390D02*
X170624286Y-90011771D01*
X170624286Y-90011771D02*
X170576667Y-89916533D01*
X170576667Y-89916533D02*
X170576667Y-89821295D01*
X170576667Y-89821295D02*
X170624286Y-89726057D01*
X170624286Y-89726057D02*
X170671905Y-89678438D01*
X170671905Y-89678438D02*
X170767143Y-89630819D01*
X170767143Y-89630819D02*
X171005238Y-89630819D01*
X171005238Y-89630819D02*
X171148095Y-89678438D01*
X171481429Y-89630819D02*
X171719524Y-90630819D01*
X171719524Y-90630819D02*
X171910000Y-89916533D01*
X171910000Y-89916533D02*
X172100476Y-90630819D01*
X172100476Y-90630819D02*
X172338572Y-89630819D01*
X172671905Y-89726057D02*
X172719524Y-89678438D01*
X172719524Y-89678438D02*
X172814762Y-89630819D01*
X172814762Y-89630819D02*
X173052857Y-89630819D01*
X173052857Y-89630819D02*
X173148095Y-89678438D01*
X173148095Y-89678438D02*
X173195714Y-89726057D01*
X173195714Y-89726057D02*
X173243333Y-89821295D01*
X173243333Y-89821295D02*
X173243333Y-89916533D01*
X173243333Y-89916533D02*
X173195714Y-90059390D01*
X173195714Y-90059390D02*
X172624286Y-90630819D01*
X172624286Y-90630819D02*
X173243333Y-90630819D01*
X137480476Y-95307200D02*
X137623333Y-95354819D01*
X137623333Y-95354819D02*
X137861428Y-95354819D01*
X137861428Y-95354819D02*
X137956666Y-95307200D01*
X137956666Y-95307200D02*
X138004285Y-95259580D01*
X138004285Y-95259580D02*
X138051904Y-95164342D01*
X138051904Y-95164342D02*
X138051904Y-95069104D01*
X138051904Y-95069104D02*
X138004285Y-94973866D01*
X138004285Y-94973866D02*
X137956666Y-94926247D01*
X137956666Y-94926247D02*
X137861428Y-94878628D01*
X137861428Y-94878628D02*
X137670952Y-94831009D01*
X137670952Y-94831009D02*
X137575714Y-94783390D01*
X137575714Y-94783390D02*
X137528095Y-94735771D01*
X137528095Y-94735771D02*
X137480476Y-94640533D01*
X137480476Y-94640533D02*
X137480476Y-94545295D01*
X137480476Y-94545295D02*
X137528095Y-94450057D01*
X137528095Y-94450057D02*
X137575714Y-94402438D01*
X137575714Y-94402438D02*
X137670952Y-94354819D01*
X137670952Y-94354819D02*
X137909047Y-94354819D01*
X137909047Y-94354819D02*
X138051904Y-94402438D01*
X138385238Y-94354819D02*
X138623333Y-95354819D01*
X138623333Y-95354819D02*
X138813809Y-94640533D01*
X138813809Y-94640533D02*
X139004285Y-95354819D01*
X139004285Y-95354819D02*
X139242381Y-94354819D01*
X140147142Y-95354819D02*
X139575714Y-95354819D01*
X139861428Y-95354819D02*
X139861428Y-94354819D01*
X139861428Y-94354819D02*
X139766190Y-94497676D01*
X139766190Y-94497676D02*
X139670952Y-94592914D01*
X139670952Y-94592914D02*
X139575714Y-94640533D01*
X140766190Y-94354819D02*
X140861428Y-94354819D01*
X140861428Y-94354819D02*
X140956666Y-94402438D01*
X140956666Y-94402438D02*
X141004285Y-94450057D01*
X141004285Y-94450057D02*
X141051904Y-94545295D01*
X141051904Y-94545295D02*
X141099523Y-94735771D01*
X141099523Y-94735771D02*
X141099523Y-94973866D01*
X141099523Y-94973866D02*
X141051904Y-95164342D01*
X141051904Y-95164342D02*
X141004285Y-95259580D01*
X141004285Y-95259580D02*
X140956666Y-95307200D01*
X140956666Y-95307200D02*
X140861428Y-95354819D01*
X140861428Y-95354819D02*
X140766190Y-95354819D01*
X140766190Y-95354819D02*
X140670952Y-95307200D01*
X140670952Y-95307200D02*
X140623333Y-95259580D01*
X140623333Y-95259580D02*
X140575714Y-95164342D01*
X140575714Y-95164342D02*
X140528095Y-94973866D01*
X140528095Y-94973866D02*
X140528095Y-94735771D01*
X140528095Y-94735771D02*
X140575714Y-94545295D01*
X140575714Y-94545295D02*
X140623333Y-94450057D01*
X140623333Y-94450057D02*
X140670952Y-94402438D01*
X140670952Y-94402438D02*
X140766190Y-94354819D01*
D13*
X151778095Y-104574800D02*
X151920952Y-104622419D01*
X151920952Y-104622419D02*
X152159047Y-104622419D01*
X152159047Y-104622419D02*
X152254285Y-104574800D01*
X152254285Y-104574800D02*
X152301904Y-104527180D01*
X152301904Y-104527180D02*
X152349523Y-104431942D01*
X152349523Y-104431942D02*
X152349523Y-104336704D01*
X152349523Y-104336704D02*
X152301904Y-104241466D01*
X152301904Y-104241466D02*
X152254285Y-104193847D01*
X152254285Y-104193847D02*
X152159047Y-104146228D01*
X152159047Y-104146228D02*
X151968571Y-104098609D01*
X151968571Y-104098609D02*
X151873333Y-104050990D01*
X151873333Y-104050990D02*
X151825714Y-104003371D01*
X151825714Y-104003371D02*
X151778095Y-103908133D01*
X151778095Y-103908133D02*
X151778095Y-103812895D01*
X151778095Y-103812895D02*
X151825714Y-103717657D01*
X151825714Y-103717657D02*
X151873333Y-103670038D01*
X151873333Y-103670038D02*
X151968571Y-103622419D01*
X151968571Y-103622419D02*
X152206666Y-103622419D01*
X152206666Y-103622419D02*
X152349523Y-103670038D01*
X153301904Y-104622419D02*
X152730476Y-104622419D01*
X153016190Y-104622419D02*
X153016190Y-103622419D01*
X153016190Y-103622419D02*
X152920952Y-103765276D01*
X152920952Y-103765276D02*
X152825714Y-103860514D01*
X152825714Y-103860514D02*
X152730476Y-103908133D01*
X134599523Y-102027180D02*
X134551904Y-102074800D01*
X134551904Y-102074800D02*
X134409047Y-102122419D01*
X134409047Y-102122419D02*
X134313809Y-102122419D01*
X134313809Y-102122419D02*
X134170952Y-102074800D01*
X134170952Y-102074800D02*
X134075714Y-101979561D01*
X134075714Y-101979561D02*
X134028095Y-101884323D01*
X134028095Y-101884323D02*
X133980476Y-101693847D01*
X133980476Y-101693847D02*
X133980476Y-101550990D01*
X133980476Y-101550990D02*
X134028095Y-101360514D01*
X134028095Y-101360514D02*
X134075714Y-101265276D01*
X134075714Y-101265276D02*
X134170952Y-101170038D01*
X134170952Y-101170038D02*
X134313809Y-101122419D01*
X134313809Y-101122419D02*
X134409047Y-101122419D01*
X134409047Y-101122419D02*
X134551904Y-101170038D01*
X134551904Y-101170038D02*
X134599523Y-101217657D01*
X134051905Y-99336704D02*
X134528095Y-99336704D01*
X133956667Y-99622419D02*
X134290000Y-98622419D01*
X134290000Y-98622419D02*
X134623333Y-99622419D01*
X134361428Y-104098609D02*
X134504285Y-104146228D01*
X134504285Y-104146228D02*
X134551904Y-104193847D01*
X134551904Y-104193847D02*
X134599523Y-104289085D01*
X134599523Y-104289085D02*
X134599523Y-104431942D01*
X134599523Y-104431942D02*
X134551904Y-104527180D01*
X134551904Y-104527180D02*
X134504285Y-104574800D01*
X134504285Y-104574800D02*
X134409047Y-104622419D01*
X134409047Y-104622419D02*
X134028095Y-104622419D01*
X134028095Y-104622419D02*
X134028095Y-103622419D01*
X134028095Y-103622419D02*
X134361428Y-103622419D01*
X134361428Y-103622419D02*
X134456666Y-103670038D01*
X134456666Y-103670038D02*
X134504285Y-103717657D01*
X134504285Y-103717657D02*
X134551904Y-103812895D01*
X134551904Y-103812895D02*
X134551904Y-103908133D01*
X134551904Y-103908133D02*
X134504285Y-104003371D01*
X134504285Y-104003371D02*
X134456666Y-104050990D01*
X134456666Y-104050990D02*
X134361428Y-104098609D01*
X134361428Y-104098609D02*
X134028095Y-104098609D01*
X151778095Y-99574800D02*
X151920952Y-99622419D01*
X151920952Y-99622419D02*
X152159047Y-99622419D01*
X152159047Y-99622419D02*
X152254285Y-99574800D01*
X152254285Y-99574800D02*
X152301904Y-99527180D01*
X152301904Y-99527180D02*
X152349523Y-99431942D01*
X152349523Y-99431942D02*
X152349523Y-99336704D01*
X152349523Y-99336704D02*
X152301904Y-99241466D01*
X152301904Y-99241466D02*
X152254285Y-99193847D01*
X152254285Y-99193847D02*
X152159047Y-99146228D01*
X152159047Y-99146228D02*
X151968571Y-99098609D01*
X151968571Y-99098609D02*
X151873333Y-99050990D01*
X151873333Y-99050990D02*
X151825714Y-99003371D01*
X151825714Y-99003371D02*
X151778095Y-98908133D01*
X151778095Y-98908133D02*
X151778095Y-98812895D01*
X151778095Y-98812895D02*
X151825714Y-98717657D01*
X151825714Y-98717657D02*
X151873333Y-98670038D01*
X151873333Y-98670038D02*
X151968571Y-98622419D01*
X151968571Y-98622419D02*
X152206666Y-98622419D01*
X152206666Y-98622419D02*
X152349523Y-98670038D01*
X152730476Y-98717657D02*
X152778095Y-98670038D01*
X152778095Y-98670038D02*
X152873333Y-98622419D01*
X152873333Y-98622419D02*
X153111428Y-98622419D01*
X153111428Y-98622419D02*
X153206666Y-98670038D01*
X153206666Y-98670038D02*
X153254285Y-98717657D01*
X153254285Y-98717657D02*
X153301904Y-98812895D01*
X153301904Y-98812895D02*
X153301904Y-98908133D01*
X153301904Y-98908133D02*
X153254285Y-99050990D01*
X153254285Y-99050990D02*
X152682857Y-99622419D01*
X152682857Y-99622419D02*
X153301904Y-99622419D01*
D14*
X139573390Y-105941604D02*
X138811485Y-106474938D01*
X139573390Y-106855890D02*
X137973390Y-106855890D01*
X137973390Y-106855890D02*
X137973390Y-106246366D01*
X137973390Y-106246366D02*
X138049580Y-106093985D01*
X138049580Y-106093985D02*
X138125771Y-106017795D01*
X138125771Y-106017795D02*
X138278152Y-105941604D01*
X138278152Y-105941604D02*
X138506723Y-105941604D01*
X138506723Y-105941604D02*
X138659104Y-106017795D01*
X138659104Y-106017795D02*
X138735295Y-106093985D01*
X138735295Y-106093985D02*
X138811485Y-106246366D01*
X138811485Y-106246366D02*
X138811485Y-106855890D01*
X137973390Y-104951128D02*
X137973390Y-104646366D01*
X137973390Y-104646366D02*
X138049580Y-104493985D01*
X138049580Y-104493985D02*
X138201961Y-104341604D01*
X138201961Y-104341604D02*
X138506723Y-104265414D01*
X138506723Y-104265414D02*
X139040057Y-104265414D01*
X139040057Y-104265414D02*
X139344819Y-104341604D01*
X139344819Y-104341604D02*
X139497200Y-104493985D01*
X139497200Y-104493985D02*
X139573390Y-104646366D01*
X139573390Y-104646366D02*
X139573390Y-104951128D01*
X139573390Y-104951128D02*
X139497200Y-105103509D01*
X139497200Y-105103509D02*
X139344819Y-105255890D01*
X139344819Y-105255890D02*
X139040057Y-105332081D01*
X139040057Y-105332081D02*
X138506723Y-105332081D01*
X138506723Y-105332081D02*
X138201961Y-105255890D01*
X138201961Y-105255890D02*
X138049580Y-105103509D01*
X138049580Y-105103509D02*
X137973390Y-104951128D01*
X137973390Y-103808272D02*
X137973390Y-102893986D01*
X139573390Y-103351129D02*
X137973390Y-103351129D01*
X139116247Y-102436843D02*
X139116247Y-101674938D01*
X139573390Y-102589224D02*
X137973390Y-102055890D01*
X137973390Y-102055890D02*
X139573390Y-101522557D01*
X139573390Y-100074937D02*
X138811485Y-100608271D01*
X139573390Y-100989223D02*
X137973390Y-100989223D01*
X137973390Y-100989223D02*
X137973390Y-100379699D01*
X137973390Y-100379699D02*
X138049580Y-100227318D01*
X138049580Y-100227318D02*
X138125771Y-100151128D01*
X138125771Y-100151128D02*
X138278152Y-100074937D01*
X138278152Y-100074937D02*
X138506723Y-100074937D01*
X138506723Y-100074937D02*
X138659104Y-100151128D01*
X138659104Y-100151128D02*
X138735295Y-100227318D01*
X138735295Y-100227318D02*
X138811485Y-100379699D01*
X138811485Y-100379699D02*
X138811485Y-100989223D01*
X138811485Y-99084461D02*
X139573390Y-99084461D01*
X137973390Y-99617795D02*
X138811485Y-99084461D01*
X138811485Y-99084461D02*
X137973390Y-98551128D01*
X148344704Y-96144109D02*
X148344704Y-96677442D01*
X147506609Y-96906014D02*
X147506609Y-96144109D01*
X147506609Y-96144109D02*
X149106609Y-96144109D01*
X149106609Y-96144109D02*
X149106609Y-96906014D01*
X147506609Y-97591728D02*
X149106609Y-97591728D01*
X149106609Y-97591728D02*
X147506609Y-98506014D01*
X147506609Y-98506014D02*
X149106609Y-98506014D01*
X147658990Y-100182204D02*
X147582800Y-100106013D01*
X147582800Y-100106013D02*
X147506609Y-99877442D01*
X147506609Y-99877442D02*
X147506609Y-99725061D01*
X147506609Y-99725061D02*
X147582800Y-99496489D01*
X147582800Y-99496489D02*
X147735180Y-99344108D01*
X147735180Y-99344108D02*
X147887561Y-99267918D01*
X147887561Y-99267918D02*
X148192323Y-99191727D01*
X148192323Y-99191727D02*
X148420895Y-99191727D01*
X148420895Y-99191727D02*
X148725657Y-99267918D01*
X148725657Y-99267918D02*
X148878038Y-99344108D01*
X148878038Y-99344108D02*
X149030419Y-99496489D01*
X149030419Y-99496489D02*
X149106609Y-99725061D01*
X149106609Y-99725061D02*
X149106609Y-99877442D01*
X149106609Y-99877442D02*
X149030419Y-100106013D01*
X149030419Y-100106013D02*
X148954228Y-100182204D01*
X149106609Y-101172680D02*
X149106609Y-101477442D01*
X149106609Y-101477442D02*
X149030419Y-101629823D01*
X149030419Y-101629823D02*
X148878038Y-101782204D01*
X148878038Y-101782204D02*
X148573276Y-101858394D01*
X148573276Y-101858394D02*
X148039942Y-101858394D01*
X148039942Y-101858394D02*
X147735180Y-101782204D01*
X147735180Y-101782204D02*
X147582800Y-101629823D01*
X147582800Y-101629823D02*
X147506609Y-101477442D01*
X147506609Y-101477442D02*
X147506609Y-101172680D01*
X147506609Y-101172680D02*
X147582800Y-101020299D01*
X147582800Y-101020299D02*
X147735180Y-100867918D01*
X147735180Y-100867918D02*
X148039942Y-100791727D01*
X148039942Y-100791727D02*
X148573276Y-100791727D01*
X148573276Y-100791727D02*
X148878038Y-100867918D01*
X148878038Y-100867918D02*
X149030419Y-101020299D01*
X149030419Y-101020299D02*
X149106609Y-101172680D01*
X147506609Y-102544108D02*
X149106609Y-102544108D01*
X149106609Y-102544108D02*
X149106609Y-102925060D01*
X149106609Y-102925060D02*
X149030419Y-103153632D01*
X149030419Y-103153632D02*
X148878038Y-103306013D01*
X148878038Y-103306013D02*
X148725657Y-103382203D01*
X148725657Y-103382203D02*
X148420895Y-103458394D01*
X148420895Y-103458394D02*
X148192323Y-103458394D01*
X148192323Y-103458394D02*
X147887561Y-103382203D01*
X147887561Y-103382203D02*
X147735180Y-103306013D01*
X147735180Y-103306013D02*
X147582800Y-103153632D01*
X147582800Y-103153632D02*
X147506609Y-102925060D01*
X147506609Y-102925060D02*
X147506609Y-102544108D01*
X148344704Y-104144108D02*
X148344704Y-104677441D01*
X147506609Y-104906013D02*
X147506609Y-104144108D01*
X147506609Y-104144108D02*
X149106609Y-104144108D01*
X149106609Y-104144108D02*
X149106609Y-104906013D01*
X147506609Y-106506013D02*
X148268514Y-105972679D01*
X147506609Y-105591727D02*
X149106609Y-105591727D01*
X149106609Y-105591727D02*
X149106609Y-106201251D01*
X149106609Y-106201251D02*
X149030419Y-106353632D01*
X149030419Y-106353632D02*
X148954228Y-106429822D01*
X148954228Y-106429822D02*
X148801847Y-106506013D01*
X148801847Y-106506013D02*
X148573276Y-106506013D01*
X148573276Y-106506013D02*
X148420895Y-106429822D01*
X148420895Y-106429822D02*
X148344704Y-106353632D01*
X148344704Y-106353632D02*
X148268514Y-106201251D01*
X148268514Y-106201251D02*
X148268514Y-105591727D01*
D11*
X189626667Y-90583200D02*
X189769524Y-90630819D01*
X189769524Y-90630819D02*
X190007619Y-90630819D01*
X190007619Y-90630819D02*
X190102857Y-90583200D01*
X190102857Y-90583200D02*
X190150476Y-90535580D01*
X190150476Y-90535580D02*
X190198095Y-90440342D01*
X190198095Y-90440342D02*
X190198095Y-90345104D01*
X190198095Y-90345104D02*
X190150476Y-90249866D01*
X190150476Y-90249866D02*
X190102857Y-90202247D01*
X190102857Y-90202247D02*
X190007619Y-90154628D01*
X190007619Y-90154628D02*
X189817143Y-90107009D01*
X189817143Y-90107009D02*
X189721905Y-90059390D01*
X189721905Y-90059390D02*
X189674286Y-90011771D01*
X189674286Y-90011771D02*
X189626667Y-89916533D01*
X189626667Y-89916533D02*
X189626667Y-89821295D01*
X189626667Y-89821295D02*
X189674286Y-89726057D01*
X189674286Y-89726057D02*
X189721905Y-89678438D01*
X189721905Y-89678438D02*
X189817143Y-89630819D01*
X189817143Y-89630819D02*
X190055238Y-89630819D01*
X190055238Y-89630819D02*
X190198095Y-89678438D01*
X190531429Y-89630819D02*
X190769524Y-90630819D01*
X190769524Y-90630819D02*
X190960000Y-89916533D01*
X190960000Y-89916533D02*
X191150476Y-90630819D01*
X191150476Y-90630819D02*
X191388572Y-89630819D01*
X192245714Y-89630819D02*
X191769524Y-89630819D01*
X191769524Y-89630819D02*
X191721905Y-90107009D01*
X191721905Y-90107009D02*
X191769524Y-90059390D01*
X191769524Y-90059390D02*
X191864762Y-90011771D01*
X191864762Y-90011771D02*
X192102857Y-90011771D01*
X192102857Y-90011771D02*
X192198095Y-90059390D01*
X192198095Y-90059390D02*
X192245714Y-90107009D01*
X192245714Y-90107009D02*
X192293333Y-90202247D01*
X192293333Y-90202247D02*
X192293333Y-90440342D01*
X192293333Y-90440342D02*
X192245714Y-90535580D01*
X192245714Y-90535580D02*
X192198095Y-90583200D01*
X192198095Y-90583200D02*
X192102857Y-90630819D01*
X192102857Y-90630819D02*
X191864762Y-90630819D01*
X191864762Y-90630819D02*
X191769524Y-90583200D01*
X191769524Y-90583200D02*
X191721905Y-90535580D01*
X174081602Y-57180777D02*
X174081602Y-57895062D01*
X174081602Y-57895062D02*
X174033983Y-58037919D01*
X174033983Y-58037919D02*
X173938745Y-58133158D01*
X173938745Y-58133158D02*
X173795888Y-58180777D01*
X173795888Y-58180777D02*
X173700650Y-58180777D01*
X175081602Y-58180777D02*
X174510174Y-58180777D01*
X174795888Y-58180777D02*
X174795888Y-57180777D01*
X174795888Y-57180777D02*
X174700650Y-57323634D01*
X174700650Y-57323634D02*
X174605412Y-57418872D01*
X174605412Y-57418872D02*
X174510174Y-57466491D01*
D16*
X138472266Y-48779386D02*
X137615123Y-48779386D01*
X138043694Y-48779386D02*
X138043694Y-47279386D01*
X138043694Y-47279386D02*
X137900837Y-47493672D01*
X137900837Y-47493672D02*
X137757980Y-47636529D01*
X137757980Y-47636529D02*
X137615123Y-47707958D01*
X139043694Y-47422243D02*
X139115122Y-47350815D01*
X139115122Y-47350815D02*
X139257980Y-47279386D01*
X139257980Y-47279386D02*
X139615122Y-47279386D01*
X139615122Y-47279386D02*
X139757980Y-47350815D01*
X139757980Y-47350815D02*
X139829408Y-47422243D01*
X139829408Y-47422243D02*
X139900837Y-47565100D01*
X139900837Y-47565100D02*
X139900837Y-47707958D01*
X139900837Y-47707958D02*
X139829408Y-47922243D01*
X139829408Y-47922243D02*
X138972265Y-48779386D01*
X138972265Y-48779386D02*
X139900837Y-48779386D01*
X140757979Y-47922243D02*
X140615122Y-47850815D01*
X140615122Y-47850815D02*
X140543693Y-47779386D01*
X140543693Y-47779386D02*
X140472265Y-47636529D01*
X140472265Y-47636529D02*
X140472265Y-47565100D01*
X140472265Y-47565100D02*
X140543693Y-47422243D01*
X140543693Y-47422243D02*
X140615122Y-47350815D01*
X140615122Y-47350815D02*
X140757979Y-47279386D01*
X140757979Y-47279386D02*
X141043693Y-47279386D01*
X141043693Y-47279386D02*
X141186551Y-47350815D01*
X141186551Y-47350815D02*
X141257979Y-47422243D01*
X141257979Y-47422243D02*
X141329408Y-47565100D01*
X141329408Y-47565100D02*
X141329408Y-47636529D01*
X141329408Y-47636529D02*
X141257979Y-47779386D01*
X141257979Y-47779386D02*
X141186551Y-47850815D01*
X141186551Y-47850815D02*
X141043693Y-47922243D01*
X141043693Y-47922243D02*
X140757979Y-47922243D01*
X140757979Y-47922243D02*
X140615122Y-47993672D01*
X140615122Y-47993672D02*
X140543693Y-48065100D01*
X140543693Y-48065100D02*
X140472265Y-48207958D01*
X140472265Y-48207958D02*
X140472265Y-48493672D01*
X140472265Y-48493672D02*
X140543693Y-48636529D01*
X140543693Y-48636529D02*
X140615122Y-48707958D01*
X140615122Y-48707958D02*
X140757979Y-48779386D01*
X140757979Y-48779386D02*
X141043693Y-48779386D01*
X141043693Y-48779386D02*
X141186551Y-48707958D01*
X141186551Y-48707958D02*
X141257979Y-48636529D01*
X141257979Y-48636529D02*
X141329408Y-48493672D01*
X141329408Y-48493672D02*
X141329408Y-48207958D01*
X141329408Y-48207958D02*
X141257979Y-48065100D01*
X141257979Y-48065100D02*
X141186551Y-47993672D01*
X141186551Y-47993672D02*
X141043693Y-47922243D01*
X141829407Y-48779386D02*
X142615122Y-47779386D01*
X141829407Y-47779386D02*
X142615122Y-48779386D01*
X143043693Y-47279386D02*
X143972265Y-47279386D01*
X143972265Y-47279386D02*
X143472265Y-47850815D01*
X143472265Y-47850815D02*
X143686550Y-47850815D01*
X143686550Y-47850815D02*
X143829408Y-47922243D01*
X143829408Y-47922243D02*
X143900836Y-47993672D01*
X143900836Y-47993672D02*
X143972265Y-48136529D01*
X143972265Y-48136529D02*
X143972265Y-48493672D01*
X143972265Y-48493672D02*
X143900836Y-48636529D01*
X143900836Y-48636529D02*
X143829408Y-48707958D01*
X143829408Y-48707958D02*
X143686550Y-48779386D01*
X143686550Y-48779386D02*
X143257979Y-48779386D01*
X143257979Y-48779386D02*
X143115122Y-48707958D01*
X143115122Y-48707958D02*
X143043693Y-48636529D01*
X144543693Y-47422243D02*
X144615121Y-47350815D01*
X144615121Y-47350815D02*
X144757979Y-47279386D01*
X144757979Y-47279386D02*
X145115121Y-47279386D01*
X145115121Y-47279386D02*
X145257979Y-47350815D01*
X145257979Y-47350815D02*
X145329407Y-47422243D01*
X145329407Y-47422243D02*
X145400836Y-47565100D01*
X145400836Y-47565100D02*
X145400836Y-47707958D01*
X145400836Y-47707958D02*
X145329407Y-47922243D01*
X145329407Y-47922243D02*
X144472264Y-48779386D01*
X144472264Y-48779386D02*
X145400836Y-48779386D01*
X146043692Y-47779386D02*
X146043692Y-49279386D01*
X146043692Y-47850815D02*
X146186550Y-47779386D01*
X146186550Y-47779386D02*
X146472264Y-47779386D01*
X146472264Y-47779386D02*
X146615121Y-47850815D01*
X146615121Y-47850815D02*
X146686550Y-47922243D01*
X146686550Y-47922243D02*
X146757978Y-48065100D01*
X146757978Y-48065100D02*
X146757978Y-48493672D01*
X146757978Y-48493672D02*
X146686550Y-48636529D01*
X146686550Y-48636529D02*
X146615121Y-48707958D01*
X146615121Y-48707958D02*
X146472264Y-48779386D01*
X146472264Y-48779386D02*
X146186550Y-48779386D01*
X146186550Y-48779386D02*
X146043692Y-48707958D01*
X147257978Y-48779386D02*
X148043693Y-47779386D01*
X147257978Y-47779386D02*
X148043693Y-48779386D01*
X137615123Y-46707958D02*
X137829409Y-46779386D01*
X137829409Y-46779386D02*
X138186551Y-46779386D01*
X138186551Y-46779386D02*
X138329409Y-46707958D01*
X138329409Y-46707958D02*
X138400837Y-46636529D01*
X138400837Y-46636529D02*
X138472266Y-46493672D01*
X138472266Y-46493672D02*
X138472266Y-46350815D01*
X138472266Y-46350815D02*
X138400837Y-46207958D01*
X138400837Y-46207958D02*
X138329409Y-46136529D01*
X138329409Y-46136529D02*
X138186551Y-46065100D01*
X138186551Y-46065100D02*
X137900837Y-45993672D01*
X137900837Y-45993672D02*
X137757980Y-45922243D01*
X137757980Y-45922243D02*
X137686551Y-45850815D01*
X137686551Y-45850815D02*
X137615123Y-45707958D01*
X137615123Y-45707958D02*
X137615123Y-45565100D01*
X137615123Y-45565100D02*
X137686551Y-45422243D01*
X137686551Y-45422243D02*
X137757980Y-45350815D01*
X137757980Y-45350815D02*
X137900837Y-45279386D01*
X137900837Y-45279386D02*
X138257980Y-45279386D01*
X138257980Y-45279386D02*
X138472266Y-45350815D01*
X139043694Y-46707958D02*
X139257980Y-46779386D01*
X139257980Y-46779386D02*
X139615122Y-46779386D01*
X139615122Y-46779386D02*
X139757980Y-46707958D01*
X139757980Y-46707958D02*
X139829408Y-46636529D01*
X139829408Y-46636529D02*
X139900837Y-46493672D01*
X139900837Y-46493672D02*
X139900837Y-46350815D01*
X139900837Y-46350815D02*
X139829408Y-46207958D01*
X139829408Y-46207958D02*
X139757980Y-46136529D01*
X139757980Y-46136529D02*
X139615122Y-46065100D01*
X139615122Y-46065100D02*
X139329408Y-45993672D01*
X139329408Y-45993672D02*
X139186551Y-45922243D01*
X139186551Y-45922243D02*
X139115122Y-45850815D01*
X139115122Y-45850815D02*
X139043694Y-45707958D01*
X139043694Y-45707958D02*
X139043694Y-45565100D01*
X139043694Y-45565100D02*
X139115122Y-45422243D01*
X139115122Y-45422243D02*
X139186551Y-45350815D01*
X139186551Y-45350815D02*
X139329408Y-45279386D01*
X139329408Y-45279386D02*
X139686551Y-45279386D01*
X139686551Y-45279386D02*
X139900837Y-45350815D01*
X140543693Y-46779386D02*
X140543693Y-45279386D01*
X140543693Y-45279386D02*
X140900836Y-45279386D01*
X140900836Y-45279386D02*
X141115122Y-45350815D01*
X141115122Y-45350815D02*
X141257979Y-45493672D01*
X141257979Y-45493672D02*
X141329408Y-45636529D01*
X141329408Y-45636529D02*
X141400836Y-45922243D01*
X141400836Y-45922243D02*
X141400836Y-46136529D01*
X141400836Y-46136529D02*
X141329408Y-46422243D01*
X141329408Y-46422243D02*
X141257979Y-46565100D01*
X141257979Y-46565100D02*
X141115122Y-46707958D01*
X141115122Y-46707958D02*
X140900836Y-46779386D01*
X140900836Y-46779386D02*
X140543693Y-46779386D01*
X142829408Y-46779386D02*
X141972265Y-46779386D01*
X142400836Y-46779386D02*
X142400836Y-45279386D01*
X142400836Y-45279386D02*
X142257979Y-45493672D01*
X142257979Y-45493672D02*
X142115122Y-45636529D01*
X142115122Y-45636529D02*
X141972265Y-45707958D01*
X143329407Y-45279386D02*
X144257979Y-45279386D01*
X144257979Y-45279386D02*
X143757979Y-45850815D01*
X143757979Y-45850815D02*
X143972264Y-45850815D01*
X143972264Y-45850815D02*
X144115122Y-45922243D01*
X144115122Y-45922243D02*
X144186550Y-45993672D01*
X144186550Y-45993672D02*
X144257979Y-46136529D01*
X144257979Y-46136529D02*
X144257979Y-46493672D01*
X144257979Y-46493672D02*
X144186550Y-46636529D01*
X144186550Y-46636529D02*
X144115122Y-46707958D01*
X144115122Y-46707958D02*
X143972264Y-46779386D01*
X143972264Y-46779386D02*
X143543693Y-46779386D01*
X143543693Y-46779386D02*
X143400836Y-46707958D01*
X143400836Y-46707958D02*
X143329407Y-46636529D01*
X145186550Y-45279386D02*
X145329407Y-45279386D01*
X145329407Y-45279386D02*
X145472264Y-45350815D01*
X145472264Y-45350815D02*
X145543693Y-45422243D01*
X145543693Y-45422243D02*
X145615121Y-45565100D01*
X145615121Y-45565100D02*
X145686550Y-45850815D01*
X145686550Y-45850815D02*
X145686550Y-46207958D01*
X145686550Y-46207958D02*
X145615121Y-46493672D01*
X145615121Y-46493672D02*
X145543693Y-46636529D01*
X145543693Y-46636529D02*
X145472264Y-46707958D01*
X145472264Y-46707958D02*
X145329407Y-46779386D01*
X145329407Y-46779386D02*
X145186550Y-46779386D01*
X145186550Y-46779386D02*
X145043693Y-46707958D01*
X145043693Y-46707958D02*
X144972264Y-46636529D01*
X144972264Y-46636529D02*
X144900835Y-46493672D01*
X144900835Y-46493672D02*
X144829407Y-46207958D01*
X144829407Y-46207958D02*
X144829407Y-45850815D01*
X144829407Y-45850815D02*
X144900835Y-45565100D01*
X144900835Y-45565100D02*
X144972264Y-45422243D01*
X144972264Y-45422243D02*
X145043693Y-45350815D01*
X145043693Y-45350815D02*
X145186550Y-45279386D01*
X146972264Y-45279386D02*
X146686549Y-45279386D01*
X146686549Y-45279386D02*
X146543692Y-45350815D01*
X146543692Y-45350815D02*
X146472264Y-45422243D01*
X146472264Y-45422243D02*
X146329406Y-45636529D01*
X146329406Y-45636529D02*
X146257978Y-45922243D01*
X146257978Y-45922243D02*
X146257978Y-46493672D01*
X146257978Y-46493672D02*
X146329406Y-46636529D01*
X146329406Y-46636529D02*
X146400835Y-46707958D01*
X146400835Y-46707958D02*
X146543692Y-46779386D01*
X146543692Y-46779386D02*
X146829406Y-46779386D01*
X146829406Y-46779386D02*
X146972264Y-46707958D01*
X146972264Y-46707958D02*
X147043692Y-46636529D01*
X147043692Y-46636529D02*
X147115121Y-46493672D01*
X147115121Y-46493672D02*
X147115121Y-46136529D01*
X147115121Y-46136529D02*
X147043692Y-45993672D01*
X147043692Y-45993672D02*
X146972264Y-45922243D01*
X146972264Y-45922243D02*
X146829406Y-45850815D01*
X146829406Y-45850815D02*
X146543692Y-45850815D01*
X146543692Y-45850815D02*
X146400835Y-45922243D01*
X146400835Y-45922243D02*
X146329406Y-45993672D01*
X146329406Y-45993672D02*
X146257978Y-46136529D01*
X149186549Y-45279386D02*
X149472263Y-45279386D01*
X149472263Y-45279386D02*
X149615120Y-45350815D01*
X149615120Y-45350815D02*
X149757977Y-45493672D01*
X149757977Y-45493672D02*
X149829406Y-45779386D01*
X149829406Y-45779386D02*
X149829406Y-46279386D01*
X149829406Y-46279386D02*
X149757977Y-46565100D01*
X149757977Y-46565100D02*
X149615120Y-46707958D01*
X149615120Y-46707958D02*
X149472263Y-46779386D01*
X149472263Y-46779386D02*
X149186549Y-46779386D01*
X149186549Y-46779386D02*
X149043692Y-46707958D01*
X149043692Y-46707958D02*
X148900834Y-46565100D01*
X148900834Y-46565100D02*
X148829406Y-46279386D01*
X148829406Y-46279386D02*
X148829406Y-45779386D01*
X148829406Y-45779386D02*
X148900834Y-45493672D01*
X148900834Y-45493672D02*
X149043692Y-45350815D01*
X149043692Y-45350815D02*
X149186549Y-45279386D01*
X151186549Y-46779386D02*
X150472263Y-46779386D01*
X150472263Y-46779386D02*
X150472263Y-45279386D01*
X151686549Y-45993672D02*
X152186549Y-45993672D01*
X152400835Y-46779386D02*
X151686549Y-46779386D01*
X151686549Y-46779386D02*
X151686549Y-45279386D01*
X151686549Y-45279386D02*
X152400835Y-45279386D01*
X153043692Y-46779386D02*
X153043692Y-45279386D01*
X153043692Y-45279386D02*
X153400835Y-45279386D01*
X153400835Y-45279386D02*
X153615121Y-45350815D01*
X153615121Y-45350815D02*
X153757978Y-45493672D01*
X153757978Y-45493672D02*
X153829407Y-45636529D01*
X153829407Y-45636529D02*
X153900835Y-45922243D01*
X153900835Y-45922243D02*
X153900835Y-46136529D01*
X153900835Y-46136529D02*
X153829407Y-46422243D01*
X153829407Y-46422243D02*
X153757978Y-46565100D01*
X153757978Y-46565100D02*
X153615121Y-46707958D01*
X153615121Y-46707958D02*
X153400835Y-46779386D01*
X153400835Y-46779386D02*
X153043692Y-46779386D01*
X155686549Y-46779386D02*
X155686549Y-45279386D01*
X155686549Y-45279386D02*
X156043692Y-45279386D01*
X156043692Y-45279386D02*
X156257978Y-45350815D01*
X156257978Y-45350815D02*
X156400835Y-45493672D01*
X156400835Y-45493672D02*
X156472264Y-45636529D01*
X156472264Y-45636529D02*
X156543692Y-45922243D01*
X156543692Y-45922243D02*
X156543692Y-46136529D01*
X156543692Y-46136529D02*
X156472264Y-46422243D01*
X156472264Y-46422243D02*
X156400835Y-46565100D01*
X156400835Y-46565100D02*
X156257978Y-46707958D01*
X156257978Y-46707958D02*
X156043692Y-46779386D01*
X156043692Y-46779386D02*
X155686549Y-46779386D01*
X157186549Y-46779386D02*
X157186549Y-45279386D01*
X157829407Y-46707958D02*
X158043693Y-46779386D01*
X158043693Y-46779386D02*
X158400835Y-46779386D01*
X158400835Y-46779386D02*
X158543693Y-46707958D01*
X158543693Y-46707958D02*
X158615121Y-46636529D01*
X158615121Y-46636529D02*
X158686550Y-46493672D01*
X158686550Y-46493672D02*
X158686550Y-46350815D01*
X158686550Y-46350815D02*
X158615121Y-46207958D01*
X158615121Y-46207958D02*
X158543693Y-46136529D01*
X158543693Y-46136529D02*
X158400835Y-46065100D01*
X158400835Y-46065100D02*
X158115121Y-45993672D01*
X158115121Y-45993672D02*
X157972264Y-45922243D01*
X157972264Y-45922243D02*
X157900835Y-45850815D01*
X157900835Y-45850815D02*
X157829407Y-45707958D01*
X157829407Y-45707958D02*
X157829407Y-45565100D01*
X157829407Y-45565100D02*
X157900835Y-45422243D01*
X157900835Y-45422243D02*
X157972264Y-45350815D01*
X157972264Y-45350815D02*
X158115121Y-45279386D01*
X158115121Y-45279386D02*
X158472264Y-45279386D01*
X158472264Y-45279386D02*
X158686550Y-45350815D01*
X159329406Y-46779386D02*
X159329406Y-45279386D01*
X159329406Y-45279386D02*
X159900835Y-45279386D01*
X159900835Y-45279386D02*
X160043692Y-45350815D01*
X160043692Y-45350815D02*
X160115121Y-45422243D01*
X160115121Y-45422243D02*
X160186549Y-45565100D01*
X160186549Y-45565100D02*
X160186549Y-45779386D01*
X160186549Y-45779386D02*
X160115121Y-45922243D01*
X160115121Y-45922243D02*
X160043692Y-45993672D01*
X160043692Y-45993672D02*
X159900835Y-46065100D01*
X159900835Y-46065100D02*
X159329406Y-46065100D01*
X161543692Y-46779386D02*
X160829406Y-46779386D01*
X160829406Y-46779386D02*
X160829406Y-45279386D01*
X161972264Y-46350815D02*
X162686550Y-46350815D01*
X161829407Y-46779386D02*
X162329407Y-45279386D01*
X162329407Y-45279386D02*
X162829407Y-46779386D01*
X163615121Y-46065100D02*
X163615121Y-46779386D01*
X163115121Y-45279386D02*
X163615121Y-46065100D01*
X163615121Y-46065100D02*
X164115121Y-45279386D01*
D11*
X208676667Y-71533200D02*
X208819524Y-71580819D01*
X208819524Y-71580819D02*
X209057619Y-71580819D01*
X209057619Y-71580819D02*
X209152857Y-71533200D01*
X209152857Y-71533200D02*
X209200476Y-71485580D01*
X209200476Y-71485580D02*
X209248095Y-71390342D01*
X209248095Y-71390342D02*
X209248095Y-71295104D01*
X209248095Y-71295104D02*
X209200476Y-71199866D01*
X209200476Y-71199866D02*
X209152857Y-71152247D01*
X209152857Y-71152247D02*
X209057619Y-71104628D01*
X209057619Y-71104628D02*
X208867143Y-71057009D01*
X208867143Y-71057009D02*
X208771905Y-71009390D01*
X208771905Y-71009390D02*
X208724286Y-70961771D01*
X208724286Y-70961771D02*
X208676667Y-70866533D01*
X208676667Y-70866533D02*
X208676667Y-70771295D01*
X208676667Y-70771295D02*
X208724286Y-70676057D01*
X208724286Y-70676057D02*
X208771905Y-70628438D01*
X208771905Y-70628438D02*
X208867143Y-70580819D01*
X208867143Y-70580819D02*
X209105238Y-70580819D01*
X209105238Y-70580819D02*
X209248095Y-70628438D01*
X209581429Y-70580819D02*
X209819524Y-71580819D01*
X209819524Y-71580819D02*
X210010000Y-70866533D01*
X210010000Y-70866533D02*
X210200476Y-71580819D01*
X210200476Y-71580819D02*
X210438572Y-70580819D01*
X210724286Y-70580819D02*
X211390952Y-70580819D01*
X211390952Y-70580819D02*
X210962381Y-71580819D01*
X189626667Y-109633200D02*
X189769524Y-109680819D01*
X189769524Y-109680819D02*
X190007619Y-109680819D01*
X190007619Y-109680819D02*
X190102857Y-109633200D01*
X190102857Y-109633200D02*
X190150476Y-109585580D01*
X190150476Y-109585580D02*
X190198095Y-109490342D01*
X190198095Y-109490342D02*
X190198095Y-109395104D01*
X190198095Y-109395104D02*
X190150476Y-109299866D01*
X190150476Y-109299866D02*
X190102857Y-109252247D01*
X190102857Y-109252247D02*
X190007619Y-109204628D01*
X190007619Y-109204628D02*
X189817143Y-109157009D01*
X189817143Y-109157009D02*
X189721905Y-109109390D01*
X189721905Y-109109390D02*
X189674286Y-109061771D01*
X189674286Y-109061771D02*
X189626667Y-108966533D01*
X189626667Y-108966533D02*
X189626667Y-108871295D01*
X189626667Y-108871295D02*
X189674286Y-108776057D01*
X189674286Y-108776057D02*
X189721905Y-108728438D01*
X189721905Y-108728438D02*
X189817143Y-108680819D01*
X189817143Y-108680819D02*
X190055238Y-108680819D01*
X190055238Y-108680819D02*
X190198095Y-108728438D01*
X190531429Y-108680819D02*
X190769524Y-109680819D01*
X190769524Y-109680819D02*
X190960000Y-108966533D01*
X190960000Y-108966533D02*
X191150476Y-109680819D01*
X191150476Y-109680819D02*
X191388572Y-108680819D01*
X192198095Y-108680819D02*
X192007619Y-108680819D01*
X192007619Y-108680819D02*
X191912381Y-108728438D01*
X191912381Y-108728438D02*
X191864762Y-108776057D01*
X191864762Y-108776057D02*
X191769524Y-108918914D01*
X191769524Y-108918914D02*
X191721905Y-109109390D01*
X191721905Y-109109390D02*
X191721905Y-109490342D01*
X191721905Y-109490342D02*
X191769524Y-109585580D01*
X191769524Y-109585580D02*
X191817143Y-109633200D01*
X191817143Y-109633200D02*
X191912381Y-109680819D01*
X191912381Y-109680819D02*
X192102857Y-109680819D01*
X192102857Y-109680819D02*
X192198095Y-109633200D01*
X192198095Y-109633200D02*
X192245714Y-109585580D01*
X192245714Y-109585580D02*
X192293333Y-109490342D01*
X192293333Y-109490342D02*
X192293333Y-109252247D01*
X192293333Y-109252247D02*
X192245714Y-109157009D01*
X192245714Y-109157009D02*
X192198095Y-109109390D01*
X192198095Y-109109390D02*
X192102857Y-109061771D01*
X192102857Y-109061771D02*
X191912381Y-109061771D01*
X191912381Y-109061771D02*
X191817143Y-109109390D01*
X191817143Y-109109390D02*
X191769524Y-109157009D01*
X191769524Y-109157009D02*
X191721905Y-109252247D01*
X208676667Y-109633200D02*
X208819524Y-109680819D01*
X208819524Y-109680819D02*
X209057619Y-109680819D01*
X209057619Y-109680819D02*
X209152857Y-109633200D01*
X209152857Y-109633200D02*
X209200476Y-109585580D01*
X209200476Y-109585580D02*
X209248095Y-109490342D01*
X209248095Y-109490342D02*
X209248095Y-109395104D01*
X209248095Y-109395104D02*
X209200476Y-109299866D01*
X209200476Y-109299866D02*
X209152857Y-109252247D01*
X209152857Y-109252247D02*
X209057619Y-109204628D01*
X209057619Y-109204628D02*
X208867143Y-109157009D01*
X208867143Y-109157009D02*
X208771905Y-109109390D01*
X208771905Y-109109390D02*
X208724286Y-109061771D01*
X208724286Y-109061771D02*
X208676667Y-108966533D01*
X208676667Y-108966533D02*
X208676667Y-108871295D01*
X208676667Y-108871295D02*
X208724286Y-108776057D01*
X208724286Y-108776057D02*
X208771905Y-108728438D01*
X208771905Y-108728438D02*
X208867143Y-108680819D01*
X208867143Y-108680819D02*
X209105238Y-108680819D01*
X209105238Y-108680819D02*
X209248095Y-108728438D01*
X209581429Y-108680819D02*
X209819524Y-109680819D01*
X209819524Y-109680819D02*
X210010000Y-108966533D01*
X210010000Y-108966533D02*
X210200476Y-109680819D01*
X210200476Y-109680819D02*
X210438572Y-108680819D01*
X210867143Y-109680819D02*
X211057619Y-109680819D01*
X211057619Y-109680819D02*
X211152857Y-109633200D01*
X211152857Y-109633200D02*
X211200476Y-109585580D01*
X211200476Y-109585580D02*
X211295714Y-109442723D01*
X211295714Y-109442723D02*
X211343333Y-109252247D01*
X211343333Y-109252247D02*
X211343333Y-108871295D01*
X211343333Y-108871295D02*
X211295714Y-108776057D01*
X211295714Y-108776057D02*
X211248095Y-108728438D01*
X211248095Y-108728438D02*
X211152857Y-108680819D01*
X211152857Y-108680819D02*
X210962381Y-108680819D01*
X210962381Y-108680819D02*
X210867143Y-108728438D01*
X210867143Y-108728438D02*
X210819524Y-108776057D01*
X210819524Y-108776057D02*
X210771905Y-108871295D01*
X210771905Y-108871295D02*
X210771905Y-109109390D01*
X210771905Y-109109390D02*
X210819524Y-109204628D01*
X210819524Y-109204628D02*
X210867143Y-109252247D01*
X210867143Y-109252247D02*
X210962381Y-109299866D01*
X210962381Y-109299866D02*
X211152857Y-109299866D01*
X211152857Y-109299866D02*
X211248095Y-109252247D01*
X211248095Y-109252247D02*
X211295714Y-109204628D01*
X211295714Y-109204628D02*
X211343333Y-109109390D01*
X170576667Y-71533200D02*
X170719524Y-71580819D01*
X170719524Y-71580819D02*
X170957619Y-71580819D01*
X170957619Y-71580819D02*
X171052857Y-71533200D01*
X171052857Y-71533200D02*
X171100476Y-71485580D01*
X171100476Y-71485580D02*
X171148095Y-71390342D01*
X171148095Y-71390342D02*
X171148095Y-71295104D01*
X171148095Y-71295104D02*
X171100476Y-71199866D01*
X171100476Y-71199866D02*
X171052857Y-71152247D01*
X171052857Y-71152247D02*
X170957619Y-71104628D01*
X170957619Y-71104628D02*
X170767143Y-71057009D01*
X170767143Y-71057009D02*
X170671905Y-71009390D01*
X170671905Y-71009390D02*
X170624286Y-70961771D01*
X170624286Y-70961771D02*
X170576667Y-70866533D01*
X170576667Y-70866533D02*
X170576667Y-70771295D01*
X170576667Y-70771295D02*
X170624286Y-70676057D01*
X170624286Y-70676057D02*
X170671905Y-70628438D01*
X170671905Y-70628438D02*
X170767143Y-70580819D01*
X170767143Y-70580819D02*
X171005238Y-70580819D01*
X171005238Y-70580819D02*
X171148095Y-70628438D01*
X171481429Y-70580819D02*
X171719524Y-71580819D01*
X171719524Y-71580819D02*
X171910000Y-70866533D01*
X171910000Y-70866533D02*
X172100476Y-71580819D01*
X172100476Y-71580819D02*
X172338572Y-70580819D01*
X173243333Y-71580819D02*
X172671905Y-71580819D01*
X172957619Y-71580819D02*
X172957619Y-70580819D01*
X172957619Y-70580819D02*
X172862381Y-70723676D01*
X172862381Y-70723676D02*
X172767143Y-70818914D01*
X172767143Y-70818914D02*
X172671905Y-70866533D01*
X225666819Y-50178904D02*
X226476342Y-50178904D01*
X226476342Y-50178904D02*
X226571580Y-50131285D01*
X226571580Y-50131285D02*
X226619200Y-50083666D01*
X226619200Y-50083666D02*
X226666819Y-49988428D01*
X226666819Y-49988428D02*
X226666819Y-49797952D01*
X226666819Y-49797952D02*
X226619200Y-49702714D01*
X226619200Y-49702714D02*
X226571580Y-49655095D01*
X226571580Y-49655095D02*
X226476342Y-49607476D01*
X226476342Y-49607476D02*
X225666819Y-49607476D01*
X226666819Y-48607476D02*
X226666819Y-49178904D01*
X226666819Y-48893190D02*
X225666819Y-48893190D01*
X225666819Y-48893190D02*
X225809676Y-48988428D01*
X225809676Y-48988428D02*
X225904914Y-49083666D01*
X225904914Y-49083666D02*
X225952533Y-49178904D01*
X197511131Y-67514998D02*
X197484194Y-67434185D01*
X197484194Y-67434185D02*
X197403381Y-67353373D01*
X197403381Y-67353373D02*
X197295632Y-67299498D01*
X197295632Y-67299498D02*
X197187882Y-67299498D01*
X197187882Y-67299498D02*
X197107070Y-67326436D01*
X197107070Y-67326436D02*
X196972383Y-67407248D01*
X196972383Y-67407248D02*
X196891571Y-67488060D01*
X196891571Y-67488060D02*
X196810758Y-67622747D01*
X196810758Y-67622747D02*
X196783821Y-67703560D01*
X196783821Y-67703560D02*
X196783821Y-67811309D01*
X196783821Y-67811309D02*
X196837696Y-67919059D01*
X196837696Y-67919059D02*
X196891571Y-67972934D01*
X196891571Y-67972934D02*
X196999320Y-68026808D01*
X196999320Y-68026808D02*
X197053195Y-68026808D01*
X197053195Y-68026808D02*
X197241757Y-67838247D01*
X197241757Y-67838247D02*
X197134007Y-67730497D01*
X197241757Y-68323120D02*
X197807442Y-67757434D01*
X197807442Y-67757434D02*
X198022942Y-67972934D01*
X198022942Y-67972934D02*
X198049879Y-68053746D01*
X198049879Y-68053746D02*
X198049879Y-68107621D01*
X198049879Y-68107621D02*
X198022942Y-68188433D01*
X198022942Y-68188433D02*
X197942129Y-68269245D01*
X197942129Y-68269245D02*
X197861317Y-68296182D01*
X197861317Y-68296182D02*
X197807442Y-68296182D01*
X197807442Y-68296182D02*
X197726630Y-68269245D01*
X197726630Y-68269245D02*
X197511131Y-68053746D01*
X198292316Y-68350057D02*
X198346190Y-68350057D01*
X198346190Y-68350057D02*
X198427003Y-68376995D01*
X198427003Y-68376995D02*
X198561690Y-68511682D01*
X198561690Y-68511682D02*
X198588627Y-68592494D01*
X198588627Y-68592494D02*
X198588627Y-68646369D01*
X198588627Y-68646369D02*
X198561690Y-68727181D01*
X198561690Y-68727181D02*
X198507815Y-68781056D01*
X198507815Y-68781056D02*
X198400065Y-68834930D01*
X198400065Y-68834930D02*
X197753568Y-68834930D01*
X197753568Y-68834930D02*
X198103754Y-69185117D01*
X198831064Y-68888805D02*
X198884939Y-68888805D01*
X198884939Y-68888805D02*
X198965751Y-68915743D01*
X198965751Y-68915743D02*
X199100438Y-69050430D01*
X199100438Y-69050430D02*
X199127375Y-69131242D01*
X199127375Y-69131242D02*
X199127375Y-69185117D01*
X199127375Y-69185117D02*
X199100438Y-69265929D01*
X199100438Y-69265929D02*
X199046563Y-69319804D01*
X199046563Y-69319804D02*
X198938813Y-69373679D01*
X198938813Y-69373679D02*
X198292316Y-69373679D01*
X198292316Y-69373679D02*
X198642502Y-69723865D01*
X197780505Y-41930372D02*
X197753568Y-41849560D01*
X197753568Y-41849560D02*
X197672756Y-41768748D01*
X197672756Y-41768748D02*
X197565006Y-41714873D01*
X197565006Y-41714873D02*
X197457257Y-41714873D01*
X197457257Y-41714873D02*
X197376444Y-41741810D01*
X197376444Y-41741810D02*
X197241757Y-41822623D01*
X197241757Y-41822623D02*
X197160945Y-41903435D01*
X197160945Y-41903435D02*
X197080133Y-42038122D01*
X197080133Y-42038122D02*
X197053196Y-42118934D01*
X197053196Y-42118934D02*
X197053196Y-42226684D01*
X197053196Y-42226684D02*
X197107070Y-42334433D01*
X197107070Y-42334433D02*
X197160945Y-42388308D01*
X197160945Y-42388308D02*
X197268695Y-42442183D01*
X197268695Y-42442183D02*
X197322570Y-42442183D01*
X197322570Y-42442183D02*
X197511131Y-42253621D01*
X197511131Y-42253621D02*
X197403382Y-42145871D01*
X197511131Y-42738494D02*
X198076817Y-42172809D01*
X198076817Y-42172809D02*
X198292316Y-42388308D01*
X198292316Y-42388308D02*
X198319253Y-42469120D01*
X198319253Y-42469120D02*
X198319253Y-42522995D01*
X198319253Y-42522995D02*
X198292316Y-42603807D01*
X198292316Y-42603807D02*
X198211504Y-42684619D01*
X198211504Y-42684619D02*
X198130692Y-42711557D01*
X198130692Y-42711557D02*
X198076817Y-42711557D01*
X198076817Y-42711557D02*
X197996005Y-42684619D01*
X197996005Y-42684619D02*
X197780505Y-42469120D01*
X198103754Y-43331117D02*
X198211504Y-43438867D01*
X198211504Y-43438867D02*
X198292316Y-43465804D01*
X198292316Y-43465804D02*
X198346191Y-43465804D01*
X198346191Y-43465804D02*
X198480878Y-43438867D01*
X198480878Y-43438867D02*
X198615565Y-43358054D01*
X198615565Y-43358054D02*
X198831064Y-43142555D01*
X198831064Y-43142555D02*
X198858001Y-43061743D01*
X198858001Y-43061743D02*
X198858001Y-43007868D01*
X198858001Y-43007868D02*
X198831064Y-42927056D01*
X198831064Y-42927056D02*
X198723314Y-42819306D01*
X198723314Y-42819306D02*
X198642502Y-42792369D01*
X198642502Y-42792369D02*
X198588627Y-42792369D01*
X198588627Y-42792369D02*
X198507815Y-42819306D01*
X198507815Y-42819306D02*
X198373128Y-42953993D01*
X198373128Y-42953993D02*
X198346191Y-43034806D01*
X198346191Y-43034806D02*
X198346191Y-43088680D01*
X198346191Y-43088680D02*
X198373128Y-43169493D01*
X198373128Y-43169493D02*
X198480878Y-43277242D01*
X198480878Y-43277242D02*
X198561690Y-43304180D01*
X198561690Y-43304180D02*
X198615565Y-43304180D01*
X198615565Y-43304180D02*
X198696377Y-43277242D01*
X187351131Y-67514998D02*
X187324194Y-67434185D01*
X187324194Y-67434185D02*
X187243381Y-67353373D01*
X187243381Y-67353373D02*
X187135632Y-67299498D01*
X187135632Y-67299498D02*
X187027882Y-67299498D01*
X187027882Y-67299498D02*
X186947070Y-67326436D01*
X186947070Y-67326436D02*
X186812383Y-67407248D01*
X186812383Y-67407248D02*
X186731571Y-67488060D01*
X186731571Y-67488060D02*
X186650758Y-67622747D01*
X186650758Y-67622747D02*
X186623821Y-67703560D01*
X186623821Y-67703560D02*
X186623821Y-67811309D01*
X186623821Y-67811309D02*
X186677696Y-67919059D01*
X186677696Y-67919059D02*
X186731571Y-67972934D01*
X186731571Y-67972934D02*
X186839320Y-68026808D01*
X186839320Y-68026808D02*
X186893195Y-68026808D01*
X186893195Y-68026808D02*
X187081757Y-67838247D01*
X187081757Y-67838247D02*
X186974007Y-67730497D01*
X187081757Y-68323120D02*
X187647442Y-67757434D01*
X187647442Y-67757434D02*
X187862942Y-67972934D01*
X187862942Y-67972934D02*
X187889879Y-68053746D01*
X187889879Y-68053746D02*
X187889879Y-68107621D01*
X187889879Y-68107621D02*
X187862942Y-68188433D01*
X187862942Y-68188433D02*
X187782129Y-68269245D01*
X187782129Y-68269245D02*
X187701317Y-68296182D01*
X187701317Y-68296182D02*
X187647442Y-68296182D01*
X187647442Y-68296182D02*
X187566630Y-68269245D01*
X187566630Y-68269245D02*
X187351131Y-68053746D01*
X187943754Y-69185117D02*
X187620505Y-68861868D01*
X187782129Y-69023492D02*
X188347815Y-68457807D01*
X188347815Y-68457807D02*
X188213128Y-68484744D01*
X188213128Y-68484744D02*
X188105378Y-68484744D01*
X188105378Y-68484744D02*
X188024566Y-68457807D01*
X188213128Y-69454491D02*
X188320878Y-69562240D01*
X188320878Y-69562240D02*
X188401690Y-69589178D01*
X188401690Y-69589178D02*
X188455565Y-69589178D01*
X188455565Y-69589178D02*
X188590252Y-69562240D01*
X188590252Y-69562240D02*
X188724939Y-69481428D01*
X188724939Y-69481428D02*
X188940438Y-69265929D01*
X188940438Y-69265929D02*
X188967375Y-69185117D01*
X188967375Y-69185117D02*
X188967375Y-69131242D01*
X188967375Y-69131242D02*
X188940438Y-69050430D01*
X188940438Y-69050430D02*
X188832688Y-68942680D01*
X188832688Y-68942680D02*
X188751876Y-68915743D01*
X188751876Y-68915743D02*
X188698001Y-68915743D01*
X188698001Y-68915743D02*
X188617189Y-68942680D01*
X188617189Y-68942680D02*
X188482502Y-69077367D01*
X188482502Y-69077367D02*
X188455565Y-69158179D01*
X188455565Y-69158179D02*
X188455565Y-69212054D01*
X188455565Y-69212054D02*
X188482502Y-69292866D01*
X188482502Y-69292866D02*
X188590252Y-69400616D01*
X188590252Y-69400616D02*
X188671064Y-69427553D01*
X188671064Y-69427553D02*
X188724939Y-69427553D01*
X188724939Y-69427553D02*
X188805751Y-69400616D01*
X184811131Y-41406998D02*
X184784194Y-41326185D01*
X184784194Y-41326185D02*
X184703381Y-41245373D01*
X184703381Y-41245373D02*
X184595632Y-41191498D01*
X184595632Y-41191498D02*
X184487882Y-41191498D01*
X184487882Y-41191498D02*
X184407070Y-41218436D01*
X184407070Y-41218436D02*
X184272383Y-41299248D01*
X184272383Y-41299248D02*
X184191571Y-41380060D01*
X184191571Y-41380060D02*
X184110758Y-41514747D01*
X184110758Y-41514747D02*
X184083821Y-41595560D01*
X184083821Y-41595560D02*
X184083821Y-41703309D01*
X184083821Y-41703309D02*
X184137696Y-41811059D01*
X184137696Y-41811059D02*
X184191571Y-41864934D01*
X184191571Y-41864934D02*
X184299320Y-41918808D01*
X184299320Y-41918808D02*
X184353195Y-41918808D01*
X184353195Y-41918808D02*
X184541757Y-41730247D01*
X184541757Y-41730247D02*
X184434007Y-41622497D01*
X184541757Y-42215120D02*
X185107442Y-41649434D01*
X185107442Y-41649434D02*
X185322942Y-41864934D01*
X185322942Y-41864934D02*
X185349879Y-41945746D01*
X185349879Y-41945746D02*
X185349879Y-41999621D01*
X185349879Y-41999621D02*
X185322942Y-42080433D01*
X185322942Y-42080433D02*
X185242129Y-42161245D01*
X185242129Y-42161245D02*
X185161317Y-42188182D01*
X185161317Y-42188182D02*
X185107442Y-42188182D01*
X185107442Y-42188182D02*
X185026630Y-42161245D01*
X185026630Y-42161245D02*
X184811131Y-41945746D01*
X185403754Y-43077117D02*
X185080505Y-42753868D01*
X185242129Y-42915492D02*
X185807815Y-42349807D01*
X185807815Y-42349807D02*
X185673128Y-42376744D01*
X185673128Y-42376744D02*
X185565378Y-42376744D01*
X185565378Y-42376744D02*
X185484566Y-42349807D01*
X186158001Y-42699993D02*
X186508187Y-43050179D01*
X186508187Y-43050179D02*
X186104126Y-43077117D01*
X186104126Y-43077117D02*
X186184939Y-43157929D01*
X186184939Y-43157929D02*
X186211876Y-43238741D01*
X186211876Y-43238741D02*
X186211876Y-43292616D01*
X186211876Y-43292616D02*
X186184939Y-43373428D01*
X186184939Y-43373428D02*
X186050252Y-43508115D01*
X186050252Y-43508115D02*
X185969439Y-43535053D01*
X185969439Y-43535053D02*
X185915565Y-43535053D01*
X185915565Y-43535053D02*
X185834752Y-43508115D01*
X185834752Y-43508115D02*
X185673128Y-43346491D01*
X185673128Y-43346491D02*
X185646191Y-43265679D01*
X185646191Y-43265679D02*
X185646191Y-43211804D01*
X220613568Y-41903435D02*
X220586631Y-41822623D01*
X220586631Y-41822623D02*
X220505819Y-41741811D01*
X220505819Y-41741811D02*
X220398069Y-41687936D01*
X220398069Y-41687936D02*
X220290319Y-41687936D01*
X220290319Y-41687936D02*
X220209507Y-41714873D01*
X220209507Y-41714873D02*
X220074820Y-41795685D01*
X220074820Y-41795685D02*
X219994008Y-41876498D01*
X219994008Y-41876498D02*
X219913196Y-42011185D01*
X219913196Y-42011185D02*
X219886258Y-42091997D01*
X219886258Y-42091997D02*
X219886258Y-42199746D01*
X219886258Y-42199746D02*
X219940133Y-42307496D01*
X219940133Y-42307496D02*
X219994008Y-42361371D01*
X219994008Y-42361371D02*
X220101758Y-42415246D01*
X220101758Y-42415246D02*
X220155632Y-42415246D01*
X220155632Y-42415246D02*
X220344194Y-42226684D01*
X220344194Y-42226684D02*
X220236445Y-42118934D01*
X220344194Y-42711557D02*
X220909880Y-42145872D01*
X220909880Y-42145872D02*
X220667443Y-43034806D01*
X220667443Y-43034806D02*
X221233128Y-42469120D01*
X220936817Y-43304180D02*
X221502502Y-42738494D01*
X221502502Y-42738494D02*
X221637189Y-42873181D01*
X221637189Y-42873181D02*
X221691064Y-42980931D01*
X221691064Y-42980931D02*
X221691064Y-43088680D01*
X221691064Y-43088680D02*
X221664127Y-43169493D01*
X221664127Y-43169493D02*
X221583314Y-43304180D01*
X221583314Y-43304180D02*
X221502502Y-43384992D01*
X221502502Y-43384992D02*
X221367815Y-43465804D01*
X221367815Y-43465804D02*
X221287003Y-43492741D01*
X221287003Y-43492741D02*
X221179253Y-43492741D01*
X221179253Y-43492741D02*
X221071504Y-43438867D01*
X221071504Y-43438867D02*
X220936817Y-43304180D01*
X217753415Y-67339407D02*
X218103601Y-67689593D01*
X218103601Y-67689593D02*
X217699540Y-67716531D01*
X217699540Y-67716531D02*
X217780353Y-67797343D01*
X217780353Y-67797343D02*
X217807290Y-67878155D01*
X217807290Y-67878155D02*
X217807290Y-67932030D01*
X217807290Y-67932030D02*
X217780353Y-68012842D01*
X217780353Y-68012842D02*
X217645666Y-68147529D01*
X217645666Y-68147529D02*
X217564853Y-68174467D01*
X217564853Y-68174467D02*
X217510979Y-68174467D01*
X217510979Y-68174467D02*
X217430166Y-68147529D01*
X217430166Y-68147529D02*
X217268542Y-67985905D01*
X217268542Y-67985905D02*
X217241605Y-67905093D01*
X217241605Y-67905093D02*
X217241605Y-67851218D01*
X218265226Y-67851218D02*
X217888102Y-68605465D01*
X217888102Y-68605465D02*
X218642350Y-68228342D01*
X218777036Y-68363028D02*
X219127223Y-68713215D01*
X219127223Y-68713215D02*
X218723162Y-68740152D01*
X218723162Y-68740152D02*
X218803974Y-68820964D01*
X218803974Y-68820964D02*
X218830911Y-68901776D01*
X218830911Y-68901776D02*
X218830911Y-68955651D01*
X218830911Y-68955651D02*
X218803974Y-69036464D01*
X218803974Y-69036464D02*
X218669287Y-69171151D01*
X218669287Y-69171151D02*
X218588475Y-69198088D01*
X218588475Y-69198088D02*
X218534600Y-69198088D01*
X218534600Y-69198088D02*
X218453788Y-69171151D01*
X218453788Y-69171151D02*
X218292163Y-69009526D01*
X218292163Y-69009526D02*
X218265226Y-68928714D01*
X218265226Y-68928714D02*
X218265226Y-68874839D01*
X218615412Y-69440525D02*
X219046411Y-69871523D01*
X219531284Y-69656024D02*
X219719846Y-69844586D01*
X219504347Y-70221709D02*
X219234973Y-69952335D01*
X219234973Y-69952335D02*
X219800658Y-69386650D01*
X219800658Y-69386650D02*
X220070032Y-69656024D01*
X219746784Y-70464146D02*
X220312469Y-69898461D01*
X220312469Y-69898461D02*
X220070032Y-70787395D01*
X220070032Y-70787395D02*
X220635718Y-70221710D01*
X177191131Y-41406998D02*
X177164194Y-41326185D01*
X177164194Y-41326185D02*
X177083381Y-41245373D01*
X177083381Y-41245373D02*
X176975632Y-41191498D01*
X176975632Y-41191498D02*
X176867882Y-41191498D01*
X176867882Y-41191498D02*
X176787070Y-41218436D01*
X176787070Y-41218436D02*
X176652383Y-41299248D01*
X176652383Y-41299248D02*
X176571571Y-41380060D01*
X176571571Y-41380060D02*
X176490758Y-41514747D01*
X176490758Y-41514747D02*
X176463821Y-41595560D01*
X176463821Y-41595560D02*
X176463821Y-41703309D01*
X176463821Y-41703309D02*
X176517696Y-41811059D01*
X176517696Y-41811059D02*
X176571571Y-41864934D01*
X176571571Y-41864934D02*
X176679320Y-41918808D01*
X176679320Y-41918808D02*
X176733195Y-41918808D01*
X176733195Y-41918808D02*
X176921757Y-41730247D01*
X176921757Y-41730247D02*
X176814007Y-41622497D01*
X176921757Y-42215120D02*
X177487442Y-41649434D01*
X177487442Y-41649434D02*
X177702942Y-41864934D01*
X177702942Y-41864934D02*
X177729879Y-41945746D01*
X177729879Y-41945746D02*
X177729879Y-41999621D01*
X177729879Y-41999621D02*
X177702942Y-42080433D01*
X177702942Y-42080433D02*
X177622129Y-42161245D01*
X177622129Y-42161245D02*
X177541317Y-42188182D01*
X177541317Y-42188182D02*
X177487442Y-42188182D01*
X177487442Y-42188182D02*
X177406630Y-42161245D01*
X177406630Y-42161245D02*
X177191131Y-41945746D01*
X177783754Y-43077117D02*
X177460505Y-42753868D01*
X177622129Y-42915492D02*
X178187815Y-42349807D01*
X178187815Y-42349807D02*
X178053128Y-42376744D01*
X178053128Y-42376744D02*
X177945378Y-42376744D01*
X177945378Y-42376744D02*
X177864566Y-42349807D01*
X178861250Y-43023242D02*
X178591876Y-42753868D01*
X178591876Y-42753868D02*
X178295565Y-42996305D01*
X178295565Y-42996305D02*
X178349439Y-42996305D01*
X178349439Y-42996305D02*
X178430252Y-43023242D01*
X178430252Y-43023242D02*
X178564939Y-43157929D01*
X178564939Y-43157929D02*
X178591876Y-43238741D01*
X178591876Y-43238741D02*
X178591876Y-43292616D01*
X178591876Y-43292616D02*
X178564939Y-43373428D01*
X178564939Y-43373428D02*
X178430252Y-43508115D01*
X178430252Y-43508115D02*
X178349439Y-43535053D01*
X178349439Y-43535053D02*
X178295565Y-43535053D01*
X178295565Y-43535053D02*
X178214752Y-43508115D01*
X178214752Y-43508115D02*
X178080065Y-43373428D01*
X178080065Y-43373428D02*
X178053128Y-43292616D01*
X178053128Y-43292616D02*
X178053128Y-43238741D01*
X202591131Y-67514998D02*
X202564194Y-67434185D01*
X202564194Y-67434185D02*
X202483381Y-67353373D01*
X202483381Y-67353373D02*
X202375632Y-67299498D01*
X202375632Y-67299498D02*
X202267882Y-67299498D01*
X202267882Y-67299498D02*
X202187070Y-67326436D01*
X202187070Y-67326436D02*
X202052383Y-67407248D01*
X202052383Y-67407248D02*
X201971571Y-67488060D01*
X201971571Y-67488060D02*
X201890758Y-67622747D01*
X201890758Y-67622747D02*
X201863821Y-67703560D01*
X201863821Y-67703560D02*
X201863821Y-67811309D01*
X201863821Y-67811309D02*
X201917696Y-67919059D01*
X201917696Y-67919059D02*
X201971571Y-67972934D01*
X201971571Y-67972934D02*
X202079320Y-68026808D01*
X202079320Y-68026808D02*
X202133195Y-68026808D01*
X202133195Y-68026808D02*
X202321757Y-67838247D01*
X202321757Y-67838247D02*
X202214007Y-67730497D01*
X202321757Y-68323120D02*
X202887442Y-67757434D01*
X202887442Y-67757434D02*
X203102942Y-67972934D01*
X203102942Y-67972934D02*
X203129879Y-68053746D01*
X203129879Y-68053746D02*
X203129879Y-68107621D01*
X203129879Y-68107621D02*
X203102942Y-68188433D01*
X203102942Y-68188433D02*
X203022129Y-68269245D01*
X203022129Y-68269245D02*
X202941317Y-68296182D01*
X202941317Y-68296182D02*
X202887442Y-68296182D01*
X202887442Y-68296182D02*
X202806630Y-68269245D01*
X202806630Y-68269245D02*
X202591131Y-68053746D01*
X203372316Y-68350057D02*
X203426190Y-68350057D01*
X203426190Y-68350057D02*
X203507003Y-68376995D01*
X203507003Y-68376995D02*
X203641690Y-68511682D01*
X203641690Y-68511682D02*
X203668627Y-68592494D01*
X203668627Y-68592494D02*
X203668627Y-68646369D01*
X203668627Y-68646369D02*
X203641690Y-68727181D01*
X203641690Y-68727181D02*
X203587815Y-68781056D01*
X203587815Y-68781056D02*
X203480065Y-68834930D01*
X203480065Y-68834930D02*
X202833568Y-68834930D01*
X202833568Y-68834930D02*
X203183754Y-69185117D01*
X204234313Y-69104305D02*
X204126563Y-68996555D01*
X204126563Y-68996555D02*
X204045751Y-68969618D01*
X204045751Y-68969618D02*
X203991876Y-68969618D01*
X203991876Y-68969618D02*
X203857189Y-68996555D01*
X203857189Y-68996555D02*
X203722502Y-69077367D01*
X203722502Y-69077367D02*
X203507003Y-69292866D01*
X203507003Y-69292866D02*
X203480065Y-69373679D01*
X203480065Y-69373679D02*
X203480065Y-69427553D01*
X203480065Y-69427553D02*
X203507003Y-69508366D01*
X203507003Y-69508366D02*
X203614752Y-69616115D01*
X203614752Y-69616115D02*
X203695565Y-69643053D01*
X203695565Y-69643053D02*
X203749439Y-69643053D01*
X203749439Y-69643053D02*
X203830252Y-69616115D01*
X203830252Y-69616115D02*
X203964939Y-69481428D01*
X203964939Y-69481428D02*
X203991876Y-69400616D01*
X203991876Y-69400616D02*
X203991876Y-69346741D01*
X203991876Y-69346741D02*
X203964939Y-69265929D01*
X203964939Y-69265929D02*
X203857189Y-69158179D01*
X203857189Y-69158179D02*
X203776377Y-69131242D01*
X203776377Y-69131242D02*
X203722502Y-69131242D01*
X203722502Y-69131242D02*
X203641690Y-69158179D01*
X202890505Y-42030372D02*
X202863568Y-41949560D01*
X202863568Y-41949560D02*
X202782756Y-41868748D01*
X202782756Y-41868748D02*
X202675006Y-41814873D01*
X202675006Y-41814873D02*
X202567257Y-41814873D01*
X202567257Y-41814873D02*
X202486444Y-41841810D01*
X202486444Y-41841810D02*
X202351757Y-41922623D01*
X202351757Y-41922623D02*
X202270945Y-42003435D01*
X202270945Y-42003435D02*
X202190133Y-42138122D01*
X202190133Y-42138122D02*
X202163196Y-42218934D01*
X202163196Y-42218934D02*
X202163196Y-42326684D01*
X202163196Y-42326684D02*
X202217070Y-42434433D01*
X202217070Y-42434433D02*
X202270945Y-42488308D01*
X202270945Y-42488308D02*
X202378695Y-42542183D01*
X202378695Y-42542183D02*
X202432570Y-42542183D01*
X202432570Y-42542183D02*
X202621131Y-42353621D01*
X202621131Y-42353621D02*
X202513382Y-42245871D01*
X202621131Y-42838494D02*
X203186817Y-42272809D01*
X203186817Y-42272809D02*
X203402316Y-42488308D01*
X203402316Y-42488308D02*
X203429253Y-42569120D01*
X203429253Y-42569120D02*
X203429253Y-42622995D01*
X203429253Y-42622995D02*
X203402316Y-42703807D01*
X203402316Y-42703807D02*
X203321504Y-42784619D01*
X203321504Y-42784619D02*
X203240692Y-42811557D01*
X203240692Y-42811557D02*
X203186817Y-42811557D01*
X203186817Y-42811557D02*
X203106005Y-42784619D01*
X203106005Y-42784619D02*
X202890505Y-42569120D01*
X203698627Y-42784619D02*
X204075751Y-43161743D01*
X204075751Y-43161743D02*
X203267629Y-43484992D01*
X225720505Y-41930372D02*
X225693568Y-41849560D01*
X225693568Y-41849560D02*
X225612756Y-41768748D01*
X225612756Y-41768748D02*
X225505006Y-41714873D01*
X225505006Y-41714873D02*
X225397257Y-41714873D01*
X225397257Y-41714873D02*
X225316444Y-41741810D01*
X225316444Y-41741810D02*
X225181757Y-41822623D01*
X225181757Y-41822623D02*
X225100945Y-41903435D01*
X225100945Y-41903435D02*
X225020133Y-42038122D01*
X225020133Y-42038122D02*
X224993196Y-42118934D01*
X224993196Y-42118934D02*
X224993196Y-42226684D01*
X224993196Y-42226684D02*
X225047070Y-42334433D01*
X225047070Y-42334433D02*
X225100945Y-42388308D01*
X225100945Y-42388308D02*
X225208695Y-42442183D01*
X225208695Y-42442183D02*
X225262570Y-42442183D01*
X225262570Y-42442183D02*
X225451131Y-42253621D01*
X225451131Y-42253621D02*
X225343382Y-42145871D01*
X225451131Y-42738494D02*
X226016817Y-42172809D01*
X226016817Y-42172809D02*
X226232316Y-42388308D01*
X226232316Y-42388308D02*
X226259253Y-42469120D01*
X226259253Y-42469120D02*
X226259253Y-42522995D01*
X226259253Y-42522995D02*
X226232316Y-42603807D01*
X226232316Y-42603807D02*
X226151504Y-42684619D01*
X226151504Y-42684619D02*
X226070692Y-42711557D01*
X226070692Y-42711557D02*
X226016817Y-42711557D01*
X226016817Y-42711557D02*
X225936005Y-42684619D01*
X225936005Y-42684619D02*
X225720505Y-42469120D01*
X226690252Y-42846244D02*
X226744127Y-42900119D01*
X226744127Y-42900119D02*
X226771064Y-42980931D01*
X226771064Y-42980931D02*
X226771064Y-43034806D01*
X226771064Y-43034806D02*
X226744127Y-43115618D01*
X226744127Y-43115618D02*
X226663314Y-43250305D01*
X226663314Y-43250305D02*
X226528627Y-43384992D01*
X226528627Y-43384992D02*
X226393940Y-43465804D01*
X226393940Y-43465804D02*
X226313128Y-43492741D01*
X226313128Y-43492741D02*
X226259253Y-43492741D01*
X226259253Y-43492741D02*
X226178441Y-43465804D01*
X226178441Y-43465804D02*
X226124566Y-43411929D01*
X226124566Y-43411929D02*
X226097629Y-43331117D01*
X226097629Y-43331117D02*
X226097629Y-43277242D01*
X226097629Y-43277242D02*
X226124566Y-43196430D01*
X226124566Y-43196430D02*
X226205379Y-43061743D01*
X226205379Y-43061743D02*
X226340066Y-42927056D01*
X226340066Y-42927056D02*
X226474753Y-42846244D01*
X226474753Y-42846244D02*
X226555565Y-42819306D01*
X226555565Y-42819306D02*
X226609440Y-42819306D01*
X226609440Y-42819306D02*
X226690252Y-42846244D01*
X220613568Y-67503435D02*
X220586631Y-67422623D01*
X220586631Y-67422623D02*
X220505819Y-67341811D01*
X220505819Y-67341811D02*
X220398069Y-67287936D01*
X220398069Y-67287936D02*
X220290319Y-67287936D01*
X220290319Y-67287936D02*
X220209507Y-67314873D01*
X220209507Y-67314873D02*
X220074820Y-67395685D01*
X220074820Y-67395685D02*
X219994008Y-67476498D01*
X219994008Y-67476498D02*
X219913196Y-67611185D01*
X219913196Y-67611185D02*
X219886258Y-67691997D01*
X219886258Y-67691997D02*
X219886258Y-67799746D01*
X219886258Y-67799746D02*
X219940133Y-67907496D01*
X219940133Y-67907496D02*
X219994008Y-67961371D01*
X219994008Y-67961371D02*
X220101758Y-68015246D01*
X220101758Y-68015246D02*
X220155632Y-68015246D01*
X220155632Y-68015246D02*
X220344194Y-67826684D01*
X220344194Y-67826684D02*
X220236445Y-67718934D01*
X220344194Y-68311557D02*
X220909880Y-67745872D01*
X220909880Y-67745872D02*
X220667443Y-68634806D01*
X220667443Y-68634806D02*
X221233128Y-68069120D01*
X220936817Y-68904180D02*
X221502502Y-68338494D01*
X221502502Y-68338494D02*
X221637189Y-68473181D01*
X221637189Y-68473181D02*
X221691064Y-68580931D01*
X221691064Y-68580931D02*
X221691064Y-68688680D01*
X221691064Y-68688680D02*
X221664127Y-68769493D01*
X221664127Y-68769493D02*
X221583314Y-68904180D01*
X221583314Y-68904180D02*
X221502502Y-68984992D01*
X221502502Y-68984992D02*
X221367815Y-69065804D01*
X221367815Y-69065804D02*
X221287003Y-69092741D01*
X221287003Y-69092741D02*
X221179253Y-69092741D01*
X221179253Y-69092741D02*
X221071504Y-69038867D01*
X221071504Y-69038867D02*
X220936817Y-68904180D01*
X193798779Y-56536819D02*
X193798779Y-55536819D01*
X193798779Y-55536819D02*
X194179731Y-55536819D01*
X194179731Y-55536819D02*
X194274969Y-55584438D01*
X194274969Y-55584438D02*
X194322588Y-55632057D01*
X194322588Y-55632057D02*
X194370207Y-55727295D01*
X194370207Y-55727295D02*
X194370207Y-55870152D01*
X194370207Y-55870152D02*
X194322588Y-55965390D01*
X194322588Y-55965390D02*
X194274969Y-56013009D01*
X194274969Y-56013009D02*
X194179731Y-56060628D01*
X194179731Y-56060628D02*
X193798779Y-56060628D01*
X194798779Y-56536819D02*
X194798779Y-55870152D01*
X194798779Y-55536819D02*
X194751160Y-55584438D01*
X194751160Y-55584438D02*
X194798779Y-55632057D01*
X194798779Y-55632057D02*
X194846398Y-55584438D01*
X194846398Y-55584438D02*
X194798779Y-55536819D01*
X194798779Y-55536819D02*
X194798779Y-55632057D01*
X196036874Y-56536819D02*
X196036874Y-55536819D01*
X196036874Y-55536819D02*
X196417826Y-55536819D01*
X196417826Y-55536819D02*
X196513064Y-55584438D01*
X196513064Y-55584438D02*
X196560683Y-55632057D01*
X196560683Y-55632057D02*
X196608302Y-55727295D01*
X196608302Y-55727295D02*
X196608302Y-55870152D01*
X196608302Y-55870152D02*
X196560683Y-55965390D01*
X196560683Y-55965390D02*
X196513064Y-56013009D01*
X196513064Y-56013009D02*
X196417826Y-56060628D01*
X196417826Y-56060628D02*
X196036874Y-56060628D01*
X197036874Y-56536819D02*
X197036874Y-55870152D01*
X197036874Y-55536819D02*
X196989255Y-55584438D01*
X196989255Y-55584438D02*
X197036874Y-55632057D01*
X197036874Y-55632057D02*
X197084493Y-55584438D01*
X197084493Y-55584438D02*
X197036874Y-55536819D01*
X197036874Y-55536819D02*
X197036874Y-55632057D01*
X197941635Y-56489200D02*
X197846397Y-56536819D01*
X197846397Y-56536819D02*
X197655921Y-56536819D01*
X197655921Y-56536819D02*
X197560683Y-56489200D01*
X197560683Y-56489200D02*
X197513064Y-56441580D01*
X197513064Y-56441580D02*
X197465445Y-56346342D01*
X197465445Y-56346342D02*
X197465445Y-56060628D01*
X197465445Y-56060628D02*
X197513064Y-55965390D01*
X197513064Y-55965390D02*
X197560683Y-55917771D01*
X197560683Y-55917771D02*
X197655921Y-55870152D01*
X197655921Y-55870152D02*
X197846397Y-55870152D01*
X197846397Y-55870152D02*
X197941635Y-55917771D01*
X198513064Y-56536819D02*
X198417826Y-56489200D01*
X198417826Y-56489200D02*
X198370207Y-56441580D01*
X198370207Y-56441580D02*
X198322588Y-56346342D01*
X198322588Y-56346342D02*
X198322588Y-56060628D01*
X198322588Y-56060628D02*
X198370207Y-55965390D01*
X198370207Y-55965390D02*
X198417826Y-55917771D01*
X198417826Y-55917771D02*
X198513064Y-55870152D01*
X198513064Y-55870152D02*
X198655921Y-55870152D01*
X198655921Y-55870152D02*
X198751159Y-55917771D01*
X198751159Y-55917771D02*
X198798778Y-55965390D01*
X198798778Y-55965390D02*
X198846397Y-56060628D01*
X198846397Y-56060628D02*
X198846397Y-56346342D01*
X198846397Y-56346342D02*
X198798778Y-56441580D01*
X198798778Y-56441580D02*
X198751159Y-56489200D01*
X198751159Y-56489200D02*
X198655921Y-56536819D01*
X198655921Y-56536819D02*
X198513064Y-56536819D01*
X200179731Y-56536819D02*
X200084493Y-56489200D01*
X200084493Y-56489200D02*
X200036874Y-56441580D01*
X200036874Y-56441580D02*
X199989255Y-56346342D01*
X199989255Y-56346342D02*
X199989255Y-56060628D01*
X199989255Y-56060628D02*
X200036874Y-55965390D01*
X200036874Y-55965390D02*
X200084493Y-55917771D01*
X200084493Y-55917771D02*
X200179731Y-55870152D01*
X200179731Y-55870152D02*
X200322588Y-55870152D01*
X200322588Y-55870152D02*
X200417826Y-55917771D01*
X200417826Y-55917771D02*
X200465445Y-55965390D01*
X200465445Y-55965390D02*
X200513064Y-56060628D01*
X200513064Y-56060628D02*
X200513064Y-56346342D01*
X200513064Y-56346342D02*
X200465445Y-56441580D01*
X200465445Y-56441580D02*
X200417826Y-56489200D01*
X200417826Y-56489200D02*
X200322588Y-56536819D01*
X200322588Y-56536819D02*
X200179731Y-56536819D01*
X200941636Y-56536819D02*
X200941636Y-55870152D01*
X200941636Y-56060628D02*
X200989255Y-55965390D01*
X200989255Y-55965390D02*
X201036874Y-55917771D01*
X201036874Y-55917771D02*
X201132112Y-55870152D01*
X201132112Y-55870152D02*
X201227350Y-55870152D01*
X202703541Y-56489200D02*
X202608303Y-56536819D01*
X202608303Y-56536819D02*
X202417827Y-56536819D01*
X202417827Y-56536819D02*
X202322589Y-56489200D01*
X202322589Y-56489200D02*
X202274970Y-56393961D01*
X202274970Y-56393961D02*
X202274970Y-56013009D01*
X202274970Y-56013009D02*
X202322589Y-55917771D01*
X202322589Y-55917771D02*
X202417827Y-55870152D01*
X202417827Y-55870152D02*
X202608303Y-55870152D01*
X202608303Y-55870152D02*
X202703541Y-55917771D01*
X202703541Y-55917771D02*
X202751160Y-56013009D01*
X202751160Y-56013009D02*
X202751160Y-56108247D01*
X202751160Y-56108247D02*
X202274970Y-56203485D01*
X203608303Y-55870152D02*
X203608303Y-56870152D01*
X203608303Y-56489200D02*
X203513065Y-56536819D01*
X203513065Y-56536819D02*
X203322589Y-56536819D01*
X203322589Y-56536819D02*
X203227351Y-56489200D01*
X203227351Y-56489200D02*
X203179732Y-56441580D01*
X203179732Y-56441580D02*
X203132113Y-56346342D01*
X203132113Y-56346342D02*
X203132113Y-56060628D01*
X203132113Y-56060628D02*
X203179732Y-55965390D01*
X203179732Y-55965390D02*
X203227351Y-55917771D01*
X203227351Y-55917771D02*
X203322589Y-55870152D01*
X203322589Y-55870152D02*
X203513065Y-55870152D01*
X203513065Y-55870152D02*
X203608303Y-55917771D01*
X204513065Y-55870152D02*
X204513065Y-56536819D01*
X204084494Y-55870152D02*
X204084494Y-56393961D01*
X204084494Y-56393961D02*
X204132113Y-56489200D01*
X204132113Y-56489200D02*
X204227351Y-56536819D01*
X204227351Y-56536819D02*
X204370208Y-56536819D01*
X204370208Y-56536819D02*
X204465446Y-56489200D01*
X204465446Y-56489200D02*
X204513065Y-56441580D01*
X204989256Y-56536819D02*
X204989256Y-55870152D01*
X204989256Y-55536819D02*
X204941637Y-55584438D01*
X204941637Y-55584438D02*
X204989256Y-55632057D01*
X204989256Y-55632057D02*
X205036875Y-55584438D01*
X205036875Y-55584438D02*
X204989256Y-55536819D01*
X204989256Y-55536819D02*
X204989256Y-55632057D01*
X205370208Y-55870152D02*
X205608303Y-56536819D01*
X205608303Y-56536819D02*
X205846398Y-55870152D01*
X206655922Y-56536819D02*
X206655922Y-56013009D01*
X206655922Y-56013009D02*
X206608303Y-55917771D01*
X206608303Y-55917771D02*
X206513065Y-55870152D01*
X206513065Y-55870152D02*
X206322589Y-55870152D01*
X206322589Y-55870152D02*
X206227351Y-55917771D01*
X206655922Y-56489200D02*
X206560684Y-56536819D01*
X206560684Y-56536819D02*
X206322589Y-56536819D01*
X206322589Y-56536819D02*
X206227351Y-56489200D01*
X206227351Y-56489200D02*
X206179732Y-56393961D01*
X206179732Y-56393961D02*
X206179732Y-56298723D01*
X206179732Y-56298723D02*
X206227351Y-56203485D01*
X206227351Y-56203485D02*
X206322589Y-56155866D01*
X206322589Y-56155866D02*
X206560684Y-56155866D01*
X206560684Y-56155866D02*
X206655922Y-56108247D01*
X207274970Y-56536819D02*
X207179732Y-56489200D01*
X207179732Y-56489200D02*
X207132113Y-56393961D01*
X207132113Y-56393961D02*
X207132113Y-55536819D01*
X208036875Y-56489200D02*
X207941637Y-56536819D01*
X207941637Y-56536819D02*
X207751161Y-56536819D01*
X207751161Y-56536819D02*
X207655923Y-56489200D01*
X207655923Y-56489200D02*
X207608304Y-56393961D01*
X207608304Y-56393961D02*
X207608304Y-56013009D01*
X207608304Y-56013009D02*
X207655923Y-55917771D01*
X207655923Y-55917771D02*
X207751161Y-55870152D01*
X207751161Y-55870152D02*
X207941637Y-55870152D01*
X207941637Y-55870152D02*
X208036875Y-55917771D01*
X208036875Y-55917771D02*
X208084494Y-56013009D01*
X208084494Y-56013009D02*
X208084494Y-56108247D01*
X208084494Y-56108247D02*
X207608304Y-56203485D01*
X208513066Y-55870152D02*
X208513066Y-56536819D01*
X208513066Y-55965390D02*
X208560685Y-55917771D01*
X208560685Y-55917771D02*
X208655923Y-55870152D01*
X208655923Y-55870152D02*
X208798780Y-55870152D01*
X208798780Y-55870152D02*
X208894018Y-55917771D01*
X208894018Y-55917771D02*
X208941637Y-56013009D01*
X208941637Y-56013009D02*
X208941637Y-56536819D01*
X209274971Y-55870152D02*
X209655923Y-55870152D01*
X209417828Y-55536819D02*
X209417828Y-56393961D01*
X209417828Y-56393961D02*
X209465447Y-56489200D01*
X209465447Y-56489200D02*
X209560685Y-56536819D01*
X209560685Y-56536819D02*
X209655923Y-56536819D01*
X215560505Y-41930372D02*
X215533568Y-41849560D01*
X215533568Y-41849560D02*
X215452756Y-41768748D01*
X215452756Y-41768748D02*
X215345006Y-41714873D01*
X215345006Y-41714873D02*
X215237257Y-41714873D01*
X215237257Y-41714873D02*
X215156444Y-41741810D01*
X215156444Y-41741810D02*
X215021757Y-41822623D01*
X215021757Y-41822623D02*
X214940945Y-41903435D01*
X214940945Y-41903435D02*
X214860133Y-42038122D01*
X214860133Y-42038122D02*
X214833196Y-42118934D01*
X214833196Y-42118934D02*
X214833196Y-42226684D01*
X214833196Y-42226684D02*
X214887070Y-42334433D01*
X214887070Y-42334433D02*
X214940945Y-42388308D01*
X214940945Y-42388308D02*
X215048695Y-42442183D01*
X215048695Y-42442183D02*
X215102570Y-42442183D01*
X215102570Y-42442183D02*
X215291131Y-42253621D01*
X215291131Y-42253621D02*
X215183382Y-42145871D01*
X215291131Y-42738494D02*
X215856817Y-42172809D01*
X215856817Y-42172809D02*
X216072316Y-42388308D01*
X216072316Y-42388308D02*
X216099253Y-42469120D01*
X216099253Y-42469120D02*
X216099253Y-42522995D01*
X216099253Y-42522995D02*
X216072316Y-42603807D01*
X216072316Y-42603807D02*
X215991504Y-42684619D01*
X215991504Y-42684619D02*
X215910692Y-42711557D01*
X215910692Y-42711557D02*
X215856817Y-42711557D01*
X215856817Y-42711557D02*
X215776005Y-42684619D01*
X215776005Y-42684619D02*
X215560505Y-42469120D01*
X216368627Y-42684619D02*
X216718814Y-43034806D01*
X216718814Y-43034806D02*
X216314753Y-43061743D01*
X216314753Y-43061743D02*
X216395565Y-43142555D01*
X216395565Y-43142555D02*
X216422502Y-43223367D01*
X216422502Y-43223367D02*
X216422502Y-43277242D01*
X216422502Y-43277242D02*
X216395565Y-43358054D01*
X216395565Y-43358054D02*
X216260878Y-43492741D01*
X216260878Y-43492741D02*
X216180066Y-43519679D01*
X216180066Y-43519679D02*
X216126191Y-43519679D01*
X216126191Y-43519679D02*
X216045379Y-43492741D01*
X216045379Y-43492741D02*
X215883754Y-43331117D01*
X215883754Y-43331117D02*
X215856817Y-43250305D01*
X215856817Y-43250305D02*
X215856817Y-43196430D01*
X210465131Y-67514998D02*
X210438194Y-67434185D01*
X210438194Y-67434185D02*
X210357381Y-67353373D01*
X210357381Y-67353373D02*
X210249632Y-67299498D01*
X210249632Y-67299498D02*
X210141882Y-67299498D01*
X210141882Y-67299498D02*
X210061070Y-67326436D01*
X210061070Y-67326436D02*
X209926383Y-67407248D01*
X209926383Y-67407248D02*
X209845571Y-67488060D01*
X209845571Y-67488060D02*
X209764758Y-67622747D01*
X209764758Y-67622747D02*
X209737821Y-67703560D01*
X209737821Y-67703560D02*
X209737821Y-67811309D01*
X209737821Y-67811309D02*
X209791696Y-67919059D01*
X209791696Y-67919059D02*
X209845571Y-67972934D01*
X209845571Y-67972934D02*
X209953320Y-68026808D01*
X209953320Y-68026808D02*
X210007195Y-68026808D01*
X210007195Y-68026808D02*
X210195757Y-67838247D01*
X210195757Y-67838247D02*
X210088007Y-67730497D01*
X210195757Y-68323120D02*
X210761442Y-67757434D01*
X210761442Y-67757434D02*
X210976942Y-67972934D01*
X210976942Y-67972934D02*
X211003879Y-68053746D01*
X211003879Y-68053746D02*
X211003879Y-68107621D01*
X211003879Y-68107621D02*
X210976942Y-68188433D01*
X210976942Y-68188433D02*
X210896129Y-68269245D01*
X210896129Y-68269245D02*
X210815317Y-68296182D01*
X210815317Y-68296182D02*
X210761442Y-68296182D01*
X210761442Y-68296182D02*
X210680630Y-68269245D01*
X210680630Y-68269245D02*
X210465131Y-68053746D01*
X211246316Y-68350057D02*
X211300190Y-68350057D01*
X211300190Y-68350057D02*
X211381003Y-68376995D01*
X211381003Y-68376995D02*
X211515690Y-68511682D01*
X211515690Y-68511682D02*
X211542627Y-68592494D01*
X211542627Y-68592494D02*
X211542627Y-68646369D01*
X211542627Y-68646369D02*
X211515690Y-68727181D01*
X211515690Y-68727181D02*
X211461815Y-68781056D01*
X211461815Y-68781056D02*
X211354065Y-68834930D01*
X211354065Y-68834930D02*
X210707568Y-68834930D01*
X210707568Y-68834930D02*
X211057754Y-69185117D01*
X211704252Y-69185117D02*
X211677314Y-69104305D01*
X211677314Y-69104305D02*
X211677314Y-69050430D01*
X211677314Y-69050430D02*
X211704252Y-68969618D01*
X211704252Y-68969618D02*
X211731189Y-68942680D01*
X211731189Y-68942680D02*
X211812001Y-68915743D01*
X211812001Y-68915743D02*
X211865876Y-68915743D01*
X211865876Y-68915743D02*
X211946688Y-68942680D01*
X211946688Y-68942680D02*
X212054438Y-69050430D01*
X212054438Y-69050430D02*
X212081375Y-69131242D01*
X212081375Y-69131242D02*
X212081375Y-69185117D01*
X212081375Y-69185117D02*
X212054438Y-69265929D01*
X212054438Y-69265929D02*
X212027500Y-69292866D01*
X212027500Y-69292866D02*
X211946688Y-69319804D01*
X211946688Y-69319804D02*
X211892813Y-69319804D01*
X211892813Y-69319804D02*
X211812001Y-69292866D01*
X211812001Y-69292866D02*
X211704252Y-69185117D01*
X211704252Y-69185117D02*
X211623439Y-69158179D01*
X211623439Y-69158179D02*
X211569565Y-69158179D01*
X211569565Y-69158179D02*
X211488752Y-69185117D01*
X211488752Y-69185117D02*
X211381003Y-69292866D01*
X211381003Y-69292866D02*
X211354065Y-69373679D01*
X211354065Y-69373679D02*
X211354065Y-69427553D01*
X211354065Y-69427553D02*
X211381003Y-69508366D01*
X211381003Y-69508366D02*
X211488752Y-69616115D01*
X211488752Y-69616115D02*
X211569565Y-69643053D01*
X211569565Y-69643053D02*
X211623439Y-69643053D01*
X211623439Y-69643053D02*
X211704252Y-69616115D01*
X211704252Y-69616115D02*
X211812001Y-69508366D01*
X211812001Y-69508366D02*
X211838939Y-69427553D01*
X211838939Y-69427553D02*
X211838939Y-69373679D01*
X211838939Y-69373679D02*
X211812001Y-69292866D01*
X195213568Y-67503435D02*
X195186631Y-67422623D01*
X195186631Y-67422623D02*
X195105819Y-67341811D01*
X195105819Y-67341811D02*
X194998069Y-67287936D01*
X194998069Y-67287936D02*
X194890319Y-67287936D01*
X194890319Y-67287936D02*
X194809507Y-67314873D01*
X194809507Y-67314873D02*
X194674820Y-67395685D01*
X194674820Y-67395685D02*
X194594008Y-67476498D01*
X194594008Y-67476498D02*
X194513196Y-67611185D01*
X194513196Y-67611185D02*
X194486258Y-67691997D01*
X194486258Y-67691997D02*
X194486258Y-67799746D01*
X194486258Y-67799746D02*
X194540133Y-67907496D01*
X194540133Y-67907496D02*
X194594008Y-67961371D01*
X194594008Y-67961371D02*
X194701758Y-68015246D01*
X194701758Y-68015246D02*
X194755632Y-68015246D01*
X194755632Y-68015246D02*
X194944194Y-67826684D01*
X194944194Y-67826684D02*
X194836445Y-67718934D01*
X194944194Y-68311557D02*
X195509880Y-67745872D01*
X195509880Y-67745872D02*
X195267443Y-68634806D01*
X195267443Y-68634806D02*
X195833128Y-68069120D01*
X195536817Y-68904180D02*
X196102502Y-68338494D01*
X196102502Y-68338494D02*
X196237189Y-68473181D01*
X196237189Y-68473181D02*
X196291064Y-68580931D01*
X196291064Y-68580931D02*
X196291064Y-68688680D01*
X196291064Y-68688680D02*
X196264127Y-68769493D01*
X196264127Y-68769493D02*
X196183314Y-68904180D01*
X196183314Y-68904180D02*
X196102502Y-68984992D01*
X196102502Y-68984992D02*
X195967815Y-69065804D01*
X195967815Y-69065804D02*
X195887003Y-69092741D01*
X195887003Y-69092741D02*
X195779253Y-69092741D01*
X195779253Y-69092741D02*
X195671504Y-69038867D01*
X195671504Y-69038867D02*
X195536817Y-68904180D01*
X205121131Y-67514998D02*
X205094194Y-67434185D01*
X205094194Y-67434185D02*
X205013381Y-67353373D01*
X205013381Y-67353373D02*
X204905632Y-67299498D01*
X204905632Y-67299498D02*
X204797882Y-67299498D01*
X204797882Y-67299498D02*
X204717070Y-67326436D01*
X204717070Y-67326436D02*
X204582383Y-67407248D01*
X204582383Y-67407248D02*
X204501571Y-67488060D01*
X204501571Y-67488060D02*
X204420758Y-67622747D01*
X204420758Y-67622747D02*
X204393821Y-67703560D01*
X204393821Y-67703560D02*
X204393821Y-67811309D01*
X204393821Y-67811309D02*
X204447696Y-67919059D01*
X204447696Y-67919059D02*
X204501571Y-67972934D01*
X204501571Y-67972934D02*
X204609320Y-68026808D01*
X204609320Y-68026808D02*
X204663195Y-68026808D01*
X204663195Y-68026808D02*
X204851757Y-67838247D01*
X204851757Y-67838247D02*
X204744007Y-67730497D01*
X204851757Y-68323120D02*
X205417442Y-67757434D01*
X205417442Y-67757434D02*
X205632942Y-67972934D01*
X205632942Y-67972934D02*
X205659879Y-68053746D01*
X205659879Y-68053746D02*
X205659879Y-68107621D01*
X205659879Y-68107621D02*
X205632942Y-68188433D01*
X205632942Y-68188433D02*
X205552129Y-68269245D01*
X205552129Y-68269245D02*
X205471317Y-68296182D01*
X205471317Y-68296182D02*
X205417442Y-68296182D01*
X205417442Y-68296182D02*
X205336630Y-68269245D01*
X205336630Y-68269245D02*
X205121131Y-68053746D01*
X205902316Y-68350057D02*
X205956190Y-68350057D01*
X205956190Y-68350057D02*
X206037003Y-68376995D01*
X206037003Y-68376995D02*
X206171690Y-68511682D01*
X206171690Y-68511682D02*
X206198627Y-68592494D01*
X206198627Y-68592494D02*
X206198627Y-68646369D01*
X206198627Y-68646369D02*
X206171690Y-68727181D01*
X206171690Y-68727181D02*
X206117815Y-68781056D01*
X206117815Y-68781056D02*
X206010065Y-68834930D01*
X206010065Y-68834930D02*
X205363568Y-68834930D01*
X205363568Y-68834930D02*
X205713754Y-69185117D01*
X206468001Y-68807993D02*
X206845125Y-69185117D01*
X206845125Y-69185117D02*
X206037003Y-69508366D01*
X182513568Y-41903435D02*
X182486631Y-41822623D01*
X182486631Y-41822623D02*
X182405819Y-41741811D01*
X182405819Y-41741811D02*
X182298069Y-41687936D01*
X182298069Y-41687936D02*
X182190319Y-41687936D01*
X182190319Y-41687936D02*
X182109507Y-41714873D01*
X182109507Y-41714873D02*
X181974820Y-41795685D01*
X181974820Y-41795685D02*
X181894008Y-41876498D01*
X181894008Y-41876498D02*
X181813196Y-42011185D01*
X181813196Y-42011185D02*
X181786258Y-42091997D01*
X181786258Y-42091997D02*
X181786258Y-42199746D01*
X181786258Y-42199746D02*
X181840133Y-42307496D01*
X181840133Y-42307496D02*
X181894008Y-42361371D01*
X181894008Y-42361371D02*
X182001758Y-42415246D01*
X182001758Y-42415246D02*
X182055632Y-42415246D01*
X182055632Y-42415246D02*
X182244194Y-42226684D01*
X182244194Y-42226684D02*
X182136445Y-42118934D01*
X182244194Y-42711557D02*
X182809880Y-42145872D01*
X182809880Y-42145872D02*
X182567443Y-43034806D01*
X182567443Y-43034806D02*
X183133128Y-42469120D01*
X182836817Y-43304180D02*
X183402502Y-42738494D01*
X183402502Y-42738494D02*
X183537189Y-42873181D01*
X183537189Y-42873181D02*
X183591064Y-42980931D01*
X183591064Y-42980931D02*
X183591064Y-43088680D01*
X183591064Y-43088680D02*
X183564127Y-43169493D01*
X183564127Y-43169493D02*
X183483314Y-43304180D01*
X183483314Y-43304180D02*
X183402502Y-43384992D01*
X183402502Y-43384992D02*
X183267815Y-43465804D01*
X183267815Y-43465804D02*
X183187003Y-43492741D01*
X183187003Y-43492741D02*
X183079253Y-43492741D01*
X183079253Y-43492741D02*
X182971504Y-43438867D01*
X182971504Y-43438867D02*
X182836817Y-43304180D01*
X184811131Y-67514998D02*
X184784194Y-67434185D01*
X184784194Y-67434185D02*
X184703381Y-67353373D01*
X184703381Y-67353373D02*
X184595632Y-67299498D01*
X184595632Y-67299498D02*
X184487882Y-67299498D01*
X184487882Y-67299498D02*
X184407070Y-67326436D01*
X184407070Y-67326436D02*
X184272383Y-67407248D01*
X184272383Y-67407248D02*
X184191571Y-67488060D01*
X184191571Y-67488060D02*
X184110758Y-67622747D01*
X184110758Y-67622747D02*
X184083821Y-67703560D01*
X184083821Y-67703560D02*
X184083821Y-67811309D01*
X184083821Y-67811309D02*
X184137696Y-67919059D01*
X184137696Y-67919059D02*
X184191571Y-67972934D01*
X184191571Y-67972934D02*
X184299320Y-68026808D01*
X184299320Y-68026808D02*
X184353195Y-68026808D01*
X184353195Y-68026808D02*
X184541757Y-67838247D01*
X184541757Y-67838247D02*
X184434007Y-67730497D01*
X184541757Y-68323120D02*
X185107442Y-67757434D01*
X185107442Y-67757434D02*
X185322942Y-67972934D01*
X185322942Y-67972934D02*
X185349879Y-68053746D01*
X185349879Y-68053746D02*
X185349879Y-68107621D01*
X185349879Y-68107621D02*
X185322942Y-68188433D01*
X185322942Y-68188433D02*
X185242129Y-68269245D01*
X185242129Y-68269245D02*
X185161317Y-68296182D01*
X185161317Y-68296182D02*
X185107442Y-68296182D01*
X185107442Y-68296182D02*
X185026630Y-68269245D01*
X185026630Y-68269245D02*
X184811131Y-68053746D01*
X185403754Y-69185117D02*
X185080505Y-68861868D01*
X185242129Y-69023492D02*
X185807815Y-68457807D01*
X185807815Y-68457807D02*
X185673128Y-68484744D01*
X185673128Y-68484744D02*
X185565378Y-68484744D01*
X185565378Y-68484744D02*
X185484566Y-68457807D01*
X186050252Y-69185117D02*
X186023314Y-69104305D01*
X186023314Y-69104305D02*
X186023314Y-69050430D01*
X186023314Y-69050430D02*
X186050252Y-68969618D01*
X186050252Y-68969618D02*
X186077189Y-68942680D01*
X186077189Y-68942680D02*
X186158001Y-68915743D01*
X186158001Y-68915743D02*
X186211876Y-68915743D01*
X186211876Y-68915743D02*
X186292688Y-68942680D01*
X186292688Y-68942680D02*
X186400438Y-69050430D01*
X186400438Y-69050430D02*
X186427375Y-69131242D01*
X186427375Y-69131242D02*
X186427375Y-69185117D01*
X186427375Y-69185117D02*
X186400438Y-69265929D01*
X186400438Y-69265929D02*
X186373500Y-69292866D01*
X186373500Y-69292866D02*
X186292688Y-69319804D01*
X186292688Y-69319804D02*
X186238813Y-69319804D01*
X186238813Y-69319804D02*
X186158001Y-69292866D01*
X186158001Y-69292866D02*
X186050252Y-69185117D01*
X186050252Y-69185117D02*
X185969439Y-69158179D01*
X185969439Y-69158179D02*
X185915565Y-69158179D01*
X185915565Y-69158179D02*
X185834752Y-69185117D01*
X185834752Y-69185117D02*
X185727003Y-69292866D01*
X185727003Y-69292866D02*
X185700065Y-69373679D01*
X185700065Y-69373679D02*
X185700065Y-69427553D01*
X185700065Y-69427553D02*
X185727003Y-69508366D01*
X185727003Y-69508366D02*
X185834752Y-69616115D01*
X185834752Y-69616115D02*
X185915565Y-69643053D01*
X185915565Y-69643053D02*
X185969439Y-69643053D01*
X185969439Y-69643053D02*
X186050252Y-69616115D01*
X186050252Y-69616115D02*
X186158001Y-69508366D01*
X186158001Y-69508366D02*
X186184939Y-69427553D01*
X186184939Y-69427553D02*
X186184939Y-69373679D01*
X186184939Y-69373679D02*
X186158001Y-69292866D01*
X207913568Y-41903435D02*
X207886631Y-41822623D01*
X207886631Y-41822623D02*
X207805819Y-41741811D01*
X207805819Y-41741811D02*
X207698069Y-41687936D01*
X207698069Y-41687936D02*
X207590319Y-41687936D01*
X207590319Y-41687936D02*
X207509507Y-41714873D01*
X207509507Y-41714873D02*
X207374820Y-41795685D01*
X207374820Y-41795685D02*
X207294008Y-41876498D01*
X207294008Y-41876498D02*
X207213196Y-42011185D01*
X207213196Y-42011185D02*
X207186258Y-42091997D01*
X207186258Y-42091997D02*
X207186258Y-42199746D01*
X207186258Y-42199746D02*
X207240133Y-42307496D01*
X207240133Y-42307496D02*
X207294008Y-42361371D01*
X207294008Y-42361371D02*
X207401758Y-42415246D01*
X207401758Y-42415246D02*
X207455632Y-42415246D01*
X207455632Y-42415246D02*
X207644194Y-42226684D01*
X207644194Y-42226684D02*
X207536445Y-42118934D01*
X207644194Y-42711557D02*
X208209880Y-42145872D01*
X208209880Y-42145872D02*
X207967443Y-43034806D01*
X207967443Y-43034806D02*
X208533128Y-42469120D01*
X208236817Y-43304180D02*
X208802502Y-42738494D01*
X208802502Y-42738494D02*
X208937189Y-42873181D01*
X208937189Y-42873181D02*
X208991064Y-42980931D01*
X208991064Y-42980931D02*
X208991064Y-43088680D01*
X208991064Y-43088680D02*
X208964127Y-43169493D01*
X208964127Y-43169493D02*
X208883314Y-43304180D01*
X208883314Y-43304180D02*
X208802502Y-43384992D01*
X208802502Y-43384992D02*
X208667815Y-43465804D01*
X208667815Y-43465804D02*
X208587003Y-43492741D01*
X208587003Y-43492741D02*
X208479253Y-43492741D01*
X208479253Y-43492741D02*
X208371504Y-43438867D01*
X208371504Y-43438867D02*
X208236817Y-43304180D01*
X189891131Y-67514998D02*
X189864194Y-67434185D01*
X189864194Y-67434185D02*
X189783381Y-67353373D01*
X189783381Y-67353373D02*
X189675632Y-67299498D01*
X189675632Y-67299498D02*
X189567882Y-67299498D01*
X189567882Y-67299498D02*
X189487070Y-67326436D01*
X189487070Y-67326436D02*
X189352383Y-67407248D01*
X189352383Y-67407248D02*
X189271571Y-67488060D01*
X189271571Y-67488060D02*
X189190758Y-67622747D01*
X189190758Y-67622747D02*
X189163821Y-67703560D01*
X189163821Y-67703560D02*
X189163821Y-67811309D01*
X189163821Y-67811309D02*
X189217696Y-67919059D01*
X189217696Y-67919059D02*
X189271571Y-67972934D01*
X189271571Y-67972934D02*
X189379320Y-68026808D01*
X189379320Y-68026808D02*
X189433195Y-68026808D01*
X189433195Y-68026808D02*
X189621757Y-67838247D01*
X189621757Y-67838247D02*
X189514007Y-67730497D01*
X189621757Y-68323120D02*
X190187442Y-67757434D01*
X190187442Y-67757434D02*
X190402942Y-67972934D01*
X190402942Y-67972934D02*
X190429879Y-68053746D01*
X190429879Y-68053746D02*
X190429879Y-68107621D01*
X190429879Y-68107621D02*
X190402942Y-68188433D01*
X190402942Y-68188433D02*
X190322129Y-68269245D01*
X190322129Y-68269245D02*
X190241317Y-68296182D01*
X190241317Y-68296182D02*
X190187442Y-68296182D01*
X190187442Y-68296182D02*
X190106630Y-68269245D01*
X190106630Y-68269245D02*
X189891131Y-68053746D01*
X190672316Y-68350057D02*
X190726190Y-68350057D01*
X190726190Y-68350057D02*
X190807003Y-68376995D01*
X190807003Y-68376995D02*
X190941690Y-68511682D01*
X190941690Y-68511682D02*
X190968627Y-68592494D01*
X190968627Y-68592494D02*
X190968627Y-68646369D01*
X190968627Y-68646369D02*
X190941690Y-68727181D01*
X190941690Y-68727181D02*
X190887815Y-68781056D01*
X190887815Y-68781056D02*
X190780065Y-68834930D01*
X190780065Y-68834930D02*
X190133568Y-68834930D01*
X190133568Y-68834930D02*
X190483754Y-69185117D01*
X191399626Y-68969618D02*
X191453500Y-69023492D01*
X191453500Y-69023492D02*
X191480438Y-69104305D01*
X191480438Y-69104305D02*
X191480438Y-69158179D01*
X191480438Y-69158179D02*
X191453500Y-69238992D01*
X191453500Y-69238992D02*
X191372688Y-69373679D01*
X191372688Y-69373679D02*
X191238001Y-69508366D01*
X191238001Y-69508366D02*
X191103314Y-69589178D01*
X191103314Y-69589178D02*
X191022502Y-69616115D01*
X191022502Y-69616115D02*
X190968627Y-69616115D01*
X190968627Y-69616115D02*
X190887815Y-69589178D01*
X190887815Y-69589178D02*
X190833940Y-69535303D01*
X190833940Y-69535303D02*
X190807003Y-69454491D01*
X190807003Y-69454491D02*
X190807003Y-69400616D01*
X190807003Y-69400616D02*
X190833940Y-69319804D01*
X190833940Y-69319804D02*
X190914752Y-69185117D01*
X190914752Y-69185117D02*
X191049439Y-69050430D01*
X191049439Y-69050430D02*
X191184126Y-68969618D01*
X191184126Y-68969618D02*
X191264939Y-68942680D01*
X191264939Y-68942680D02*
X191318813Y-68942680D01*
X191318813Y-68942680D02*
X191399626Y-68969618D01*
X179731131Y-41360998D02*
X179704194Y-41280185D01*
X179704194Y-41280185D02*
X179623381Y-41199373D01*
X179623381Y-41199373D02*
X179515632Y-41145498D01*
X179515632Y-41145498D02*
X179407882Y-41145498D01*
X179407882Y-41145498D02*
X179327070Y-41172436D01*
X179327070Y-41172436D02*
X179192383Y-41253248D01*
X179192383Y-41253248D02*
X179111571Y-41334060D01*
X179111571Y-41334060D02*
X179030758Y-41468747D01*
X179030758Y-41468747D02*
X179003821Y-41549560D01*
X179003821Y-41549560D02*
X179003821Y-41657309D01*
X179003821Y-41657309D02*
X179057696Y-41765059D01*
X179057696Y-41765059D02*
X179111571Y-41818934D01*
X179111571Y-41818934D02*
X179219320Y-41872808D01*
X179219320Y-41872808D02*
X179273195Y-41872808D01*
X179273195Y-41872808D02*
X179461757Y-41684247D01*
X179461757Y-41684247D02*
X179354007Y-41576497D01*
X179461757Y-42169120D02*
X180027442Y-41603434D01*
X180027442Y-41603434D02*
X180242942Y-41818934D01*
X180242942Y-41818934D02*
X180269879Y-41899746D01*
X180269879Y-41899746D02*
X180269879Y-41953621D01*
X180269879Y-41953621D02*
X180242942Y-42034433D01*
X180242942Y-42034433D02*
X180162129Y-42115245D01*
X180162129Y-42115245D02*
X180081317Y-42142182D01*
X180081317Y-42142182D02*
X180027442Y-42142182D01*
X180027442Y-42142182D02*
X179946630Y-42115245D01*
X179946630Y-42115245D02*
X179731131Y-41899746D01*
X180323754Y-43031117D02*
X180000505Y-42707868D01*
X180162129Y-42869492D02*
X180727815Y-42303807D01*
X180727815Y-42303807D02*
X180593128Y-42330744D01*
X180593128Y-42330744D02*
X180485378Y-42330744D01*
X180485378Y-42330744D02*
X180404566Y-42303807D01*
X181185751Y-43138866D02*
X180808627Y-43515990D01*
X181266563Y-42788680D02*
X180727815Y-43058054D01*
X180727815Y-43058054D02*
X181078001Y-43408240D01*
X213020505Y-41930372D02*
X212993568Y-41849560D01*
X212993568Y-41849560D02*
X212912756Y-41768748D01*
X212912756Y-41768748D02*
X212805006Y-41714873D01*
X212805006Y-41714873D02*
X212697257Y-41714873D01*
X212697257Y-41714873D02*
X212616444Y-41741810D01*
X212616444Y-41741810D02*
X212481757Y-41822623D01*
X212481757Y-41822623D02*
X212400945Y-41903435D01*
X212400945Y-41903435D02*
X212320133Y-42038122D01*
X212320133Y-42038122D02*
X212293196Y-42118934D01*
X212293196Y-42118934D02*
X212293196Y-42226684D01*
X212293196Y-42226684D02*
X212347070Y-42334433D01*
X212347070Y-42334433D02*
X212400945Y-42388308D01*
X212400945Y-42388308D02*
X212508695Y-42442183D01*
X212508695Y-42442183D02*
X212562570Y-42442183D01*
X212562570Y-42442183D02*
X212751131Y-42253621D01*
X212751131Y-42253621D02*
X212643382Y-42145871D01*
X212751131Y-42738494D02*
X213316817Y-42172809D01*
X213316817Y-42172809D02*
X213532316Y-42388308D01*
X213532316Y-42388308D02*
X213559253Y-42469120D01*
X213559253Y-42469120D02*
X213559253Y-42522995D01*
X213559253Y-42522995D02*
X213532316Y-42603807D01*
X213532316Y-42603807D02*
X213451504Y-42684619D01*
X213451504Y-42684619D02*
X213370692Y-42711557D01*
X213370692Y-42711557D02*
X213316817Y-42711557D01*
X213316817Y-42711557D02*
X213236005Y-42684619D01*
X213236005Y-42684619D02*
X213020505Y-42469120D01*
X213936377Y-43169493D02*
X213559253Y-43546616D01*
X214017189Y-42819306D02*
X213478441Y-43088680D01*
X213478441Y-43088680D02*
X213828627Y-43438867D01*
X212177950Y-67572064D02*
X212447324Y-67841438D01*
X211962450Y-67679813D02*
X212716698Y-67302690D01*
X212716698Y-67302690D02*
X212339574Y-68056937D01*
X212528136Y-68245499D02*
X213093821Y-67679813D01*
X213093821Y-67679813D02*
X213228508Y-67814500D01*
X213228508Y-67814500D02*
X213282383Y-67922250D01*
X213282383Y-67922250D02*
X213282383Y-68029999D01*
X213282383Y-68029999D02*
X213255446Y-68110812D01*
X213255446Y-68110812D02*
X213174633Y-68245499D01*
X213174633Y-68245499D02*
X213093821Y-68326311D01*
X213093821Y-68326311D02*
X212959134Y-68407123D01*
X212959134Y-68407123D02*
X212878322Y-68434060D01*
X212878322Y-68434060D02*
X212770572Y-68434060D01*
X212770572Y-68434060D02*
X212662823Y-68380186D01*
X212662823Y-68380186D02*
X212528136Y-68245499D01*
X213470945Y-69080558D02*
X213417070Y-69080558D01*
X213417070Y-69080558D02*
X213309320Y-69026683D01*
X213309320Y-69026683D02*
X213255446Y-68972808D01*
X213255446Y-68972808D02*
X213201571Y-68865059D01*
X213201571Y-68865059D02*
X213201571Y-68757309D01*
X213201571Y-68757309D02*
X213228508Y-68676497D01*
X213228508Y-68676497D02*
X213309320Y-68541810D01*
X213309320Y-68541810D02*
X213390133Y-68460998D01*
X213390133Y-68460998D02*
X213524820Y-68380186D01*
X213524820Y-68380186D02*
X213605632Y-68353248D01*
X213605632Y-68353248D02*
X213713381Y-68353248D01*
X213713381Y-68353248D02*
X213821131Y-68407123D01*
X213821131Y-68407123D02*
X213875006Y-68460998D01*
X213875006Y-68460998D02*
X213928881Y-68568747D01*
X213928881Y-68568747D02*
X213928881Y-68622622D01*
X213470945Y-69296057D02*
X213901943Y-69727056D01*
X214575378Y-69161370D02*
X214198255Y-69915618D01*
X214198255Y-69915618D02*
X214952502Y-69538494D01*
X214898627Y-70615990D02*
X214979439Y-70158054D01*
X214575378Y-70292741D02*
X215141064Y-69727056D01*
X215141064Y-69727056D02*
X215356563Y-69942555D01*
X215356563Y-69942555D02*
X215383500Y-70023367D01*
X215383500Y-70023367D02*
X215383500Y-70077242D01*
X215383500Y-70077242D02*
X215356563Y-70158054D01*
X215356563Y-70158054D02*
X215275751Y-70238866D01*
X215275751Y-70238866D02*
X215194938Y-70265804D01*
X215194938Y-70265804D02*
X215141064Y-70265804D01*
X215141064Y-70265804D02*
X215060251Y-70238866D01*
X215060251Y-70238866D02*
X214844752Y-70023367D01*
X215437375Y-70562115D02*
X215625937Y-70750677D01*
X215410438Y-71127800D02*
X215141064Y-70858426D01*
X215141064Y-70858426D02*
X215706749Y-70292741D01*
X215706749Y-70292741D02*
X215976123Y-70562115D01*
X216137748Y-71262488D02*
X215949186Y-71073926D01*
X215652874Y-71370237D02*
X216218560Y-70804552D01*
X216218560Y-70804552D02*
X216487934Y-71073926D01*
X225184414Y-67370406D02*
X224807290Y-68124653D01*
X224807290Y-68124653D02*
X225561537Y-67747529D01*
X225669287Y-68394027D02*
X225723161Y-68501776D01*
X225723161Y-68501776D02*
X225723161Y-68555651D01*
X225723161Y-68555651D02*
X225696224Y-68636463D01*
X225696224Y-68636463D02*
X225615412Y-68717276D01*
X225615412Y-68717276D02*
X225534600Y-68744213D01*
X225534600Y-68744213D02*
X225480725Y-68744213D01*
X225480725Y-68744213D02*
X225399913Y-68717276D01*
X225399913Y-68717276D02*
X225184413Y-68501776D01*
X225184413Y-68501776D02*
X225750099Y-67936091D01*
X225750099Y-67936091D02*
X225938661Y-68124653D01*
X225938661Y-68124653D02*
X225965598Y-68205465D01*
X225965598Y-68205465D02*
X225965598Y-68259340D01*
X225965598Y-68259340D02*
X225938661Y-68340152D01*
X225938661Y-68340152D02*
X225884786Y-68394027D01*
X225884786Y-68394027D02*
X225803974Y-68420964D01*
X225803974Y-68420964D02*
X225750099Y-68420964D01*
X225750099Y-68420964D02*
X225669287Y-68394027D01*
X225669287Y-68394027D02*
X225480725Y-68205465D01*
X226315784Y-68501776D02*
X225857848Y-68959712D01*
X225857848Y-68959712D02*
X225830911Y-69040524D01*
X225830911Y-69040524D02*
X225830911Y-69094399D01*
X225830911Y-69094399D02*
X225857848Y-69175211D01*
X225857848Y-69175211D02*
X225965598Y-69282961D01*
X225965598Y-69282961D02*
X226046410Y-69309898D01*
X226046410Y-69309898D02*
X226100285Y-69309898D01*
X226100285Y-69309898D02*
X226181097Y-69282961D01*
X226181097Y-69282961D02*
X226639033Y-68825025D01*
X226342722Y-69606210D02*
X226396596Y-69713959D01*
X226396596Y-69713959D02*
X226531283Y-69848646D01*
X226531283Y-69848646D02*
X226612096Y-69875584D01*
X226612096Y-69875584D02*
X226665970Y-69875584D01*
X226665970Y-69875584D02*
X226746783Y-69848646D01*
X226746783Y-69848646D02*
X226800657Y-69794771D01*
X226800657Y-69794771D02*
X226827595Y-69713959D01*
X226827595Y-69713959D02*
X226827595Y-69660084D01*
X226827595Y-69660084D02*
X226800657Y-69579272D01*
X226800657Y-69579272D02*
X226719845Y-69444585D01*
X226719845Y-69444585D02*
X226692908Y-69363773D01*
X226692908Y-69363773D02*
X226692908Y-69309898D01*
X226692908Y-69309898D02*
X226719845Y-69229086D01*
X226719845Y-69229086D02*
X226773720Y-69175211D01*
X226773720Y-69175211D02*
X226854532Y-69148274D01*
X226854532Y-69148274D02*
X226908407Y-69148274D01*
X226908407Y-69148274D02*
X226989219Y-69175211D01*
X226989219Y-69175211D02*
X227123906Y-69309898D01*
X227123906Y-69309898D02*
X227177781Y-69417648D01*
X192421131Y-67514998D02*
X192394194Y-67434185D01*
X192394194Y-67434185D02*
X192313381Y-67353373D01*
X192313381Y-67353373D02*
X192205632Y-67299498D01*
X192205632Y-67299498D02*
X192097882Y-67299498D01*
X192097882Y-67299498D02*
X192017070Y-67326436D01*
X192017070Y-67326436D02*
X191882383Y-67407248D01*
X191882383Y-67407248D02*
X191801571Y-67488060D01*
X191801571Y-67488060D02*
X191720758Y-67622747D01*
X191720758Y-67622747D02*
X191693821Y-67703560D01*
X191693821Y-67703560D02*
X191693821Y-67811309D01*
X191693821Y-67811309D02*
X191747696Y-67919059D01*
X191747696Y-67919059D02*
X191801571Y-67972934D01*
X191801571Y-67972934D02*
X191909320Y-68026808D01*
X191909320Y-68026808D02*
X191963195Y-68026808D01*
X191963195Y-68026808D02*
X192151757Y-67838247D01*
X192151757Y-67838247D02*
X192044007Y-67730497D01*
X192151757Y-68323120D02*
X192717442Y-67757434D01*
X192717442Y-67757434D02*
X192932942Y-67972934D01*
X192932942Y-67972934D02*
X192959879Y-68053746D01*
X192959879Y-68053746D02*
X192959879Y-68107621D01*
X192959879Y-68107621D02*
X192932942Y-68188433D01*
X192932942Y-68188433D02*
X192852129Y-68269245D01*
X192852129Y-68269245D02*
X192771317Y-68296182D01*
X192771317Y-68296182D02*
X192717442Y-68296182D01*
X192717442Y-68296182D02*
X192636630Y-68269245D01*
X192636630Y-68269245D02*
X192421131Y-68053746D01*
X193202316Y-68350057D02*
X193256190Y-68350057D01*
X193256190Y-68350057D02*
X193337003Y-68376995D01*
X193337003Y-68376995D02*
X193471690Y-68511682D01*
X193471690Y-68511682D02*
X193498627Y-68592494D01*
X193498627Y-68592494D02*
X193498627Y-68646369D01*
X193498627Y-68646369D02*
X193471690Y-68727181D01*
X193471690Y-68727181D02*
X193417815Y-68781056D01*
X193417815Y-68781056D02*
X193310065Y-68834930D01*
X193310065Y-68834930D02*
X192663568Y-68834930D01*
X192663568Y-68834930D02*
X193013754Y-69185117D01*
X193552502Y-69723865D02*
X193229253Y-69400616D01*
X193390878Y-69562240D02*
X193956563Y-68996555D01*
X193956563Y-68996555D02*
X193821876Y-69023492D01*
X193821876Y-69023492D02*
X193714126Y-69023492D01*
X193714126Y-69023492D02*
X193633314Y-68996555D01*
X192431131Y-41406998D02*
X192404194Y-41326185D01*
X192404194Y-41326185D02*
X192323381Y-41245373D01*
X192323381Y-41245373D02*
X192215632Y-41191498D01*
X192215632Y-41191498D02*
X192107882Y-41191498D01*
X192107882Y-41191498D02*
X192027070Y-41218436D01*
X192027070Y-41218436D02*
X191892383Y-41299248D01*
X191892383Y-41299248D02*
X191811571Y-41380060D01*
X191811571Y-41380060D02*
X191730758Y-41514747D01*
X191730758Y-41514747D02*
X191703821Y-41595560D01*
X191703821Y-41595560D02*
X191703821Y-41703309D01*
X191703821Y-41703309D02*
X191757696Y-41811059D01*
X191757696Y-41811059D02*
X191811571Y-41864934D01*
X191811571Y-41864934D02*
X191919320Y-41918808D01*
X191919320Y-41918808D02*
X191973195Y-41918808D01*
X191973195Y-41918808D02*
X192161757Y-41730247D01*
X192161757Y-41730247D02*
X192054007Y-41622497D01*
X192161757Y-42215120D02*
X192727442Y-41649434D01*
X192727442Y-41649434D02*
X192942942Y-41864934D01*
X192942942Y-41864934D02*
X192969879Y-41945746D01*
X192969879Y-41945746D02*
X192969879Y-41999621D01*
X192969879Y-41999621D02*
X192942942Y-42080433D01*
X192942942Y-42080433D02*
X192862129Y-42161245D01*
X192862129Y-42161245D02*
X192781317Y-42188182D01*
X192781317Y-42188182D02*
X192727442Y-42188182D01*
X192727442Y-42188182D02*
X192646630Y-42161245D01*
X192646630Y-42161245D02*
X192431131Y-41945746D01*
X193023754Y-43077117D02*
X192700505Y-42753868D01*
X192862129Y-42915492D02*
X193427815Y-42349807D01*
X193427815Y-42349807D02*
X193293128Y-42376744D01*
X193293128Y-42376744D02*
X193185378Y-42376744D01*
X193185378Y-42376744D02*
X193104566Y-42349807D01*
X193939626Y-42861618D02*
X193993500Y-42915492D01*
X193993500Y-42915492D02*
X194020438Y-42996305D01*
X194020438Y-42996305D02*
X194020438Y-43050179D01*
X194020438Y-43050179D02*
X193993500Y-43130992D01*
X193993500Y-43130992D02*
X193912688Y-43265679D01*
X193912688Y-43265679D02*
X193778001Y-43400366D01*
X193778001Y-43400366D02*
X193643314Y-43481178D01*
X193643314Y-43481178D02*
X193562502Y-43508115D01*
X193562502Y-43508115D02*
X193508627Y-43508115D01*
X193508627Y-43508115D02*
X193427815Y-43481178D01*
X193427815Y-43481178D02*
X193373940Y-43427303D01*
X193373940Y-43427303D02*
X193347003Y-43346491D01*
X193347003Y-43346491D02*
X193347003Y-43292616D01*
X193347003Y-43292616D02*
X193373940Y-43211804D01*
X193373940Y-43211804D02*
X193454752Y-43077117D01*
X193454752Y-43077117D02*
X193589439Y-42942430D01*
X193589439Y-42942430D02*
X193724126Y-42861618D01*
X193724126Y-42861618D02*
X193804939Y-42834680D01*
X193804939Y-42834680D02*
X193858813Y-42834680D01*
X193858813Y-42834680D02*
X193939626Y-42861618D01*
X195213568Y-41903435D02*
X195186631Y-41822623D01*
X195186631Y-41822623D02*
X195105819Y-41741811D01*
X195105819Y-41741811D02*
X194998069Y-41687936D01*
X194998069Y-41687936D02*
X194890319Y-41687936D01*
X194890319Y-41687936D02*
X194809507Y-41714873D01*
X194809507Y-41714873D02*
X194674820Y-41795685D01*
X194674820Y-41795685D02*
X194594008Y-41876498D01*
X194594008Y-41876498D02*
X194513196Y-42011185D01*
X194513196Y-42011185D02*
X194486258Y-42091997D01*
X194486258Y-42091997D02*
X194486258Y-42199746D01*
X194486258Y-42199746D02*
X194540133Y-42307496D01*
X194540133Y-42307496D02*
X194594008Y-42361371D01*
X194594008Y-42361371D02*
X194701758Y-42415246D01*
X194701758Y-42415246D02*
X194755632Y-42415246D01*
X194755632Y-42415246D02*
X194944194Y-42226684D01*
X194944194Y-42226684D02*
X194836445Y-42118934D01*
X194944194Y-42711557D02*
X195509880Y-42145872D01*
X195509880Y-42145872D02*
X195267443Y-43034806D01*
X195267443Y-43034806D02*
X195833128Y-42469120D01*
X195536817Y-43304180D02*
X196102502Y-42738494D01*
X196102502Y-42738494D02*
X196237189Y-42873181D01*
X196237189Y-42873181D02*
X196291064Y-42980931D01*
X196291064Y-42980931D02*
X196291064Y-43088680D01*
X196291064Y-43088680D02*
X196264127Y-43169493D01*
X196264127Y-43169493D02*
X196183314Y-43304180D01*
X196183314Y-43304180D02*
X196102502Y-43384992D01*
X196102502Y-43384992D02*
X195967815Y-43465804D01*
X195967815Y-43465804D02*
X195887003Y-43492741D01*
X195887003Y-43492741D02*
X195779253Y-43492741D01*
X195779253Y-43492741D02*
X195671504Y-43438867D01*
X195671504Y-43438867D02*
X195536817Y-43304180D01*
X182513568Y-67503435D02*
X182486631Y-67422623D01*
X182486631Y-67422623D02*
X182405819Y-67341811D01*
X182405819Y-67341811D02*
X182298069Y-67287936D01*
X182298069Y-67287936D02*
X182190319Y-67287936D01*
X182190319Y-67287936D02*
X182109507Y-67314873D01*
X182109507Y-67314873D02*
X181974820Y-67395685D01*
X181974820Y-67395685D02*
X181894008Y-67476498D01*
X181894008Y-67476498D02*
X181813196Y-67611185D01*
X181813196Y-67611185D02*
X181786258Y-67691997D01*
X181786258Y-67691997D02*
X181786258Y-67799746D01*
X181786258Y-67799746D02*
X181840133Y-67907496D01*
X181840133Y-67907496D02*
X181894008Y-67961371D01*
X181894008Y-67961371D02*
X182001758Y-68015246D01*
X182001758Y-68015246D02*
X182055632Y-68015246D01*
X182055632Y-68015246D02*
X182244194Y-67826684D01*
X182244194Y-67826684D02*
X182136445Y-67718934D01*
X182244194Y-68311557D02*
X182809880Y-67745872D01*
X182809880Y-67745872D02*
X182567443Y-68634806D01*
X182567443Y-68634806D02*
X183133128Y-68069120D01*
X182836817Y-68904180D02*
X183402502Y-68338494D01*
X183402502Y-68338494D02*
X183537189Y-68473181D01*
X183537189Y-68473181D02*
X183591064Y-68580931D01*
X183591064Y-68580931D02*
X183591064Y-68688680D01*
X183591064Y-68688680D02*
X183564127Y-68769493D01*
X183564127Y-68769493D02*
X183483314Y-68904180D01*
X183483314Y-68904180D02*
X183402502Y-68984992D01*
X183402502Y-68984992D02*
X183267815Y-69065804D01*
X183267815Y-69065804D02*
X183187003Y-69092741D01*
X183187003Y-69092741D02*
X183079253Y-69092741D01*
X183079253Y-69092741D02*
X182971504Y-69038867D01*
X182971504Y-69038867D02*
X182836817Y-68904180D01*
X177191131Y-67514998D02*
X177164194Y-67434185D01*
X177164194Y-67434185D02*
X177083381Y-67353373D01*
X177083381Y-67353373D02*
X176975632Y-67299498D01*
X176975632Y-67299498D02*
X176867882Y-67299498D01*
X176867882Y-67299498D02*
X176787070Y-67326436D01*
X176787070Y-67326436D02*
X176652383Y-67407248D01*
X176652383Y-67407248D02*
X176571571Y-67488060D01*
X176571571Y-67488060D02*
X176490758Y-67622747D01*
X176490758Y-67622747D02*
X176463821Y-67703560D01*
X176463821Y-67703560D02*
X176463821Y-67811309D01*
X176463821Y-67811309D02*
X176517696Y-67919059D01*
X176517696Y-67919059D02*
X176571571Y-67972934D01*
X176571571Y-67972934D02*
X176679320Y-68026808D01*
X176679320Y-68026808D02*
X176733195Y-68026808D01*
X176733195Y-68026808D02*
X176921757Y-67838247D01*
X176921757Y-67838247D02*
X176814007Y-67730497D01*
X176921757Y-68323120D02*
X177487442Y-67757434D01*
X177487442Y-67757434D02*
X177702942Y-67972934D01*
X177702942Y-67972934D02*
X177729879Y-68053746D01*
X177729879Y-68053746D02*
X177729879Y-68107621D01*
X177729879Y-68107621D02*
X177702942Y-68188433D01*
X177702942Y-68188433D02*
X177622129Y-68269245D01*
X177622129Y-68269245D02*
X177541317Y-68296182D01*
X177541317Y-68296182D02*
X177487442Y-68296182D01*
X177487442Y-68296182D02*
X177406630Y-68269245D01*
X177406630Y-68269245D02*
X177191131Y-68053746D01*
X177783754Y-69185117D02*
X177460505Y-68861868D01*
X177622129Y-69023492D02*
X178187815Y-68457807D01*
X178187815Y-68457807D02*
X178053128Y-68484744D01*
X178053128Y-68484744D02*
X177945378Y-68484744D01*
X177945378Y-68484744D02*
X177864566Y-68457807D01*
X178834313Y-69104305D02*
X178726563Y-68996555D01*
X178726563Y-68996555D02*
X178645751Y-68969618D01*
X178645751Y-68969618D02*
X178591876Y-68969618D01*
X178591876Y-68969618D02*
X178457189Y-68996555D01*
X178457189Y-68996555D02*
X178322502Y-69077367D01*
X178322502Y-69077367D02*
X178107003Y-69292866D01*
X178107003Y-69292866D02*
X178080065Y-69373679D01*
X178080065Y-69373679D02*
X178080065Y-69427553D01*
X178080065Y-69427553D02*
X178107003Y-69508366D01*
X178107003Y-69508366D02*
X178214752Y-69616115D01*
X178214752Y-69616115D02*
X178295565Y-69643053D01*
X178295565Y-69643053D02*
X178349439Y-69643053D01*
X178349439Y-69643053D02*
X178430252Y-69616115D01*
X178430252Y-69616115D02*
X178564939Y-69481428D01*
X178564939Y-69481428D02*
X178591876Y-69400616D01*
X178591876Y-69400616D02*
X178591876Y-69346741D01*
X178591876Y-69346741D02*
X178564939Y-69265929D01*
X178564939Y-69265929D02*
X178457189Y-69158179D01*
X178457189Y-69158179D02*
X178376377Y-69131242D01*
X178376377Y-69131242D02*
X178322502Y-69131242D01*
X178322502Y-69131242D02*
X178241690Y-69158179D01*
X189891131Y-41260998D02*
X189864194Y-41180185D01*
X189864194Y-41180185D02*
X189783381Y-41099373D01*
X189783381Y-41099373D02*
X189675632Y-41045498D01*
X189675632Y-41045498D02*
X189567882Y-41045498D01*
X189567882Y-41045498D02*
X189487070Y-41072436D01*
X189487070Y-41072436D02*
X189352383Y-41153248D01*
X189352383Y-41153248D02*
X189271571Y-41234060D01*
X189271571Y-41234060D02*
X189190758Y-41368747D01*
X189190758Y-41368747D02*
X189163821Y-41449560D01*
X189163821Y-41449560D02*
X189163821Y-41557309D01*
X189163821Y-41557309D02*
X189217696Y-41665059D01*
X189217696Y-41665059D02*
X189271571Y-41718934D01*
X189271571Y-41718934D02*
X189379320Y-41772808D01*
X189379320Y-41772808D02*
X189433195Y-41772808D01*
X189433195Y-41772808D02*
X189621757Y-41584247D01*
X189621757Y-41584247D02*
X189514007Y-41476497D01*
X189621757Y-42069120D02*
X190187442Y-41503434D01*
X190187442Y-41503434D02*
X190402942Y-41718934D01*
X190402942Y-41718934D02*
X190429879Y-41799746D01*
X190429879Y-41799746D02*
X190429879Y-41853621D01*
X190429879Y-41853621D02*
X190402942Y-41934433D01*
X190402942Y-41934433D02*
X190322129Y-42015245D01*
X190322129Y-42015245D02*
X190241317Y-42042182D01*
X190241317Y-42042182D02*
X190187442Y-42042182D01*
X190187442Y-42042182D02*
X190106630Y-42015245D01*
X190106630Y-42015245D02*
X189891131Y-41799746D01*
X190483754Y-42931117D02*
X190160505Y-42607868D01*
X190322129Y-42769492D02*
X190887815Y-42203807D01*
X190887815Y-42203807D02*
X190753128Y-42230744D01*
X190753128Y-42230744D02*
X190645378Y-42230744D01*
X190645378Y-42230744D02*
X190564566Y-42203807D01*
X191022502Y-43469865D02*
X190699253Y-43146616D01*
X190860878Y-43308240D02*
X191426563Y-42742555D01*
X191426563Y-42742555D02*
X191291876Y-42769492D01*
X191291876Y-42769492D02*
X191184126Y-42769492D01*
X191184126Y-42769492D02*
X191103314Y-42742555D01*
X200320505Y-41930372D02*
X200293568Y-41849560D01*
X200293568Y-41849560D02*
X200212756Y-41768748D01*
X200212756Y-41768748D02*
X200105006Y-41714873D01*
X200105006Y-41714873D02*
X199997257Y-41714873D01*
X199997257Y-41714873D02*
X199916444Y-41741810D01*
X199916444Y-41741810D02*
X199781757Y-41822623D01*
X199781757Y-41822623D02*
X199700945Y-41903435D01*
X199700945Y-41903435D02*
X199620133Y-42038122D01*
X199620133Y-42038122D02*
X199593196Y-42118934D01*
X199593196Y-42118934D02*
X199593196Y-42226684D01*
X199593196Y-42226684D02*
X199647070Y-42334433D01*
X199647070Y-42334433D02*
X199700945Y-42388308D01*
X199700945Y-42388308D02*
X199808695Y-42442183D01*
X199808695Y-42442183D02*
X199862570Y-42442183D01*
X199862570Y-42442183D02*
X200051131Y-42253621D01*
X200051131Y-42253621D02*
X199943382Y-42145871D01*
X200051131Y-42738494D02*
X200616817Y-42172809D01*
X200616817Y-42172809D02*
X200832316Y-42388308D01*
X200832316Y-42388308D02*
X200859253Y-42469120D01*
X200859253Y-42469120D02*
X200859253Y-42522995D01*
X200859253Y-42522995D02*
X200832316Y-42603807D01*
X200832316Y-42603807D02*
X200751504Y-42684619D01*
X200751504Y-42684619D02*
X200670692Y-42711557D01*
X200670692Y-42711557D02*
X200616817Y-42711557D01*
X200616817Y-42711557D02*
X200536005Y-42684619D01*
X200536005Y-42684619D02*
X200320505Y-42469120D01*
X201020878Y-43061743D02*
X200993940Y-42980931D01*
X200993940Y-42980931D02*
X200993940Y-42927056D01*
X200993940Y-42927056D02*
X201020878Y-42846244D01*
X201020878Y-42846244D02*
X201047815Y-42819306D01*
X201047815Y-42819306D02*
X201128627Y-42792369D01*
X201128627Y-42792369D02*
X201182502Y-42792369D01*
X201182502Y-42792369D02*
X201263314Y-42819306D01*
X201263314Y-42819306D02*
X201371064Y-42927056D01*
X201371064Y-42927056D02*
X201398001Y-43007868D01*
X201398001Y-43007868D02*
X201398001Y-43061743D01*
X201398001Y-43061743D02*
X201371064Y-43142555D01*
X201371064Y-43142555D02*
X201344127Y-43169493D01*
X201344127Y-43169493D02*
X201263314Y-43196430D01*
X201263314Y-43196430D02*
X201209440Y-43196430D01*
X201209440Y-43196430D02*
X201128627Y-43169493D01*
X201128627Y-43169493D02*
X201020878Y-43061743D01*
X201020878Y-43061743D02*
X200940066Y-43034806D01*
X200940066Y-43034806D02*
X200886191Y-43034806D01*
X200886191Y-43034806D02*
X200805379Y-43061743D01*
X200805379Y-43061743D02*
X200697629Y-43169493D01*
X200697629Y-43169493D02*
X200670692Y-43250305D01*
X200670692Y-43250305D02*
X200670692Y-43304180D01*
X200670692Y-43304180D02*
X200697629Y-43384992D01*
X200697629Y-43384992D02*
X200805379Y-43492741D01*
X200805379Y-43492741D02*
X200886191Y-43519679D01*
X200886191Y-43519679D02*
X200940066Y-43519679D01*
X200940066Y-43519679D02*
X201020878Y-43492741D01*
X201020878Y-43492741D02*
X201128627Y-43384992D01*
X201128627Y-43384992D02*
X201155565Y-43304180D01*
X201155565Y-43304180D02*
X201155565Y-43250305D01*
X201155565Y-43250305D02*
X201128627Y-43169493D01*
X205400505Y-41930372D02*
X205373568Y-41849560D01*
X205373568Y-41849560D02*
X205292756Y-41768748D01*
X205292756Y-41768748D02*
X205185006Y-41714873D01*
X205185006Y-41714873D02*
X205077257Y-41714873D01*
X205077257Y-41714873D02*
X204996444Y-41741810D01*
X204996444Y-41741810D02*
X204861757Y-41822623D01*
X204861757Y-41822623D02*
X204780945Y-41903435D01*
X204780945Y-41903435D02*
X204700133Y-42038122D01*
X204700133Y-42038122D02*
X204673196Y-42118934D01*
X204673196Y-42118934D02*
X204673196Y-42226684D01*
X204673196Y-42226684D02*
X204727070Y-42334433D01*
X204727070Y-42334433D02*
X204780945Y-42388308D01*
X204780945Y-42388308D02*
X204888695Y-42442183D01*
X204888695Y-42442183D02*
X204942570Y-42442183D01*
X204942570Y-42442183D02*
X205131131Y-42253621D01*
X205131131Y-42253621D02*
X205023382Y-42145871D01*
X205131131Y-42738494D02*
X205696817Y-42172809D01*
X205696817Y-42172809D02*
X205912316Y-42388308D01*
X205912316Y-42388308D02*
X205939253Y-42469120D01*
X205939253Y-42469120D02*
X205939253Y-42522995D01*
X205939253Y-42522995D02*
X205912316Y-42603807D01*
X205912316Y-42603807D02*
X205831504Y-42684619D01*
X205831504Y-42684619D02*
X205750692Y-42711557D01*
X205750692Y-42711557D02*
X205696817Y-42711557D01*
X205696817Y-42711557D02*
X205616005Y-42684619D01*
X205616005Y-42684619D02*
X205400505Y-42469120D01*
X206504939Y-42980931D02*
X206397189Y-42873181D01*
X206397189Y-42873181D02*
X206316377Y-42846244D01*
X206316377Y-42846244D02*
X206262502Y-42846244D01*
X206262502Y-42846244D02*
X206127815Y-42873181D01*
X206127815Y-42873181D02*
X205993128Y-42953993D01*
X205993128Y-42953993D02*
X205777629Y-43169493D01*
X205777629Y-43169493D02*
X205750692Y-43250305D01*
X205750692Y-43250305D02*
X205750692Y-43304180D01*
X205750692Y-43304180D02*
X205777629Y-43384992D01*
X205777629Y-43384992D02*
X205885379Y-43492741D01*
X205885379Y-43492741D02*
X205966191Y-43519679D01*
X205966191Y-43519679D02*
X206020066Y-43519679D01*
X206020066Y-43519679D02*
X206100878Y-43492741D01*
X206100878Y-43492741D02*
X206235565Y-43358054D01*
X206235565Y-43358054D02*
X206262502Y-43277242D01*
X206262502Y-43277242D02*
X206262502Y-43223367D01*
X206262502Y-43223367D02*
X206235565Y-43142555D01*
X206235565Y-43142555D02*
X206127815Y-43034806D01*
X206127815Y-43034806D02*
X206047003Y-43007868D01*
X206047003Y-43007868D02*
X205993128Y-43007868D01*
X205993128Y-43007868D02*
X205912316Y-43034806D01*
X218100505Y-41830372D02*
X218073568Y-41749560D01*
X218073568Y-41749560D02*
X217992756Y-41668748D01*
X217992756Y-41668748D02*
X217885006Y-41614873D01*
X217885006Y-41614873D02*
X217777257Y-41614873D01*
X217777257Y-41614873D02*
X217696444Y-41641810D01*
X217696444Y-41641810D02*
X217561757Y-41722623D01*
X217561757Y-41722623D02*
X217480945Y-41803435D01*
X217480945Y-41803435D02*
X217400133Y-41938122D01*
X217400133Y-41938122D02*
X217373196Y-42018934D01*
X217373196Y-42018934D02*
X217373196Y-42126684D01*
X217373196Y-42126684D02*
X217427070Y-42234433D01*
X217427070Y-42234433D02*
X217480945Y-42288308D01*
X217480945Y-42288308D02*
X217588695Y-42342183D01*
X217588695Y-42342183D02*
X217642570Y-42342183D01*
X217642570Y-42342183D02*
X217831131Y-42153621D01*
X217831131Y-42153621D02*
X217723382Y-42045871D01*
X217831131Y-42638494D02*
X218396817Y-42072809D01*
X218396817Y-42072809D02*
X218612316Y-42288308D01*
X218612316Y-42288308D02*
X218639253Y-42369120D01*
X218639253Y-42369120D02*
X218639253Y-42422995D01*
X218639253Y-42422995D02*
X218612316Y-42503807D01*
X218612316Y-42503807D02*
X218531504Y-42584619D01*
X218531504Y-42584619D02*
X218450692Y-42611557D01*
X218450692Y-42611557D02*
X218396817Y-42611557D01*
X218396817Y-42611557D02*
X218316005Y-42584619D01*
X218316005Y-42584619D02*
X218100505Y-42369120D01*
X218881690Y-42665432D02*
X218935565Y-42665432D01*
X218935565Y-42665432D02*
X219016377Y-42692369D01*
X219016377Y-42692369D02*
X219151064Y-42827056D01*
X219151064Y-42827056D02*
X219178001Y-42907868D01*
X219178001Y-42907868D02*
X219178001Y-42961743D01*
X219178001Y-42961743D02*
X219151064Y-43042555D01*
X219151064Y-43042555D02*
X219097189Y-43096430D01*
X219097189Y-43096430D02*
X218989440Y-43150305D01*
X218989440Y-43150305D02*
X218342942Y-43150305D01*
X218342942Y-43150305D02*
X218693128Y-43500491D01*
X210480505Y-41930372D02*
X210453568Y-41849560D01*
X210453568Y-41849560D02*
X210372756Y-41768748D01*
X210372756Y-41768748D02*
X210265006Y-41714873D01*
X210265006Y-41714873D02*
X210157257Y-41714873D01*
X210157257Y-41714873D02*
X210076444Y-41741810D01*
X210076444Y-41741810D02*
X209941757Y-41822623D01*
X209941757Y-41822623D02*
X209860945Y-41903435D01*
X209860945Y-41903435D02*
X209780133Y-42038122D01*
X209780133Y-42038122D02*
X209753196Y-42118934D01*
X209753196Y-42118934D02*
X209753196Y-42226684D01*
X209753196Y-42226684D02*
X209807070Y-42334433D01*
X209807070Y-42334433D02*
X209860945Y-42388308D01*
X209860945Y-42388308D02*
X209968695Y-42442183D01*
X209968695Y-42442183D02*
X210022570Y-42442183D01*
X210022570Y-42442183D02*
X210211131Y-42253621D01*
X210211131Y-42253621D02*
X210103382Y-42145871D01*
X210211131Y-42738494D02*
X210776817Y-42172809D01*
X210776817Y-42172809D02*
X210992316Y-42388308D01*
X210992316Y-42388308D02*
X211019253Y-42469120D01*
X211019253Y-42469120D02*
X211019253Y-42522995D01*
X211019253Y-42522995D02*
X210992316Y-42603807D01*
X210992316Y-42603807D02*
X210911504Y-42684619D01*
X210911504Y-42684619D02*
X210830692Y-42711557D01*
X210830692Y-42711557D02*
X210776817Y-42711557D01*
X210776817Y-42711557D02*
X210696005Y-42684619D01*
X210696005Y-42684619D02*
X210480505Y-42469120D01*
X211611876Y-43007868D02*
X211342502Y-42738494D01*
X211342502Y-42738494D02*
X211046191Y-42980931D01*
X211046191Y-42980931D02*
X211100066Y-42980931D01*
X211100066Y-42980931D02*
X211180878Y-43007868D01*
X211180878Y-43007868D02*
X211315565Y-43142555D01*
X211315565Y-43142555D02*
X211342502Y-43223367D01*
X211342502Y-43223367D02*
X211342502Y-43277242D01*
X211342502Y-43277242D02*
X211315565Y-43358054D01*
X211315565Y-43358054D02*
X211180878Y-43492741D01*
X211180878Y-43492741D02*
X211100066Y-43519679D01*
X211100066Y-43519679D02*
X211046191Y-43519679D01*
X211046191Y-43519679D02*
X210965379Y-43492741D01*
X210965379Y-43492741D02*
X210830692Y-43358054D01*
X210830692Y-43358054D02*
X210803754Y-43277242D01*
X210803754Y-43277242D02*
X210803754Y-43223367D01*
X206970759Y-67568873D02*
X207240133Y-67838247D01*
X206755260Y-67676623D02*
X207509507Y-67299499D01*
X207509507Y-67299499D02*
X207132384Y-68053746D01*
X208156005Y-67999871D02*
X208129067Y-67919059D01*
X208129067Y-67919059D02*
X208048255Y-67838247D01*
X208048255Y-67838247D02*
X207940505Y-67784372D01*
X207940505Y-67784372D02*
X207832756Y-67784372D01*
X207832756Y-67784372D02*
X207751944Y-67811310D01*
X207751944Y-67811310D02*
X207617257Y-67892122D01*
X207617257Y-67892122D02*
X207536444Y-67972934D01*
X207536444Y-67972934D02*
X207455632Y-68107621D01*
X207455632Y-68107621D02*
X207428695Y-68188433D01*
X207428695Y-68188433D02*
X207428695Y-68296183D01*
X207428695Y-68296183D02*
X207482570Y-68403932D01*
X207482570Y-68403932D02*
X207536444Y-68457807D01*
X207536444Y-68457807D02*
X207644194Y-68511682D01*
X207644194Y-68511682D02*
X207698069Y-68511682D01*
X207698069Y-68511682D02*
X207886631Y-68323120D01*
X207886631Y-68323120D02*
X207778881Y-68215371D01*
X207886631Y-68807993D02*
X208452316Y-68242308D01*
X208452316Y-68242308D02*
X208209879Y-69131242D01*
X208209879Y-69131242D02*
X208775565Y-68565557D01*
X208479253Y-69400616D02*
X209044939Y-68834931D01*
X209044939Y-68834931D02*
X209179626Y-68969618D01*
X209179626Y-68969618D02*
X209233501Y-69077367D01*
X209233501Y-69077367D02*
X209233501Y-69185117D01*
X209233501Y-69185117D02*
X209206563Y-69265929D01*
X209206563Y-69265929D02*
X209125751Y-69400616D01*
X209125751Y-69400616D02*
X209044939Y-69481428D01*
X209044939Y-69481428D02*
X208910252Y-69562241D01*
X208910252Y-69562241D02*
X208829439Y-69589178D01*
X208829439Y-69589178D02*
X208721690Y-69589178D01*
X208721690Y-69589178D02*
X208613940Y-69535303D01*
X208613940Y-69535303D02*
X208479253Y-69400616D01*
X179731131Y-67514998D02*
X179704194Y-67434185D01*
X179704194Y-67434185D02*
X179623381Y-67353373D01*
X179623381Y-67353373D02*
X179515632Y-67299498D01*
X179515632Y-67299498D02*
X179407882Y-67299498D01*
X179407882Y-67299498D02*
X179327070Y-67326436D01*
X179327070Y-67326436D02*
X179192383Y-67407248D01*
X179192383Y-67407248D02*
X179111571Y-67488060D01*
X179111571Y-67488060D02*
X179030758Y-67622747D01*
X179030758Y-67622747D02*
X179003821Y-67703560D01*
X179003821Y-67703560D02*
X179003821Y-67811309D01*
X179003821Y-67811309D02*
X179057696Y-67919059D01*
X179057696Y-67919059D02*
X179111571Y-67972934D01*
X179111571Y-67972934D02*
X179219320Y-68026808D01*
X179219320Y-68026808D02*
X179273195Y-68026808D01*
X179273195Y-68026808D02*
X179461757Y-67838247D01*
X179461757Y-67838247D02*
X179354007Y-67730497D01*
X179461757Y-68323120D02*
X180027442Y-67757434D01*
X180027442Y-67757434D02*
X180242942Y-67972934D01*
X180242942Y-67972934D02*
X180269879Y-68053746D01*
X180269879Y-68053746D02*
X180269879Y-68107621D01*
X180269879Y-68107621D02*
X180242942Y-68188433D01*
X180242942Y-68188433D02*
X180162129Y-68269245D01*
X180162129Y-68269245D02*
X180081317Y-68296182D01*
X180081317Y-68296182D02*
X180027442Y-68296182D01*
X180027442Y-68296182D02*
X179946630Y-68269245D01*
X179946630Y-68269245D02*
X179731131Y-68053746D01*
X180323754Y-69185117D02*
X180000505Y-68861868D01*
X180162129Y-69023492D02*
X180727815Y-68457807D01*
X180727815Y-68457807D02*
X180593128Y-68484744D01*
X180593128Y-68484744D02*
X180485378Y-68484744D01*
X180485378Y-68484744D02*
X180404566Y-68457807D01*
X181078001Y-68807993D02*
X181455125Y-69185117D01*
X181455125Y-69185117D02*
X180647003Y-69508366D01*
X187351131Y-41260998D02*
X187324194Y-41180185D01*
X187324194Y-41180185D02*
X187243381Y-41099373D01*
X187243381Y-41099373D02*
X187135632Y-41045498D01*
X187135632Y-41045498D02*
X187027882Y-41045498D01*
X187027882Y-41045498D02*
X186947070Y-41072436D01*
X186947070Y-41072436D02*
X186812383Y-41153248D01*
X186812383Y-41153248D02*
X186731571Y-41234060D01*
X186731571Y-41234060D02*
X186650758Y-41368747D01*
X186650758Y-41368747D02*
X186623821Y-41449560D01*
X186623821Y-41449560D02*
X186623821Y-41557309D01*
X186623821Y-41557309D02*
X186677696Y-41665059D01*
X186677696Y-41665059D02*
X186731571Y-41718934D01*
X186731571Y-41718934D02*
X186839320Y-41772808D01*
X186839320Y-41772808D02*
X186893195Y-41772808D01*
X186893195Y-41772808D02*
X187081757Y-41584247D01*
X187081757Y-41584247D02*
X186974007Y-41476497D01*
X187081757Y-42069120D02*
X187647442Y-41503434D01*
X187647442Y-41503434D02*
X187862942Y-41718934D01*
X187862942Y-41718934D02*
X187889879Y-41799746D01*
X187889879Y-41799746D02*
X187889879Y-41853621D01*
X187889879Y-41853621D02*
X187862942Y-41934433D01*
X187862942Y-41934433D02*
X187782129Y-42015245D01*
X187782129Y-42015245D02*
X187701317Y-42042182D01*
X187701317Y-42042182D02*
X187647442Y-42042182D01*
X187647442Y-42042182D02*
X187566630Y-42015245D01*
X187566630Y-42015245D02*
X187351131Y-41799746D01*
X187943754Y-42931117D02*
X187620505Y-42607868D01*
X187782129Y-42769492D02*
X188347815Y-42203807D01*
X188347815Y-42203807D02*
X188213128Y-42230744D01*
X188213128Y-42230744D02*
X188105378Y-42230744D01*
X188105378Y-42230744D02*
X188024566Y-42203807D01*
X188671064Y-42634805D02*
X188724939Y-42634805D01*
X188724939Y-42634805D02*
X188805751Y-42661743D01*
X188805751Y-42661743D02*
X188940438Y-42796430D01*
X188940438Y-42796430D02*
X188967375Y-42877242D01*
X188967375Y-42877242D02*
X188967375Y-42931117D01*
X188967375Y-42931117D02*
X188940438Y-43011929D01*
X188940438Y-43011929D02*
X188886563Y-43065804D01*
X188886563Y-43065804D02*
X188778813Y-43119679D01*
X188778813Y-43119679D02*
X188132316Y-43119679D01*
X188132316Y-43119679D02*
X188482502Y-43469865D01*
X199768289Y-68255651D02*
X199849101Y-67797716D01*
X199445040Y-67932403D02*
X200010725Y-67366717D01*
X200010725Y-67366717D02*
X200226224Y-67582216D01*
X200226224Y-67582216D02*
X200253162Y-67663029D01*
X200253162Y-67663029D02*
X200253162Y-67716903D01*
X200253162Y-67716903D02*
X200226224Y-67797716D01*
X200226224Y-67797716D02*
X200145412Y-67878528D01*
X200145412Y-67878528D02*
X200064600Y-67905465D01*
X200064600Y-67905465D02*
X200010725Y-67905465D01*
X200010725Y-67905465D02*
X199929913Y-67878528D01*
X199929913Y-67878528D02*
X199714414Y-67663029D01*
X200576411Y-67932403D02*
X200118475Y-68390338D01*
X200118475Y-68390338D02*
X200091537Y-68471151D01*
X200091537Y-68471151D02*
X200091537Y-68525025D01*
X200091537Y-68525025D02*
X200118475Y-68605838D01*
X200118475Y-68605838D02*
X200226224Y-68713587D01*
X200226224Y-68713587D02*
X200307037Y-68740525D01*
X200307037Y-68740525D02*
X200360911Y-68740525D01*
X200360911Y-68740525D02*
X200441724Y-68713587D01*
X200441724Y-68713587D02*
X200899659Y-68255651D01*
X200603348Y-69090711D02*
X201169033Y-68525025D01*
X201169033Y-68525025D02*
X200926597Y-69413959D01*
X200926597Y-69413959D02*
X201492282Y-68848274D01*
X215221131Y-67307123D02*
X215571317Y-67657309D01*
X215571317Y-67657309D02*
X215167256Y-67684247D01*
X215167256Y-67684247D02*
X215248068Y-67765059D01*
X215248068Y-67765059D02*
X215275006Y-67845871D01*
X215275006Y-67845871D02*
X215275006Y-67899746D01*
X215275006Y-67899746D02*
X215248068Y-67980558D01*
X215248068Y-67980558D02*
X215113381Y-68115245D01*
X215113381Y-68115245D02*
X215032569Y-68142182D01*
X215032569Y-68142182D02*
X214978694Y-68142182D01*
X214978694Y-68142182D02*
X214897882Y-68115245D01*
X214897882Y-68115245D02*
X214736258Y-67953621D01*
X214736258Y-67953621D02*
X214709320Y-67872808D01*
X214709320Y-67872808D02*
X214709320Y-67818934D01*
X215732942Y-67818934D02*
X215355818Y-68573181D01*
X215355818Y-68573181D02*
X216110065Y-68196057D01*
X216244752Y-68330744D02*
X216594938Y-68680930D01*
X216594938Y-68680930D02*
X216190877Y-68707868D01*
X216190877Y-68707868D02*
X216271690Y-68788680D01*
X216271690Y-68788680D02*
X216298627Y-68869492D01*
X216298627Y-68869492D02*
X216298627Y-68923367D01*
X216298627Y-68923367D02*
X216271690Y-69004179D01*
X216271690Y-69004179D02*
X216137003Y-69138866D01*
X216137003Y-69138866D02*
X216056190Y-69165804D01*
X216056190Y-69165804D02*
X216002316Y-69165804D01*
X216002316Y-69165804D02*
X215921503Y-69138866D01*
X215921503Y-69138866D02*
X215759879Y-68977242D01*
X215759879Y-68977242D02*
X215732942Y-68896430D01*
X215732942Y-68896430D02*
X215732942Y-68842555D01*
X222641757Y-67337749D02*
X222264633Y-68091996D01*
X222264633Y-68091996D02*
X223018881Y-67714873D01*
X222641757Y-68415245D02*
X222695632Y-68522995D01*
X222695632Y-68522995D02*
X222830319Y-68657682D01*
X222830319Y-68657682D02*
X222911131Y-68684619D01*
X222911131Y-68684619D02*
X222965006Y-68684619D01*
X222965006Y-68684619D02*
X223045818Y-68657682D01*
X223045818Y-68657682D02*
X223099693Y-68603807D01*
X223099693Y-68603807D02*
X223126630Y-68522995D01*
X223126630Y-68522995D02*
X223126630Y-68469120D01*
X223126630Y-68469120D02*
X223099693Y-68388308D01*
X223099693Y-68388308D02*
X223018881Y-68253621D01*
X223018881Y-68253621D02*
X222991943Y-68172808D01*
X222991943Y-68172808D02*
X222991943Y-68118934D01*
X222991943Y-68118934D02*
X223018881Y-68038121D01*
X223018881Y-68038121D02*
X223072755Y-67984247D01*
X223072755Y-67984247D02*
X223153568Y-67957309D01*
X223153568Y-67957309D02*
X223207442Y-67957309D01*
X223207442Y-67957309D02*
X223288255Y-67984247D01*
X223288255Y-67984247D02*
X223422942Y-68118934D01*
X223422942Y-68118934D02*
X223476816Y-68226683D01*
X223557629Y-68846244D02*
X223288255Y-69115618D01*
X223665378Y-68361370D02*
X223557629Y-68846244D01*
X223557629Y-68846244D02*
X224042502Y-68738494D01*
X223665378Y-69438866D02*
X223719253Y-69546616D01*
X223719253Y-69546616D02*
X223853940Y-69681303D01*
X223853940Y-69681303D02*
X223934752Y-69708240D01*
X223934752Y-69708240D02*
X223988627Y-69708240D01*
X223988627Y-69708240D02*
X224069439Y-69681303D01*
X224069439Y-69681303D02*
X224123314Y-69627428D01*
X224123314Y-69627428D02*
X224150251Y-69546616D01*
X224150251Y-69546616D02*
X224150251Y-69492741D01*
X224150251Y-69492741D02*
X224123314Y-69411929D01*
X224123314Y-69411929D02*
X224042502Y-69277242D01*
X224042502Y-69277242D02*
X224015564Y-69196430D01*
X224015564Y-69196430D02*
X224015564Y-69142555D01*
X224015564Y-69142555D02*
X224042502Y-69061743D01*
X224042502Y-69061743D02*
X224096377Y-69007868D01*
X224096377Y-69007868D02*
X224177189Y-68980930D01*
X224177189Y-68980930D02*
X224231064Y-68980930D01*
X224231064Y-68980930D02*
X224311876Y-69007868D01*
X224311876Y-69007868D02*
X224446563Y-69142555D01*
X224446563Y-69142555D02*
X224500438Y-69250304D01*
D17*
X195633992Y-54760857D02*
X194633992Y-53332285D01*
X193919706Y-54760857D02*
X193919706Y-51760857D01*
X193919706Y-51760857D02*
X195062563Y-51760857D01*
X195062563Y-51760857D02*
X195348278Y-51903714D01*
X195348278Y-51903714D02*
X195491135Y-52046571D01*
X195491135Y-52046571D02*
X195633992Y-52332285D01*
X195633992Y-52332285D02*
X195633992Y-52760857D01*
X195633992Y-52760857D02*
X195491135Y-53046571D01*
X195491135Y-53046571D02*
X195348278Y-53189428D01*
X195348278Y-53189428D02*
X195062563Y-53332285D01*
X195062563Y-53332285D02*
X193919706Y-53332285D01*
X196919706Y-54760857D02*
X196919706Y-51760857D01*
X196919706Y-51760857D02*
X198062563Y-51760857D01*
X198062563Y-51760857D02*
X198348278Y-51903714D01*
X198348278Y-51903714D02*
X198491135Y-52046571D01*
X198491135Y-52046571D02*
X198633992Y-52332285D01*
X198633992Y-52332285D02*
X198633992Y-52760857D01*
X198633992Y-52760857D02*
X198491135Y-53046571D01*
X198491135Y-53046571D02*
X198348278Y-53189428D01*
X198348278Y-53189428D02*
X198062563Y-53332285D01*
X198062563Y-53332285D02*
X196919706Y-53332285D01*
X199776849Y-52046571D02*
X199919706Y-51903714D01*
X199919706Y-51903714D02*
X200205421Y-51760857D01*
X200205421Y-51760857D02*
X200919706Y-51760857D01*
X200919706Y-51760857D02*
X201205421Y-51903714D01*
X201205421Y-51903714D02*
X201348278Y-52046571D01*
X201348278Y-52046571D02*
X201491135Y-52332285D01*
X201491135Y-52332285D02*
X201491135Y-52618000D01*
X201491135Y-52618000D02*
X201348278Y-53046571D01*
X201348278Y-53046571D02*
X199633992Y-54760857D01*
X199633992Y-54760857D02*
X201491135Y-54760857D01*
X203348278Y-51760857D02*
X203633992Y-51760857D01*
X203633992Y-51760857D02*
X203919706Y-51903714D01*
X203919706Y-51903714D02*
X204062564Y-52046571D01*
X204062564Y-52046571D02*
X204205421Y-52332285D01*
X204205421Y-52332285D02*
X204348278Y-52903714D01*
X204348278Y-52903714D02*
X204348278Y-53618000D01*
X204348278Y-53618000D02*
X204205421Y-54189428D01*
X204205421Y-54189428D02*
X204062564Y-54475142D01*
X204062564Y-54475142D02*
X203919706Y-54618000D01*
X203919706Y-54618000D02*
X203633992Y-54760857D01*
X203633992Y-54760857D02*
X203348278Y-54760857D01*
X203348278Y-54760857D02*
X203062564Y-54618000D01*
X203062564Y-54618000D02*
X202919706Y-54475142D01*
X202919706Y-54475142D02*
X202776849Y-54189428D01*
X202776849Y-54189428D02*
X202633992Y-53618000D01*
X202633992Y-53618000D02*
X202633992Y-52903714D01*
X202633992Y-52903714D02*
X202776849Y-52332285D01*
X202776849Y-52332285D02*
X202919706Y-52046571D01*
X202919706Y-52046571D02*
X203062564Y-51903714D01*
X203062564Y-51903714D02*
X203348278Y-51760857D01*
X206919707Y-52760857D02*
X206919707Y-54760857D01*
X206205421Y-51618000D02*
X205491135Y-53760857D01*
X205491135Y-53760857D02*
X207348278Y-53760857D01*
X209062564Y-51760857D02*
X209348278Y-51760857D01*
X209348278Y-51760857D02*
X209633992Y-51903714D01*
X209633992Y-51903714D02*
X209776850Y-52046571D01*
X209776850Y-52046571D02*
X209919707Y-52332285D01*
X209919707Y-52332285D02*
X210062564Y-52903714D01*
X210062564Y-52903714D02*
X210062564Y-53618000D01*
X210062564Y-53618000D02*
X209919707Y-54189428D01*
X209919707Y-54189428D02*
X209776850Y-54475142D01*
X209776850Y-54475142D02*
X209633992Y-54618000D01*
X209633992Y-54618000D02*
X209348278Y-54760857D01*
X209348278Y-54760857D02*
X209062564Y-54760857D01*
X209062564Y-54760857D02*
X208776850Y-54618000D01*
X208776850Y-54618000D02*
X208633992Y-54475142D01*
X208633992Y-54475142D02*
X208491135Y-54189428D01*
X208491135Y-54189428D02*
X208348278Y-53618000D01*
X208348278Y-53618000D02*
X208348278Y-52903714D01*
X208348278Y-52903714D02*
X208491135Y-52332285D01*
X208491135Y-52332285D02*
X208633992Y-52046571D01*
X208633992Y-52046571D02*
X208776850Y-51903714D01*
X208776850Y-51903714D02*
X209062564Y-51760857D01*
D11*
X223190505Y-41830372D02*
X223163568Y-41749560D01*
X223163568Y-41749560D02*
X223082756Y-41668748D01*
X223082756Y-41668748D02*
X222975006Y-41614873D01*
X222975006Y-41614873D02*
X222867257Y-41614873D01*
X222867257Y-41614873D02*
X222786444Y-41641810D01*
X222786444Y-41641810D02*
X222651757Y-41722623D01*
X222651757Y-41722623D02*
X222570945Y-41803435D01*
X222570945Y-41803435D02*
X222490133Y-41938122D01*
X222490133Y-41938122D02*
X222463196Y-42018934D01*
X222463196Y-42018934D02*
X222463196Y-42126684D01*
X222463196Y-42126684D02*
X222517070Y-42234433D01*
X222517070Y-42234433D02*
X222570945Y-42288308D01*
X222570945Y-42288308D02*
X222678695Y-42342183D01*
X222678695Y-42342183D02*
X222732570Y-42342183D01*
X222732570Y-42342183D02*
X222921131Y-42153621D01*
X222921131Y-42153621D02*
X222813382Y-42045871D01*
X222921131Y-42638494D02*
X223486817Y-42072809D01*
X223486817Y-42072809D02*
X223702316Y-42288308D01*
X223702316Y-42288308D02*
X223729253Y-42369120D01*
X223729253Y-42369120D02*
X223729253Y-42422995D01*
X223729253Y-42422995D02*
X223702316Y-42503807D01*
X223702316Y-42503807D02*
X223621504Y-42584619D01*
X223621504Y-42584619D02*
X223540692Y-42611557D01*
X223540692Y-42611557D02*
X223486817Y-42611557D01*
X223486817Y-42611557D02*
X223406005Y-42584619D01*
X223406005Y-42584619D02*
X223190505Y-42369120D01*
X223783128Y-43500491D02*
X223459879Y-43177242D01*
X223621504Y-43338867D02*
X224187189Y-42773181D01*
X224187189Y-42773181D02*
X224052502Y-42800119D01*
X224052502Y-42800119D02*
X223944753Y-42800119D01*
X223944753Y-42800119D02*
X223863940Y-42773181D01*
X170576667Y-109633200D02*
X170719524Y-109680819D01*
X170719524Y-109680819D02*
X170957619Y-109680819D01*
X170957619Y-109680819D02*
X171052857Y-109633200D01*
X171052857Y-109633200D02*
X171100476Y-109585580D01*
X171100476Y-109585580D02*
X171148095Y-109490342D01*
X171148095Y-109490342D02*
X171148095Y-109395104D01*
X171148095Y-109395104D02*
X171100476Y-109299866D01*
X171100476Y-109299866D02*
X171052857Y-109252247D01*
X171052857Y-109252247D02*
X170957619Y-109204628D01*
X170957619Y-109204628D02*
X170767143Y-109157009D01*
X170767143Y-109157009D02*
X170671905Y-109109390D01*
X170671905Y-109109390D02*
X170624286Y-109061771D01*
X170624286Y-109061771D02*
X170576667Y-108966533D01*
X170576667Y-108966533D02*
X170576667Y-108871295D01*
X170576667Y-108871295D02*
X170624286Y-108776057D01*
X170624286Y-108776057D02*
X170671905Y-108728438D01*
X170671905Y-108728438D02*
X170767143Y-108680819D01*
X170767143Y-108680819D02*
X171005238Y-108680819D01*
X171005238Y-108680819D02*
X171148095Y-108728438D01*
X171481429Y-108680819D02*
X171719524Y-109680819D01*
X171719524Y-109680819D02*
X171910000Y-108966533D01*
X171910000Y-108966533D02*
X172100476Y-109680819D01*
X172100476Y-109680819D02*
X172338572Y-108680819D01*
X172624286Y-108680819D02*
X173243333Y-108680819D01*
X173243333Y-108680819D02*
X172910000Y-109061771D01*
X172910000Y-109061771D02*
X173052857Y-109061771D01*
X173052857Y-109061771D02*
X173148095Y-109109390D01*
X173148095Y-109109390D02*
X173195714Y-109157009D01*
X173195714Y-109157009D02*
X173243333Y-109252247D01*
X173243333Y-109252247D02*
X173243333Y-109490342D01*
X173243333Y-109490342D02*
X173195714Y-109585580D01*
X173195714Y-109585580D02*
X173148095Y-109633200D01*
X173148095Y-109633200D02*
X173052857Y-109680819D01*
X173052857Y-109680819D02*
X172767143Y-109680819D01*
X172767143Y-109680819D02*
X172671905Y-109633200D01*
X172671905Y-109633200D02*
X172624286Y-109585580D01*
D10*
%TO.C,U2*%
X138538740Y-114498740D02*
X138538740Y-124501260D01*
X138538740Y-124501260D02*
X148541260Y-124501260D01*
D18*
X142038860Y-117998860D02*
X145041140Y-117998860D01*
X142038860Y-121001140D02*
X142038860Y-117998860D01*
D19*
X143540000Y-117000000D02*
X143540000Y-118000000D01*
D18*
X145041140Y-117998860D02*
X145041140Y-121001140D01*
X145041140Y-121001140D02*
X142038860Y-121001140D01*
D10*
X148541260Y-114498740D02*
X138538740Y-114498740D01*
X148541260Y-124501260D02*
X148541260Y-114498740D01*
D18*
X146245162Y-119500000D02*
G75*
G02*
X140834838Y-119500000I-2705162J0D01*
G01*
X140834838Y-119500000D02*
G75*
G02*
X146245162Y-119500000I2705162J0D01*
G01*
D20*
%TO.C,SW12*%
X137430000Y-58390000D02*
X137430000Y-60900000D01*
X137430000Y-58390000D02*
X149650000Y-58390000D01*
X137430000Y-63200000D02*
X137430000Y-65800000D01*
X137430000Y-68100000D02*
X137430000Y-70610000D01*
X149650000Y-58390000D02*
X149650000Y-60900000D01*
X149650000Y-63200000D02*
X149650000Y-65800000D01*
X149650000Y-68100000D02*
X149650000Y-70610000D01*
X149650000Y-70610000D02*
X137430000Y-70610000D01*
X147090000Y-64500000D02*
G75*
G02*
X139990000Y-64500000I-3550000J0D01*
G01*
X139990000Y-64500000D02*
G75*
G02*
X147090000Y-64500000I3550000J0D01*
G01*
D21*
%TO.C,REF\u002A\u002A*%
X227790000Y-128250000D02*
G75*
G02*
X220790000Y-128250000I-3500000J0D01*
G01*
X220790000Y-128250000D02*
G75*
G02*
X227790000Y-128250000I3500000J0D01*
G01*
X134290000Y-128250000D02*
G75*
G02*
X127290000Y-128250000I-3500000J0D01*
G01*
X127290000Y-128250000D02*
G75*
G02*
X134290000Y-128250000I3500000J0D01*
G01*
X134290000Y-44750000D02*
G75*
G02*
X127290000Y-44750000I-3500000J0D01*
G01*
X127290000Y-44750000D02*
G75*
G02*
X134290000Y-44750000I3500000J0D01*
G01*
D20*
%TO.C,SW8*%
X216995000Y-105035000D02*
X203025000Y-105035000D01*
X216995000Y-91065000D02*
X216995000Y-105035000D01*
X203025000Y-105035000D02*
X203025000Y-91065000D01*
X203025000Y-91065000D02*
X216995000Y-91065000D01*
%TO.C,SW11*%
X135740000Y-78400000D02*
X136340000Y-78400000D01*
X136040000Y-78700000D02*
X135740000Y-78400000D01*
X136340000Y-78400000D02*
X136040000Y-78700000D01*
X137440000Y-76600000D02*
X137440000Y-88400000D01*
X141540000Y-76600000D02*
X137440000Y-76600000D01*
X141540000Y-88400000D02*
X137440000Y-88400000D01*
X143040000Y-82500000D02*
X144040000Y-82500000D01*
X143540000Y-82000000D02*
X143540000Y-83000000D01*
X145540000Y-76600000D02*
X149640000Y-76600000D01*
X149640000Y-76600000D02*
X149640000Y-79000000D01*
X149640000Y-81200000D02*
X149640000Y-83800000D01*
X149640000Y-86000000D02*
X149640000Y-88400000D01*
X149640000Y-88400000D02*
X145540000Y-88400000D01*
X146540000Y-82500000D02*
G75*
G02*
X140540000Y-82500000I-3000000J0D01*
G01*
X140540000Y-82500000D02*
G75*
G02*
X146540000Y-82500000I3000000J0D01*
G01*
%TO.C,SW4*%
X197945000Y-85985000D02*
X183975000Y-85985000D01*
X197945000Y-72015000D02*
X197945000Y-85985000D01*
X183975000Y-85985000D02*
X183975000Y-72015000D01*
X183975000Y-72015000D02*
X197945000Y-72015000D01*
%TO.C,SW2*%
X178895000Y-105035000D02*
X164925000Y-105035000D01*
X178895000Y-91065000D02*
X178895000Y-105035000D01*
X164925000Y-105035000D02*
X164925000Y-91065000D01*
X164925000Y-91065000D02*
X178895000Y-91065000D01*
%TO.C,SW10*%
X135740000Y-97400000D02*
X136340000Y-97400000D01*
X136040000Y-97700000D02*
X135740000Y-97400000D01*
X136340000Y-97400000D02*
X136040000Y-97700000D01*
X137440000Y-95600000D02*
X137440000Y-107400000D01*
X141540000Y-95600000D02*
X137440000Y-95600000D01*
X141540000Y-107400000D02*
X137440000Y-107400000D01*
X143040000Y-101500000D02*
X144040000Y-101500000D01*
X143540000Y-101000000D02*
X143540000Y-102000000D01*
X145540000Y-95600000D02*
X149640000Y-95600000D01*
X149640000Y-95600000D02*
X149640000Y-98000000D01*
X149640000Y-100200000D02*
X149640000Y-102800000D01*
X149640000Y-105000000D02*
X149640000Y-107400000D01*
X149640000Y-107400000D02*
X145540000Y-107400000D01*
X146540000Y-101500000D02*
G75*
G02*
X140540000Y-101500000I-3000000J0D01*
G01*
X140540000Y-101500000D02*
G75*
G02*
X146540000Y-101500000I3000000J0D01*
G01*
%TO.C,SW5*%
X197945000Y-105035000D02*
X183975000Y-105035000D01*
X197945000Y-91065000D02*
X197945000Y-105035000D01*
X183975000Y-105035000D02*
X183975000Y-91065000D01*
X183975000Y-91065000D02*
X197945000Y-91065000D01*
%TO.C,J1*%
X172334936Y-53455958D02*
X172334936Y-45775958D01*
X174994936Y-45775958D02*
X172334936Y-45775958D01*
X174994936Y-53455958D02*
X172334936Y-53455958D01*
X174994936Y-53455958D02*
X174994936Y-45775958D01*
X174994936Y-54725958D02*
X174994936Y-56055958D01*
X174994936Y-56055958D02*
X173664936Y-56055958D01*
D13*
X175164936Y-56915958D02*
X173664936Y-56915958D01*
X175164936Y-56915958D02*
X137164936Y-56915958D01*
X137164936Y-44915958D01*
X175164936Y-44915958D01*
X175164936Y-56915958D01*
D20*
%TO.C,SW7*%
X216995000Y-85985000D02*
X203025000Y-85985000D01*
X216995000Y-72015000D02*
X216995000Y-85985000D01*
X203025000Y-85985000D02*
X203025000Y-72015000D01*
X203025000Y-72015000D02*
X216995000Y-72015000D01*
%TO.C,SW6*%
X197945000Y-124085000D02*
X183975000Y-124085000D01*
X197945000Y-110115000D02*
X197945000Y-124085000D01*
X183975000Y-124085000D02*
X183975000Y-110115000D01*
X183975000Y-110115000D02*
X197945000Y-110115000D01*
%TO.C,SW9*%
X216995000Y-124085000D02*
X203025000Y-124085000D01*
X216995000Y-110115000D02*
X216995000Y-124085000D01*
X203025000Y-124085000D02*
X203025000Y-110115000D01*
X203025000Y-110115000D02*
X216995000Y-110115000D01*
%TO.C,SW1*%
X178895000Y-85985000D02*
X164925000Y-85985000D01*
X178895000Y-72015000D02*
X178895000Y-85985000D01*
X164925000Y-85985000D02*
X164925000Y-72015000D01*
X164925000Y-72015000D02*
X178895000Y-72015000D01*
%TO.C,U1*%
X176212000Y-51717000D02*
X176212000Y-44917000D01*
X176212000Y-53917000D02*
X176212000Y-54317000D01*
X176212000Y-56517000D02*
X176212000Y-56917000D01*
X176212000Y-65917000D02*
X176212000Y-59117000D01*
X179012000Y-44917000D02*
X178612000Y-44917000D01*
X179012000Y-65917000D02*
X178612000Y-65917000D01*
X181612000Y-44917000D02*
X181212000Y-44917000D01*
X181612000Y-65917000D02*
X181212000Y-65917000D01*
X184112000Y-44917000D02*
X183712000Y-44917000D01*
X184112000Y-65917000D02*
X183712000Y-65917000D01*
X186612000Y-44917000D02*
X186212000Y-44917000D01*
X186612000Y-65917000D02*
X186212000Y-65917000D01*
X189212000Y-44917000D02*
X188812000Y-44917000D01*
X189212000Y-65917000D02*
X188812000Y-65917000D01*
X191712000Y-44917000D02*
X191312000Y-44917000D01*
X191712000Y-65917000D02*
X191312000Y-65917000D01*
X194312000Y-44917000D02*
X193912000Y-44917000D01*
X194312000Y-65917000D02*
X193912000Y-65917000D01*
X196812000Y-44917000D02*
X196412000Y-44917000D01*
X196812000Y-65917000D02*
X196412000Y-65917000D01*
X199412000Y-44917000D02*
X199012000Y-44917000D01*
X199412000Y-65917000D02*
X199012000Y-65917000D01*
X201912000Y-44917000D02*
X201512000Y-44917000D01*
X201912000Y-65917000D02*
X201512000Y-65917000D01*
X204412000Y-44917000D02*
X204012000Y-44917000D01*
X204412000Y-65917000D02*
X204012000Y-65917000D01*
X207012000Y-44917000D02*
X206612000Y-44917000D01*
X207012000Y-65917000D02*
X206612000Y-65917000D01*
X209512000Y-44917000D02*
X209112000Y-44917000D01*
X209512000Y-65917000D02*
X209112000Y-65917000D01*
X212112000Y-44917000D02*
X211712000Y-44917000D01*
X212112000Y-65917000D02*
X211712000Y-65917000D01*
X214612000Y-44917000D02*
X214212000Y-44917000D01*
X214612000Y-65917000D02*
X214212000Y-65917000D01*
X217112000Y-44917000D02*
X216712000Y-44917000D01*
X217112000Y-65917000D02*
X216712000Y-65917000D01*
X219712000Y-44917000D02*
X219312000Y-44917000D01*
X219712000Y-65917000D02*
X219312000Y-65917000D01*
X222212000Y-44917000D02*
X221812000Y-44917000D01*
X222212000Y-65917000D02*
X221812000Y-65917000D01*
X224545000Y-44917000D02*
X224545000Y-47924000D01*
X224545000Y-47924000D02*
X227212000Y-47924000D01*
X224812000Y-44917000D02*
X224412000Y-44917000D01*
X224812000Y-65917000D02*
X224412000Y-65917000D01*
X227212000Y-44917000D02*
X226912000Y-44917000D01*
X227212000Y-44917000D02*
X227212000Y-65917000D01*
X227212000Y-65917000D02*
X226912000Y-65917000D01*
%TO.C,SW3*%
X178895000Y-124085000D02*
X164925000Y-124085000D01*
X178895000Y-110115000D02*
X178895000Y-124085000D01*
X164925000Y-124085000D02*
X164925000Y-110115000D01*
X164925000Y-110115000D02*
X178895000Y-110115000D01*
%TD*%
D22*
%TO.C,U2*%
X138388880Y-116248800D03*
D23*
X138388880Y-119950000D03*
D22*
X138388880Y-122751200D03*
X148691120Y-122751200D03*
D23*
X148691120Y-119950000D03*
D22*
X148691120Y-116248800D03*
%TD*%
M02*
