%TF.GenerationSoftware,KiCad,Pcbnew,8.0.3*%
%TF.CreationDate,2024-07-24T11:50:32-04:00*%
%TF.ProjectId,macropad,6d616372-6f70-4616-942e-6b696361645f,1.0*%
%TF.SameCoordinates,Original*%
%TF.FileFunction,Soldermask,Top*%
%TF.FilePolarity,Negative*%
%FSLAX46Y46*%
G04 Gerber Fmt 4.6, Leading zero omitted, Abs format (unit mm)*
G04 Created by KiCad (PCBNEW 8.0.3) date 2024-07-24 11:50:32*
%MOMM*%
%LPD*%
G01*
G04 APERTURE LIST*
%ADD10C,3.429000*%
%ADD11C,2.032000*%
%ADD12C,0.990600*%
%ADD13C,1.701800*%
%ADD14C,2.000000*%
%ADD15R,3.200000X2.000000*%
%ADD16C,1.700000*%
%ADD17O,1.700000X1.700000*%
%ADD18R,1.700000X1.700000*%
%ADD19O,3.200000X1.900000*%
%ADD20R,1.700000X3.500000*%
%ADD21O,2.499360X1.800860*%
%ADD22O,1.998980X1.600200*%
G04 APERTURE END LIST*
D10*
%TO.C,SW5*%
X193500000Y-96800000D03*
D11*
X188500000Y-100600000D03*
X193500000Y-102700000D03*
D12*
X198720000Y-92600000D03*
D13*
X199000000Y-96800000D03*
X188000000Y-96800000D03*
%TD*%
D10*
%TO.C,SW9*%
X212550000Y-115850000D03*
D11*
X207550000Y-119650000D03*
X212550000Y-121750000D03*
D12*
X217770000Y-111650000D03*
D13*
X218050000Y-115850000D03*
X207050000Y-115850000D03*
%TD*%
D10*
%TO.C,SW8*%
X212550000Y-96800000D03*
D11*
X207550000Y-100600000D03*
X212550000Y-102700000D03*
D12*
X217770000Y-92600000D03*
D13*
X218050000Y-96800000D03*
X207050000Y-96800000D03*
%TD*%
%TO.C,SW7*%
X207050000Y-77750000D03*
X218050000Y-77750000D03*
D12*
X217770000Y-73550000D03*
D11*
X212550000Y-83650000D03*
X207550000Y-81550000D03*
D10*
X212550000Y-77750000D03*
%TD*%
%TO.C,SW6*%
X193500000Y-115850000D03*
D11*
X188500000Y-119650000D03*
X193500000Y-121750000D03*
D12*
X198720000Y-111650000D03*
D13*
X199000000Y-115850000D03*
X188000000Y-115850000D03*
%TD*%
D10*
%TO.C,SW3*%
X174450000Y-115850000D03*
D11*
X169450000Y-119650000D03*
X174450000Y-121750000D03*
D12*
X179670000Y-111650000D03*
D13*
X179950000Y-115850000D03*
X168950000Y-115850000D03*
%TD*%
D10*
%TO.C,SW2*%
X174450000Y-96800000D03*
D11*
X169450000Y-100600000D03*
X174450000Y-102700000D03*
D12*
X179670000Y-92600000D03*
D13*
X179950000Y-96800000D03*
X168950000Y-96800000D03*
%TD*%
D10*
%TO.C,SW1*%
X174450000Y-77750000D03*
D11*
X169450000Y-81550000D03*
X174450000Y-83650000D03*
D12*
X179670000Y-73550000D03*
D13*
X179950000Y-77750000D03*
X168950000Y-77750000D03*
%TD*%
D14*
%TO.C,SW11*%
X136040000Y-80000000D03*
X136040000Y-85000000D03*
X136040000Y-82500000D03*
D15*
X143540000Y-76900000D03*
X143540000Y-88100000D03*
D14*
X150540000Y-85000000D03*
X150540000Y-80000000D03*
%TD*%
%TO.C,SW10*%
X136040000Y-99000000D03*
X136040000Y-104000000D03*
X136040000Y-101500000D03*
D15*
X143540000Y-95900000D03*
X143540000Y-107100000D03*
D14*
X150540000Y-104000000D03*
X150540000Y-99000000D03*
%TD*%
D16*
%TO.C,J1*%
X173664936Y-54725958D03*
X173664936Y-52185958D03*
D17*
X173664936Y-49645958D03*
D18*
X173664936Y-47105958D03*
%TD*%
D19*
%TO.C,SW12*%
X137290000Y-62000000D03*
X149790000Y-62000000D03*
X137290000Y-67000000D03*
X149790000Y-67000000D03*
%TD*%
D17*
%TO.C,U1*%
X225842000Y-46527000D03*
D20*
X225842000Y-45627000D03*
D17*
X223302000Y-46527000D03*
D20*
X223302000Y-45627000D03*
D18*
X220762000Y-46527000D03*
D20*
X220762000Y-45627000D03*
D17*
X218222000Y-46527000D03*
D20*
X218222000Y-45627000D03*
D17*
X215682000Y-46527000D03*
D20*
X215682000Y-45627000D03*
D17*
X213142000Y-46527000D03*
D20*
X213142000Y-45627000D03*
D17*
X210602000Y-46527000D03*
D20*
X210602000Y-45627000D03*
D18*
X208062000Y-46527000D03*
D20*
X208062000Y-45627000D03*
D17*
X205522000Y-46527000D03*
D20*
X205522000Y-45627000D03*
D17*
X202982000Y-46527000D03*
D20*
X202982000Y-45627000D03*
D17*
X200442000Y-46527000D03*
D20*
X200442000Y-45627000D03*
D17*
X197902000Y-46527000D03*
D20*
X197902000Y-45627000D03*
D18*
X195362000Y-46527000D03*
D20*
X195362000Y-45627000D03*
D17*
X192822000Y-46527000D03*
D20*
X192822000Y-45627000D03*
D17*
X190282000Y-46527000D03*
D20*
X190282000Y-45627000D03*
D17*
X187742000Y-46527000D03*
D20*
X187742000Y-45627000D03*
D17*
X185202000Y-46527000D03*
D20*
X185202000Y-45627000D03*
D18*
X182662000Y-46527000D03*
D20*
X182662000Y-45627000D03*
D17*
X180122000Y-46527000D03*
D20*
X180122000Y-45627000D03*
D17*
X177582000Y-46527000D03*
D20*
X177582000Y-45627000D03*
D17*
X177582000Y-64307000D03*
D20*
X177582000Y-65207000D03*
D17*
X180122000Y-64307000D03*
D20*
X180122000Y-65207000D03*
D18*
X182662000Y-64307000D03*
D20*
X182662000Y-65207000D03*
D17*
X185202000Y-64307000D03*
D20*
X185202000Y-65207000D03*
D17*
X187742000Y-64307000D03*
D20*
X187742000Y-65207000D03*
D17*
X190282000Y-64307000D03*
D20*
X190282000Y-65207000D03*
D17*
X192822000Y-64307000D03*
D20*
X192822000Y-65207000D03*
D18*
X195362000Y-64307000D03*
D20*
X195362000Y-65207000D03*
D17*
X197902000Y-64307000D03*
D20*
X197902000Y-65207000D03*
D17*
X200442000Y-64307000D03*
D20*
X200442000Y-65207000D03*
D17*
X202982000Y-64307000D03*
D20*
X202982000Y-65207000D03*
D17*
X205522000Y-64307000D03*
D20*
X205522000Y-65207000D03*
D18*
X208062000Y-64307000D03*
D20*
X208062000Y-65207000D03*
D17*
X210602000Y-64307000D03*
D20*
X210602000Y-65207000D03*
D17*
X213142000Y-64307000D03*
D20*
X213142000Y-65207000D03*
D17*
X215682000Y-64307000D03*
D20*
X215682000Y-65207000D03*
D17*
X218222000Y-64307000D03*
D20*
X218222000Y-65207000D03*
D18*
X220762000Y-64307000D03*
D20*
X220762000Y-65207000D03*
D17*
X223302000Y-64307000D03*
D20*
X223302000Y-65207000D03*
D17*
X225842000Y-64307000D03*
D20*
X225842000Y-65207000D03*
%TD*%
D21*
%TO.C,U2*%
X138388880Y-116248800D03*
D22*
X138388880Y-119950000D03*
D21*
X138388880Y-122751200D03*
X148691120Y-122751200D03*
D22*
X148691120Y-119950000D03*
D21*
X148691120Y-116248800D03*
%TD*%
D10*
%TO.C,SW4*%
X193500000Y-77750000D03*
D11*
X188500000Y-81550000D03*
X193500000Y-83650000D03*
D12*
X198720000Y-73550000D03*
D13*
X199000000Y-77750000D03*
X188000000Y-77750000D03*
%TD*%
M02*
