M48
; DRILL file {KiCad 8.0.3} date 2024-07-07T11:24:23-0400
; FORMAT={-:-/ absolute / inch / decimal}
; #@! TF.CreationDate,2024-07-07T11:24:23-04:00
; #@! TF.GenerationSoftware,Kicad,Pcbnew,8.0.3
; #@! TF.FileFunction,NonPlated,1,2,NPTH
FMAT,2
INCH
; #@! TA.AperFunction,NonPlated,NPTH,ComponentDrill
T1C0.0669
; #@! TA.AperFunction,NonPlated,NPTH,ComponentDrill
T2C0.1575
%
G90
G05
T1
X6.5681Y-3.1102
X6.5681Y-3.8602
X6.5681Y-4.6102
X6.9681Y-3.1102
X6.9681Y-3.8602
X6.9681Y-4.6102
X7.3181Y-3.1102
X7.3181Y-3.8602
X7.3181Y-4.6102
X7.7181Y-3.1102
X7.7181Y-3.8602
X7.7181Y-4.6102
X8.0681Y-3.1102
X8.0681Y-3.8602
X8.0681Y-4.6102
X8.4681Y-3.1102
X8.4681Y-3.8602
X8.4681Y-4.6102
T2
X6.7681Y-3.1102
X6.7681Y-3.8602
X6.7681Y-4.6102
X7.5181Y-3.1102
X7.5181Y-3.8602
X7.5181Y-4.6102
X8.2681Y-3.1102
X8.2681Y-3.8602
X8.2681Y-4.6102
M30
